<?xml version="1.0" encoding="UTF-8" standalone="no"?>
<!-- Created with Inkscape (http://www.inkscape.org/) -->

<svg
   width="140.00002mm"
   height="90.000031mm"
   viewBox="0 0 140.00002 90.000031"
   version="1.1"
   id="svg1"
   sodipodi:docname="Cat.svg"
   inkscape:version="1.4 (86a8ad7, 2024-10-11)"
   xmlns:inkscape="http://www.inkscape.org/namespaces/inkscape"
   xmlns:sodipodi="http://sodipodi.sourceforge.net/DTD/sodipodi-0.dtd"
   xmlns="http://www.w3.org/2000/svg"
   xmlns:svg="http://www.w3.org/2000/svg">
  <sodipodi:namedview
     id="namedview1"
     pagecolor="#ffffff"
     bordercolor="#000000"
     borderopacity="0.25"
     inkscape:showpageshadow="2"
     inkscape:pageopacity="0.0"
     inkscape:pagecheckerboard="0"
     inkscape:deskcolor="#d1d1d1"
     inkscape:document-units="mm"
     inkscape:zoom="0.93806818"
     inkscape:cx="132.71956"
     inkscape:cy="290.49061"
     inkscape:window-width="2400"
     inkscape:window-height="1271"
     inkscape:window-x="3191"
     inkscape:window-y="-9"
     inkscape:window-maximized="1"
     inkscape:current-layer="layer1" />
  <defs
     id="defs1">
    <inkscape:path-effect
       is_visible="true"
       id="path-effect3942-31"
       effect="spiro"
       lpeversion="0" />
    <inkscape:path-effect
       is_visible="true"
       id="path-effect1"
       effect="spiro"
       lpeversion="0" />
    <inkscape:path-effect
       is_visible="true"
       id="path-effect2"
       effect="spiro"
       lpeversion="0" />
    <inkscape:path-effect
       is_visible="true"
       id="path-effect3"
       effect="spiro"
       lpeversion="0" />
    <inkscape:path-effect
       is_visible="true"
       id="path-effect4"
       effect="spiro"
       lpeversion="0" />
    <inkscape:path-effect
       is_visible="true"
       id="path-effect5"
       effect="spiro"
       lpeversion="0" />
    <inkscape:path-effect
       is_visible="true"
       id="path-effect6"
       effect="spiro"
       lpeversion="0" />
    <inkscape:path-effect
       is_visible="true"
       id="path-effect7"
       effect="spiro"
       lpeversion="0" />
    <inkscape:path-effect
       is_visible="true"
       id="path-effect8"
       effect="spiro"
       lpeversion="0" />
    <inkscape:path-effect
       is_visible="true"
       id="path-effect9"
       effect="spiro"
       lpeversion="0" />
    <inkscape:path-effect
       is_visible="true"
       id="path-effect10"
       effect="spiro"
       lpeversion="0" />
    <inkscape:path-effect
       is_visible="true"
       id="path-effect11"
       effect="spiro"
       lpeversion="0" />
    <inkscape:path-effect
       is_visible="true"
       id="path-effect12"
       effect="spiro"
       lpeversion="0" />
    <inkscape:path-effect
       is_visible="true"
       id="path-effect13"
       effect="spiro"
       lpeversion="0" />
    <inkscape:path-effect
       is_visible="true"
       id="path-effect14"
       effect="spiro"
       lpeversion="0" />
    <inkscape:path-effect
       is_visible="true"
       id="path-effect15"
       effect="spiro"
       lpeversion="0" />
    <inkscape:path-effect
       is_visible="true"
       id="path-effect16"
       effect="spiro"
       lpeversion="0" />
    <inkscape:path-effect
       is_visible="true"
       id="path-effect17"
       effect="spiro"
       lpeversion="0" />
    <inkscape:path-effect
       is_visible="true"
       id="path-effect18"
       effect="spiro"
       lpeversion="0" />
    <inkscape:path-effect
       is_visible="true"
       id="path-effect1365-49"
       effect="spiro"
       lpeversion="0" />
    <inkscape:path-effect
       is_visible="true"
       id="path-effect1367-4"
       effect="spiro"
       lpeversion="0" />
    <inkscape:path-effect
       is_visible="true"
       id="path-effect1369-8"
       effect="spiro"
       lpeversion="0" />
    <inkscape:path-effect
       is_visible="true"
       id="path-effect1371-66"
       effect="spiro"
       lpeversion="0" />
    <inkscape:path-effect
       is_visible="true"
       id="path-effect1373-58"
       effect="spiro"
       lpeversion="0" />
    <inkscape:path-effect
       is_visible="true"
       id="path-effect1375-6"
       effect="spiro"
       lpeversion="0" />
    <inkscape:path-effect
       is_visible="true"
       id="path-effect1377-19"
       effect="spiro"
       lpeversion="0" />
    <inkscape:path-effect
       is_visible="true"
       id="path-effect1379-5"
       effect="spiro"
       lpeversion="0" />
    <inkscape:path-effect
       is_visible="true"
       id="path-effect1381-99"
       effect="spiro"
       lpeversion="0" />
    <inkscape:path-effect
       is_visible="true"
       id="path-effect1383-46"
       effect="spiro"
       lpeversion="0" />
    <inkscape:path-effect
       is_visible="true"
       id="path-effect1385-68"
       effect="spiro"
       lpeversion="0" />
    <inkscape:path-effect
       is_visible="true"
       id="path-effect1387-6"
       effect="spiro"
       lpeversion="0" />
    <inkscape:path-effect
       is_visible="true"
       id="path-effect1389-62"
       effect="spiro"
       lpeversion="0" />
    <inkscape:path-effect
       is_visible="true"
       id="path-effect1391-27"
       effect="spiro"
       lpeversion="0" />
    <inkscape:path-effect
       is_visible="true"
       id="path-effect1393-96"
       effect="spiro"
       lpeversion="0" />
    <inkscape:path-effect
       is_visible="true"
       id="path-effect1395-48"
       effect="spiro"
       lpeversion="0" />
    <inkscape:path-effect
       is_visible="true"
       id="path-effect1397-457"
       effect="spiro"
       lpeversion="0" />
    <inkscape:path-effect
       is_visible="true"
       id="path-effect1399-38"
       effect="spiro"
       lpeversion="0" />
    <inkscape:path-effect
       is_visible="true"
       id="path-effect1401-4"
       effect="spiro"
       lpeversion="0" />
  </defs>
  <g
     inkscape:label="Layer 1"
     inkscape:groupmode="layer"
     id="layer1"
     transform="translate(-69.99999,-206.99997)">
    <g
       id="g2"
       transform="matrix(4.0002463,0,0,4.0002463,-263.65579,319.60277)">
      <path
         style="display:inline;fill:#000000;stroke-width:0.164039"
         d="m 112.57824,-7.5263982 c -0.0495,-0.062895 -0.0899,-0.1478979 -0.0899,-0.1888905 0,-0.1106802 0.17796,-0.3543283 0.33716,-0.4616035 0.32137,-0.2165805 1.1154,-0.2466606 1.97373,-0.074768 0.61845,0.1238578 1.12555,0.1505778 1.27725,0.067303 0.26295,-0.1443528 0.31167,-0.3557108 0.10647,-0.461826 -0.0995,-0.051425 -0.36885,-0.067355 -1.3273,-0.078488 -1.1631,-0.013525 -1.20493,-0.016975 -1.27495,-0.1055277 -0.0538,-0.067973 -0.0948,-0.08237 -0.1592,-0.055885 -0.15473,0.06359 -0.55935,0.046863 -0.66555,-0.027518 -0.1456,-0.1019778 -0.1084,-0.2445681 0.0796,-0.3052383 0.14395,-0.046453 0.15378,-0.062328 0.1879,-0.3031507 0.0207,-0.1465978 0.0173,-0.4777861 -0.008,-0.7826871 -0.0401,-0.480556 -0.0659,-0.586252 -0.28405,-1.163898 -0.3106,-0.822494 -0.35828,-1.075286 -0.26095,-1.384038 0.067,-0.212368 0.0672,-0.241336 0.004,-0.357446 -0.1906,-0.347721 -0.20865,-0.41615 -0.18085,-0.685197 0.0187,-0.180237 0.005,-0.36125 -0.0423,-0.562353 -0.0684,-0.290576 -0.0589,-0.462971 0.0254,-0.462971 0.0233,0 0.14405,0.07441 0.26835,0.16536 0.21695,0.158748 0.23938,0.165241 0.56078,0.16234 0.31817,-0.0029 0.34585,-0.01125 0.55675,-0.168715 0.34227,-0.255531 0.41172,-0.17001 0.27767,0.341868 -0.10597,0.404604 -0.0541,0.711902 0.1806,1.070735 0.16648,0.254461 0.21383,0.297123 0.3752,0.337891 0.42083,0.106328 0.57793,0.19128 0.83668,0.452481 0.28893,0.291668 0.4726,0.60788 0.65745,1.131898 0.1178,0.334001 0.12258,0.379381 0.125,1.192382 l 0.002,0.845168 0.2477,0.1562903 c 0.3406,0.214908 0.49315,0.3708359 0.57663,0.5893939 0.0995,0.2605531 0.0534,0.4575185 -0.15623,0.667119 -0.35405,0.3540484 -1.0891,0.4432311 -1.95317,0.2369756 -0.61983,-0.1479554 -1.32043,-0.188003 -1.57671,-0.09013 -0.1547,0.059085 -0.20335,0.1052602 -0.2583,0.245138 -0.058,0.1476554 -0.0864,0.1723429 -0.19825,0.1723429 -0.0893,0 -0.15895,-0.036098 -0.2205,-0.1143577 z"
         id="path1" />
      <path
         style="fill:#000000;stroke-width:0.0623849"
         d="m 88.065788,-7.6004359 c -0.11755,-0.03335 -0.235625,-0.1963305 -0.250851,-0.3463008 -0.01075,-0.1064202 0.02325,-0.2111405 0.138926,-0.428436 0.169825,-0.3187782 0.295826,-0.4568436 0.494101,-0.5413613 0.301601,-0.1285527 0.621651,-0.018075 0.965052,0.3331183 0.194951,0.1993705 0.287651,0.3831809 0.264901,0.5252212 -0.0263,0.1642079 -0.137876,0.2608231 -0.324801,0.2812532 -0.08678,0.00948 -0.1325,0.00275 -0.269001,-0.039655 -0.256775,-0.079768 -0.344675,-0.06217 -0.726851,0.1455078 -0.135401,0.073565 -0.214026,0.092625 -0.291476,0.070653 z m -0.535701,-0.7791093 c -0.111525,-0.038778 -0.244251,-0.1594504 -0.302676,-0.2752156 -0.05558,-0.1101103 -0.09245,-0.3132658 -0.0729,-0.4016635 0.01875,-0.08446 0.08742,-0.1776604 0.152475,-0.2067155 0.248251,-0.1108527 0.686652,0.3073333 0.649902,0.6199215 -0.02668,0.226993 -0.208751,0.3394808 -0.426801,0.2636731 z m 1.990754,-0.234838 c -0.096,-0.038845 -0.172325,-0.1264103 -0.20395,-0.2339256 -0.06165,-0.2097305 0.031,-0.5228737 0.199025,-0.6726841 0.05,-0.044573 0.07993,-0.05786 0.145176,-0.064488 0.107025,-0.010875 0.178925,0.0323 0.25385,0.1524379 0.05072,0.081325 0.05768,0.1061977 0.07348,0.2622781 0.0215,0.213178 -0.0037,0.3065032 -0.120151,0.4412785 -0.1152,0.1334478 -0.217975,0.1674954 -0.347426,0.1151028 z m -0.678076,-0.5627039 c -0.192001,-0.061443 -0.300276,-0.3578108 -0.240276,-0.657594 0.04692,-0.2343209 0.151026,-0.3720979 0.291901,-0.3862829 0.135275,-0.01363 0.251576,0.07554 0.325876,0.2498576 0.08303,0.1947455 0.07115,0.442501 -0.03045,0.635154 -0.06895,0.1307678 -0.219501,0.1996854 -0.347051,0.1588653 z m -0.847102,0.042818 c -0.09002,-0.052235 -0.190926,-0.1729679 -0.248026,-0.2968206 -0.08537,-0.185158 -0.08085,-0.4572511 0.0097,-0.5843013 0.114526,-0.160636 0.262051,-0.168676 0.426251,-0.02323 0.263151,0.2330739 0.339726,0.71704 0.139776,0.8834754 -0.03933,0.03274 -0.07448,0.044895 -0.152926,0.05286 -0.08708,0.00885 -0.1124,0.0042 -0.1748,-0.031985 z"
         id="path2-7" />
      <path
         style="display:inline;fill:#000000;stroke-width:0.0631254"
         d="m 85.118881,-11.177179 c -0.09215,-0.08245 -0.127275,-0.283038 -0.07465,-0.426199 0.03735,-0.101585 0.114675,-0.181785 0.316301,-0.32811 0.2958,-0.214663 0.471626,-0.284376 0.689451,-0.273349 0.331301,0.01677 0.573452,0.259166 0.730102,0.730845 0.08893,0.26777 0.09175,0.476058 0.008,0.595163 -0.09675,0.137696 -0.24105,0.176111 -0.420126,0.111831 -0.08315,-0.02985 -0.12175,-0.05625 -0.2271,-0.155333 -0.198201,-0.186393 -0.285951,-0.209358 -0.725652,-0.189896 -0.15575,0.0069 -0.235726,-0.01062 -0.296426,-0.06495 z m -0.14185,-0.946157 c -0.08427,-0.08472 -0.151475,-0.253318 -0.1533,-0.384519 -0.0025,-0.12479 0.0548,-0.325926 0.11175,-0.397666 0.05443,-0.06855 0.158275,-0.122837 0.23035,-0.12042 0.274951,0.0092 0.488326,0.583964 0.316301,0.851994 -0.1249,0.194636 -0.340401,0.216228 -0.505101,0.05061 z m 1.914829,0.668971 c -0.07007,-0.07789 -0.1007,-0.191378 -0.08177,-0.303186 0.0369,-0.2181 0.260001,-0.461853 0.479251,-0.523618 0.06525,-0.01837 0.09835,-0.0172 0.160651,0.0057 0.10215,0.03756 0.1484,0.108695 0.1633,0.251188 0.01,0.09646 0.0055,0.122173 -0.04945,0.27114 -0.07488,0.203466 -0.139375,0.277086 -0.304926,0.348101 -0.163925,0.07032 -0.2725,0.05572 -0.367051,-0.04933 z m -0.367275,-0.812439 c -0.147401,-0.141006 -0.114501,-0.458581 0.073,-0.704647 0.14655,-0.192333 0.302325,-0.271498 0.436726,-0.221955 0.1291,0.04758 0.19535,0.180253 0.18565,0.371745 -0.01075,0.213938 -0.131475,0.434026 -0.309276,0.564224 -0.120675,0.08838 -0.288175,0.08431 -0.3861,-0.0094 z m -0.789477,-0.336604 c -0.05875,-0.08742 -0.09698,-0.241968 -0.09403,-0.37994 0.0045,-0.206266 0.129176,-0.451749 0.267901,-0.527157 0.175375,-0.09534 0.313126,-0.03725 0.398001,0.167848 0.136025,0.328659 -0.009,0.802807 -0.264526,0.865555 -0.0503,0.01235 -0.08767,0.0078 -0.162525,-0.01972 -0.08315,-0.03057 -0.104125,-0.04601 -0.144825,-0.106591 z"
         id="path2-8"
         inkscape:transform-center-x="3.8968283"
         inkscape:transform-center-y="1.9484149" />
    </g>
  </g>
</svg>
