<?xml version="1.0" encoding="UTF-8" standalone="no"?>
<!-- Created with Inkscape (http://www.inkscape.org/) -->

<svg
   width="139.99998mm"
   height="90mm"
   viewBox="0 0 139.99998 90"
   version="1.1"
   id="svg1"
   inkscape:version="1.4 (86a8ad7, 2024-10-11)"
   sodipodi:docname="Celtic.svg"
   xmlns:inkscape="http://www.inkscape.org/namespaces/inkscape"
   xmlns:sodipodi="http://sodipodi.sourceforge.net/DTD/sodipodi-0.dtd"
   xmlns="http://www.w3.org/2000/svg"
   xmlns:svg="http://www.w3.org/2000/svg">
  <sodipodi:namedview
     id="namedview1"
     pagecolor="#ffffff"
     bordercolor="#000000"
     borderopacity="0.25"
     inkscape:showpageshadow="2"
     inkscape:pageopacity="0.0"
     inkscape:pagecheckerboard="0"
     inkscape:deskcolor="#d1d1d1"
     inkscape:document-units="mm"
     inkscape:zoom="1.3266287"
     inkscape:cx="315.46128"
     inkscape:cy="45.604319"
     inkscape:window-width="2400"
     inkscape:window-height="1271"
     inkscape:window-x="3191"
     inkscape:window-y="-9"
     inkscape:window-maximized="1"
     inkscape:current-layer="layer1" />
  <defs
     id="defs1" />
  <g
     inkscape:label="Layer 1"
     inkscape:groupmode="layer"
     id="layer1"
     transform="translate(-70.000008,-206.99999)">
    <g
       id="g2844"
       transform="matrix(0.57529492,0,0,0.57529492,71.50395,207.6565)"
       style="display:inline"
       inkscape:export-filename="C:\Users\PC One\OriginDesigned Dropbox\Dropbox OriginDesigned\001 Origin\002 Origin Designed\001 Live\045 Memorials\004 OD045004\002 Images\New Renders 2023\DECALS\Variations\OD045004 Decal Black-Celtic.png"
       inkscape:export-xdpi="900"
       inkscape:export-ydpi="900">
      <path
         style="fill:#000000;stroke-width:0.160403"
         d="m 226.7067,55.599651 c -0.52673,-0.56507 -2.01625,-3.011947 -2.7276,-4.480717 -1.37107,-2.83088 -1.96595,-5.39365 -1.96205,-8.45273 0.004,-2.74445 0.49701,-4.54339 2.0512,-7.47667 1.06494,-2.00991 1.27507,-2.0027 2.30154,0.079 0.57698,1.17016 0.63908,1.77325 0.26539,2.57746 -0.14067,0.30272 -0.42571,0.91131 -0.63343,1.35241 -0.33055,0.70195 -0.38416,1.08685 -0.42972,3.08483 l -0.0521,2.28281 0.50573,1.00545 c 0.27815,0.553 0.63634,1.13979 0.79598,1.30399 0.28288,0.29093 0.29868,0.29008 0.62256,-0.0338 0.68048,-0.68048 0.90663,-1.95192 0.90301,-5.07683 -0.003,-2.73504 -0.0268,-2.9549 -0.44791,-4.17048 -0.56871,-1.64157 -1.74577,-4.03503 -2.42114,-4.92318 -0.92037,-1.21036 -2.34071,-3.38631 -2.34071,-3.58597 0,-0.20469 2.26198,-1.83684 2.54566,-1.83684 0.45518,0 2.90493,3.52699 3.89938,5.6141 1.38404,2.90473 1.97444,5.32919 2.18743,8.98257 0.31364,5.37959 -0.42041,8.28598 -3.23082,12.792137 -0.90085,1.4444 -1.22466,1.61447 -1.83246,0.96242 z m -7.49207,-14.525177 c -1.00253,-0.12492 -3.98948,-1.62946 -5.45211,-2.74626 -1.66431,-1.2708 -3.61484,-3.1898 -4.64483,-4.56975 -0.65994,-0.88415 -2.0046,-3.40495 -2.25335,-4.2243 -0.0978,-0.32207 -0.0541,-0.3609 0.40525,-0.3609 1.34434,0 3.6327,0.96609 5.31573,2.24417 1.06639,0.8098 2.60263,1.6055 3.09973,1.6055 0.53772,0 0.71367,-0.77076 0.71401,-3.12786 4.8e-4,-2.94441 -0.59762,-5.80567 -1.64284,-7.85975 -0.49734,-0.97737 -1.75767,-2.79345 -2.56028,-3.68926 -1.13925,-1.27154 -1.15718,-1.34663 -0.53993,-2.25993 0.62084,-0.91859 1.34202,-1.66995 1.60288,-1.66995 1.01761,0 4.00201,4.71301 5.46252,8.62649 1.37842,3.6935 1.75952,6.05577 1.76533,10.94268 0.004,3.49129 -0.26508,6.52969 -0.61457,6.93538 -0.10213,0.11856 -0.39339,0.18666 -0.65754,0.15374 z m 10.28944,-9.61547 c -1.19536,-1.99013 -1.18192,-1.92241 -0.75608,-3.80957 0.26042,-1.15403 0.21731,-3.99053 -0.078,-5.1329 -0.38196,-1.47752 -1.54886,-3.68216 -2.88219,-5.44539 -1.47166,-1.94616 -1.50902,-2.20115 -0.45812,-3.12619 1.33018,-1.17086 1.96665,-1.09607 2.99709,0.35218 1.13399,1.59378 1.81711,2.85217 2.5604,4.71657 1.0235,2.56726 1.1527,3.34641 1.1527,6.9515 0,3.06366 -0.009,3.1509 -0.4546,4.25067 -1.04686,2.58566 -1.21463,2.68586 -2.0812,1.24313 z m -17.59479,-1.82326 c -2.66814,-0.55518 -4.93162,-1.17814 -6.01511,-1.65547 -0.26465,-0.1166 -0.95039,-0.41549 -1.52383,-0.66421 -2.45128,-1.06319 -7.68134,-5.14538 -10.98024,-8.57036 -1.07206,-1.11303 -1.10327,-1.16748 -0.80202,-1.3997 0.38235,-0.29473 2.86213,-1.48619 3.09319,-1.48619 0.0913,0 0.79461,0.58234 1.56287,1.29409 5.62653,5.21268 9.3042,7.207 15.22655,8.25706 0.70578,0.12514 1.55391,0.22885 1.88474,0.23048 0.37592,0.002 0.71688,0.11832 0.90912,0.31057 0.35059,0.35058 0.54458,1.55827 0.46591,2.90044 l -0.0517,0.88222 -1.52383,0.0256 c -0.83811,0.0141 -1.84865,-0.042 -2.24564,-0.12456 z m 8.9975,-1.3848 c -0.41294,-1.57366 -0.64195,-2.77698 -0.5639,-2.96303 0.0473,-0.11271 0.70326,-0.56455 1.45774,-1.00409 1.63653,-0.95339 3.1701,-2.31681 3.98232,-3.54048 0.37984,-0.57225 0.68495,-0.87342 0.85221,-0.84121 0.3917,0.0754 0.94456,0.99563 1.34478,2.23824 l 0.35728,1.10937 -0.3141,0.59309 c -0.73419,1.38626 -3.1635,3.41943 -5.48179,4.58787 -1.16632,0.58784 -1.44104,0.55763 -1.63454,-0.17976 z m 0.0845,-4.61528 c -0.52128,-0.52128 -0.95987,-3.67501 -0.85831,-6.17182 0.24134,-5.93339 3.56166,-9.80193 9.56252,-11.14141 1.00435,-0.22419 1.99432,-0.40761 2.1999,-0.40761 0.92964,0 0.94223,1.29121 0.072,7.37854 -0.24045,1.68193 -0.6893,3.61012 -0.89035,3.8249 -0.28914,0.30888 -1.17854,-0.90016 -2.20497,-2.99737 -0.44649,-0.91229 -0.91999,-1.70024 -1.05224,-1.75098 -0.37331,-0.14325 -1.61579,0.24741 -2.25781,0.7099 -0.75792,0.54599 -1.49259,1.54045 -1.87602,2.53939 -0.25066,0.65306 -0.30783,1.2191 -0.30783,3.04766 0,1.2351 0.0607,2.57755 0.13486,2.98321 l 0.13486,0.73756 -0.78919,0.57932 c -1.07443,0.7887 -1.56993,0.96614 -1.86736,0.66871 z m -13.8236,-0.24211 c -0.44646,-0.17345 -0.97792,-0.47018 -1.18102,-0.6594 -0.33602,-0.31306 -0.35935,-0.43225 -0.25891,-1.32345 0.34437,-3.05592 1.4507,-5.97314 3.35216,-8.83915 1.33539,-2.01279 2.65339,-3.24745 4.38873,-4.11121 l 1.40812,-0.70089 h 2.56644 2.56646 l 1.24311,0.59107 c 1.41611,0.67334 1.46799,0.79685 0.79609,1.89519 -1.57702,2.57787 -1.29312,2.40359 -3.24223,1.99026 -2.34479,-0.49724 -4.2582,0.0618 -5.95837,1.74096 -1.10194,1.08831 -1.7063,1.94934 -2.52353,3.59529 -0.56239,1.13268 -0.84242,2.08864 -1.49536,5.10472 -0.24412,1.12771 -0.41447,1.20117 -1.66169,0.71661 z m -28.70241,-3.76508 c -1.78895,-0.45937 -3.20134,-1.12766 -4.65168,-2.20101 -1.76428,-1.30567 -4.76995,-4.6334 -4.99505,-5.53028 -0.2922,-1.16418 3.87865,-4.27291 7.16048,-5.33705 1.27492,-0.41339 4.69317,-0.60994 6.25573,-0.3597 1.74932,0.28016 3.71195,1.09616 5.49443,2.28443 1.8152,1.21008 3.64854,2.78601 3.64854,3.13626 0,0.32121 -3.25276,1.86581 -3.63309,1.7252 -0.16324,-0.0603 -0.54943,-0.26593 -0.8582,-0.45686 -2.05309,-1.26947 -3.46088,-1.78929 -5.23976,-1.93472 -2.08502,-0.17047 -4.5566,0.53176 -4.67381,1.32793 -0.0631,0.42851 0.81693,1.166 2.2523,1.88751 1.46333,0.73555 2.57817,0.94118 4.61061,0.85041 2.17801,-0.0973 3.13924,-0.42557 8.09723,-2.76549 5.76573,-2.72113 7.21717,-3.13221 11.05893,-3.13221 2.53282,0 3.24498,0.14653 5.188,1.06745 0.73714,0.34939 1.16292,0.64618 1.16292,0.81064 0,0.1427 -0.40624,0.94023 -0.90274,1.77228 -1.02753,1.72196 -0.62988,1.59381 -3.34793,1.07898 -1.08467,-0.20544 -1.94221,-0.2527 -3.44867,-0.19007 -1.78148,0.0741 -2.19282,0.14952 -3.68927,0.67685 -0.92632,0.32642 -2.69477,1.06348 -3.92987,1.6379 -5.16192,2.4007 -6.81763,3.01791 -9.58279,3.57224 -1.84148,0.36916 -4.69979,0.40709 -5.97631,0.0793 z"
         id="path2754-8" />
      <path
         style="fill:#000000;stroke-width:0.160403"
         d="m 11.418304,98.559523 c 0.52673,0.56507 2.01625,3.011947 2.7276,4.480717 1.371063,2.83088 1.965943,5.39365 1.962043,8.45273 -0.004,2.74445 -0.49701,4.54339 -2.051193,7.47667 -1.06494,2.00991 -1.27507,2.0027 -2.30154,-0.079 -0.57698,-1.17016 -0.63908,-1.77325 -0.26539,-2.57746 0.14067,-0.30272 0.42571,-0.91131 0.63343,-1.35241 0.33055,-0.70195 0.38416,-1.08685 0.42972,-3.08483 l 0.0521,-2.28281 -0.50573,-1.00545 c -0.27815,-0.553 -0.63634,-1.13979 -0.79598,-1.30399 -0.28288,-0.29093 -0.29868,-0.29008 -0.62256,0.0338 -0.68048,0.68048 -0.9066302,1.95192 -0.9030102,5.07683 0.003,2.73504 0.0268,2.9549 0.4479102,4.17048 0.56871,1.64157 1.74577,4.03503 2.42114,4.92318 0.92037,1.21036 2.340703,3.38631 2.340703,3.58597 0,0.20469 -2.261973,1.83684 -2.545653,1.83684 -0.45518,0 -2.9049302,-3.52699 -3.8993802,-5.6141 -1.38404,-2.90473 -1.97444,-5.32919 -2.18743,-8.98257 -0.31364,-5.37959 0.42041,-8.28598 3.23082,-12.792137 0.9008502,-1.4444 1.2246602,-1.61447 1.8324602,-0.96242 z m 7.492063,14.525177 c 1.00253,0.12492 3.98948,1.62946 5.45211,2.74626 1.66431,1.2708 3.61484,3.1898 4.64483,4.56975 0.65994,0.88415 2.0046,3.40495 2.25335,4.2243 0.0978,0.32207 0.0541,0.3609 -0.40525,0.3609 -1.34434,0 -3.6327,-0.96609 -5.31573,-2.24417 -1.06639,-0.8098 -2.60263,-1.6055 -3.09973,-1.6055 -0.53772,0 -0.71367,0.77076 -0.71401,3.12786 -4.8e-4,2.94441 0.59762,5.80567 1.64284,7.85975 0.49734,0.97737 1.75767,2.79345 2.56028,3.68926 1.13925,1.27154 1.15718,1.34663 0.53993,2.25993 -0.62084,0.91859 -1.34202,1.66995 -1.60288,1.66995 -1.01761,0 -4.00201,-4.71301 -5.46252,-8.62649 -1.37842,-3.6935 -1.75952,-6.05577 -1.76533,-10.94268 -0.004,-3.49129 0.26508,-6.52969 0.61457,-6.93538 0.10213,-0.11856 0.39339,-0.18666 0.65754,-0.15374 z m -10.2894332,9.61547 c 1.19536,1.99013 1.18192,1.92241 0.75608,3.80957 -0.26042,1.15403 -0.21731,3.99053 0.078,5.1329 0.38196,1.47752 1.5488602,3.68216 2.8821902,5.44539 1.47166,1.94616 1.50902,2.20115 0.45812,3.12619 -1.33018,1.17086 -1.96665,1.09607 -2.9970902,-0.35218 -1.13399,-1.59378 -1.81711,-2.85217 -2.5604,-4.71657 -1.0235,-2.56726 -1.1527,-3.34641 -1.1527,-6.9515 0,-3.06366 0.009,-3.1509 0.4546,-4.25067 1.04686,-2.58566 1.21463,-2.68586 2.0812,-1.24313 z m 17.5947832,1.82326 c 2.66814,0.55518 4.93162,1.17814 6.01511,1.65547 0.26465,0.1166 0.95039,0.41549 1.52383,0.66421 2.45128,1.06319 7.68134,5.14538 10.98024,8.57036 1.07206,1.11303 1.10327,1.16748 0.80202,1.3997 -0.38235,0.29473 -2.86213,1.48619 -3.09319,1.48619 -0.0913,0 -0.79461,-0.58234 -1.56287,-1.29409 -5.62653,-5.21268 -9.3042,-7.207 -15.22655,-8.25706 -0.70578,-0.12514 -1.55391,-0.22885 -1.88474,-0.23048 -0.37592,-0.002 -0.71688,-0.11832 -0.90912,-0.31057 -0.35059,-0.35058 -0.54458,-1.55827 -0.46591,-2.90044 l 0.0517,-0.88222 1.52383,-0.0256 c 0.83811,-0.0141 1.84865,0.042 2.24564,0.12456 z m -8.9975,1.3848 c 0.41294,1.57366 0.64195,2.77698 0.5639,2.96303 -0.0473,0.11271 -0.70326,0.56455 -1.45774,1.00409 -1.636523,0.95339 -3.170093,2.31681 -3.982313,3.54048 -0.37984,0.57225 -0.68495,0.87342 -0.85221,0.84121 -0.3917,-0.0754 -0.94456,-0.99563 -1.34478,-2.23824 l -0.3572802,-1.10937 0.3141002,-0.59309 c 0.73419,-1.38626 3.1635,-3.41943 5.481783,-4.58787 1.16632,-0.58784 1.44104,-0.55763 1.63454,0.17976 z m -0.0845,4.61528 c 0.521279,0.52128 0.959869,3.67501 0.858309,6.17182 -0.24134,5.93339 -3.561652,9.80193 -9.5625124,11.14141 -1.00435,0.22419 -1.99432,0.40761 -2.1999,0.40761 -0.92964,0 -0.94223,-1.29121 -0.072,-7.37854 0.24045,-1.68193 0.6893,-3.61012 0.89035,-3.8249 0.28914,-0.30888 1.17854,0.90016 2.20497,2.99737 0.44649,0.91229 0.9199904,1.70024 1.0522404,1.75098 0.37331,0.14325 1.61579,-0.24741 2.25781,-0.7099 0.75792,-0.54599 1.49259,-1.54045 1.87602,-2.53939 0.25066,-0.65306 0.30783,-1.2191 0.30783,-3.04766 0,-1.2351 -0.0607,-2.57755 -0.13486,-2.98321 l -0.13486,-0.73756 0.789183,-0.57932 c 1.07443,-0.7887 1.56993,-0.96614 1.86736,-0.66871 z m 13.823599,0.24211 c 0.44646,0.17345 0.97792,0.47018 1.18102,0.6594 0.33602,0.31306 0.35935,0.43225 0.25891,1.32345 -0.34437,3.05592 -1.4507,5.97314 -3.35216,8.83915 -1.33539,2.01279 -2.65339,3.24745 -4.38873,4.11121 l -1.40812,0.70089 h -2.56644 -2.56646 l -1.243109,-0.59107 c -1.41611,-0.67334 -1.46799,-0.79685 -0.79609,-1.89519 1.577019,-2.57787 1.293119,-2.40359 3.242229,-1.99026 2.34479,0.49724 4.2582,-0.0618 5.95837,-1.74096 1.10194,-1.08831 1.7063,-1.94934 2.52353,-3.59529 0.56239,-1.13268 0.84242,-2.08864 1.49536,-5.10472 0.24412,-1.12771 0.41447,-1.20117 1.66169,-0.71661 z m 28.70241,3.76508 c 1.78895,0.45937 3.20134,1.12766 4.65168,2.20101 1.76428,1.30567 4.76995,4.6334 4.99505,5.53028 0.2922,1.16418 -3.87865,4.27291 -7.16048,5.33705 -1.27492,0.41339 -4.69317,0.60994 -6.25573,0.3597 -1.74932,-0.28016 -3.71195,-1.09616 -5.49443,-2.28443 -1.8152,-1.21008 -3.64854,-2.78601 -3.64854,-3.13626 0,-0.32121 3.25276,-1.86581 3.63309,-1.7252 0.16324,0.0603 0.54943,0.26593 0.8582,0.45686 2.05309,1.26947 3.46088,1.78929 5.23976,1.93472 2.08502,0.17047 4.5566,-0.53176 4.67381,-1.32793 0.0631,-0.42851 -0.81693,-1.166 -2.2523,-1.88751 -1.46333,-0.73555 -2.57817,-0.94118 -4.61061,-0.85041 -2.17801,0.0973 -3.13924,0.42557 -8.09723,2.76549 -5.76573,2.72113 -7.21717,3.13221 -11.05893,3.13221 -2.53282,0 -3.24498,-0.14653 -5.188,-1.06745 -0.73714,-0.34939 -1.16292,-0.64618 -1.16292,-0.81064 0,-0.1427 0.40624,-0.94023 0.90274,-1.77228 1.02753,-1.72196 0.62988,-1.59381 3.34793,-1.07898 1.08467,0.20544 1.94221,0.2527 3.44867,0.19007 1.78148,-0.0741 2.19282,-0.14952 3.68927,-0.67685 0.92632,-0.32642 2.69477,-1.06348 3.92987,-1.6379 5.16192,-2.4007 6.81763,-3.01791 9.58279,-3.57224 1.84148,-0.36916 4.69979,-0.40709 5.97631,-0.0793 z"
         id="path2754-8-0" />
    </g>
  </g>
</svg>
