<?xml version="1.0" encoding="UTF-8" standalone="no"?>
<!-- Created with Inkscape (http://www.inkscape.org/) -->

<svg
   width="140.00002mm"
   height="90.000031mm"
   viewBox="0 0 140.00002 90.000031"
   version="1.1"
   id="svg1"
   inkscape:version="1.4 (86a8ad7, 2024-10-11)"
   sodipodi:docname="Elegant.svg"
   xmlns:inkscape="http://www.inkscape.org/namespaces/inkscape"
   xmlns:sodipodi="http://sodipodi.sourceforge.net/DTD/sodipodi-0.dtd"
   xmlns="http://www.w3.org/2000/svg"
   xmlns:svg="http://www.w3.org/2000/svg">
  <sodipodi:namedview
     id="namedview1"
     pagecolor="#ffffff"
     bordercolor="#000000"
     borderopacity="0.25"
     inkscape:showpageshadow="2"
     inkscape:pageopacity="0.0"
     inkscape:pagecheckerboard="0"
     inkscape:deskcolor="#d1d1d1"
     inkscape:document-units="mm"
     inkscape:zoom="0.93806818"
     inkscape:cx="132.71956"
     inkscape:cy="-221.19927"
     inkscape:window-width="2400"
     inkscape:window-height="1271"
     inkscape:window-x="3191"
     inkscape:window-y="-9"
     inkscape:window-maximized="1"
     inkscape:current-layer="layer1" />
  <defs
     id="defs1" />
  <g
     inkscape:label="Layer 1"
     inkscape:groupmode="layer"
     id="layer1"
     transform="translate(-69.99999,-206.99997)">
    <g
       id="g3"
       transform="translate(-387.81965,-271.41153)">
      <path
         stroke-miterlimit="4"
         id="path7339-6"
         d="m 464.88694,561.14142 -0.25521,-1.02406 c -2.16823,-1.5119 -3.29314,-5.85829 0.61379,-9.25852 l -0.38119,-0.66871 c -3.53259,2.87289 -4.19928,8.15395 0.0226,10.95129 z m 4.01842,0.71792 -0.78444,0.12058 c -2.08996,4.89775 -7.07722,1.53777 -5.07212,-1.52982 l -0.49245,-0.58244 c -2.97799,4.15523 3.87182,8.71339 6.34901,1.99168 z m -2.91683,-12.76434 0.3392,0.50719 c 6.92246,-7.85255 -6.84272,-12.00763 -1.25019,-19.90615 -6.45311,7.81577 7.07422,12.04656 0.91099,19.39896 z m 1.66046,5.54672 0.67108,-0.10594 c -0.57665,-3.99891 -7.39975,-8.67288 -3.00879,-14.21678 l -0.41087,-0.47033 c -5.06546,5.86979 2.17018,11.28378 2.74858,14.79305 z m -3.99286,3.99286 0.44904,0.50072 c 1.07379,-1.03338 2.17407,-1.0558 3.92008,-1.2044 l -0.13721,-0.74357 c -1.56495,0.0916 -3.0804,0.25893 -4.23191,1.44725 z m 1.39005,-1.25542 0.64809,-0.16552 c 0.46486,-1.4073 1.69577,-1.8652 3.97053,-1.49941 l -0.0362,-0.64961 c -2.38795,-0.38399 -4.06581,-0.059 -4.58242,2.31454 z m 1.78436,4.1141 c 1.30725,0.3447 4.2561,0.14126 4.27182,-3.11066 l -0.67194,-0.11953 c -0.10517,2.64522 -2.40933,2.80082 -4.02193,2.28395 z m 1.09304,2.73003 c 7.23006,3.82103 9.2276,-10.65681 20.21951,-3.04353 l 0.64932,-0.23217 c -11.31725,-8.5427 -14.15663,5.89272 -20.35196,2.64253 z m 0.0487,-8.10088 c 0.45175,1.23582 0.57956,2.82727 0.5413,4.13634 l 0.58613,-0.12353 c 0.13184,-0.9858 -0.16586,-3.22581 -0.47839,-4.07856 z m 1.43404,1.74009 c 2.16914,0.0189 4.29777,-0.11834 6.57401,2.55207 l 0.55241,-0.39735 c -2.13139,-2.69343 -4.09221,-2.84259 -7.23635,-2.82343 z m 0.90454,-0.97884 0.71308,-0.0441 c -1.24377,-4.50419 1.2452,-4.74957 2.09419,-3.96493 0.84899,0.78465 0.1883,2.5838 -1.97381,2.33886 l 0.0382,0.62757 c 2.60157,0.39806 3.88742,-2.13069 2.49407,-3.53822 -1.38588,-1.39998 -4.82318,-0.35884 -3.36572,4.5808 z m 6.59338,4.64542 c 5.61947,5.74084 13.53295,-1.61192 17.98661,-1.56193 4.42639,0.0497 6.19988,3.00076 10.02922,3.08627 3.83815,0.0857 6.83379,-2.46289 8.03464,-2.356 1.20084,0.10689 1.34156,1.65701 -0.24874,1.6295 2.01414,0.34561 1.87819,-1.92513 0.0963,-1.88353 -1.7802,0.0416 -3.98226,2.2234 -7.76956,2.15619 -3.85552,-0.0684 -5.00912,-2.98644 -10.1419,-3.1493 -5.13277,-0.16287 -11.99593,7.04515 -17.5408,1.57484 z m -11.87183,-2.717 c 0.005,1.81361 0.78292,3.50294 1.79515,4.4016 l 0.49188,-0.61209 c -0.72768,-0.74429 -1.66843,-2.01717 -1.59908,-4.03162 z m 1.59364,-47.8091 c -0.0949,1.68995 -2.27266,4.20543 -2.22565,10.03083 0.047,5.82541 5.47217,12.68207 1.58486,17.46525 l 0.45549,0.37797 c 4.30995,-5.13142 -1.49448,-12.15058 -1.53317,-17.84322 -0.0387,-5.69263 1.86578,-7.8945 2.01891,-9.97268 0.15312,-2.07819 -2.29396,-2.49857 -2.0246,0.18595 0.14226,-2.32055 1.81906,-1.93406 1.72416,-0.2441 z m 22.62039,51.16092 c 0,0 2.32941,1.39221 3.65273,1.52016 1.32544,0.12816 2.57129,0.20855 3.70093,-0.89189 -1.18614,0.65505 -1.65048,0.6937 -3.25861,0.57287 -1.60814,-0.12084 -3.46291,-1.51636 -3.46291,-1.51636 z"
         inkscape:connector-curvature="0"
         style="fill:#000000;fill-opacity:1;fill-rule:evenodd;stroke-width:0.103375;stroke-miterlimit:4" />
      <path
         stroke-miterlimit="4"
         id="path1634"
         d="m 590.75236,485.68161 0.25521,1.02406 c 2.16823,1.5119 3.29314,5.85829 -0.61379,9.25852 l 0.38119,0.66871 c 3.53259,-2.87289 4.19928,-8.15395 -0.0226,-10.95129 z m -4.01842,-0.71792 0.78444,-0.12058 c 2.08996,-4.89775 7.07722,-1.53777 5.07212,1.52982 l 0.49245,0.58244 c 2.97799,-4.15523 -3.87182,-8.71339 -6.34901,-1.99168 z m 2.91683,12.76434 -0.3392,-0.50719 c -6.92246,7.85255 6.84272,12.00763 1.25019,19.90615 6.45311,-7.81577 -7.07422,-12.04656 -0.91099,-19.39896 z m -1.66046,-5.54672 -0.67108,0.10594 c 0.57665,3.99891 7.39975,8.67288 3.00879,14.21678 l 0.41087,0.47033 c 5.06546,-5.86979 -2.17018,-11.28378 -2.74858,-14.79305 z m 3.99286,-3.99286 -0.44904,-0.50072 c -1.07379,1.03338 -2.17407,1.0558 -3.92008,1.2044 l 0.13721,0.74357 c 1.56495,-0.0916 3.0804,-0.25893 4.23191,-1.44725 z m -1.39005,1.25542 -0.64809,0.16552 c -0.46486,1.4073 -1.69577,1.8652 -3.97053,1.49941 l 0.0362,0.64961 c 2.38795,0.38399 4.06581,0.059 4.58242,-2.31454 z m -1.78436,-4.1141 c -1.30725,-0.3447 -4.2561,-0.14126 -4.27182,3.11066 l 0.67194,0.11953 c 0.10517,-2.64522 2.40933,-2.80082 4.02193,-2.28395 z m -1.09304,-2.73003 c -7.23006,-3.82103 -9.2276,10.65681 -20.21951,3.04353 l -0.64932,0.23217 c 11.31725,8.5427 14.15663,-5.89272 20.35196,-2.64253 z m -0.0487,8.10088 c -0.45175,-1.23582 -0.57956,-2.82727 -0.5413,-4.13634 l -0.58613,0.12353 c -0.13184,0.9858 0.16586,3.22581 0.47839,4.07856 z m -1.43404,-1.74009 c -2.16914,-0.0189 -4.29777,0.11834 -6.57401,-2.55207 l -0.55241,0.39735 c 2.13139,2.69343 4.09221,2.84259 7.23635,2.82343 z m -0.90454,0.97884 -0.71308,0.0441 c 1.24377,4.50419 -1.2452,4.74957 -2.09419,3.96493 -0.84899,-0.78465 -0.1883,-2.5838 1.97381,-2.33886 l -0.0382,-0.62757 c -2.60157,-0.39806 -3.88742,2.13069 -2.49407,3.53822 1.38588,1.39998 4.82318,0.35884 3.36572,-4.5808 z m -6.59338,-4.64542 c -5.61947,-5.74084 -13.53295,1.61192 -17.98661,1.56193 -4.42639,-0.0497 -6.19988,-3.00076 -10.02922,-3.08627 -3.83815,-0.0857 -6.83379,2.46289 -8.03464,2.356 -1.20084,-0.10689 -1.34156,-1.65701 0.24874,-1.6295 -2.01414,-0.34561 -1.87819,1.92513 -0.0963,1.88353 1.7802,-0.0415 3.98226,-2.2234 7.76956,-2.15619 3.85552,0.0684 5.00912,2.98644 10.1419,3.1493 5.13277,0.16287 11.99593,-7.04515 17.5408,-1.57484 z m 11.87183,2.717 c -0.005,-1.81361 -0.78292,-3.50294 -1.79515,-4.4016 l -0.49188,0.61209 c 0.72768,0.74429 1.66843,2.01717 1.59908,4.03162 z m -1.59364,47.8091 c 0.0949,-1.68995 2.27266,-4.20543 2.22565,-10.03083 -0.047,-5.82541 -5.47217,-12.68207 -1.58486,-17.46525 l -0.45549,-0.37797 c -4.30995,5.13142 1.49448,12.15058 1.53317,17.84322 0.0387,5.69263 -1.86578,7.8945 -2.01891,9.97268 -0.15312,2.07819 2.29396,2.49857 2.0246,-0.18595 -0.14226,2.32055 -1.81906,1.93406 -1.72416,0.2441 z m -22.62039,-51.16092 c 0,0 -2.32941,-1.39221 -3.65273,-1.52016 -1.32544,-0.12816 -2.57129,-0.20855 -3.70093,0.89189 1.18614,-0.65505 1.65048,-0.6937 3.25861,-0.57287 1.60814,0.12084 3.46291,1.51636 3.46291,1.51636 z"
         inkscape:connector-curvature="0"
         style="fill:#000000;fill-opacity:1;fill-rule:evenodd;stroke-width:0.103375;stroke-miterlimit:4" />
    </g>
  </g>
</svg>
