<?xml version="1.0" encoding="UTF-8" standalone="no"?>
<!-- Created with Inkscape (http://www.inkscape.org/) -->

<svg
   width="140.00002mm"
   height="90.000031mm"
   viewBox="0 0 140.00002 90.000031"
   version="1.1"
   id="svg1"
   sodipodi:docname="Floral.svg"
   inkscape:version="1.4 (86a8ad7, 2024-10-11)"
   xmlns:inkscape="http://www.inkscape.org/namespaces/inkscape"
   xmlns:sodipodi="http://sodipodi.sourceforge.net/DTD/sodipodi-0.dtd"
   xmlns="http://www.w3.org/2000/svg"
   xmlns:svg="http://www.w3.org/2000/svg">
  <sodipodi:namedview
     id="namedview1"
     pagecolor="#ffffff"
     bordercolor="#000000"
     borderopacity="0.25"
     inkscape:showpageshadow="2"
     inkscape:pageopacity="0.0"
     inkscape:pagecheckerboard="0"
     inkscape:deskcolor="#d1d1d1"
     inkscape:document-units="mm"
     inkscape:zoom="0.93806818"
     inkscape:cx="132.71956"
     inkscape:cy="-221.19927"
     inkscape:window-width="2400"
     inkscape:window-height="1271"
     inkscape:window-x="3191"
     inkscape:window-y="-9"
     inkscape:window-maximized="1"
     inkscape:current-layer="layer1" />
  <defs
     id="defs1" />
  <g
     inkscape:label="Layer 1"
     inkscape:groupmode="layer"
     id="layer1"
     transform="translate(-69.99999,-206.99997)">
    <g
       id="g1"
       transform="translate(-17.166655,35.928113)">
      <path
         style="fill:#000000;stroke-width:0.0351516"
         d="m 93.13608,258.37736 c 0.88656,-0.37821 1.71327,-1.25352 2.53642,-2.68551 1.08115,-1.88092 1.67492,-4.36136 1.84838,-7.72179 0.0811,-1.57195 0.14504,-2.65888 0.16092,-2.73306 0.0131,-0.0693 0.0387,-0.0789 0.19353,-0.0789 0.21224,0 0.35547,-0.0672 0.41299,-0.19331 0.12308,-0.26999 -0.38357,-0.6905 -0.89297,-0.74126 -0.54777,-0.0545 -0.70842,0.24936 -0.32298,0.61115 0.13134,0.12352 0.13742,0.13809 0.11721,0.28823 -0.0503,0.3715 -0.094,0.90516 -0.17679,2.16183 -0.0996,1.5099 -0.12025,1.74002 -0.15614,1.74002 -0.0131,0 -0.0448,-0.19375 -0.0687,-0.43063 -0.14592,-1.44601 -0.50224,-3.17074 -0.85868,-4.15669 -0.14744,-0.40778 -0.0788,-1.36358 0.17287,-2.4002 0.13287,-0.54748 0.25094,-0.89262 0.45395,-1.32587 0.27986,-0.59725 0.7615,-1.29713 1.26316,-1.83561 0.26643,-0.28597 0.75731,-0.68589 0.89591,-0.72987 0.0491,-0.0152 0.13591,0.0174 0.27482,0.10263 0.23209,0.14331 0.36288,0.15744 0.46939,0.0508 0.21376,-0.21376 -0.1744,-0.98047 -0.61226,-1.20971 -0.16027,-0.084 -0.21223,-0.0961 -0.29078,-0.0681 -0.1807,0.0644 -0.18744,0.12872 -0.063,0.60165 0.0152,0.0622 -0.0196,0.10154 -0.20332,0.22584 -0.47546,0.32048 -1.40716,1.36893 -1.80105,2.02674 -0.1831,0.30596 -0.45033,0.88256 -0.58251,1.25743 -0.13374,0.37956 -0.36652,1.30688 -0.42699,1.70173 -0.0239,0.15636 -0.0566,0.28435 -0.072,0.28435 -0.0348,0 -0.23155,-0.38865 -0.35619,-0.70305 -0.0498,-0.12569 -0.16983,-0.40625 -0.2667,-0.6235 -0.20028,-0.44896 -0.25036,-0.71046 -0.25017,-1.30361 2.6e-4,-0.75575 0.14679,-1.79659 0.33505,-2.37898 0.0498,-0.15461 0.16875,-0.4394 0.26371,-0.63272 0.15744,-0.32 0.19245,-0.36573 0.39293,-0.50986 0.24584,-0.17679 0.32527,-0.30176 0.29107,-0.45759 -0.0391,-0.17874 -0.19702,-0.25839 -0.50762,-0.25639 -0.51519,0.004 -0.91607,0.20267 -0.92333,0.45939 -0.005,0.13743 0.0844,0.24513 0.23309,0.28436 0.13874,0.0365 0.13678,0.11047 -0.0131,0.4625 -0.16658,0.39201 -0.31109,0.85011 -0.38929,1.23387 -0.0742,0.36399 -0.17418,1.18158 -0.17462,1.42888 -7.5e-4,0.29446 -0.0861,0.18788 -0.3928,-0.48952 -0.27332,-0.6038 -0.27197,-0.59883 -0.30743,-1.13624 -0.0274,-0.41389 -0.0437,-0.49123 -0.17309,-0.81999 -0.29659,-0.75246 -0.35998,-1.23293 -0.21822,-1.65353 0.0414,-0.12308 0.0687,-0.23048 0.0606,-0.23861 -0.0435,-0.0435 -0.32796,0.23945 -0.42186,0.41957 -0.0583,0.11177 -0.11916,0.18984 -0.13569,0.17353 -0.1322,-0.13222 -0.12133,-1.85133 0.0196,-3.17733 0.1657,-1.55385 0.32714,-2.2569 0.68095,-2.96431 0.18788,-0.3755 0.3184,-0.57221 0.53426,-0.80462 0.29061,-0.31286 0.77187,-0.61846 0.97576,-0.61957 0.0538,-2.9e-4 0.12155,-0.0152 0.15069,-0.0358 0.0448,-0.03 0.0396,-0.0465 -0.0353,-0.10894 -0.0746,-0.0624 -0.11981,-0.0709 -0.2988,-0.0555 -0.1159,0.0108 -0.28736,0.0526 -0.38081,0.0948 -0.0935,0.0424 -0.17831,0.0683 -0.18853,0.0578 -0.0293,-0.0294 0.18636,-0.3623 0.44718,-0.69028 0.29426,-0.37002 1.0122,-1.07217 1.38774,-1.35732 1.06513,-0.80866 2.16841,-1.27984 3.37456,-1.44117 0.63707,-0.085 1.49422,-0.0196 1.80017,0.13939 0.14135,0.073 0.40081,0.34829 0.61966,0.65736 0.27177,0.38383 0.37472,0.36865 0.28747,-0.0424 -0.026,-0.12263 -0.0589,-0.25254 -0.073,-0.2886 -0.0222,-0.0566 -0.0131,-0.062 0.0585,-0.0396 0.17591,0.0541 0.51205,0.2899 0.75127,0.52699 0.60622,0.60081 0.90884,1.24447 1.0082,2.14426 0.0894,0.8106 -0.0561,1.65088 -0.40161,2.3162 -0.62104,1.19627 -1.74524,1.92119 -2.97597,1.91908 -0.6765,-8.4e-4 -1.15768,-0.24353 -1.34547,-0.67765 -0.11569,-0.26731 -0.30204,-0.34818 -0.45348,-0.19679 -0.0613,0.0613 -0.0702,0.0994 -0.0509,0.21939 0.0678,0.42555 0.46326,0.81497 1.02225,1.0073 0.76545,0.26336 1.88142,0.0882 2.84239,-0.44582 0.87852,-0.48831 1.64022,-1.61217 1.83107,-2.70176 0.0713,-0.40611 0.0996,-1.10783 0.0596,-1.47514 -0.0196,-0.17396 -0.0294,-0.32139 -0.0234,-0.32756 0.004,-0.004 0.0998,0.004 0.20854,0.0252 0.24025,0.0444 0.41475,0.0174 0.39951,-0.0615 -0.005,-0.0304 -0.05,-0.0739 -0.0983,-0.0966 -0.0482,-0.0226 -0.20875,-0.0972 -0.35656,-0.16614 -0.26283,-0.12243 -0.27034,-0.12938 -0.33066,-0.3111 -0.22826,-0.68722 -0.62982,-1.25775 -1.17311,-1.66674 -0.51912,-0.39078 -1.14291,-0.67506 -1.82589,-0.83206 -0.29321,-0.0674 -0.43701,-0.0777 -1.07658,-0.0765 -0.66762,8.5e-4 -0.7819,0.0109 -1.19518,0.0979 -0.52765,0.11155 -1.14522,0.31013 -1.54133,0.49588 -0.15178,0.0713 -0.28404,0.12134 -0.29398,0.11133 -0.0109,-0.0109 0.007,-0.0929 0.0387,-0.18439 0.0692,-0.20289 0.0765,-0.44741 0.0131,-0.42643 -0.0241,0.007 -0.10721,0.12895 -0.18463,0.26911 -0.2057,0.37239 -0.48108,0.63758 -1.39103,1.33917 -0.16288,0.12569 -0.50285,0.43619 -0.75537,0.69013 -0.96675,0.97217 -1.54033,1.91548 -2.06968,3.40383 -0.10741,0.30225 -0.19548,0.57151 -0.19548,0.5983 0,0.0698 -0.0692,0.24199 -0.0891,0.22204 -0.0322,-0.0322 0.12612,-0.83609 0.24896,-1.26508 0.3868,-1.34845 0.85795,-2.38277 1.48327,-3.25618 0.87082,-1.2164 2.13397,-2.1523 3.62958,-2.68926 1.2657,-0.4544 2.34612,-0.65609 3.74173,-0.69854 l 0.34958,-0.0109 0.10177,0.1507 c 0.142,0.21006 0.23702,0.26766 0.35383,0.21441 0.15288,-0.0695 0.20963,-0.28184 0.18919,-0.70591 -0.0109,-0.1992 -0.0358,-0.42104 -0.058,-0.49291 -0.0606,-0.19548 -0.19962,-0.34383 -0.3222,-0.34383 -0.17722,0 -0.27132,0.15091 -0.32962,0.52867 l -0.0196,0.12438 -0.65891,0.0426 c -1.05523,0.0683 -1.87418,0.21724 -2.78484,0.50681 -1.11206,0.3536 -2.30377,0.98068 -2.97104,1.56334 -0.22587,0.19723 -0.25074,0.12699 -0.0566,-0.15917 0.43087,-0.63449 1.31733,-1.6025 1.70114,-1.85766 0.48664,-0.3235 1.1371,-0.53809 1.63119,-0.53809 0.2576,0 0.23301,-0.073 -0.0448,-0.13264 -0.34461,-0.0739 -1.00317,0.0255 -1.35406,0.20462 -0.16048,0.0819 -0.17222,0.0833 -0.17222,0.0196 0,-0.0274 0.13678,-0.19745 0.30391,-0.37787 0.34244,-0.36967 0.50456,-0.60183 0.50456,-0.72272 0,-0.20571 -0.17787,-0.10568 -0.68363,0.38431 -0.13439,0.13025 -0.25057,0.2303 -0.25824,0.2226 -0.0389,-0.0389 0.67447,-0.93059 1.1441,-1.4301 0.25483,-0.27103 1.14889,-1.1094 1.3322,-1.24922 0.10721,-0.0816 0.11655,-0.0828 0.2419,-0.0304 0.32248,0.13459 0.52075,0.0348 0.44338,-0.22343 -0.0959,-0.3197 -0.44243,-0.6154 -0.6967,-0.5943 -0.16417,0.0131 -0.22112,0.1085 -0.22189,0.36951 l -3.7e-4,0.18266 -0.43059,0.36186 c -0.97948,0.82309 -1.73485,1.67907 -2.92548,3.31513 -1.52962,2.10188 -2.58116,3.85635 -3.27081,5.4573 -0.15766,0.36591 -0.25155,0.50552 -0.21289,0.31638 0.009,-0.0435 0.026,-0.22145 0.0383,-0.39546 0.0505,-0.72357 0.32539,-1.98848 0.66849,-3.07578 0.0641,-0.20288 0.14069,-0.45615 0.17049,-0.56258 0.0393,-0.14112 0.0935,-0.23158 0.20027,-0.33396 0.26564,-0.25511 0.29683,-0.47679 0.0739,-0.52573 -0.33954,-0.0746 -1.13112,0.36512 -1.13112,0.62828 0,0.10873 0.0716,0.16352 0.24468,0.18658 0.0781,0.0109 0.142,0.0328 0.142,0.0498 0,0.0174 -0.0566,0.21658 -0.1257,0.44359 -0.42888,1.40898 -0.649,2.72886 -0.82505,4.94722 -0.14135,2.72603 -0.13591,5.91499 0.836,8.17275 0.27252,0.62233 0.27135,0.59759 0.0285,0.59759 -0.10981,0 -0.23165,0.0174 -0.27064,0.0381 -0.0676,0.0363 -0.0681,0.0411 -0.0109,0.10546 0.0337,0.0372 0.11808,0.0833 0.18744,0.10221 0.1781,0.0487 0.33227,0.1507 0.43391,0.2873 0.048,0.0646 0.22576,0.38613 0.39498,0.7148 0.16918,0.32869 0.42692,0.81113 0.57271,1.07212 0.33914,0.60731 1.26412,2.45734 1.42355,2.8473 0.18722,0.45767 0.31759,0.86968 0.29448,0.92994 -0.0313,0.0811 -0.15961,0.0657 -0.29174,-0.035 -0.0952,-0.0725 -0.13047,-0.0822 -0.18788,-0.0515 -0.0898,0.048 -0.0887,0.0629 0.0131,0.21398 0.0756,0.11155 0.16657,0.16961 0.51292,0.3282 0.0662,0.0302 0.11112,0.10633 0.18114,0.30563 0.15026,0.42782 0.34345,1.32161 0.40529,1.87563 0.0663,0.59334 0.0363,0.71243 -0.0952,0.38103 -0.13938,-0.35079 -0.45721,-0.96534 -0.65262,-1.26221 -0.21266,-0.32309 -0.72269,-0.87751 -1.01382,-1.10211 -0.10764,-0.0831 -0.19549,-0.17048 -0.19549,-0.19441 0,-0.0239 0.0474,-0.10328 0.10546,-0.17635 0.28215,-0.35503 -0.0354,-0.56573 -0.50968,-0.33811 -0.66051,0.31704 -0.7734,0.99801 -0.12677,0.76414 0.11851,-0.0431 0.1209,-0.0417 0.36525,0.18723 0.59303,0.55572 0.83173,0.8108 1.00507,1.07402 0.32048,0.48664 0.73159,1.41375 0.65768,1.4831 -0.0174,0.0152 -0.0381,0.007 -0.0477,-0.0196 -0.0339,-0.0959 -0.27255,-0.33 -0.47898,-0.47017 -0.78781,-0.53498 -1.69763,-0.33686 -2.06578,0.44989 -0.16026,0.34218 -0.20701,0.5542 -0.22943,1.03698 -0.0233,0.50019 0.037,0.89941 0.18461,1.22467 0.10286,0.22679 0.10482,0.27678 0.0152,0.39122 -0.0698,0.0892 -0.0903,0.23216 -0.0433,0.30216 0.048,0.0718 0.20898,0.0837 0.39246,0.0294 0.21868,-0.065 0.52735,-0.33916 0.53392,-0.47435 0.0109,-0.22139 -0.0278,-0.25381 -0.27234,-0.228 l -0.18027,0.0196 -0.0768,-0.17853 c -0.17701,-0.41164 -0.23798,-1.20725 -0.12482,-1.63138 0.19984,-0.74905 0.81207,-1.06803 1.44867,-0.75464 0.30847,0.15178 0.65409,0.49789 0.82397,0.82496 0.80057,1.54121 0.63938,4.24479 -0.36571,6.13396 -0.59348,1.11551 -1.19543,1.91586 -1.76058,2.34086 -0.11917,0.0896 -0.37026,0.24006 -0.55783,0.3342 -0.31675,0.15896 -0.34268,0.18005 -0.36422,0.29475 -0.0309,0.16483 0.005,0.34213 0.0935,0.45393 0.0979,0.12439 0.29315,0.12048 0.60274,-0.0131 z m 1.13378,-3.28547 c 0.26595,-0.11699 0.73623,-0.78124 0.96061,-1.35694 0.2005,-0.51465 0.28692,-1.35285 0.18506,-1.79842 -0.15853,-0.69479 -0.5731,-1.29398 -0.89562,-1.29471 -0.22209,-3.8e-4 -0.38759,0.0837 -0.62774,0.31967 -0.31055,0.30504 -0.31699,0.38811 -0.0596,0.76981 0.47467,0.70409 0.66788,1.27846 0.67389,2.00365 0.004,0.59229 -0.0835,0.90723 -0.33086,1.17783 -0.0933,0.10198 -0.1694,0.19505 -0.1694,0.20679 0,0.037 0.1533,0.0217 0.26362,-0.0276 z m -0.0385,-0.4446 c 0.15548,-0.38844 0.14787,-1.09998 -0.0174,-1.63516 -0.14895,-0.48255 -0.4708,-1.03671 -0.81995,-1.41179 l -0.18896,-0.2031 -0.22337,0.004 c -0.14983,0.002 -0.28441,0.0295 -0.40873,0.0837 -0.19375,0.0842 -0.3766,0.26116 -0.33669,0.32572 0.0131,0.0218 0.007,0.0276 -0.0131,0.0131 -0.0678,-0.0419 -0.12308,0.21857 -0.10612,0.50041 0.0342,0.56637 0.43267,1.03061 1.18755,1.38322 0.50927,0.23789 0.71424,0.4548 0.77343,0.81846 0.0442,0.27104 0.0824,0.30106 0.15461,0.1209 z m -1.28912,-9.55841 c 0.14744,-0.0669 0.29032,-0.24283 0.29059,-0.35773 8e-5,-0.0318 -0.0546,-0.13461 -0.12134,-0.22849 -0.23679,-0.33302 -0.43623,-0.70197 -0.54,-0.99886 -0.33123,-0.9477 -0.43306,-2.3113 -0.21885,-2.93015 0.0678,-0.19614 0.0709,-0.28487 0.007,-0.21158 -0.0491,0.0563 -0.39132,0.96095 -0.46283,1.22373 -0.12568,0.46176 -0.21354,1.11503 -0.2348,1.74491 -0.0298,0.88429 0.0442,1.23221 0.32952,1.54869 0.0739,0.0818 0.19767,0.17767 0.27488,0.21289 0.18593,0.0848 0.48524,0.0833 0.67596,-0.004 z m 1.01698,-0.52706 c 0.21934,-0.0524 0.3421,-0.15288 0.45009,-0.36863 0.17744,-0.3544 0.16091,-0.82722 -0.0428,-1.23226 -0.20049,-0.39864 -0.41596,-0.63899 -1.03333,-1.15283 -0.52923,-0.44047 -0.7336,-0.74057 -0.79849,-1.17246 l -0.0257,-0.17048 -0.0772,0.2285 c -0.10634,0.31443 -0.12787,0.58599 -0.0814,1.01938 0.0882,0.81985 0.30016,1.59147 0.59247,2.15847 0.31801,0.61679 0.57938,0.79435 1.01605,0.69031 z m 4.83465,-0.11917 c 0.34309,-0.0961 0.55785,-0.30351 0.71975,-0.69482 0.0814,-0.19637 0.095,-0.28658 0.10916,-0.7214 0.0174,-0.54515 -0.0131,-0.79614 -0.16004,-1.29584 -0.0727,-0.24697 -0.0935,-0.39346 -0.0944,-0.66789 -8.5e-4,-0.32927 0.007,-0.372 0.13352,-0.6753 0.13264,-0.31909 0.14004,-0.39683 0.0374,-0.39683 -0.1383,0 -0.74095,0.69155 -1.03841,1.19155 -0.54585,0.91756 -0.79251,2.35367 -0.50516,2.94099 0.0509,0.10416 0.14134,0.22397 0.20049,0.26618 0.13264,0.0943 0.37454,0.1159 0.59782,0.0535 z m -1.16604,-0.46463 c 0.0196,-0.0496 0.0344,-0.1594 0.0344,-0.24429 0,-0.26078 0.10351,-0.9654 0.19592,-1.33526 0.15505,-0.61903 0.53308,-1.36561 0.93235,-1.84067 0.22389,-0.26643 0.60665,-0.59165 0.84015,-0.71393 0.33544,-0.17569 0.0816,-0.2685 -0.36386,-0.13307 -0.35597,0.10807 -0.64459,0.24543 -0.99284,0.47244 -0.34688,0.22608 -0.92403,0.77058 -1.17314,1.1067 -0.5083,0.68587 -0.74965,1.49698 -0.59663,2.00502 0.0938,0.31122 0.67628,0.77332 0.97482,0.77332 0.0907,0 0.12177,-0.0196 0.14896,-0.09 z m 3.23728,-5.75664 c 0.47607,-0.13352 0.92423,-0.6307 1.13547,-1.2599 0.13352,-0.39777 0.18484,-0.68141 0.24731,-1.36486 0.0309,-0.33834 0.0713,-0.71799 0.0896,-0.84366 0.0414,-0.28133 0.0437,-0.6347 0.005,-0.69591 -0.0424,-0.0669 -0.0811,-0.004 -0.19745,0.32196 -0.137,0.38282 -0.40892,0.90165 -0.64553,1.23106 -0.23576,0.32822 -0.75039,0.82595 -1.08498,1.04936 -0.30174,0.20136 -0.35106,0.22633 -0.65427,0.32944 -0.23513,0.08 -0.4107,0.19593 -0.4107,0.27099 0,0.0196 0.0681,0.11482 0.15156,0.21354 0.0833,0.0987 0.21756,0.27446 0.29839,0.39047 0.21071,0.30236 0.34577,0.38382 0.65429,0.39443 0.13721,0.004 0.32229,-0.0131 0.41164,-0.037 z m -1.23455,-1.31963 c 0.43902,-0.1407 0.91074,-0.46033 1.40198,-0.9496 0.56038,-0.55812 1.08621,-1.50581 1.21645,-2.19242 0.0874,-0.46005 0.0566,-0.82556 -0.0655,-0.77874 -0.0576,0.0222 -0.10307,0.13003 -0.162,0.3835 -0.0611,0.26318 -0.23738,0.56533 -0.43128,0.73964 -0.24831,0.22326 -0.55113,0.3599 -0.97806,0.4413 -0.95805,0.18266 -1.3016,0.31819 -1.65107,0.65153 -0.29761,0.28391 -0.43195,0.57126 -0.43332,0.92694 -8.4e-4,0.30206 0.052,0.43248 0.25407,0.62328 0.24266,0.22915 0.48105,0.27255 0.84894,0.15461 z m -4.85831,-0.69431 c 0.22325,-0.0817 0.26741,-0.17396 0.28274,-0.59072 0.0252,-0.6824 -0.1457,-1.76978 -0.40329,-2.56861 -0.27238,-0.84439 -0.76035,-1.6697 -0.98717,-1.6697 -0.0646,0 -0.0545,0.0882 0.0428,0.38205 0.12612,0.38071 0.16961,0.75859 0.1246,1.08251 -0.0482,0.34758 -0.12048,0.62226 -0.22633,0.86155 -0.2652,0.59964 -0.40783,1.15643 -0.40783,1.59196 0,0.44748 0.13982,0.71162 0.4538,0.85731 0.16809,0.0781 0.25231,0.0924 0.58316,0.10003 0.28228,0.007 0.4274,-0.004 0.5375,-0.0465 z m 1.3702,-0.27867 c 0.27309,-0.0735 0.38416,-0.14177 0.48972,-0.30136 0.08,-0.12091 0.097,-0.19006 0.10917,-0.44856 0.0298,-0.62277 -0.24049,-1.22872 -0.88141,-1.9762 -0.24765,-0.28882 -1.78267,-1.75394 -1.83762,-1.75394 -0.0796,0 -0.0641,0.0367 0.12525,0.29975 0.47522,0.65989 0.83989,1.76187 0.96671,2.92122 0.12329,1.12662 0.13526,1.1767 0.30311,1.26351 0.12264,0.0634 0.48113,0.0613 0.72498,-0.004 z m 0.45722,-3.66001 c 0.27883,-0.0987 0.49735,-0.38756 0.40504,-0.53549 -0.0196,-0.0309 -0.0968,-0.0694 -0.17201,-0.0857 -0.22547,-0.0482 -0.35031,-0.12612 -0.46573,-0.28992 -0.0629,-0.0891 -0.13721,-0.15504 -0.17505,-0.15504 -0.10633,0 -0.36221,0.19244 -0.45093,0.3391 -0.10873,0.17983 -0.11133,0.42289 -0.005,0.55694 0.16505,0.20983 0.54264,0.28409 0.86494,0.17003 z m 1.49624,-0.19614 c 0.0269,-0.0435 0.069,-0.15482 0.0935,-0.24739 0.0568,-0.21333 0.16939,-0.30624 0.37049,-0.30624 0.1246,0 0.16591,0.0174 0.24133,0.10807 0.05,0.0594 0.0911,0.12786 0.0911,0.152 0,0.0517 0.13199,0.17723 0.21906,0.20767 0.0891,0.0313 0.33325,-0.0653 0.4714,-0.18636 0.0661,-0.0578 0.20658,-0.20245 0.31237,-0.32092 0.10568,-0.11851 0.25724,-0.24761 0.33668,-0.2869 0.16853,-0.0833 0.33187,-0.29263 0.38635,-0.49493 0.13895,-0.51575 -0.38289,-1.15634 -1.09683,-1.34663 -0.30298,-0.0807 -0.97952,-0.08 -1.3145,0.002 -0.87797,0.21333 -1.65217,0.93309 -1.7254,1.60408 -0.0174,0.16614 -0.009,0.21072 0.0624,0.31636 0.0933,0.13764 0.26048,0.23347 0.46112,0.26449 0.0748,0.0131 0.16005,0.0535 0.19332,0.095 0.19071,0.23801 0.34625,0.38371 0.47767,0.44734 0.20072,0.097 0.35724,0.0943 0.41989,-0.007 z m -1.27044,-0.84189 c -0.0756,-0.0756 -0.0494,-0.36886 0.0524,-0.58392 0.14134,-0.29889 0.56031,-0.70266 0.8918,-0.85949 0.36466,-0.17244 0.58579,-0.21847 1.05242,-0.21878 0.45785,-2.8e-4 0.78644,0.0798 1.08838,0.26569 0.27566,0.16962 0.45829,0.45954 0.45829,0.72749 0,0.24215 -0.1533,0.3041 -0.18961,0.0765 -0.0543,-0.34031 -0.41192,-0.65593 -0.86501,-0.76359 -0.51366,-0.12198 -0.95787,-0.0802 -1.38848,0.13113 -0.50947,0.24979 -0.8254,0.61611 -0.88066,1.02109 -0.0131,0.087 -0.0276,0.17788 -0.035,0.20201 -0.0174,0.0561 -0.12939,0.057 -0.18441,0.002 z m -1.41555,0.249 c 0.0663,-0.0196 0.28353,-0.14874 0.48265,-0.28599 0.35289,-0.24328 0.36347,-0.25453 0.41867,-0.44445 0.0311,-0.1072 0.0876,-0.25587 0.1259,-0.33044 0.0381,-0.0746 0.0643,-0.16939 0.0583,-0.21071 -0.0259,-0.17788 -0.55494,-0.39 -0.97756,-0.3917 -0.36653,-0.002 -0.51143,0.0753 -0.64588,0.34202 -0.0912,0.18048 -0.10111,0.23616 -0.10307,0.56082 -0.002,0.39653 0.0402,0.57325 0.16657,0.692 0.0972,0.0913 0.30117,0.1209 0.47457,0.0685 z m 6.09043,-0.23869 c 0.2018,-0.12808 0.36632,-0.36427 0.47303,-0.67967 0.0908,-0.26862 0.1009,-0.39909 0.0456,-0.59778 -0.0459,-0.16526 -0.16918,-0.23376 -0.46494,-0.25836 -0.31866,-0.0265 -0.64758,0.0713 -0.7498,0.22306 -0.0666,0.0985 -0.0722,0.13374 -0.0424,0.26348 0.0391,0.17157 0.0152,0.42685 -0.063,0.66772 -0.0517,0.1594 -0.0509,0.17114 0.0218,0.27293 0.16874,0.23685 0.50414,0.28358 0.78,0.10873 z m -4.65949,-1.37608 c 0.1133,-0.0994 0.26512,-0.22281 0.33736,-0.27404 0.16765,-0.11895 0.18244,-0.16939 0.11199,-0.37891 -0.18549,-0.55135 -0.90958,-1.2418 -1.30367,-1.24302 -0.43609,-0.002 -0.97837,0.62535 -0.97837,1.13062 0,0.18027 0.0131,0.21332 0.11786,0.3225 0.12851,0.13286 0.23965,0.18049 0.74337,0.31968 0.18374,0.0507 0.42077,0.13526 0.52686,0.18766 0.10611,0.0526 0.2031,0.10025 0.21571,0.10591 0.0131,0.004 0.11569,-0.0711 0.22891,-0.17049 z m 3.77394,-0.16266 c 0.029,-0.0109 0.17135,-0.0741 0.31635,-0.14221 0.1894,-0.0887 0.34279,-0.13222 0.54487,-0.15418 0.36595,-0.04 0.43223,-0.057 0.5104,-0.12959 0.15678,-0.14592 0.17657,-0.3817 0.0655,-0.77731 -0.20223,-0.72079 -0.64479,-1.00185 -1.16196,-0.73801 -0.3704,0.18896 -0.97895,1.01525 -0.97762,1.32745 7.4e-4,0.15266 0.0108,0.16874 0.19287,0.30174 0.0774,0.0566 0.20006,0.15526 0.27254,0.21952 0.13548,0.11982 0.147,0.12417 0.23717,0.0926 z m -2.777,-0.46487 c 0.0292,-0.0152 0.17722,-0.0587 0.32929,-0.0942 0.35166,-0.0817 0.35671,-0.092 0.30919,-0.61594 -0.0259,-0.28432 -0.0248,-0.5387 0.005,-0.87799 0.0322,-0.39089 0.0309,-0.49862 -0.009,-0.59293 -0.0713,-0.17244 -0.22093,-0.24728 -0.49413,-0.24744 -0.63755,-3.7e-4 -1.4727,0.44511 -1.53317,0.81778 -0.0417,0.25729 0.0711,0.4306 0.46182,0.70943 0.28702,0.20485 0.4535,0.40067 0.59164,0.69601 0.0943,0.20157 0.12417,0.23711 0.19941,0.23619 0.0485,-3.7e-4 0.11221,-0.0131 0.14113,-0.0309 z m 1.78437,-0.17048 c 0.0389,-0.0389 0.16243,-0.22672 0.27467,-0.41745 0.15873,-0.26996 0.29201,-0.43459 0.60157,-0.74383 0.3548,-0.35437 0.39759,-0.41034 0.39759,-0.51974 0,-0.15939 -0.0807,-0.27849 -0.26098,-0.38406 -0.4732,-0.27732 -1.24468,-0.36013 -1.56935,-0.16853 -0.14048,0.0828 -0.29922,0.41192 -0.35299,0.73092 -0.0414,0.245 -0.0259,1.30761 0.0217,1.42778 0.0152,0.0398 0.0863,0.0629 0.23976,0.0783 0.11982,0.0131 0.29889,0.032 0.39798,0.0444 0.15222,0.0196 0.19115,0.0131 0.25085,-0.0478 z m 4.24415,-4.47311 c 0.6315,-0.11351 1.15478,-0.50867 1.6601,-1.25338 0.22546,-0.33227 1.34538,-2.39439 1.34538,-2.47726 0,-0.0257 -0.21763,0.17114 -0.48362,0.43714 -0.61863,0.61872 -1.0554,0.93496 -1.82005,1.31781 -0.52085,0.26079 -0.92246,0.36313 -1.60843,0.40988 -0.1507,0.0109 -0.3062,0.0361 -0.34571,0.0571 -0.10351,0.0552 -0.17135,0.24576 -0.17114,0.47983 2.6e-4,0.28331 0.0507,0.43586 0.2105,0.63805 0.25583,0.32368 0.73256,0.47726 1.21304,0.39083 z m -11.61821,-0.60156 c 0.247,-0.0508 0.35777,-0.29824 0.42621,-0.95166 0.0598,-0.57127 0.0226,-1.80412 -0.0695,-2.31304 -0.1122,-0.61777 -0.34868,-1.34649 -0.35884,-1.10551 -0.009,0.21745 -0.13264,0.80721 -0.2155,1.02909 -0.0385,0.10286 -0.16526,0.34814 -0.28225,0.54486 -0.11677,0.19679 -0.24351,0.42881 -0.28153,0.51583 -0.36471,0.83433 -0.4012,1.6952 -0.0861,2.03294 0.17178,0.18419 0.59255,0.30413 0.86776,0.24749 z m 1.50012,-0.41386 c 0.36719,-0.0943 0.57633,-0.33653 0.6457,-0.74784 0.097,-0.5754 -0.085,-1.30128 -0.44954,-1.79157 -0.14004,-0.18854 -0.59327,-0.65086 -0.73561,-0.75058 -0.0981,-0.0687 -0.4584,-0.52295 -0.58138,-0.73299 -0.0903,-0.15418 -0.19876,-0.21702 -0.20637,-0.1196 -0.0131,0.15157 0.0196,0.35897 0.0917,0.58866 0.20724,0.66913 0.26471,1.13943 0.28183,2.31068 0.0152,1.05434 0.0196,1.07985 0.24139,1.19451 0.12264,0.0637 0.54221,0.0924 0.71224,0.0487 z m 9.27585,-0.72707 c 0.66041,-0.0529 1.09755,-0.16527 1.62207,-0.41706 0.71244,-0.34218 1.16646,-0.67821 1.84449,-1.36514 0.39023,-0.39533 0.55121,-0.61691 0.50384,-0.69356 -0.0283,-0.0456 -0.0817,-0.0152 -0.48241,0.26852 -0.72966,0.51761 -1.26646,0.67187 -1.99743,0.57408 -0.53396,-0.0713 -1.03053,-0.0533 -1.30942,0.048 -0.64683,0.23476 -1.02581,0.86396 -0.86631,1.43826 0.0196,0.0722 0.0635,0.14438 0.0966,0.16025 0.033,0.0152 0.29789,0.0109 0.58869,-0.0131 z m -1.82788,-3.7423 c 0.37212,-0.14308 0.75128,-0.59276 0.94805,-1.12406 0.12047,-0.32534 0.15287,-0.87339 0.0882,-1.49963 -0.0629,-0.61083 -0.54917,-2.55335 -0.69587,-2.77933 -0.12851,-0.1981 -0.13895,-0.0285 -0.0442,0.7294 0.0507,0.40674 0.0419,1.19947 -0.0174,1.60354 -0.12612,0.84844 -0.46037,1.52193 -1.03692,2.08837 -0.35287,0.34668 -0.42867,0.47066 -0.4136,0.67651 0.009,0.12134 0.0311,0.16006 0.1296,0.22615 0.0653,0.0439 0.17614,0.0959 0.24606,0.11526 0.20746,0.0578 0.59905,0.0398 0.79652,-0.0361 z m -1.36791,-0.66343 c 0.20354,-0.0926 0.48545,-0.39182 0.77885,-0.82738 0.53113,-0.78828 0.7271,-1.42011 0.7692,-2.47978 0.0302,-0.76031 -0.077,-1.81019 -0.18919,-1.85327 -0.0842,-0.0322 -0.10372,0.0416 -0.12612,0.47592 -0.0354,0.68526 -0.20071,1.16531 -0.5271,1.53145 -0.0811,0.0911 -0.34514,0.33556 -0.58667,0.54334 -0.72049,0.61982 -1.07865,1.11711 -1.16563,1.61838 -0.0698,0.40183 0.0842,0.79751 0.37958,0.97639 0.17071,0.10328 0.45822,0.10981 0.66717,0.0152 z"
         id="path931-40-5"
         sodipodi:nodetypes="ssssssssssssssssssssssssssssscsssssssssssssssssssscsssssssssssssssscsssssssscsssssssssscssssssssssscsssssscssssssssssssssssssccsssssssssssssccssssssssssssssssssssssssssssssssssscssscsssssssssscsssssscssccsssssscccsssssssssccssssscsssssssscsssssssssssssssssssssssssssssscsssssssssscssssssssssscssssssssssssssssssscsssssssssscssssscccsscssssscsccssssssssssssssssssssssssssssssssssscsssssssscssscsssssssssssssssssssscssssssssssssssssssssscsssssssscssssssscsssssssssssss"
         inkscape:connector-curvature="0" />
      <path
         style="fill:#000000;stroke-width:0.0351516"
         d="m 221.19719,173.76636 c -0.88655,0.37821 -1.71326,1.25352 -2.5364,2.68551 -1.08116,1.88092 -1.67494,4.36136 -1.8484,7.72179 -0.0811,1.57194 -0.14504,2.65887 -0.16091,2.73305 -0.0131,0.0693 -0.0387,0.0789 -0.19354,0.0789 -0.21223,0 -0.35547,0.0672 -0.41299,0.19332 -0.12307,0.26999 0.38357,0.6905 0.89297,0.74125 0.54777,0.0546 0.70842,-0.24935 0.32299,-0.61115 -0.13134,-0.12351 -0.13743,-0.13808 -0.11721,-0.28823 0.0503,-0.3715 0.094,-0.90514 0.1768,-2.16182 0.0996,-1.50991 0.12024,-1.74002 0.15612,-1.74002 0.0131,0 0.0448,0.19375 0.0687,0.43062 0.14591,1.44602 0.50223,3.17074 0.85868,4.1567 0.14743,0.40778 0.0788,1.36357 -0.17288,2.4002 -0.13286,0.54747 -0.25094,0.89262 -0.45395,1.32587 -0.27986,0.59725 -0.7615,1.29713 -1.26317,1.8356 -0.26642,0.28598 -0.75729,0.68589 -0.8959,0.72988 -0.0491,0.0152 -0.13591,-0.0174 -0.27481,-0.10264 -0.23209,-0.1433 -0.36289,-0.15743 -0.4694,-0.0509 -0.21375,0.21376 0.1744,0.98047 0.61227,1.20971 0.16025,0.084 0.21223,0.0961 0.29077,0.0681 0.18071,-0.0643 0.18745,-0.12873 0.0631,-0.60165 -0.0152,-0.0622 0.0196,-0.10155 0.20332,-0.22584 0.47546,-0.32048 1.40715,-1.36893 1.80105,-2.02675 0.18309,-0.30595 0.45032,-0.88255 0.58251,-1.25742 0.13373,-0.37956 0.36652,-1.30689 0.42699,-1.70174 0.0239,-0.15634 0.0566,-0.28434 0.072,-0.28434 0.0348,0 0.23154,0.38865 0.35618,0.70305 0.0498,0.12569 0.16984,0.40624 0.26671,0.6235 0.20028,0.44895 0.25036,0.71046 0.25016,1.3036 -2.6e-4,0.75576 -0.14678,1.7966 -0.33505,2.37898 -0.0498,0.15461 -0.16874,0.43941 -0.2637,0.63273 -0.15744,0.31999 -0.19246,0.36572 -0.39295,0.50985 -0.24582,0.17679 -0.32526,0.30176 -0.29105,0.45759 0.0391,0.17875 0.19701,0.2584 0.50761,0.2564 0.5152,-0.004 0.91607,-0.20267 0.92333,-0.45939 0.004,-0.13744 -0.0844,-0.24514 -0.23309,-0.28436 -0.13873,-0.0365 -0.13677,-0.11047 0.0131,-0.46251 0.16657,-0.392 0.31109,-0.8501 0.38928,-1.23387 0.0742,-0.36399 0.17419,-1.18157 0.17462,-1.42888 7.4e-4,-0.29445 0.0861,-0.18788 0.3928,0.48953 0.27332,0.6038 0.27198,0.59882 0.30744,1.13623 0.0274,0.41391 0.0437,0.49123 0.17309,0.82 0.29659,0.75245 0.35997,1.23293 0.21822,1.65353 -0.0414,0.12308 -0.0687,0.23048 -0.0606,0.23861 0.0435,0.0435 0.32797,-0.23946 0.42186,-0.41958 0.0583,-0.11177 0.11917,-0.18984 0.13569,-0.17352 0.13222,0.13221 0.12134,1.85133 -0.0196,3.17733 -0.1657,1.55385 -0.32714,2.25689 -0.68095,2.96431 -0.18789,0.3755 -0.3184,0.5722 -0.53427,0.80462 -0.2906,0.31285 -0.77187,0.61846 -0.97575,0.61957 -0.0538,2.8e-4 -0.12156,0.0152 -0.1507,0.0358 -0.0448,0.03 -0.0396,0.0465 0.0353,0.10894 0.0746,0.0624 0.11981,0.0709 0.2988,0.0555 0.11591,-0.0109 0.28737,-0.0526 0.3808,-0.0948 0.0935,-0.0424 0.17831,-0.0683 0.18854,-0.0578 0.0293,0.0294 -0.18636,0.36229 -0.44718,0.69028 -0.29425,0.37001 -1.01219,1.07218 -1.38773,1.35731 -1.06513,0.80867 -2.16841,1.27985 -3.37456,1.44118 -0.63708,0.085 -1.49423,0.0196 -1.80018,-0.1394 -0.14135,-0.073 -0.40081,-0.34829 -0.61966,-0.65735 -0.27177,-0.38383 -0.37471,-0.36865 -0.28747,0.0424 0.0261,0.12264 0.0589,0.25255 0.073,0.2886 0.0222,0.0566 0.0131,0.062 -0.0585,0.0396 -0.17592,-0.0542 -0.51205,-0.28991 -0.75127,-0.52699 -0.60622,-0.60081 -0.90885,-1.24447 -1.00821,-2.14427 -0.0894,-0.81059 0.0561,-1.65087 0.40162,-2.31619 0.62105,-1.19627 1.74523,-1.9212 2.97597,-1.91908 0.67649,8.7e-4 1.15768,0.24352 1.34547,0.67764 0.11568,0.26732 0.30204,0.34819 0.45347,0.19679 0.0613,-0.0613 0.0702,-0.0994 0.0509,-0.21938 -0.0678,-0.42555 -0.46326,-0.81497 -1.02224,-1.00731 -0.76547,-0.26335 -1.88143,-0.0883 -2.84239,0.44582 -0.87854,0.48832 -1.64023,1.61217 -1.83109,2.70177 -0.0713,0.40611 -0.0996,1.10783 -0.0596,1.47513 0.0196,0.17396 0.0294,0.32139 0.0234,0.32757 -0.004,0.004 -0.0998,-0.004 -0.20853,-0.0252 -0.24024,-0.0444 -0.41475,-0.0174 -0.3995,0.0615 0.004,0.0304 0.05,0.0739 0.0983,0.0966 0.0482,0.0226 0.20876,0.0972 0.35656,0.16612 0.26284,0.12244 0.27034,0.12939 0.33066,0.31112 0.22826,0.68721 0.62983,1.25775 1.17311,1.66673 0.51913,0.39078 1.14291,0.67505 1.82588,0.83206 0.29322,0.0674 0.43702,0.0777 1.07659,0.0765 0.66763,-8.8e-4 0.7819,-0.0109 1.19519,-0.0979 0.52765,-0.11156 1.14521,-0.31013 1.54132,-0.49588 0.15178,-0.0713 0.28404,-0.12134 0.29398,-0.11133 0.0108,0.0108 -0.007,0.0929 -0.0388,0.18439 -0.0692,0.20288 -0.0765,0.44741 -0.0131,0.42643 0.0241,-0.007 0.1072,-0.12895 0.18461,-0.26912 0.20572,-0.37239 0.4811,-0.63757 1.39105,-1.33916 0.16287,-0.12569 0.50283,-0.43619 0.75537,-0.69013 0.96675,-0.97216 1.54032,-1.91548 2.06966,-3.40383 0.10743,-0.30226 0.19549,-0.57151 0.19549,-0.5983 0,-0.0698 0.0692,-0.242 0.0891,-0.22204 0.0322,0.0322 -0.12613,0.83609 -0.24896,1.26507 -0.38681,1.34845 -0.85796,2.38279 -1.48326,3.25618 -0.87084,1.21641 -2.13398,2.15231 -3.6296,2.68926 -1.2657,0.45442 -2.34611,0.6561 -3.74172,0.69854 l -0.34958,0.0109 -0.10177,-0.15069 c -0.142,-0.21007 -0.23702,-0.26767 -0.35384,-0.21441 -0.15287,0.0695 -0.20962,0.28184 -0.18918,0.70592 0.0108,0.19918 0.0358,0.42102 0.058,0.49289 0.0606,0.1955 0.19962,0.34384 0.3222,0.34384 0.17722,0 0.27131,-0.15091 0.32961,-0.52867 l 0.0196,-0.12439 0.6589,-0.0426 c 1.05523,-0.0683 1.87418,-0.21724 2.78485,-0.50682 1.11205,-0.3536 2.30375,-0.98067 2.97104,-1.56333 0.22586,-0.19723 0.25074,-0.127 0.0566,0.15917 -0.43086,0.63449 -1.31733,1.60249 -1.70113,1.85765 -0.48664,0.32351 -1.13711,0.53809 -1.63121,0.53809 -0.25759,0 -0.233,0.073 0.0448,0.13265 0.34462,0.0739 1.00318,-0.0255 1.35406,-0.20462 0.16048,-0.082 0.17223,-0.0833 0.17223,-0.0196 0,0.0274 -0.13678,0.19745 -0.30392,0.37787 -0.34245,0.36967 -0.50455,0.60185 -0.50455,0.72273 0,0.2057 0.17787,0.10568 0.68362,-0.3843 0.13439,-0.13026 0.25057,-0.23031 0.25825,-0.22261 0.0389,0.0389 -0.67448,0.93058 -1.14411,1.43009 -0.25483,0.27104 -1.14888,1.10941 -1.3322,1.24922 -0.1072,0.0816 -0.11655,0.0828 -0.24189,0.0304 -0.32248,-0.1346 -0.52075,-0.0348 -0.44339,0.22344 0.0959,0.3197 0.44243,0.61538 0.6967,0.59429 0.16418,-0.0131 0.22112,-0.10851 0.22189,-0.36952 l 3.7e-4,-0.18266 0.4306,-0.36186 c 0.97947,-0.82307 1.73483,-1.67906 2.92548,-3.31513 1.52962,-2.10188 2.58115,-3.85634 3.27081,-5.4573 0.15765,-0.36591 0.25155,-0.50551 0.21288,-0.31637 -0.009,0.0435 -0.0261,0.22146 -0.0383,0.39546 -0.0505,0.72357 -0.32539,1.98847 -0.66849,3.07578 -0.0641,0.20288 -0.14069,0.45615 -0.17049,0.56257 -0.0393,0.14113 -0.0935,0.23159 -0.20027,0.33397 -0.26564,0.25511 -0.29682,0.47678 -0.0739,0.52573 0.33955,0.0746 1.13112,-0.36513 1.13112,-0.62829 0,-0.10872 -0.0716,-0.16352 -0.24468,-0.18657 -0.0781,-0.0109 -0.14199,-0.0328 -0.14199,-0.0498 0,-0.0174 0.0566,-0.21658 0.12569,-0.44358 0.42888,-1.40899 0.649,-2.72885 0.82506,-4.94722 0.14134,-2.72602 0.1359,-5.91499 -0.83601,-8.17276 -0.27253,-0.62233 -0.27135,-0.59758 -0.0285,-0.59758 0.10981,0 0.23166,-0.0174 0.27064,-0.0381 0.0676,-0.0363 0.0681,-0.0411 0.0109,-0.10546 -0.0337,-0.0372 -0.11807,-0.0833 -0.18744,-0.10221 -0.17809,-0.0487 -0.33227,-0.15069 -0.4339,-0.28729 -0.048,-0.0646 -0.22576,-0.38613 -0.39499,-0.71481 -0.16918,-0.32869 -0.42692,-0.81112 -0.5727,-1.07211 -0.33914,-0.60732 -1.26412,-2.45734 -1.42355,-2.8473 -0.18723,-0.45768 -0.31759,-0.86969 -0.29448,-0.92993 0.0313,-0.0811 0.15961,-0.0657 0.29174,0.035 0.0952,0.0725 0.13047,0.0822 0.18788,0.0515 0.0898,-0.048 0.0887,-0.0629 -0.0131,-0.21397 -0.0756,-0.11156 -0.16657,-0.16961 -0.51292,-0.3282 -0.0662,-0.0302 -0.11112,-0.10634 -0.18114,-0.30563 -0.15026,-0.42782 -0.34345,-1.32162 -0.4053,-1.87564 -0.0663,-0.59334 -0.0363,-0.71242 0.0952,-0.38102 0.13938,0.35079 0.45721,0.96533 0.6526,1.2622 0.21268,0.32309 0.72271,0.87751 1.01384,1.10212 0.10764,0.0831 0.19549,0.17048 0.19549,0.1944 0,0.0239 -0.0474,0.10329 -0.10546,0.17636 -0.28215,0.35503 0.0354,0.56572 0.50968,0.33811 0.66051,-0.31705 0.77339,-0.99802 0.12677,-0.76415 -0.11851,0.043 -0.1209,0.0417 -0.36525,-0.18723 -0.59304,-0.55572 -0.83173,-0.81079 -1.00507,-1.07402 -0.32048,-0.48664 -0.7316,-1.41374 -0.65768,-1.48308 0.0174,-0.0152 0.0381,-0.007 0.0476,0.0196 0.0339,0.0959 0.27256,0.33001 0.47898,0.47017 0.78782,0.53499 1.69763,0.33687 2.06578,-0.44988 0.16026,-0.34218 0.20702,-0.5542 0.22943,-1.03699 0.0233,-0.50019 -0.037,-0.89941 -0.18461,-1.22467 -0.10286,-0.22678 -0.10482,-0.27678 -0.0152,-0.39122 0.0698,-0.0892 0.0903,-0.23215 0.0433,-0.30214 -0.048,-0.0718 -0.20897,-0.0837 -0.39246,-0.0293 -0.21867,0.065 -0.52734,0.33916 -0.53391,0.47434 -0.0109,0.2214 0.0278,0.25382 0.27233,0.228 l 0.18027,-0.0196 0.0768,0.17852 c 0.17701,0.41164 0.23799,1.20726 0.12483,1.63138 -0.19985,0.74905 -0.81208,1.06804 -1.44867,0.75464 -0.30849,-0.15178 -0.6541,-0.49787 -0.82398,-0.82494 -0.80057,-1.54122 -0.63938,-4.24481 0.36571,-6.13397 0.59347,-1.11552 1.19543,-1.91587 1.76059,-2.34085 0.11916,-0.0896 0.37025,-0.24007 0.55783,-0.33421 0.31673,-0.15896 0.34268,-0.18006 0.36421,-0.29476 0.0309,-0.16483 -0.004,-0.34212 -0.0935,-0.45393 -0.0979,-0.12439 -0.29315,-0.12047 -0.60274,0.0131 z m -1.13377,3.28546 c -0.26594,0.11699 -0.73623,0.78124 -0.96062,1.35695 -0.20049,0.51465 -0.28691,1.35284 -0.18505,1.79842 0.15852,0.69478 0.57309,1.29397 0.89562,1.29472 0.22208,3.7e-4 0.38759,-0.0837 0.62774,-0.31968 0.31054,-0.30504 0.31698,-0.38811 0.0596,-0.76981 -0.47468,-0.70408 -0.66789,-1.27847 -0.67389,-2.00365 -0.004,-0.5923 0.0835,-0.90723 0.33085,-1.17783 0.0933,-0.10199 0.16939,-0.19506 0.16939,-0.2068 0,-0.037 -0.1533,-0.0217 -0.26361,0.0276 z m 0.0385,0.44461 c -0.15548,0.38844 -0.14787,1.09998 0.0174,1.63515 0.14895,0.48255 0.4708,1.03671 0.81994,1.41179 l 0.18897,0.2031 0.22337,-0.004 c 0.14982,-0.002 0.2844,-0.0295 0.40872,-0.0837 0.19375,-0.0842 0.37661,-0.26117 0.3367,-0.32572 -0.0131,-0.0217 -0.007,-0.0276 0.0131,-0.0131 0.0678,0.0419 0.12308,-0.21856 0.10612,-0.5004 -0.0341,-0.56638 -0.43267,-1.03062 -1.18756,-1.38322 -0.50927,-0.23789 -0.71425,-0.4548 -0.77343,-0.81847 -0.0442,-0.27103 -0.0824,-0.30106 -0.15461,-0.1209 z m 1.28912,9.55841 c -0.14743,0.0669 -0.29032,0.24283 -0.29058,0.35773 -9e-5,0.0318 0.0546,0.1346 0.12134,0.22848 0.23678,0.33303 0.43623,0.70198 0.54,0.99887 0.33122,0.94769 0.43306,2.3113 0.21884,2.93015 -0.0678,0.19614 -0.0709,0.28486 -0.007,0.21158 0.0491,-0.0563 0.39134,-0.96094 0.46283,-1.22373 0.12569,-0.46177 0.21354,-1.11504 0.23481,-1.74491 0.0298,-0.88429 -0.0442,-1.23222 -0.32953,-1.5487 -0.0739,-0.0817 -0.19766,-0.17766 -0.27488,-0.21289 -0.18592,-0.0847 -0.48522,-0.0833 -0.67595,0.004 z m -1.01698,0.52706 c -0.21935,0.0524 -0.3421,0.15287 -0.45008,0.36863 -0.17744,0.3544 -0.16092,0.82721 0.0428,1.23225 0.20049,0.39864 0.41597,0.63899 1.03334,1.15283 0.52924,0.44048 0.7336,0.74058 0.79848,1.17246 l 0.0257,0.17049 0.0772,-0.22851 c 0.10633,-0.31443 0.12786,-0.58599 0.0814,-1.01937 -0.0882,-0.81986 -0.30014,-1.59147 -0.59247,-2.15847 -0.318,-0.61678 -0.57938,-0.79436 -1.01605,-0.69031 z m -4.83465,0.11917 c -0.34309,0.0961 -0.55785,0.30352 -0.71974,0.69482 -0.0814,0.19636 -0.095,0.28658 -0.10916,0.7214 -0.0174,0.54516 0.0131,0.79613 0.16004,1.29585 0.0726,0.24695 0.0935,0.39346 0.0943,0.66787 8.6e-4,0.32927 -0.007,0.37201 -0.13352,0.67531 -0.13264,0.31908 -0.14004,0.39683 -0.0374,0.39683 0.1383,0 0.74095,-0.69154 1.0384,-1.19156 0.54585,-0.91756 0.79251,-2.35367 0.50516,-2.94098 -0.0508,-0.10415 -0.14134,-0.22397 -0.20049,-0.26618 -0.13264,-0.0943 -0.37454,-0.11591 -0.59781,-0.0535 z m 1.16605,0.46463 c -0.0196,0.0496 -0.0344,0.15939 -0.0344,0.24428 0,0.26079 -0.1035,0.9654 -0.19593,1.33527 -0.15503,0.61902 -0.53308,1.36561 -0.93234,1.84067 -0.22389,0.26642 -0.60665,0.59164 -0.84015,0.71392 -0.33545,0.1757 -0.0816,0.26851 0.36386,0.13308 0.35597,-0.10807 0.6446,-0.24544 0.99285,-0.47244 0.34688,-0.22608 0.92402,-0.77059 1.17313,-1.1067 0.5083,-0.68586 0.74965,-1.49699 0.59662,-2.00502 -0.0937,-0.31122 -0.67627,-0.77333 -0.97481,-0.77333 -0.0907,0 -0.12178,0.0196 -0.14896,0.09 z m -3.23728,5.75664 c -0.47607,0.13352 -0.92424,0.6307 -1.13547,1.2599 -0.13352,0.39776 -0.18484,0.68141 -0.24732,1.36486 -0.0309,0.33833 -0.0713,0.71799 -0.0896,0.84366 -0.0414,0.28134 -0.0437,0.6347 -0.004,0.6959 0.0424,0.0669 0.0811,0.004 0.19744,-0.32195 0.137,-0.38283 0.40893,-0.90165 0.64554,-1.23107 0.23576,-0.32822 0.75038,-0.82595 1.08498,-1.04936 0.30174,-0.20136 0.35105,-0.22632 0.65426,-0.32944 0.23514,-0.08 0.41071,-0.19593 0.41071,-0.27099 0,-0.0196 -0.0681,-0.11481 -0.15156,-0.21354 -0.0833,-0.0987 -0.21756,-0.27444 -0.29839,-0.39046 -0.21071,-0.30236 -0.34578,-0.38382 -0.6543,-0.39444 -0.13721,-0.004 -0.32228,0.0131 -0.41163,0.037 z m 1.23454,1.31964 c -0.43901,0.14069 -0.91074,0.46032 -1.40198,0.94959 -0.56037,0.55811 -1.0862,1.50581 -1.21645,2.19242 -0.0874,0.46005 -0.0566,0.82556 0.0655,0.77874 0.0576,-0.0222 0.10307,-0.13004 0.162,-0.38349 0.0611,-0.26319 0.23737,-0.56534 0.43128,-0.73965 0.2483,-0.22326 0.55113,-0.35991 0.97805,-0.4413 0.95806,-0.18266 1.30161,-0.3182 1.65108,-0.65153 0.29761,-0.28391 0.43194,-0.57127 0.43332,-0.92693 8.4e-4,-0.30207 -0.052,-0.4325 -0.25408,-0.62329 -0.24265,-0.22916 -0.48105,-0.27256 -0.84893,-0.15461 z m 4.8583,0.6943 c -0.22323,0.0818 -0.26739,0.17396 -0.28273,0.59071 -0.0252,0.6824 0.14569,1.76978 0.40329,2.56861 0.27239,0.8444 0.76034,1.66972 0.98717,1.66972 0.0646,0 0.0546,-0.0882 -0.0428,-0.38207 -0.12612,-0.38069 -0.16961,-0.75858 -0.12459,-1.08251 0.0482,-0.34757 0.12046,-0.62226 0.22631,-0.86154 0.26522,-0.59965 0.40784,-1.15643 0.40784,-1.59197 0,-0.44748 -0.13982,-0.71162 -0.4538,-0.8573 -0.16809,-0.0781 -0.25231,-0.0924 -0.58317,-0.10003 -0.28227,-0.007 -0.4274,0.004 -0.5375,0.0465 z m -1.37018,0.27866 c -0.2731,0.0735 -0.38416,0.14178 -0.48973,0.30137 -0.08,0.12091 -0.097,0.19006 -0.10916,0.44856 -0.0298,0.62277 0.24048,1.22872 0.8814,1.97619 0.24766,0.28882 1.78268,1.75395 1.83763,1.75395 0.0796,0 0.0641,-0.0367 -0.12525,-0.29976 -0.47522,-0.65988 -0.83989,-1.76187 -0.96671,-2.92121 -0.1233,-1.12663 -0.13526,-1.17671 -0.30311,-1.26351 -0.12265,-0.0635 -0.48114,-0.0613 -0.72498,0.004 z m -0.45722,3.66001 c -0.27884,0.0987 -0.49736,0.38757 -0.40505,0.5355 0.0196,0.0309 0.0968,0.0693 0.172,0.0857 0.22548,0.0482 0.35032,0.12612 0.46575,0.28992 0.0629,0.0891 0.13721,0.15505 0.17504,0.15505 0.10634,0 0.36221,-0.19244 0.45094,-0.33909 0.10872,-0.17984 0.11133,-0.4229 0.004,-0.55694 -0.16505,-0.20985 -0.54263,-0.2841 -0.86494,-0.17005 z m -1.49625,0.19615 c -0.0269,0.0435 -0.069,0.15482 -0.0935,0.24739 -0.0568,0.21333 -0.1694,0.30624 -0.3705,0.30624 -0.1246,0 -0.16592,-0.0174 -0.24133,-0.10807 -0.05,-0.0594 -0.0912,-0.12787 -0.0912,-0.15201 0,-0.0517 -0.132,-0.17721 -0.21906,-0.20766 -0.0892,-0.0313 -0.33325,0.0652 -0.4714,0.18635 -0.0661,0.0578 -0.20657,0.20245 -0.31237,0.32092 -0.10568,0.11851 -0.25724,0.24762 -0.33667,0.28691 -0.16853,0.0833 -0.33189,0.29263 -0.38635,0.49492 -0.13896,0.51576 0.38289,1.15635 1.09682,1.34664 0.30298,0.0807 0.97952,0.08 1.31451,-0.002 0.87796,-0.21332 1.65216,-0.93309 1.7254,-1.60408 0.0174,-0.16614 0.009,-0.21071 -0.0624,-0.31635 -0.0933,-0.13765 -0.26049,-0.23348 -0.46114,-0.26448 -0.0748,-0.0131 -0.16004,-0.0535 -0.19331,-0.095 -0.19071,-0.238 -0.34625,-0.38371 -0.47768,-0.44734 -0.2007,-0.097 -0.35723,-0.0943 -0.41988,0.007 z m 1.27045,0.84188 c 0.0756,0.0756 0.0494,0.36887 -0.0524,0.58393 -0.14134,0.29889 -0.56031,0.70265 -0.89179,0.85948 -0.36467,0.17244 -0.5858,0.21848 -1.05243,0.21878 -0.45785,2.8e-4 -0.78644,-0.0798 -1.08837,-0.26568 -0.27567,-0.16961 -0.45831,-0.45954 -0.45831,-0.72749 0,-0.24215 0.1533,-0.3041 0.18962,-0.0765 0.0543,0.34031 0.41193,0.65592 0.865,0.76358 0.51368,0.12199 0.95789,0.0802 1.38848,-0.13112 0.50947,-0.24979 0.82541,-0.61611 0.88067,-1.0211 0.0131,-0.087 0.0276,-0.17787 0.035,-0.20201 0.0174,-0.0561 0.12938,-0.057 0.1844,-0.002 z m 1.41555,-0.249 c -0.0664,0.0196 -0.28354,0.14874 -0.48266,0.28599 -0.35288,0.24329 -0.36347,0.25453 -0.41866,0.44446 -0.0311,0.1072 -0.0877,0.25588 -0.12591,0.33044 -0.0381,0.0746 -0.0644,0.16939 -0.0583,0.21071 0.0259,0.17787 0.55493,0.39 0.97756,0.3917 0.36654,0.002 0.51142,-0.0753 0.64587,-0.34201 0.0911,-0.18049 0.10112,-0.23618 0.10307,-0.56083 0.002,-0.39653 -0.0402,-0.57326 -0.16657,-0.69201 -0.0972,-0.0913 -0.30117,-0.1209 -0.47457,-0.0685 z m -6.09043,0.2387 c -0.2018,0.12807 -0.36633,0.36427 -0.47303,0.67967 -0.0909,0.26861 -0.1009,0.39908 -0.0456,0.59777 0.0459,0.16527 0.16917,0.23377 0.46493,0.25836 0.31865,0.0265 0.64757,-0.0713 0.7498,-0.22306 0.0665,-0.0985 0.0722,-0.13374 0.0424,-0.26347 -0.0391,-0.17157 -0.0152,-0.42686 0.0631,-0.66773 0.0517,-0.15939 0.0509,-0.17113 -0.0217,-0.27292 -0.16874,-0.23686 -0.50414,-0.28358 -0.78,-0.10873 z m 4.65948,1.37608 c -0.11329,0.0994 -0.26511,0.22281 -0.33735,0.27404 -0.16766,0.11894 -0.18245,0.16939 -0.11199,0.37891 0.18549,0.55135 0.90958,1.2418 1.30367,1.24302 0.43608,0.002 0.97836,-0.62535 0.97836,-1.13063 0,-0.18026 -0.0131,-0.21331 -0.11786,-0.3225 -0.12851,-0.13286 -0.23966,-0.18049 -0.74336,-0.31967 -0.18375,-0.0507 -0.42077,-0.13526 -0.52686,-0.18766 -0.10613,-0.0526 -0.2031,-0.10025 -0.21571,-0.1059 -0.0131,-0.004 -0.11569,0.0711 -0.22892,0.17047 z m -3.77393,0.16266 c -0.029,0.0108 -0.17136,0.0741 -0.31635,0.14221 -0.1894,0.0887 -0.34279,0.13221 -0.54487,0.15417 -0.36595,0.04 -0.43223,0.0569 -0.51041,0.12961 -0.15678,0.14591 -0.17657,0.38169 -0.0655,0.7773 0.20223,0.7208 0.64479,1.00185 1.16195,0.73802 0.37042,-0.18898 0.97896,-1.01527 0.97763,-1.32747 -7.6e-4,-0.15265 -0.0109,-0.16874 -0.19288,-0.30173 -0.0774,-0.0566 -0.20006,-0.15527 -0.27254,-0.21952 -0.13547,-0.11982 -0.14699,-0.12417 -0.23717,-0.0926 z m 2.77699,0.46487 c -0.0291,0.0152 -0.17721,0.0587 -0.32928,0.0942 -0.35167,0.0818 -0.35671,0.092 -0.30919,0.61593 0.0259,0.28432 0.0248,0.5387 -0.004,0.87798 -0.0322,0.3909 -0.0309,0.49862 0.009,0.59293 0.0713,0.17245 0.22093,0.24729 0.49414,0.24744 0.63754,3.7e-4 1.4727,-0.4451 1.53317,-0.81777 0.0417,-0.25729 -0.0711,-0.43061 -0.46183,-0.70944 -0.28701,-0.20484 -0.4535,-0.40065 -0.59164,-0.696 -0.0943,-0.20158 -0.12417,-0.23712 -0.19941,-0.2362 -0.0485,3.7e-4 -0.1122,0.0131 -0.14112,0.0309 z m -1.78436,0.17047 c -0.0389,0.0389 -0.16244,0.22673 -0.27467,0.41745 -0.15874,0.26997 -0.29202,0.4346 -0.60159,0.74385 -0.35479,0.35435 -0.39758,0.41033 -0.39758,0.51972 0,0.1594 0.0807,0.2785 0.26098,0.38408 0.47321,0.27731 1.24468,0.36011 1.56936,0.16851 0.14048,-0.0828 0.29921,-0.41192 0.35299,-0.73092 0.0414,-0.245 0.0259,-1.30761 -0.0218,-1.42776 -0.0152,-0.0398 -0.0863,-0.0629 -0.23976,-0.0783 -0.11982,-0.0131 -0.2989,-0.032 -0.39799,-0.0444 -0.15221,-0.0196 -0.19114,-0.0131 -0.25086,0.0479 z m -4.24416,4.47312 c -0.63151,0.1135 -1.15478,0.50867 -1.6601,1.25337 -0.22545,0.33227 -1.34538,2.3944 -1.34538,2.47726 0,0.0257 0.21763,-0.17113 0.48362,-0.43714 0.61863,-0.61872 1.0554,-0.93496 1.82005,-1.31781 0.52085,-0.26079 0.92246,-0.36312 1.60843,-0.40988 0.1507,-0.0108 0.3062,-0.0361 0.34571,-0.0571 0.10352,-0.0552 0.17136,-0.24577 0.17114,-0.47983 -2.6e-4,-0.28332 -0.0507,-0.43587 -0.21049,-0.63805 -0.25584,-0.32368 -0.73256,-0.47726 -1.21304,-0.39083 z m 11.61821,0.60156 c -0.247,0.0508 -0.35777,0.29824 -0.4262,0.95166 -0.0598,0.57127 -0.0226,1.80411 0.0695,2.31304 0.11221,0.61777 0.34868,1.34649 0.35884,1.10551 0.009,-0.21745 0.13265,-0.80721 0.2155,-1.0291 0.0385,-0.10286 0.16526,-0.34814 0.28225,-0.54484 0.11677,-0.1968 0.2435,-0.42882 0.28154,-0.51584 0.36471,-0.83433 0.4012,-1.6952 0.0861,-2.03295 -0.17179,-0.18418 -0.59256,-0.30413 -0.86777,-0.24748 z m -1.50012,0.41385 c -0.36719,0.0944 -0.57634,0.33654 -0.6457,0.74785 -0.097,0.5754 0.085,1.30127 0.44954,1.79156 0.14004,0.18854 0.59327,0.65087 0.73562,0.75059 0.0981,0.0687 0.45839,0.52295 0.58138,0.73299 0.0903,0.15417 0.19876,0.21702 0.20636,0.11959 0.0131,-0.15155 -0.0196,-0.35896 -0.0917,-0.58866 -0.20723,-0.66912 -0.26471,-1.13943 -0.28182,-2.31067 -0.0152,-1.05434 -0.0196,-1.07985 -0.24139,-1.19452 -0.12265,-0.0637 -0.54223,-0.0924 -0.71225,-0.0487 z m -9.27585,0.72708 c -0.66041,0.0529 -1.09755,0.16526 -1.62207,0.41705 -0.71244,0.34218 -1.16645,0.67821 -1.8445,1.36515 -0.39021,0.39533 -0.55119,0.61691 -0.50383,0.69356 0.0283,0.0456 0.0818,0.0152 0.48242,-0.26853 0.72966,-0.5176 1.26646,-0.67186 1.99743,-0.57407 0.53395,0.0713 1.03053,0.0533 1.30941,-0.048 0.64684,-0.23477 1.02582,-0.86396 0.86631,-1.43825 -0.0196,-0.0722 -0.0635,-0.14439 -0.0966,-0.16027 -0.033,-0.0152 -0.29788,-0.0109 -0.58869,0.0131 z m 1.82788,3.74229 c -0.37212,0.14308 -0.75127,0.59276 -0.94804,1.12406 -0.12047,0.32535 -0.15287,0.8734 -0.0882,1.49964 0.0629,0.61082 0.54918,2.55335 0.69586,2.77932 0.12852,0.1981 0.13896,0.0285 0.0442,-0.7294 -0.0507,-0.40674 -0.0419,-1.19946 0.0174,-1.60354 0.12612,-0.84843 0.46037,-1.52192 1.03692,-2.08836 0.35285,-0.34669 0.42866,-0.47066 0.4136,-0.67652 -0.009,-0.12134 -0.0311,-0.16004 -0.12961,-0.22615 -0.0653,-0.0439 -0.17614,-0.0959 -0.24607,-0.11525 -0.20745,-0.0578 -0.59903,-0.0398 -0.7965,0.0361 z m 1.36792,0.66343 c -0.20355,0.0926 -0.48545,0.39183 -0.77886,0.82739 -0.53113,0.78829 -0.7271,1.42011 -0.76919,2.47978 -0.0302,0.76031 0.077,1.81019 0.18918,1.85326 0.0842,0.0322 0.10372,-0.0416 0.12612,-0.47591 0.0355,-0.68526 0.20071,-1.16531 0.52711,-1.53146 0.0811,-0.0911 0.34514,-0.33554 0.58666,-0.54332 0.72049,-0.61983 1.07865,-1.11712 1.16563,-1.6184 0.0698,-0.40183 -0.0842,-0.7975 -0.37958,-0.97638 -0.1707,-0.10329 -0.45821,-0.10982 -0.66716,-0.0152 z"
         id="path931-4-2-2"
         sodipodi:nodetypes="ssssssssssssssssssssssssssssscsssssssssssssssssssscsssssssssssssssscsssssssscsssssssssscssssssssssscsssssscssssssssssssssssssccsssssssssssssccssssssssssssssssssssssssssssssssssscssscsssssssssscsssssscssccsssssscccsssssssssccssssscsssssssscsssssssssssssssssssssssssssssscsssssssssscssssssssssscssssssssssssssssssscsssssssssscssssscccsscssssscsccssssssssssssssssssssssssssssssssssscsssssssscssscsssssssssssssssssssscssssssssssssssssssssscsssssssscssssssscsssssssssssss"
         inkscape:connector-curvature="0" />
    </g>
  </g>
</svg>
