<?xml version="1.0" encoding="UTF-8" standalone="no"?>
<!-- Created with Inkscape (http://www.inkscape.org/) -->

<svg
   width="140.00002mm"
   height="90.000031mm"
   viewBox="0 0 140.00002 90.000031"
   version="1.1"
   id="svg1"
   sodipodi:docname="Hamster.svg"
   inkscape:version="1.4 (86a8ad7, 2024-10-11)"
   xmlns:inkscape="http://www.inkscape.org/namespaces/inkscape"
   xmlns:sodipodi="http://sodipodi.sourceforge.net/DTD/sodipodi-0.dtd"
   xmlns="http://www.w3.org/2000/svg"
   xmlns:svg="http://www.w3.org/2000/svg">
  <sodipodi:namedview
     id="namedview1"
     pagecolor="#ffffff"
     bordercolor="#000000"
     borderopacity="0.25"
     inkscape:showpageshadow="2"
     inkscape:pageopacity="0.0"
     inkscape:pagecheckerboard="0"
     inkscape:deskcolor="#d1d1d1"
     inkscape:document-units="mm"
     inkscape:zoom="0.93806818"
     inkscape:cx="132.71956"
     inkscape:cy="290.49061"
     inkscape:window-width="2400"
     inkscape:window-height="1271"
     inkscape:window-x="3191"
     inkscape:window-y="-9"
     inkscape:window-maximized="1"
     inkscape:current-layer="layer1" />
  <defs
     id="defs1">
    <inkscape:path-effect
       is_visible="true"
       id="path-effect3942-31"
       effect="spiro"
       lpeversion="0" />
    <inkscape:path-effect
       is_visible="true"
       id="path-effect1"
       effect="spiro"
       lpeversion="0" />
    <inkscape:path-effect
       is_visible="true"
       id="path-effect2"
       effect="spiro"
       lpeversion="0" />
    <inkscape:path-effect
       is_visible="true"
       id="path-effect3"
       effect="spiro"
       lpeversion="0" />
    <inkscape:path-effect
       is_visible="true"
       id="path-effect4"
       effect="spiro"
       lpeversion="0" />
    <inkscape:path-effect
       is_visible="true"
       id="path-effect5"
       effect="spiro"
       lpeversion="0" />
    <inkscape:path-effect
       is_visible="true"
       id="path-effect6"
       effect="spiro"
       lpeversion="0" />
    <inkscape:path-effect
       is_visible="true"
       id="path-effect7"
       effect="spiro"
       lpeversion="0" />
    <inkscape:path-effect
       is_visible="true"
       id="path-effect8"
       effect="spiro"
       lpeversion="0" />
    <inkscape:path-effect
       is_visible="true"
       id="path-effect9"
       effect="spiro"
       lpeversion="0" />
    <inkscape:path-effect
       is_visible="true"
       id="path-effect10"
       effect="spiro"
       lpeversion="0" />
    <inkscape:path-effect
       is_visible="true"
       id="path-effect11"
       effect="spiro"
       lpeversion="0" />
    <inkscape:path-effect
       is_visible="true"
       id="path-effect12"
       effect="spiro"
       lpeversion="0" />
    <inkscape:path-effect
       is_visible="true"
       id="path-effect13"
       effect="spiro"
       lpeversion="0" />
    <inkscape:path-effect
       is_visible="true"
       id="path-effect14"
       effect="spiro"
       lpeversion="0" />
    <inkscape:path-effect
       is_visible="true"
       id="path-effect15"
       effect="spiro"
       lpeversion="0" />
    <inkscape:path-effect
       is_visible="true"
       id="path-effect16"
       effect="spiro"
       lpeversion="0" />
    <inkscape:path-effect
       is_visible="true"
       id="path-effect17"
       effect="spiro"
       lpeversion="0" />
    <inkscape:path-effect
       is_visible="true"
       id="path-effect18"
       effect="spiro"
       lpeversion="0" />
    <inkscape:path-effect
       is_visible="true"
       id="path-effect1365-49"
       effect="spiro"
       lpeversion="0" />
    <inkscape:path-effect
       is_visible="true"
       id="path-effect1367-4"
       effect="spiro"
       lpeversion="0" />
    <inkscape:path-effect
       is_visible="true"
       id="path-effect1369-8"
       effect="spiro"
       lpeversion="0" />
    <inkscape:path-effect
       is_visible="true"
       id="path-effect1371-66"
       effect="spiro"
       lpeversion="0" />
    <inkscape:path-effect
       is_visible="true"
       id="path-effect1373-58"
       effect="spiro"
       lpeversion="0" />
    <inkscape:path-effect
       is_visible="true"
       id="path-effect1375-6"
       effect="spiro"
       lpeversion="0" />
    <inkscape:path-effect
       is_visible="true"
       id="path-effect1377-19"
       effect="spiro"
       lpeversion="0" />
    <inkscape:path-effect
       is_visible="true"
       id="path-effect1379-5"
       effect="spiro"
       lpeversion="0" />
    <inkscape:path-effect
       is_visible="true"
       id="path-effect1381-99"
       effect="spiro"
       lpeversion="0" />
    <inkscape:path-effect
       is_visible="true"
       id="path-effect1383-46"
       effect="spiro"
       lpeversion="0" />
    <inkscape:path-effect
       is_visible="true"
       id="path-effect1385-68"
       effect="spiro"
       lpeversion="0" />
    <inkscape:path-effect
       is_visible="true"
       id="path-effect1387-6"
       effect="spiro"
       lpeversion="0" />
    <inkscape:path-effect
       is_visible="true"
       id="path-effect1389-62"
       effect="spiro"
       lpeversion="0" />
    <inkscape:path-effect
       is_visible="true"
       id="path-effect1391-27"
       effect="spiro"
       lpeversion="0" />
    <inkscape:path-effect
       is_visible="true"
       id="path-effect1393-96"
       effect="spiro"
       lpeversion="0" />
    <inkscape:path-effect
       is_visible="true"
       id="path-effect1395-48"
       effect="spiro"
       lpeversion="0" />
    <inkscape:path-effect
       is_visible="true"
       id="path-effect1397-457"
       effect="spiro"
       lpeversion="0" />
    <inkscape:path-effect
       is_visible="true"
       id="path-effect1399-38"
       effect="spiro"
       lpeversion="0" />
    <inkscape:path-effect
       is_visible="true"
       id="path-effect1401-4"
       effect="spiro"
       lpeversion="0" />
  </defs>
  <g
     inkscape:label="Layer 1"
     inkscape:groupmode="layer"
     id="layer1"
     transform="translate(-69.99999,-206.99997)">
    <g
       id="g2"
       transform="matrix(3.9999186,0,0,3.9999186,-1088.3941,313.12425)">
      <path
         style="display:inline;fill:#000000;stroke-width:0.0530223"
         d="m 318.15846,-5.6486453 c 0.005,-0.00748 0.0267,-0.0099 0.0491,-0.00542 0.0331,0.00662 0.0532,-0.002 0.1069,-0.046052 0.0605,-0.049602 0.0722,-0.053812 0.13793,-0.049602 0.0585,0.00375 0.0767,-7.5e-4 0.0982,-0.02455 0.0217,-0.024125 0.043,-0.02915 0.12302,-0.02915 0.0947,0 0.0979,-0.00125 0.16265,-0.061282 0.11135,-0.1033271 0.18295,-0.127447 0.25543,-0.08602 0.0459,0.026232 0.2382,0.026365 0.38467,2.5e-4 0.14572,-0.025967 0.32742,-0.114352 0.54892,-0.2670064 0.16868,-0.1162521 0.17468,-0.1190446 0.25438,-0.1187096 0.096,5e-4 0.1587,0.013625 0.34817,0.07352 0.13712,0.04334 0.13917,0.044612 0.0912,0.05649 -0.027,0.00667 -0.0761,0.024275 -0.1091,0.039102 -0.033,0.014825 -0.0872,0.026947 -0.12057,0.026947 -0.0425,0 -0.068,0.00827 -0.0857,0.02772 -0.0148,0.01615 -0.06,0.03458 -0.10862,0.044155 -0.046,0.00905 -0.0866,0.0244 -0.0903,0.034125 -0.004,0.00973 -0.0247,0.02516 -0.0469,0.03429 -0.022,0.00913 -0.0438,0.0263 -0.0483,0.03816 -0.007,0.017475 -2e-4,0.01995 0.0341,0.0131 0.0559,-0.011175 0.056,0.0164 2.5e-4,0.079875 -0.052,0.059265 -0.0524,0.066632 -0.003,0.0567 0.0265,-0.0053 0.0454,-4.999e-4 0.0578,0.014375 0.0103,0.01225 0.037,0.02225 0.0595,0.02225 0.044,0 0.12385,-0.035175 0.12385,-0.054562 0,-0.01525 0.0704,-0.085727 0.0857,-0.085727 0.007,0 -0.004,0.02285 -0.0227,0.050765 -0.019,0.02792 -0.0311,0.05615 -0.027,0.062732 0.004,0.00657 -0.003,0.028127 -0.016,0.047877 -0.0272,0.041437 -0.0195,0.057455 0.0177,0.03747 0.0143,-0.00762 0.0431,-0.010575 0.0641,-0.00657 0.0705,0.013475 0.1073,-0.00693 0.15948,-0.088505 0.0383,-0.059857 0.0552,-0.075497 0.0732,-0.067637 0.013,0.00563 0.044,0.013125 0.0693,0.016675 0.0252,0.00355 0.045,0.013625 0.0439,0.022425 0,0.00877 -0.003,0.035862 -2.5e-4,0.06017 0.002,0.041927 0.004,0.04396 0.0517,0.03955 0.056,-0.0052 0.0851,-0.024275 0.0977,-0.06397 0.006,-0.017225 0.0215,-0.026792 0.0446,-0.026792 0.0222,0 0.0582,-0.020375 0.0937,-0.05309 0.0475,-0.043727 0.0749,-0.056262 0.15558,-0.071082 0.0538,-0.0099 0.10485,-0.023775 0.11337,-0.030837 0.01,-0.00785 0.0468,-0.00627 0.0961,0.00408 0.074,0.015525 0.0879,0.0142 0.1672,-0.01595 0.0476,-0.018075 0.14337,-0.044972 0.2128,-0.059752 0.0781,-0.016625 0.17652,-0.051375 0.25799,-0.091085 0.11605,-0.056577 0.15253,-0.084447 0.3067,-0.2344791 0.1273,-0.1238695 0.19425,-0.2018117 0.24573,-0.2860088 0.0389,-0.063655 0.0777,-0.1157146 0.0861,-0.1156846 0.0282,1.05e-4 0.1047,0.054245 0.12892,0.091182 0.0441,0.067307 0.15068,0.098102 0.2169,0.062665 0.0442,-0.023625 0.0736,-0.09517 0.0629,-0.1525644 -0.005,-0.02774 -0.0122,-0.068627 -0.0155,-0.09086 -0.003,-0.022225 -0.0202,-0.053797 -0.0379,-0.070145 -0.0175,-0.01635 -0.0461,-0.05272 -0.0634,-0.08083 -0.0172,-0.02811 -0.0535,-0.067887 -0.0804,-0.088392 l -0.0489,-0.037285 -1.2e-4,-0.1641243 c -1e-4,-0.2049542 -0.0163,-0.3074013 -0.0781,-0.4924256 -0.0847,-0.253789 -0.16158,-0.3993434 -0.33428,-0.6326724 -0.0314,-0.042437 -0.0572,-0.081435 -0.0573,-0.086665 -10e-5,-0.00522 -0.0261,-0.028307 -0.0578,-0.051285 -0.0317,-0.022975 -0.1201,-0.1004421 -0.1964,-0.1721343 -0.16507,-0.1551544 -0.32634,-0.2632639 -0.57362,-0.3845485 -0.343,-0.1682418 -0.56792,-0.2262291 -1.08602,-0.2799988 -0.41452,-0.043017 -0.59042,-0.065857 -0.59042,-0.076662 0,-0.012875 -0.61675,-7.5e-4 -0.69442,0.0137 -0.0386,0.00715 -0.11708,0.02575 -0.17443,0.04131 -0.0573,0.01555 -0.1252,0.028295 -0.1508,0.028295 h -0.0465 v -0.073652 c 0,-0.088392 -0.0251,-0.1617143 -0.0756,-0.2280116 -0.0521,-0.068392 -0.11168,-0.095682 -0.21163,-0.097025 -0.1565,-0.002 -0.34535,0.1252145 -0.42899,0.2892314 -0.0242,0.047725 -0.0687,0.073805 -0.0687,0.04039 0,-0.028882 -0.074,-0.097992 -0.1362,-0.1272445 -0.0496,-0.0233 -0.0832,-0.029505 -0.13383,-0.02465 -0.0861,0.00827 -0.13092,0.04913 -0.15865,0.1445319 l -0.021,0.07218 -0.15042,0.00865 c -0.334,0.019225 -0.67405,0.1538244 -1.16282,0.4603082 -0.1843,0.115577 -0.27988,0.1931542 -0.44288,0.3595035 -0.167,0.1704469 -0.21394,0.257829 -0.20387,0.379356 0.006,0.070252 0.0122,0.083652 0.0607,0.1255095 0.0617,0.053372 0.1008,0.1615419 0.0722,0.2000517 -0.0125,0.01695 -0.012,0.01785 0.003,0.00465 0.0145,-0.01285 0.0255,-0.0083 0.0509,0.02105 l 0.0324,0.037432 -0.0306,0.034972 -0.0305,0.034972 0.0324,-0.027367 c 0.0406,-0.034305 0.0737,-0.01735 0.0901,0.046172 0.009,0.032312 0.005,0.054852 -0.0115,0.08302 -0.02,0.033692 -0.02,0.035187 0,0.011625 0.0123,-0.014875 0.026,-0.0234 0.0304,-0.018975 0.0127,0.012675 0.0137,0.1412094 0.002,0.1722793 -0.006,0.015875 -0.002,0.013075 0.01,-0.00645 l 0.0205,-0.0345 0.0178,0.05914 c 0.01,0.032527 0.0202,0.056567 0.0235,0.05342 0.003,-0.00315 -0.004,-0.038687 -0.016,-0.07898 -0.012,-0.040292 -0.0188,-0.078252 -0.015,-0.084357 0.004,-0.0061 0.002,-0.013225 -0.005,-0.0158 -0.007,-0.00258 -0.0165,-0.028462 -0.0217,-0.057497 -0.0132,-0.07206 0.009,-0.077052 0.1073,-0.0239 0.0759,0.041135 0.0793,0.045312 0.0717,0.088 -0.015,0.083382 -0.10348,0.3359837 -0.15973,0.4559907 -0.0308,0.06563 -0.0537,0.1215545 -0.051,0.1242795 0.0205,0.020575 0.21975,-0.4971105 0.21975,-0.5711377 0,-0.038827 0.029,-0.046632 0.0781,-0.021025 0.0227,0.0118 0.0522,0.0215 0.0657,0.02155 0.0135,4.75e-5 0.0245,0.00483 0.0245,0.0106 -2.2e-4,0.03991 -0.0466,0.2813239 -0.0704,0.3665411 -0.016,0.056927 -0.0263,0.1061346 -0.023,0.1093545 0.003,0.00323 0.0192,-0.04381 0.0356,-0.1045095 0.0265,-0.098205 0.0399,-0.1642319 0.0657,-0.3223463 0.007,-0.044967 0.008,-0.045517 0.0664,-0.03645 0.0324,0.00505 0.0636,0.01615 0.0693,0.024625 0.006,0.00847 0.0105,0.01085 0.0105,0.0053 10e-5,-0.00558 0.03,0.0074 0.0664,0.02879 0.0775,0.045522 0.0914,0.084112 0.0816,0.2268266 -0.005,0.077347 -0.004,0.08267 0.006,0.035072 0.007,-0.030865 0.013,-0.08873 0.0135,-0.128592 v -0.072475 l 0.1999,0.1031771 c 0.21382,0.1103546 0.36547,0.1590169 0.61182,0.1963267 0.0749,0.011325 0.15225,0.032225 0.17995,0.04857 0.0267,0.015775 0.0537,0.025497 0.06,0.0216 0.006,-0.0039 0.0477,0.0148 0.0921,0.041515 0.0444,0.02672 0.0864,0.045065 0.0933,0.040767 0.007,-0.0043 0.0266,0.00125 0.0437,0.0125 0.0177,0.011625 0.0497,0.017575 0.0747,0.0139 l 0.0437,-0.00643 0.01,0.1202495 c 0.009,0.1102671 0.007,0.125122 -0.0227,0.1789568 -0.0629,0.1125646 -0.0566,0.1106221 -0.48323,0.1494719 -0.088,0.00802 -0.1261,0.018625 -0.16835,0.046977 -0.03,0.02015 -0.0893,0.048177 -0.13175,0.0623 -0.0424,0.014125 -0.085,0.031462 -0.0947,0.03853 -0.027,0.0198 -0.0208,0.040387 0.01,0.03082 0.0197,-0.00627 0.0296,-1.6e-4 0.0369,0.022975 0.006,0.0193 0.004,0.033582 -0.006,0.036827 -0.009,0.0029 -0.016,0.015 -0.016,0.026887 0,0.01715 0.004,0.018175 0.02,0.0049 0.016,-0.01325 0.026,-0.01075 0.0491,0.0123 0.0391,0.039102 0.0881,0.036495 0.14035,-0.00748 0.0475,-0.039985 0.10192,-0.04103 0.22137,-0.00425 0.0469,0.01445 0.073,0.01475 0.12625,0.0015 0.083,-0.0207 0.1279,-0.022525 0.23568,-0.00962 0.0825,0.0099 0.0857,0.00902 0.1451,-0.040647 0.0667,-0.055765 0.0998,-0.060987 0.22804,-0.036085 0.0416,0.00807 0.1184,0.014675 0.17073,0.0147 l 0.0952,2.75e-5 -0.029,0.040712 c -0.0469,0.06583 -0.142,0.1398469 -0.1957,0.1522544 -0.0274,0.00635 -0.10665,0.0248 -0.1761,0.041002 -0.0695,0.0162 -0.15467,0.033722 -0.18937,0.038912 -0.10545,0.01575 -0.44893,0.2111867 -0.44893,0.255419 0,0.017975 0.004,0.01935 0.0168,0.00627 0.0251,-0.025147 0.0584,-0.020375 0.0781,0.011225 0.01,0.015425 0.0274,0.028057 0.0394,0.028057 0.0155,0 0.0192,0.00818 0.013,0.02821 -0.008,0.02568 -0.006,0.02677 0.0263,0.012175 0.0291,-0.01325 0.0395,-0.011775 0.0597,0.0084 0.019,0.0189 0.0403,0.022925 0.0941,0.01775 0.061,-0.00585 0.0758,-0.013975 0.11788,-0.06467 0.0371,-0.044667 0.0579,-0.057972 0.0908,-0.057972 0.0321,0 0.0392,0.00435 0.029,0.017525 -0.0197,0.025182 -0.0451,0.1367794 -0.0312,0.1367794 0.007,0 0.0155,-0.0061 0.02,-0.013575 z m -2.18119,-2.0767192 c 0,-0.00772 0.006,-0.014025 0.014,-0.014025 0.008,0 0.014,0.00632 0.014,0.014025 0,0.00773 -0.006,0.014025 -0.014,0.014025 -0.008,0 -0.014,-0.0063 -0.014,-0.014025 z m 0.6149,0.8524741 c 0.0415,-0.1415344 0.0618,-0.2440765 0.0542,-0.2734589 -0.005,-0.020025 -0.007,-0.019025 -0.008,0.0052 0,0.016525 -0.0205,0.104527 -0.0434,0.1955317 -0.0468,0.1854417 -0.0484,0.2286816 -0.003,0.07274 z m -0.084,-0.5157829 c 0,-0.0193 -0.003,-0.027182 -0.007,-0.01755 -0.004,0.00965 -0.004,0.025427 0,0.035072 0.004,0.00965 0.007,0.00175 0.007,-0.017525 z m 0,-0.07716 c -2.5e-4,-0.02315 -0.004,-0.030917 -0.007,-0.017275 -0.004,0.01365 -0.003,0.03259 0,0.042087 0.004,0.0095 0.007,-0.00175 0.006,-0.024825 z"
         id="path3" />
      <path
         style="display:inline;fill:#000000;stroke-width:0.0185151"
         d="m 291.91937,-6.1666382 c -0.1294,-0.090242 -0.31535,-0.2940589 -0.46363,-0.5081155 -0.26532,-0.383096 -0.41217,-0.7895193 -0.4158,-1.1509929 -0.002,-0.2326441 0.0497,-0.4627031 0.13658,-0.6035526 0.15862,-0.2571815 0.4352,-0.3896334 0.74232,-0.3554961 0.0338,0.00375 0.063,0.0116 0.14455,0.03885 0.0933,0.031167 0.10712,0.037022 0.1584,0.066982 0.17852,0.1042846 0.27627,0.2155617 0.38002,0.4325958 l 0.0454,0.094977 0.11365,-0.057427 c 0.0625,-0.031585 0.13528,-0.064697 0.16173,-0.07358 0.17035,-0.057242 0.34242,-0.05902 0.52429,-0.0054 0.0908,0.02676 0.1371,0.04708 0.20288,0.089007 0.2229,0.1421219 0.35685,0.3958609 0.3468,0.6570174 -0.003,0.08198 -0.012,0.127787 -0.0423,0.2182166 -0.16133,0.4812631 -0.60433,0.8610066 -1.25562,1.0762782 -0.1949,0.064417 -0.42045,0.1114595 -0.57828,0.1206095 -0.11077,0.00643 -0.1439,-1.675e-4 -0.20094,-0.039955 z m 0.0439,-0.5442229 c 0.0158,-7.5e-4 0.0444,-0.0026 0.0633,-0.00415 0.0309,-0.00253 0.0418,-7.5e-4 0.1051,0.017725 0.0882,0.025677 0.1237,0.041595 0.1559,0.069552 0.0679,0.05912 0.0657,0.05782 0.13253,0.080047 0.0713,0.023725 0.0954,0.02574 0.15572,0.01295 0.097,-0.0206 0.16965,-0.081967 0.20603,-0.1741143 0.0396,-0.1001796 0.02,-0.2097441 -0.0551,-0.3074512 -0.0421,-0.05487 -0.0616,-0.089785 -0.0872,-0.1564244 -0.0305,-0.079125 -0.0532,-0.117722 -0.0916,-0.1553894 -0.0727,-0.071382 -0.16652,-0.1090495 -0.26817,-0.1076146 -0.0717,10e-4 -0.12935,0.021325 -0.21213,0.074717 -0.0537,0.034662 -0.0945,0.05284 -0.16184,0.07219 -0.16225,0.046607 -0.25638,0.1769567 -0.23605,0.3268836 0.0108,0.07949 0.0562,0.1514269 0.1264,0.2001542 0.0367,0.02548 0.12635,0.052802 0.16712,0.05093 z m -0.16412,-0.6497099 c 0.0833,-0.00312 0.15985,-0.081095 0.1772,-0.1804592 0.0215,-0.1232145 -0.0306,-0.2331116 -0.1249,-0.263369 -0.0589,-0.018875 -0.118,-5e-4 -0.1684,0.052837 -0.0208,0.022 -0.0273,0.032912 -0.0422,0.071507 -0.021,0.054342 -0.0255,0.087592 -0.0188,0.1396845 0.014,0.109032 0.087,0.1831742 0.17705,0.1797992 z m 1.17347,0.383041 c 0.0427,-0.00468 0.0964,-0.03305 0.13128,-0.069467 0.0375,-0.039115 0.0536,-0.068035 0.0694,-0.1243145 0.011,-0.039847 0.0125,-0.052442 0.009,-0.082537 -0.0102,-0.08819 -0.0645,-0.1461719 -0.14155,-0.1515519 -0.13445,-0.0094 -0.26098,0.1362145 -0.24395,0.2807989 0.006,0.054117 0.0286,0.094635 0.068,0.123882 0.0203,0.015 0.075,0.02678 0.1079,0.023175 z m -0.68595,-0.609785 c 0.0439,-0.006 0.0877,-0.02986 0.1243,-0.067755 0.0395,-0.04091 0.0577,-0.073925 0.0742,-0.1345794 0.0317,-0.1167146 -0.002,-0.2291091 -0.0848,-0.2823364 -0.0854,-0.05489 -0.20247,-0.016225 -0.2714,0.089637 -0.0228,0.035115 -0.0458,0.1051271 -0.0484,0.1476869 -0.005,0.090762 0.0252,0.1696419 0.0848,0.2173542 0.009,0.00727 0.0296,0.0163 0.0525,0.0231 0.0302,0.00897 0.0437,0.010325 0.0688,0.0069 z m 0.45898,0.1491319 c 0.064,-0.010925 0.12465,-0.054312 0.1677,-0.1199771 0.0233,-0.035662 0.0469,-0.105492 0.0495,-0.1473069 0.008,-0.1260495 -0.0626,-0.2270766 -0.16387,-0.2341515 -0.1023,-0.00715 -0.2045,0.073755 -0.2442,0.1933092 -0.0158,0.047385 -0.0198,0.080942 -0.0153,0.125462 0.005,0.045685 0.0192,0.08603 0.0414,0.115482 0.026,0.034352 0.048,0.04916 0.0925,0.062105 0.0322,0.00927 0.0427,0.0101 0.0721,0.00508 z"
         id="path4" />
      <path
         style="display:inline;fill:#000000;stroke-width:0.0187603"
         d="m 295.08258,-8.4747715 c -0.15973,-0.00548 -0.43015,-0.076387 -0.67415,-0.1767718 -0.43667,-0.1796568 -0.7854,-0.4444307 -0.9876,-0.7498395 -0.13015,-0.1965617 -0.21257,-0.4208958 -0.21627,-0.5885326 -0.007,-0.3060916 0.1555,-0.5710806 0.4355,-0.7112126 0.0308,-0.0154 0.06,-0.02482 0.14432,-0.04657 0.0965,-0.02487 0.1115,-0.02752 0.17163,-0.0303 0.20925,-0.0096 0.35367,0.03116 0.56144,0.158592 l 0.0909,0.05577 0.065,-0.111437 c 0.0358,-0.06129 0.0794,-0.129535 0.097,-0.15165 0.11332,-0.142512 0.2587,-0.238809 0.4429,-0.293391 0.0919,-0.02725 0.14255,-0.03548 0.22157,-0.03604 0.26785,-0.002 0.52152,0.140107 0.65682,0.367746 0.0425,0.07145 0.0601,0.115312 0.0842,0.208911 0.1279,0.498146 -0.0397,1.0651137 -0.47505,1.6069365 -0.13025,0.1621268 -0.29617,0.3263712 -0.42535,0.4210908 -0.0907,0.06647 -0.12247,0.079117 -0.1929,0.0767 z m -0.26243,-0.4870181 c 0.013,-0.00935 0.0363,-0.026635 0.0516,-0.038397 0.025,-0.01915 0.0352,-0.023625 0.0992,-0.042807 0.0891,-0.026755 0.1281,-0.032767 0.1709,-0.026725 0.0903,0.0129 0.0877,0.012975 0.15677,-0.00493 0.0738,-0.019125 0.0953,-0.030672 0.13958,-0.074762 0.0712,-0.07097 0.0992,-0.1631618 0.0793,-0.261564 -0.0215,-0.106977 -0.0986,-0.1893442 -0.2162,-0.2311315 -0.066,-0.023475 -0.10185,-0.042432 -0.16037,-0.084965 -0.0695,-0.050502 -0.11013,-0.0708 -0.16348,-0.081715 -0.1011,-0.020675 -0.2017,-10e-4 -0.28735,0.056192 -0.0604,0.04035 -0.0983,0.089375 -0.13925,0.1803793 -0.0266,0.059075 -0.0512,0.096985 -0.0979,0.1505369 -0.1123,0.1290045 -0.12057,0.2917113 -0.0207,0.4080284 0.053,0.06167 0.1312,0.097825 0.21775,0.1005946 0.0453,0.0015 0.13655,-0.0247 0.1702,-0.048742 z m -0.49744,-0.4621531 c 0.0691,-0.048535 0.0913,-0.1570219 0.0513,-0.2510865 -0.0496,-0.116642 -0.15442,-0.1813943 -0.2513,-0.1551819 -0.0605,0.016425 -0.10055,0.064682 -0.1141,0.137687 -0.005,0.030187 -0.005,0.043012 0.004,0.08405 0.012,0.057777 0.0266,0.088517 0.061,0.129132 0.072,0.085012 0.1749,0.1078571 0.2496,0.0554 z m 1.20899,-0.3205987 c 0.0338,-0.027505 0.0638,-0.081182 0.0734,-0.131382 0.0102,-0.053915 0.008,-0.087397 -0.01,-0.1439196 -0.0125,-0.04002 -0.0182,-0.05149 -0.0378,-0.07513 -0.0574,-0.06928 -0.13538,-0.08877 -0.20385,-0.05093 -0.11953,0.06608 -0.14693,0.2595961 -0.0528,0.3731857 0.0352,0.042517 0.0764,0.064722 0.12607,0.067887 0.0255,0.0015 0.0786,-0.01855 0.10455,-0.039715 z m -0.91925,-0.140777 c 0.0341,-0.029317 0.0581,-0.073697 0.0684,-0.1260766 0.011,-0.05655 0.008,-0.09465 -0.011,-0.155317 -0.0373,-0.116742 -0.12793,-0.193729 -0.22765,-0.193392 -0.10285,2.5e-4 -0.18112,0.09774 -0.18142,0.225717 -1e-4,0.04245 0.019,0.114634 0.0402,0.152259 0.0453,0.080242 0.1149,0.1303745 0.19182,0.1381445 0.0118,0.00125 0.0341,-0.0025 0.0574,-0.00925 0.0306,-0.009 0.0429,-0.0153 0.0623,-0.032067 z m 0.47248,-0.1259666 c 0.0484,-0.04457 0.0761,-0.114855 0.0765,-0.194407 2.2e-4,-0.0432 -0.0182,-0.115525 -0.039,-0.152559 -0.0625,-0.111655 -0.17835,-0.158625 -0.26835,-0.108865 -0.091,0.05027 -0.1333,0.175364 -0.1012,0.298901 0.0127,0.04897 0.0277,0.07975 0.0562,0.115077 0.0292,0.03626 0.0637,0.06259 0.0989,0.07538 0.041,0.014925 0.0679,0.01535 0.1129,0.00175 0.0325,-0.00982 0.0419,-0.014925 0.0641,-0.035387 z"
         id="path4-5" />
    </g>
  </g>
</svg>
