<?xml version="1.0" encoding="UTF-8" standalone="no"?>
<!-- Created with Inkscape (http://www.inkscape.org/) -->

<svg
   width="140.00002mm"
   height="90.000031mm"
   viewBox="0 0 140.00002 90.000031"
   version="1.1"
   id="svg1"
   sodipodi:docname="Hearts.svg"
   inkscape:version="1.4 (86a8ad7, 2024-10-11)"
   xmlns:inkscape="http://www.inkscape.org/namespaces/inkscape"
   xmlns:sodipodi="http://sodipodi.sourceforge.net/DTD/sodipodi-0.dtd"
   xmlns="http://www.w3.org/2000/svg"
   xmlns:svg="http://www.w3.org/2000/svg">
  <sodipodi:namedview
     id="namedview1"
     pagecolor="#ffffff"
     bordercolor="#000000"
     borderopacity="0.25"
     inkscape:showpageshadow="2"
     inkscape:pageopacity="0.0"
     inkscape:pagecheckerboard="0"
     inkscape:deskcolor="#d1d1d1"
     inkscape:document-units="mm"
     inkscape:zoom="0.93806818"
     inkscape:cx="132.71956"
     inkscape:cy="-221.19927"
     inkscape:window-width="2400"
     inkscape:window-height="1271"
     inkscape:window-x="3191"
     inkscape:window-y="-9"
     inkscape:window-maximized="1"
     inkscape:current-layer="layer1" />
  <defs
     id="defs1">
    <inkscape:path-effect
       is_visible="true"
       id="path-effect3942-31"
       effect="spiro"
       lpeversion="0" />
    <inkscape:path-effect
       is_visible="true"
       id="path-effect1"
       effect="spiro"
       lpeversion="0" />
    <inkscape:path-effect
       is_visible="true"
       id="path-effect2"
       effect="spiro"
       lpeversion="0" />
    <inkscape:path-effect
       is_visible="true"
       id="path-effect3"
       effect="spiro"
       lpeversion="0" />
    <inkscape:path-effect
       is_visible="true"
       id="path-effect4"
       effect="spiro"
       lpeversion="0" />
    <inkscape:path-effect
       is_visible="true"
       id="path-effect5"
       effect="spiro"
       lpeversion="0" />
    <inkscape:path-effect
       is_visible="true"
       id="path-effect6"
       effect="spiro"
       lpeversion="0" />
    <inkscape:path-effect
       is_visible="true"
       id="path-effect7"
       effect="spiro"
       lpeversion="0" />
    <inkscape:path-effect
       is_visible="true"
       id="path-effect8"
       effect="spiro"
       lpeversion="0" />
    <inkscape:path-effect
       is_visible="true"
       id="path-effect9"
       effect="spiro"
       lpeversion="0" />
    <inkscape:path-effect
       is_visible="true"
       id="path-effect10"
       effect="spiro"
       lpeversion="0" />
    <inkscape:path-effect
       is_visible="true"
       id="path-effect11"
       effect="spiro"
       lpeversion="0" />
    <inkscape:path-effect
       is_visible="true"
       id="path-effect12"
       effect="spiro"
       lpeversion="0" />
    <inkscape:path-effect
       is_visible="true"
       id="path-effect13"
       effect="spiro"
       lpeversion="0" />
    <inkscape:path-effect
       is_visible="true"
       id="path-effect14"
       effect="spiro"
       lpeversion="0" />
    <inkscape:path-effect
       is_visible="true"
       id="path-effect15"
       effect="spiro"
       lpeversion="0" />
    <inkscape:path-effect
       is_visible="true"
       id="path-effect16"
       effect="spiro"
       lpeversion="0" />
    <inkscape:path-effect
       is_visible="true"
       id="path-effect17"
       effect="spiro"
       lpeversion="0" />
    <inkscape:path-effect
       is_visible="true"
       id="path-effect18"
       effect="spiro"
       lpeversion="0" />
    <inkscape:path-effect
       is_visible="true"
       id="path-effect1365-49"
       effect="spiro"
       lpeversion="0" />
    <inkscape:path-effect
       is_visible="true"
       id="path-effect1367-4"
       effect="spiro"
       lpeversion="0" />
    <inkscape:path-effect
       is_visible="true"
       id="path-effect1369-8"
       effect="spiro"
       lpeversion="0" />
    <inkscape:path-effect
       is_visible="true"
       id="path-effect1371-66"
       effect="spiro"
       lpeversion="0" />
    <inkscape:path-effect
       is_visible="true"
       id="path-effect1373-58"
       effect="spiro"
       lpeversion="0" />
    <inkscape:path-effect
       is_visible="true"
       id="path-effect1375-6"
       effect="spiro"
       lpeversion="0" />
    <inkscape:path-effect
       is_visible="true"
       id="path-effect1377-19"
       effect="spiro"
       lpeversion="0" />
    <inkscape:path-effect
       is_visible="true"
       id="path-effect1379-5"
       effect="spiro"
       lpeversion="0" />
    <inkscape:path-effect
       is_visible="true"
       id="path-effect1381-99"
       effect="spiro"
       lpeversion="0" />
    <inkscape:path-effect
       is_visible="true"
       id="path-effect1383-46"
       effect="spiro"
       lpeversion="0" />
    <inkscape:path-effect
       is_visible="true"
       id="path-effect1385-68"
       effect="spiro"
       lpeversion="0" />
    <inkscape:path-effect
       is_visible="true"
       id="path-effect1387-6"
       effect="spiro"
       lpeversion="0" />
    <inkscape:path-effect
       is_visible="true"
       id="path-effect1389-62"
       effect="spiro"
       lpeversion="0" />
    <inkscape:path-effect
       is_visible="true"
       id="path-effect1391-27"
       effect="spiro"
       lpeversion="0" />
    <inkscape:path-effect
       is_visible="true"
       id="path-effect1393-96"
       effect="spiro"
       lpeversion="0" />
    <inkscape:path-effect
       is_visible="true"
       id="path-effect1395-48"
       effect="spiro"
       lpeversion="0" />
    <inkscape:path-effect
       is_visible="true"
       id="path-effect1397-457"
       effect="spiro"
       lpeversion="0" />
    <inkscape:path-effect
       is_visible="true"
       id="path-effect1399-38"
       effect="spiro"
       lpeversion="0" />
    <inkscape:path-effect
       is_visible="true"
       id="path-effect1401-4"
       effect="spiro"
       lpeversion="0" />
  </defs>
  <g
     inkscape:label="Layer 1"
     inkscape:groupmode="layer"
     id="layer1"
     transform="translate(-69.99999,-206.99997)">
    <g
       id="g23"
       transform="translate(49.530733,-266.27174)">
      <g
         id="g22">
        <path
           style="fill:#000000;fill-opacity:1;stroke:none;stroke-width:0.0369903"
           id="path1034-3"
           d="m -146.97477,188.80553 c -0.5646,0.34189 -1.20866,0.55163 -1.86632,0.60776 -0.76824,0.0656 -1.56553,-0.0848 -2.21855,-0.49472 -0.71538,-0.4491 -1.22454,-1.19317 -1.45215,-2.00659 -0.14848,-0.53064 -0.18326,-1.09015 -0.1291,-1.63851 0.0452,-0.45724 0.15246,-0.91064 0.34426,-1.32815 0.1918,-0.41752 0.46996,-0.79864 0.82804,-1.08654 0.39948,-0.32118 0.88607,-0.51819 1.38202,-0.64771 0.74816,-0.19539 1.52527,-0.24563 2.29631,-0.30409 0.98817,-0.0749 1.97688,-0.16498 2.95165,-0.34361 1.49104,-0.27323 2.94387,-0.7541 4.30349,-1.42438 l 0.0134,0.01 c -0.24942,1.4952 -0.2906,3.025 -0.12196,4.53145 0.11025,0.98485 0.30931,1.95749 0.52272,2.92524 0.16651,0.75511 0.34266,1.51367 0.37147,2.28638 0.0191,0.51223 -0.0291,1.03496 -0.22136,1.51013 -0.17232,0.42593 -0.45697,0.80223 -0.80138,1.10635 -0.3444,0.30412 -0.74755,0.53769 -1.17231,0.71287 -0.50941,0.21009 -1.05515,0.33824 -1.60607,0.3492 -0.8445,0.0168 -1.70385,-0.256 -2.34027,-0.81136 -0.58094,-0.50694 -0.95495,-1.22693 -1.11385,-1.98141 -0.13603,-0.64589 -0.12105,-1.32308 0.0434,-1.96232 z"
           inkscape:connector-curvature="0"
           sodipodi:nodetypes="caaaaaaaaccaaaaaaaacc"
           transform="matrix(-0.95655227,0,0,-0.95655227,9.4991251,732.40348)"
           inkscape:original-d="m -146.97477,188.80553 c -0.83025,0.34462 -1.20053,0.57915 -1.86632,0.60776 -0.74464,0.032 -1.57841,-0.0726 -2.21855,-0.49472 -0.69373,-0.4574 -1.16763,-1.24441 -1.45215,-2.00659 -0.19526,-0.52308 -0.22725,-1.10837 -0.1291,-1.63851 0.1646,-0.88901 0.53436,-1.7882 1.1723,-2.41469 0.35825,-0.35182 0.88895,-0.50408 1.38202,-0.64771 0.73374,-0.21373 1.52968,-0.20871 2.29631,-0.30409 0.98242,-0.12222 1.99105,-0.13177 2.95165,-0.34361 1.48554,-0.32762 2.89677,-1.03265 4.30349,-1.42438 l 0.0134,0.01 c 0.0309,1.45992 -0.23695,3.01456 -0.12196,4.53145 0.0743,0.98086 0.35626,1.94935 0.52272,2.92524 0.1299,0.76154 0.36438,1.52217 0.37147,2.28638 0.005,0.51354 0.0121,1.0656 -0.22136,1.51013 -0.41576,0.79158 -1.17,1.40509 -1.97369,1.81922 -0.47927,0.24695 -1.04889,0.38521 -1.60607,0.3492 -0.81186,-0.0525 -1.70213,-0.27913 -2.34027,-0.81136 -0.58883,-0.49111 -0.92962,-1.25922 -1.11385,-1.98141 -0.16474,-0.64573 -0.047,-1.06793 0.0434,-1.96232 z"
           inkscape:path-effect="#path-effect3942-31" />
        <path
           sodipodi:nodetypes="caaaaaaaaccaaaaaaaacc"
           inkscape:connector-curvature="0"
           d="m -146.97477,188.80553 c -0.5646,0.34189 -1.20866,0.55163 -1.86632,0.60776 -0.76824,0.0656 -1.56553,-0.0848 -2.21855,-0.49472 -0.71538,-0.4491 -1.22454,-1.19317 -1.45215,-2.00659 -0.14848,-0.53064 -0.18326,-1.09015 -0.1291,-1.63851 0.0452,-0.45724 0.15246,-0.91064 0.34426,-1.32815 0.1918,-0.41752 0.46996,-0.79864 0.82804,-1.08654 0.39948,-0.32118 0.88607,-0.51819 1.38202,-0.64771 0.74816,-0.19539 1.52527,-0.24563 2.29631,-0.30409 0.98817,-0.0749 1.97688,-0.16498 2.95165,-0.34361 1.49104,-0.27323 2.94387,-0.7541 4.30349,-1.42438 l 0.0134,0.01 c -0.24942,1.4952 -0.2906,3.025 -0.12196,4.53145 0.11025,0.98485 0.30931,1.95749 0.52272,2.92524 0.16651,0.75511 0.34266,1.51367 0.37147,2.28638 0.0191,0.51223 -0.0291,1.03496 -0.22136,1.51013 -0.17232,0.42593 -0.45697,0.80223 -0.80138,1.10635 -0.3444,0.30412 -0.74755,0.53769 -1.17231,0.71287 -0.50941,0.21009 -1.05515,0.33824 -1.60607,0.3492 -0.8445,0.0168 -1.70385,-0.256 -2.34027,-0.81136 -0.58094,-0.50694 -0.95495,-1.22693 -1.11385,-1.98141 -0.13603,-0.64589 -0.12105,-1.32308 0.0434,-1.96232 z"
           id="path1038"
           style="fill:#000000;fill-opacity:1;stroke:none;stroke-width:0.0369903"
           transform="matrix(-0.95655227,0,0,-0.95655227,9.4991251,732.40348)"
           inkscape:original-d="m -146.97477,188.80553 c -0.83025,0.34462 -1.20053,0.57915 -1.86632,0.60776 -0.74464,0.032 -1.57841,-0.0726 -2.21855,-0.49472 -0.69373,-0.4574 -1.16763,-1.24441 -1.45215,-2.00659 -0.19526,-0.52308 -0.22725,-1.10837 -0.1291,-1.63851 0.1646,-0.88901 0.53436,-1.7882 1.1723,-2.41469 0.35825,-0.35182 0.88895,-0.50408 1.38202,-0.64771 0.73374,-0.21373 1.52968,-0.20871 2.29631,-0.30409 0.98242,-0.12222 1.99105,-0.13177 2.95165,-0.34361 1.48554,-0.32762 2.89677,-1.03265 4.30349,-1.42438 l 0.0134,0.01 c 0.0309,1.45992 -0.23695,3.01456 -0.12196,4.53145 0.0743,0.98086 0.35626,1.94935 0.52272,2.92524 0.1299,0.76154 0.36438,1.52217 0.37147,2.28638 0.005,0.51354 0.0121,1.0656 -0.22136,1.51013 -0.41576,0.79158 -1.17,1.40509 -1.97369,1.81922 -0.47927,0.24695 -1.04889,0.38521 -1.60607,0.3492 -0.81186,-0.0525 -1.70213,-0.27913 -2.34027,-0.81136 -0.58883,-0.49111 -0.92962,-1.25922 -1.11385,-1.98141 -0.16474,-0.64573 -0.047,-1.06793 0.0434,-1.96232 z"
           inkscape:path-effect="#path-effect3942-31" />
        <path
           style="fill:#000000;fill-opacity:1;stroke:none;stroke-width:0.0369903"
           id="path1042"
           d="m -146.97477,188.80553 c -0.5646,0.34189 -1.20866,0.55163 -1.86632,0.60776 -0.76824,0.0656 -1.56553,-0.0848 -2.21855,-0.49472 -0.71538,-0.4491 -1.22454,-1.19317 -1.45215,-2.00659 -0.14848,-0.53064 -0.18326,-1.09015 -0.1291,-1.63851 0.0452,-0.45724 0.15246,-0.91064 0.34426,-1.32815 0.1918,-0.41752 0.46996,-0.79864 0.82804,-1.08654 0.39948,-0.32118 0.88607,-0.51819 1.38202,-0.64771 0.74816,-0.19539 1.52527,-0.24563 2.29631,-0.30409 0.98817,-0.0749 1.97688,-0.16498 2.95165,-0.34361 1.49104,-0.27323 2.94387,-0.7541 4.30349,-1.42438 l 0.0134,0.01 c -0.24942,1.4952 -0.2906,3.025 -0.12196,4.53145 0.11025,0.98485 0.30931,1.95749 0.52272,2.92524 0.16651,0.75511 0.34266,1.51367 0.37147,2.28638 0.0191,0.51223 -0.0291,1.03496 -0.22136,1.51013 -0.17232,0.42593 -0.45697,0.80223 -0.80138,1.10635 -0.3444,0.30412 -0.74755,0.53769 -1.17231,0.71287 -0.50941,0.21009 -1.05515,0.33824 -1.60607,0.3492 -0.8445,0.0168 -1.70385,-0.256 -2.34027,-0.81136 -0.58094,-0.50694 -0.95495,-1.22693 -1.11385,-1.98141 -0.13603,-0.64589 -0.12105,-1.32308 0.0434,-1.96232 z"
           inkscape:connector-curvature="0"
           sodipodi:nodetypes="caaaaaaaaccaaaaaaaacc"
           transform="matrix(-0.95655227,0,0,-0.95655227,9.4991251,732.40348)"
           inkscape:original-d="m -146.97477,188.80553 c -0.83025,0.34462 -1.20053,0.57915 -1.86632,0.60776 -0.74464,0.032 -1.57841,-0.0726 -2.21855,-0.49472 -0.69373,-0.4574 -1.16763,-1.24441 -1.45215,-2.00659 -0.19526,-0.52308 -0.22725,-1.10837 -0.1291,-1.63851 0.1646,-0.88901 0.53436,-1.7882 1.1723,-2.41469 0.35825,-0.35182 0.88895,-0.50408 1.38202,-0.64771 0.73374,-0.21373 1.52968,-0.20871 2.29631,-0.30409 0.98242,-0.12222 1.99105,-0.13177 2.95165,-0.34361 1.48554,-0.32762 2.89677,-1.03265 4.30349,-1.42438 l 0.0134,0.01 c 0.0309,1.45992 -0.23695,3.01456 -0.12196,4.53145 0.0743,0.98086 0.35626,1.94935 0.52272,2.92524 0.1299,0.76154 0.36438,1.52217 0.37147,2.28638 0.005,0.51354 0.0121,1.0656 -0.22136,1.51013 -0.41576,0.79158 -1.17,1.40509 -1.97369,1.81922 -0.47927,0.24695 -1.04889,0.38521 -1.60607,0.3492 -0.81186,-0.0525 -1.70213,-0.27913 -2.34027,-0.81136 -0.58883,-0.49111 -0.92962,-1.25922 -1.11385,-1.98141 -0.16474,-0.64573 -0.047,-1.06793 0.0434,-1.96232 z"
           inkscape:path-effect="#path-effect3942-31" />
        <path
           sodipodi:nodetypes="caaaaaaaaccaaaaaaaacc"
           inkscape:connector-curvature="0"
           d="m -136.9558,258.67484 c -0.018,0.35446 -0.14605,0.70256 -0.36205,0.98418 -0.24859,0.32411 -0.61579,0.5583 -1.01742,0.63273 -0.50699,0.094 -1.03383,-0.0658 -1.47752,-0.32853 -0.30879,-0.18283 -0.58703,-0.41475 -0.83555,-0.67362 -0.19987,-0.20819 -0.38211,-0.43566 -0.51849,-0.69001 -0.13638,-0.25434 -0.22594,-0.53694 -0.23454,-0.82541 -0.008,-0.28022 0.0598,-0.55945 0.17278,-0.81602 0.16303,-0.37019 0.41548,-0.69248 0.65946,-1.01511 0.31211,-0.41272 0.61515,-0.83387 0.87046,-1.28395 0.40054,-0.70611 0.68039,-1.48048 0.82379,-2.27952 l 0.01,-7.5e-4 c 0.63548,0.75876 1.35557,1.44662 2.14262,2.04671 0.51216,0.3905 1.05179,0.74341 1.5943,1.09051 0.42354,0.27098 0.85087,0.53989 1.23309,0.86658 0.25319,0.2164 0.48797,0.46074 0.6506,0.7514 0.26201,0.46825 0.31881,1.04055 0.18451,1.56004 -0.0729,0.28205 -0.2017,0.55262 -0.39539,0.77023 -0.30281,0.3402 -0.75747,0.53314 -1.21286,0.53967 -0.48014,0.007 -0.94625,-0.18208 -1.34662,-0.44719 -0.3584,-0.23731 -0.67505,-0.53748 -0.93117,-0.88269 z"
           id="path1046"
           style="fill:#000000;fill-opacity:1;stroke:none;stroke-width:0.0215671"
           transform="matrix(-0.95655227,0,0,-0.95655227,9.4991251,732.40348)"
           inkscape:original-d="m -136.9558,258.67484 c -0.12525,0.4706 -0.14212,0.71615 -0.36205,0.98418 -0.24598,0.29978 -0.58915,0.57344 -1.01742,0.63273 -0.46413,0.0643 -1.01006,-0.10129 -1.47752,-0.32853 -0.32083,-0.15595 -0.61433,-0.40199 -0.83555,-0.67362 -0.37097,-0.4555 -0.67483,-0.9942 -0.75303,-1.51542 -0.0439,-0.2927 0.0689,-0.56348 0.17278,-0.81602 0.1545,-0.37581 0.43633,-0.67893 0.65946,-1.01511 0.28593,-0.43081 0.63541,-0.82195 0.87046,-1.28395 0.36349,-0.71447 0.51888,-1.567 0.82379,-2.27952 l 0.01,-7.5e-4 c 0.71492,0.63249 1.37069,1.42135 2.14262,2.04671 0.49916,0.40438 1.06521,0.72367 1.5943,1.09051 0.41288,0.28627 0.86204,0.53202 1.23309,0.86658 0.24934,0.22482 0.51818,0.46564 0.6506,0.7514 0.23582,0.50885 0.26692,1.06896 0.18451,1.56004 -0.0491,0.29284 -0.18242,0.57238 -0.39539,0.77023 -0.31031,0.28828 -0.73216,0.52977 -1.21286,0.53967 -0.44356,0.009 -0.93364,-0.19913 -1.34662,-0.44719 -0.36926,-0.22179 -0.53155,-0.45328 -0.93117,-0.88269 z"
           inkscape:path-effect="#path-effect3942-31" />
        <path
           style="fill:#000000;fill-opacity:1;stroke:none;stroke-width:0.0369903"
           id="path1050"
           d="m -146.72928,264.39461 c -0.35714,0.55508 -0.8437,1.02632 -1.40993,1.36552 -0.66143,0.39623 -1.44377,0.61124 -2.21047,0.52965 -0.83992,-0.0894 -1.62409,-0.53432 -2.18574,-1.1652 -0.3664,-0.41156 -0.64332,-0.89898 -0.83544,-1.41543 -0.1602,-0.43063 -0.26287,-0.8851 -0.27387,-1.34443 -0.011,-0.45933 0.0716,-0.92389 0.26687,-1.33977 0.21789,-0.46397 0.56856,-0.85462 0.95727,-1.18875 0.58639,-0.50405 1.26253,-0.89041 1.9296,-1.28149 0.85491,-0.5012 1.70367,-1.01625 2.50101,-1.60474 1.21964,-0.90018 2.3138,-1.97012 3.24104,-3.16931 l 0.0164,0.003 c 0.43242,1.45288 1.06714,2.84539 1.88011,4.12481 0.53148,0.83643 1.1374,1.62288 1.75406,2.39865 0.48116,0.60531 0.97249,1.2095 1.33766,1.89109 0.24207,0.45182 0.42827,0.94264 0.46419,1.45396 0.0322,0.45833 -0.0583,0.92141 -0.23421,1.34587 -0.17589,0.42446 -0.43554,0.81133 -0.74025,1.15522 -0.36543,0.41242 -0.79948,0.76719 -1.28964,1.01893 -0.75136,0.3859 -1.64322,0.51814 -2.45886,0.29862 -0.74453,-0.20038 -1.3967,-0.68303 -1.87074,-1.29112 -0.40581,-0.52056 -0.68971,-1.13555 -0.82266,-1.78207 z"
           inkscape:connector-curvature="0"
           sodipodi:nodetypes="caaaaaaaaccaaaaaaaacc"
           transform="matrix(-0.95655227,0,0,-0.95655227,9.4991251,732.40348)"
           inkscape:original-d="m -146.72928,264.39461 c -0.59462,0.67418 -0.82431,1.04748 -1.40993,1.36552 -0.65497,0.35571 -1.45002,0.62778 -2.21047,0.52965 -0.82412,-0.10635 -1.59546,-0.60535 -2.18574,-1.1652 -0.40511,-0.38422 -0.69085,-0.89603 -0.83544,-1.41543 -0.24246,-0.87099 -0.30507,-1.84122 -0.007,-2.6842 0.16739,-0.47339 0.57734,-0.84321 0.95727,-1.18875 0.56538,-0.5142 1.2827,-0.85918 1.9296,-1.28149 0.82897,-0.54117 1.73099,-0.99262 2.50101,-1.60474 1.19083,-0.94663 2.14918,-2.1997 3.24104,-3.16931 l 0.0164,0.003 c 0.66875,1.2981 1.11075,2.81246 1.88011,4.12481 0.49748,0.84861 1.17601,1.59496 1.75406,2.39865 0.45109,0.62717 0.99574,1.2076 1.33766,1.89109 0.22977,0.45929 0.47878,0.95206 0.46419,1.45396 -0.026,0.89375 -0.43423,1.77613 -0.97446,2.50109 -0.32216,0.43231 -0.77323,0.80664 -1.28964,1.01893 -0.75245,0.30933 -1.65184,0.4966 -2.45886,0.29862 -0.74467,-0.18269 -1.38811,-0.72317 -1.87074,-1.29112 -0.43154,-0.50782 -0.51116,-0.93883 -0.82266,-1.78207 z"
           inkscape:path-effect="#path-effect3942-31" />
        <path
           sodipodi:nodetypes="caaaaaaaaccaaaaaaaacc"
           inkscape:connector-curvature="0"
           d="m -148.00517,229.26311 c -0.36552,0.33992 -0.8117,0.59253 -1.29124,0.73107 -0.57141,0.16508 -1.19623,0.1652 -1.75382,-0.0418 -0.61894,-0.22978 -1.13249,-0.70809 -1.45059,-1.28663 -0.20493,-0.37271 -0.33271,-0.7858 -0.39154,-1.20704 -0.0481,-0.3447 -0.0504,-0.69777 0.0178,-1.03905 0.0683,-0.34128 0.20888,-0.67075 0.42764,-0.94145 0.2429,-0.30057 0.57337,-0.51967 0.92062,-0.68926 0.52868,-0.2582 1.10158,-0.41019 1.66853,-0.56746 0.72703,-0.20167 1.45224,-0.41495 2.1532,-0.69404 1.06466,-0.4239 2.06895,-0.99909 2.9733,-1.7029 l 0.0119,0.005 c 0.0846,1.1622 0.32868,2.31267 0.72338,3.40906 0.26011,0.72253 0.58459,1.42004 0.91832,2.11165 0.26024,0.53931 0.52786,1.07951 0.68993,1.65598 0.10616,0.3776 0.16598,0.7753 0.10546,1.16284 -0.0533,0.3416 -0.19973,0.66564 -0.40358,0.94489 -0.20385,0.27926 -0.46407,0.51479 -0.75037,0.70862 -0.3462,0.23438 -0.73393,0.41009 -1.14244,0.49905 -0.63908,0.13917 -1.3303,0.0568 -1.9021,-0.26076 -0.52643,-0.29235 -0.93671,-0.7726 -1.1922,-1.31787 -0.21525,-0.4594 -0.32563,-0.96757 -0.32034,-1.47487 z"
           id="path1054"
           style="fill:#000000;fill-opacity:1;stroke:none;stroke-width:0.028369"
           transform="matrix(-0.95655227,0,0,-0.95655227,9.4991251,732.40348)"
           inkscape:original-d="m -148.00517,229.26311 c -0.56107,0.38079 -0.79676,0.61111 -1.29124,0.73107 -0.55304,0.13416 -1.19755,0.17926 -1.75382,-0.0418 -0.60285,-0.2396 -1.10001,-0.75839 -1.45059,-1.28663 -0.2406,-0.36254 -0.36986,-0.79579 -0.39154,-1.20704 -0.0363,-0.68963 0.0794,-1.41725 0.44548,-1.9805 0.20557,-0.3163 0.57644,-0.5088 0.92062,-0.68926 0.51219,-0.26855 1.11038,-0.38261 1.66853,-0.56746 0.71525,-0.23688 1.47044,-0.39332 2.1532,-0.69404 1.05587,-0.46506 1.98811,-1.20154 2.9733,-1.7029 l 0.0119,0.005 c 0.2857,1.08792 0.3643,2.29094 0.72338,3.40906 0.23219,0.723 0.61791,1.40601 0.91832,2.11165 0.23444,0.55066 0.54718,1.08515 0.68993,1.65598 0.0959,0.38359 0.20073,0.79562 0.10546,1.16284 -0.16964,0.6539 -0.62531,1.22464 -1.15395,1.65351 -0.31524,0.25575 -0.71784,0.44353 -1.14244,0.49905 -0.61867,0.0809 -1.32752,0.0431 -1.9021,-0.26076 -0.5302,-0.28035 -0.92407,-0.8047 -1.1922,-1.31787 -0.23974,-0.45883 -0.22733,-0.7922 -0.32034,-1.47487 z"
           inkscape:path-effect="#path-effect3942-31" />
        <path
           style="fill:#000000;fill-opacity:1;stroke:none;stroke-width:0.0215671"
           id="path1058"
           d="m -140.74549,196.14488 c -0.018,0.35446 -0.14605,0.70256 -0.36205,0.98418 -0.24859,0.32411 -0.61579,0.5583 -1.01742,0.63273 -0.50699,0.094 -1.03383,-0.0658 -1.47752,-0.32853 -0.30879,-0.18283 -0.58703,-0.41475 -0.83555,-0.67362 -0.19987,-0.20819 -0.38211,-0.43566 -0.51849,-0.69001 -0.13638,-0.25434 -0.22594,-0.53694 -0.23454,-0.82541 -0.008,-0.28022 0.0598,-0.55945 0.17278,-0.81602 0.16303,-0.37019 0.41548,-0.69248 0.65946,-1.01511 0.31211,-0.41272 0.61515,-0.83387 0.87046,-1.28395 0.40054,-0.70611 0.68039,-1.48048 0.82379,-2.27952 l 0.01,-7.5e-4 c 0.63548,0.75876 1.35557,1.44662 2.14262,2.04671 0.51216,0.3905 1.05179,0.74341 1.5943,1.09051 0.42354,0.27098 0.85087,0.53989 1.23309,0.86658 0.25319,0.2164 0.48797,0.46074 0.6506,0.7514 0.26201,0.46825 0.31881,1.04055 0.18451,1.56004 -0.0729,0.28205 -0.2017,0.55262 -0.39539,0.77023 -0.30281,0.3402 -0.75747,0.53314 -1.21286,0.53967 -0.48014,0.007 -0.94625,-0.18208 -1.34662,-0.44719 -0.3584,-0.23731 -0.67505,-0.53748 -0.93117,-0.88269 z"
           inkscape:connector-curvature="0"
           sodipodi:nodetypes="caaaaaaaaccaaaaaaaacc"
           transform="matrix(-0.95655227,0,0,-0.95655227,9.4991251,732.40348)"
           inkscape:original-d="m -140.74549,196.14488 c -0.12525,0.4706 -0.14212,0.71615 -0.36205,0.98418 -0.24598,0.29978 -0.58915,0.57344 -1.01742,0.63273 -0.46413,0.0643 -1.01006,-0.10129 -1.47752,-0.32853 -0.32083,-0.15595 -0.61433,-0.40199 -0.83555,-0.67362 -0.37097,-0.4555 -0.67483,-0.9942 -0.75303,-1.51542 -0.0439,-0.2927 0.069,-0.56348 0.17278,-0.81602 0.1545,-0.37581 0.43633,-0.67893 0.65946,-1.01511 0.28593,-0.43081 0.63541,-0.82195 0.87046,-1.28395 0.36349,-0.71447 0.51888,-1.567 0.82379,-2.27952 l 0.01,-7.5e-4 c 0.71492,0.63249 1.37069,1.42135 2.14262,2.04671 0.49916,0.40438 1.06521,0.72367 1.5943,1.09051 0.41288,0.28627 0.86204,0.53202 1.23309,0.86658 0.24934,0.22482 0.51818,0.46564 0.6506,0.7514 0.23582,0.50885 0.26692,1.06896 0.18451,1.56004 -0.0491,0.29284 -0.18242,0.57238 -0.39539,0.77023 -0.31031,0.28828 -0.73216,0.52977 -1.21286,0.53967 -0.44356,0.009 -0.93364,-0.19913 -1.34662,-0.44719 -0.36926,-0.22179 -0.53155,-0.45328 -0.93117,-0.88269 z"
           inkscape:path-effect="#path-effect3942-31" />
        <path
           sodipodi:nodetypes="caaaaaaaaccaaaaaaaacc"
           inkscape:connector-curvature="0"
           d="m -145.62697,209.23655 c -0.005,0.34416 -0.10018,0.68659 -0.27314,0.98418 -0.0857,0.1474 -0.19081,0.28462 -0.31962,0.39631 -0.1288,0.1117 -0.28198,0.19734 -0.44793,0.23642 -0.19503,0.0459 -0.40217,0.0261 -0.59231,-0.0371 -0.19014,-0.0632 -0.36428,-0.16834 -0.52235,-0.29147 -0.24345,-0.18964 -0.45105,-0.42245 -0.63035,-0.67362 -0.31812,-0.44563 -0.55347,-0.96809 -0.56809,-1.51542 -0.007,-0.27679 0.0419,-0.55365 0.13035,-0.81602 0.12062,-0.35764 0.31201,-0.68641 0.49751,-1.01511 0.23637,-0.41885 0.46548,-0.84265 0.65668,-1.28395 0.31416,-0.72512 0.52414,-1.49529 0.62147,-2.27952 l 0.007,-7.5e-4 c 0.45849,0.74084 1.00199,1.42903 1.61642,2.04671 0.38177,0.38379 0.79026,0.73995 1.20276,1.09051 0.32323,0.2747 0.65062,0.5476 0.93025,0.86658 0.19802,0.22589 0.37188,0.47556 0.49082,0.7514 0.20984,0.48664 0.23972,1.0397 0.1392,1.56004 -0.0526,0.27224 -0.14162,0.54146 -0.29829,0.77023 -0.10382,0.15159 -0.23707,0.28398 -0.39389,0.37972 -0.15682,0.0957 -0.33746,0.15411 -0.5211,0.15995 -0.18947,0.006 -0.37817,-0.0436 -0.54903,-0.12569 -0.17087,-0.0821 -0.32491,-0.19589 -0.46688,-0.3215 -0.28306,-0.25043 -0.52198,-0.55063 -0.70248,-0.88269 z"
           id="path1062"
           style="fill:#000000;fill-opacity:1;stroke:none;stroke-width:0.0187325"
           transform="matrix(-0.95655227,0,0,-0.95655227,9.4991251,732.40348)"
           inkscape:original-d="m -145.62697,209.23655 c -0.0945,0.4706 -0.10723,0.71615 -0.27314,0.98418 -0.18557,0.29978 -0.44446,0.57344 -0.76755,0.63273 -0.35015,0.0642 -0.762,-0.10129 -1.11466,-0.32853 -0.24203,-0.15595 -0.46345,-0.40199 -0.63035,-0.67362 -0.27986,-0.4555 -0.50909,-0.9942 -0.56809,-1.51542 -0.0331,-0.2927 0.052,-0.56348 0.13035,-0.81602 0.11656,-0.37581 0.32918,-0.67893 0.49751,-1.01511 0.21571,-0.43081 0.47935,-0.82195 0.65668,-1.28395 0.27422,-0.71447 0.39145,-1.567 0.62147,-2.27952 l 0.007,-7.5e-4 c 0.53935,0.63249 1.03407,1.42135 1.61642,2.04671 0.37657,0.40438 0.8036,0.72367 1.20276,1.09051 0.31148,0.28627 0.65032,0.53202 0.93025,0.86658 0.18811,0.22482 0.39092,0.46564 0.49082,0.7514 0.1779,0.50885 0.20137,1.06896 0.1392,1.56004 -0.0371,0.29284 -0.13763,0.57238 -0.29829,0.77023 -0.23411,0.28828 -0.55235,0.52977 -0.91499,0.53967 -0.33463,0.009 -0.70436,-0.19913 -1.01591,-0.44719 -0.27857,-0.22179 -0.40101,-0.45328 -0.70248,-0.88269 z"
           inkscape:path-effect="#path-effect3942-31" />
        <path
           style="fill:#000000;fill-opacity:1;stroke:none;stroke-width:0.0161009"
           id="path1066"
           d="m -150.16115,247.01097 c -0.20836,0.16037 -0.4664,0.25522 -0.72901,0.26798 -0.30593,0.0149 -0.61707,-0.0834 -0.85524,-0.27601 -0.30196,-0.24415 -0.47233,-0.62103 -0.54413,-1.00264 -0.0496,-0.26388 -0.057,-0.53477 -0.0348,-0.80236 0.0178,-0.21353 0.0546,-0.4268 0.12956,-0.62754 0.0749,-0.20073 0.18926,-0.3891 0.34728,-0.53381 0.15292,-0.14004 0.34294,-0.23578 0.54167,-0.29498 0.28823,-0.0859 0.59252,-0.0969 0.89283,-0.11298 0.3843,-0.0206 0.76905,-0.0506 1.14719,-0.12214 0.59079,-0.11183 1.16213,-0.32563 1.6812,-0.62912 l 0.005,0.005 c -0.1112,0.73089 -0.14128,1.47409 -0.0895,2.21158 0.0338,0.4815 0.1023,0.95985 0.17535,1.43698 0.057,0.3724 0.11697,0.74588 0.12268,1.12257 0.004,0.2483 -0.0168,0.50021 -0.0999,0.73423 -0.13274,0.37399 -0.42516,0.6842 -0.7819,0.85806 -0.19437,0.0947 -0.40958,0.15115 -0.62573,0.14571 -0.34212,-0.009 -0.67259,-0.17635 -0.89947,-0.43256 -0.23954,-0.27051 -0.36413,-0.62714 -0.41325,-0.98511 -0.0437,-0.31812 -0.0317,-0.64379 0.0351,-0.95786 z"
           inkscape:connector-curvature="0"
           sodipodi:nodetypes="caaaaaaaaccaaaaaaaacc"
           transform="matrix(-0.95655227,0,0,-0.95655227,9.4991251,732.40348)"
           inkscape:original-d="m -150.16115,247.01097 c -0.325,0.15549 -0.47069,0.26431 -0.72901,0.26798 -0.2889,0.004 -0.61107,-0.0599 -0.85524,-0.27601 -0.26462,-0.23417 -0.44096,-0.62594 -0.54413,-1.00264 -0.0708,-0.25854 -0.0778,-0.54493 -0.0348,-0.80236 0.0721,-0.4317 0.22376,-0.8652 0.47684,-1.16135 0.14213,-0.1663 0.34923,-0.23246 0.54167,-0.29498 0.28638,-0.093 0.59482,-0.0783 0.89283,-0.11298 0.3819,-0.0445 0.77291,-0.0335 1.14719,-0.12214 0.57882,-0.13703 1.13234,-0.45956 1.6812,-0.62912 l 0.005,0.005 c -0.002,0.7136 -0.11991,1.46884 -0.0895,2.21158 0.0197,0.48027 0.11992,0.95771 0.17535,1.43698 0.0433,0.374 0.12705,0.74917 0.12268,1.12257 -0.003,0.25092 -0.005,0.5207 -0.0999,0.73423 -0.16851,0.38022 -0.46655,0.66822 -0.7819,0.85806 -0.18805,0.11321 -0.41011,0.17193 -0.62573,0.14571 -0.31417,-0.0382 -0.6571,-0.16271 -0.89947,-0.43256 -0.22365,-0.24901 -0.34857,-0.62949 -0.41325,-0.98511 -0.0578,-0.31797 -0.008,-0.52238 0.0351,-0.95786 z"
           inkscape:path-effect="#path-effect3942-31" />
        <path
           sodipodi:nodetypes="caaaaaaaaccaaaaaaaacc"
           inkscape:connector-curvature="0"
           d="m -136.92234,184.63428 c -0.0421,0.18398 -0.14169,0.35439 -0.28128,0.48142 -0.16262,0.14799 -0.37983,0.23569 -0.5997,0.23786 -0.27875,0.003 -0.54527,-0.12812 -0.75936,-0.30665 -0.14804,-0.12345 -0.27588,-0.27008 -0.3858,-0.42843 -0.0877,-0.12636 -0.16472,-0.26131 -0.21492,-0.4067 -0.0502,-0.14539 -0.073,-0.30193 -0.0516,-0.45425 0.0207,-0.14741 0.0822,-0.28724 0.1652,-0.41081 0.12039,-0.17922 0.28386,-0.32434 0.44281,-0.47044 0.2034,-0.18696 0.40277,-0.37932 0.57947,-0.5917 0.27607,-0.33182 0.49479,-0.71123 0.64359,-1.11642 l 0.005,4.8e-4 c 0.27232,0.45554 0.59518,0.88084 0.96077,1.26558 0.23869,0.25119 0.49515,0.48479 0.75357,0.71564 0.20169,0.18018 0.40551,0.35961 0.58076,0.5656 0.11552,0.13578 0.2192,0.28467 0.28012,0.45221 0.0974,0.26774 0.0771,0.57311 -0.041,0.83236 -0.0644,0.14125 -0.15776,0.27081 -0.27994,0.36654 -0.19339,0.15152 -0.45302,0.20961 -0.69571,0.17137 -0.25622,-0.0404 -0.48814,-0.18094 -0.67887,-0.35673 -0.1695,-0.15622 -0.31167,-0.34201 -0.41815,-0.54646 z"
           id="path1070"
           style="fill:#000000;fill-opacity:1;stroke:none;stroke-width:0.0115585"
           transform="matrix(-0.95655227,0,0,-0.95655227,9.4991251,732.40348)"
           inkscape:original-d="m -136.92234,184.63428 c -0.10895,0.23457 -0.13991,0.36139 -0.28128,0.48142 -0.15811,0.13425 -0.36577,0.24598 -0.5997,0.23786 -0.25351,-0.009 -0.53013,-0.14518 -0.75936,-0.30665 -0.15732,-0.11082 -0.292,-0.26624 -0.3858,-0.42843 -0.1573,-0.27199 -0.27134,-0.58134 -0.26648,-0.86095 0.003,-0.15703 0.0872,-0.28827 0.1652,-0.41081 0.11608,-0.18234 0.29363,-0.31507 0.44281,-0.47044 0.19116,-0.1991 0.41269,-0.37166 0.57947,-0.5917 0.25793,-0.34031 0.41711,-0.77178 0.64359,-1.11642 l 0.005,4.8e-4 c 0.32509,0.39592 0.60461,0.86818 0.96077,1.26558 0.23031,0.25696 0.50393,0.47556 0.75357,0.71564 0.1948,0.18735 0.4126,0.35683 0.58076,0.5656 0.113,0.14029 0.23498,0.29073 0.28012,0.45221 0.0804,0.28753 0.0469,0.58317 -0.041,0.83236 -0.0524,0.1486 -0.14857,0.28256 -0.27994,0.36654 -0.19143,0.12236 -0.43822,0.21009 -0.69571,0.17137 -0.2376,-0.0357 -0.4806,-0.18935 -0.67887,-0.35673 -0.17729,-0.14966 -0.24323,-0.28549 -0.41815,-0.54646 z"
           inkscape:path-effect="#path-effect3942-31" />
        <path
           style="fill:#000000;fill-opacity:1;stroke:none;stroke-width:0.0115585"
           id="path1074"
           d="m -149.66949,195.48658 c -0.0421,0.18398 -0.14169,0.35439 -0.28128,0.48142 -0.16262,0.14799 -0.37983,0.23569 -0.5997,0.23786 -0.27875,0.003 -0.54527,-0.12812 -0.75936,-0.30665 -0.14804,-0.12345 -0.27588,-0.27008 -0.3858,-0.42843 -0.0877,-0.12636 -0.16472,-0.26131 -0.21492,-0.4067 -0.0502,-0.14539 -0.073,-0.30193 -0.0516,-0.45425 0.0207,-0.14741 0.0822,-0.28724 0.1652,-0.41081 0.12039,-0.17922 0.28386,-0.32434 0.44281,-0.47044 0.2034,-0.18696 0.40277,-0.37932 0.57947,-0.5917 0.27607,-0.33182 0.49479,-0.71123 0.64359,-1.11642 l 0.005,4.8e-4 c 0.27232,0.45554 0.59518,0.88084 0.96077,1.26558 0.23869,0.25119 0.49515,0.48479 0.75357,0.71564 0.20169,0.18018 0.40551,0.35961 0.58076,0.5656 0.11552,0.13578 0.2192,0.28467 0.28012,0.45221 0.0974,0.26774 0.0771,0.57311 -0.041,0.83236 -0.0644,0.14125 -0.15776,0.27081 -0.27994,0.36654 -0.19339,0.15152 -0.45302,0.20961 -0.69571,0.17137 -0.25622,-0.0404 -0.48814,-0.18094 -0.67887,-0.35673 -0.1695,-0.15622 -0.31167,-0.34201 -0.41815,-0.54646 z"
           inkscape:connector-curvature="0"
           sodipodi:nodetypes="caaaaaaaaccaaaaaaaacc"
           transform="matrix(-0.95655227,0,0,-0.95655227,9.4991251,732.40348)"
           inkscape:original-d="m -149.66949,195.48658 c -0.10895,0.23457 -0.13991,0.36139 -0.28128,0.48142 -0.15811,0.13425 -0.36577,0.24598 -0.5997,0.23786 -0.25351,-0.009 -0.53013,-0.14518 -0.75936,-0.30665 -0.15732,-0.11082 -0.292,-0.26624 -0.3858,-0.42843 -0.1573,-0.27199 -0.27134,-0.58134 -0.26648,-0.86095 0.003,-0.15703 0.0872,-0.28827 0.1652,-0.41081 0.11608,-0.18234 0.29363,-0.31507 0.44281,-0.47044 0.19116,-0.1991 0.41269,-0.37166 0.57947,-0.5917 0.25793,-0.34031 0.41711,-0.77178 0.64359,-1.11642 l 0.005,4.8e-4 c 0.32509,0.39592 0.60461,0.86818 0.96077,1.26558 0.23031,0.25696 0.50393,0.47556 0.75357,0.71564 0.1948,0.18735 0.4126,0.35683 0.58076,0.5656 0.113,0.14029 0.23498,0.29073 0.28012,0.45221 0.0804,0.28753 0.0469,0.58317 -0.041,0.83236 -0.0524,0.1486 -0.14857,0.28256 -0.27994,0.36654 -0.19143,0.12236 -0.43822,0.21009 -0.69571,0.17137 -0.2376,-0.0357 -0.4806,-0.18935 -0.67887,-0.35673 -0.17729,-0.14966 -0.24323,-0.28549 -0.41815,-0.54646 z"
           inkscape:path-effect="#path-effect3942-31" />
        <path
           sodipodi:nodetypes="caaaaaaaaccaaaaaaaacc"
           inkscape:connector-curvature="0"
           d="m -137.17881,265.68344 c -0.1016,0.15907 -0.25272,0.28601 -0.42693,0.35864 -0.20295,0.0846 -0.437,0.0941 -0.64477,0.0221 -0.2634,-0.0913 -0.47031,-0.3042 -0.61181,-0.54438 -0.0978,-0.16608 -0.16886,-0.34719 -0.21906,-0.5333 -0.0401,-0.14851 -0.0671,-0.3015 -0.0655,-0.45531 0.002,-0.15381 0.0329,-0.30887 0.10437,-0.4451 0.0691,-0.13184 0.17409,-0.2428 0.29385,-0.33122 0.17369,-0.12823 0.37647,-0.20985 0.57533,-0.29392 0.25447,-0.10758 0.50696,-0.2216 0.74484,-0.3621 0.37166,-0.21952 0.70534,-0.50315 0.98185,-0.8346 l 0.005,0.002 c 0.10308,0.52062 0.26393,1.02979 0.47866,1.51514 0.1402,0.31688 0.30305,0.62318 0.46867,0.92755 0.12927,0.23756 0.26079,0.47513 0.35647,0.72809 0.0631,0.16674 0.11057,0.34185 0.11154,0.52011 0.002,0.28489 -0.12029,0.56563 -0.3188,0.76998 -0.10815,0.11134 -0.23972,0.20189 -0.387,0.25091 -0.2331,0.0776 -0.49714,0.0449 -0.71279,-0.0728 -0.22768,-0.12426 -0.39874,-0.33471 -0.51916,-0.56444 -0.10702,-0.20416 -0.17835,-0.42697 -0.20979,-0.65532 z"
           id="path1078"
           style="fill:#000000;fill-opacity:1;stroke:none;stroke-width:0.0115585"
           transform="matrix(-0.95655227,0,0,-0.95655227,9.4991251,732.40348)"
           inkscape:original-d="m -137.17881,265.68344 c -0.18155,0.1842 -0.2534,0.2932 -0.42693,0.35864 -0.19407,0.0732 -0.42723,0.10848 -0.64477,0.0221 -0.23575,-0.0936 -0.45032,-0.31517 -0.61181,-0.54438 -0.11083,-0.15731 -0.18533,-0.349 -0.21906,-0.5333 -0.0566,-0.30907 -0.0598,-0.63876 0.0389,-0.90041 0.0554,-0.14694 0.17915,-0.24209 0.29385,-0.33122 0.17069,-0.13263 0.38256,-0.19783 0.57533,-0.29392 0.24702,-0.12313 0.51371,-0.21104 0.74484,-0.3621 0.35743,-0.23362 0.65257,-0.58632 0.98185,-0.8346 l 0.005,0.002 c 0.17283,0.48224 0.27706,1.02104 0.47866,1.51514 0.13036,0.31949 0.31442,0.61744 0.46867,0.92755 0.12037,0.24199 0.2684,0.47489 0.35647,0.72809 0.0592,0.17015 0.12339,0.35287 0.11154,0.52011 -0.0211,0.29782 -0.15215,0.56493 -0.3188,0.76998 -0.0994,0.12229 -0.23502,0.21606 -0.387,0.25091 -0.22145,0.0508 -0.48336,0.0503 -0.71279,-0.0728 -0.21171,-0.11362 -0.3888,-0.34008 -0.51916,-0.56444 -0.11656,-0.2006 -0.13292,-0.35071 -0.20979,-0.65532 z"
           inkscape:path-effect="#path-effect3942-31" />
        <path
           sodipodi:nodetypes="caaaaaaaaccaaaaaaaacc"
           inkscape:connector-curvature="0"
           d="m -147.13566,237.48106 c 0.009,0.22232 -0.0476,0.44699 -0.16154,0.63811 -0.12692,0.21288 -0.32828,0.38485 -0.56572,0.4559 -0.1464,0.0438 -0.303,0.049 -0.45393,0.025 -0.15093,-0.0239 -0.29646,-0.0764 -0.43299,-0.14503 -0.19308,-0.0971 -0.3689,-0.22649 -0.52712,-0.3737 -0.1304,-0.12132 -0.24986,-0.25574 -0.34298,-0.40756 -0.0931,-0.15183 -0.15943,-0.32176 -0.17967,-0.49871 -0.02,-0.17517 0.005,-0.35369 0.059,-0.52167 0.0765,-0.23978 0.20813,-0.45743 0.33498,-0.6748 0.16215,-0.27786 0.31855,-0.55987 0.4451,-0.85564 0.2004,-0.46836 0.32435,-0.96933 0.36546,-1.4771 l 0.006,-0.001 c 0.41009,0.43654 0.8702,0.82607 1.36843,1.1585 0.32112,0.21426 0.6575,0.40458 0.99558,0.59092 0.26414,0.14559 0.53067,0.28962 0.77123,0.47154 0.16169,0.12228 0.31231,0.26297 0.42233,0.43323 0.18236,0.28222 0.24202,0.63533 0.19034,0.96734 -0.028,0.17982 -0.0883,0.35665 -0.19238,0.50591 -0.15688,0.22491 -0.41322,0.37743 -0.68563,0.40893 -0.28315,0.0327 -0.56863,-0.0605 -0.81609,-0.202 -0.22582,-0.1291 -0.42819,-0.29908 -0.59435,-0.49921 z"
           id="path1082"
           style="fill:#000000;fill-opacity:1;stroke:none;stroke-width:0.0131557"
           transform="matrix(-0.95655227,0,0,-0.95655227,9.4991251,732.40348)"
           inkscape:original-d="m -147.13566,237.48106 c -0.0491,0.30233 -0.0461,0.45726 -0.16154,0.63811 -0.12908,0.20226 -0.31674,0.3938 -0.56572,0.4559 -0.26984,0.0673 -0.59985,-0.005 -0.88692,-0.11999 -0.19701,-0.0791 -0.38267,-0.21628 -0.52712,-0.3737 -0.24222,-0.26399 -0.44931,-0.58404 -0.52265,-0.90627 -0.0412,-0.18096 0.0111,-0.3573 0.059,-0.52167 0.0712,-0.2446 0.22126,-0.45105 0.33498,-0.6748 0.14574,-0.28674 0.33095,-0.55231 0.4451,-0.85564 0.17652,-0.46909 0.22332,-1.01263 0.36546,-1.4771 l 0.006,-0.001 c 0.45396,0.35493 0.88129,0.81135 1.36843,1.1585 0.31501,0.22448 0.66492,0.39171 0.99558,0.59092 0.25803,0.15545 0.53529,0.28338 0.77123,0.47154 0.15855,0.12644 0.3294,0.26178 0.42233,0.43323 0.16546,0.3053 0.21312,0.65465 0.19034,0.96734 -0.0136,0.18646 -0.0774,0.36947 -0.19238,0.50591 -0.16755,0.19879 -0.4032,0.37475 -0.68563,0.40893 -0.26062,0.0315 -0.56,-0.0705 -0.81609,-0.202 -0.22897,-0.11756 -0.33663,-0.25325 -0.59435,-0.49921 z"
           inkscape:path-effect="#path-effect3942-31" />
        <path
           sodipodi:nodetypes="caaaaaaaaccaaaaaaaacc"
           inkscape:connector-curvature="0"
           d="m -149.32498,219.43056 c -0.0421,0.18398 -0.14169,0.35439 -0.28128,0.48142 -0.16262,0.14799 -0.37983,0.23569 -0.5997,0.23786 -0.27875,0.003 -0.54527,-0.12812 -0.75936,-0.30665 -0.14804,-0.12345 -0.27588,-0.27008 -0.3858,-0.42843 -0.0877,-0.12636 -0.16472,-0.26131 -0.21492,-0.4067 -0.0502,-0.14539 -0.073,-0.30193 -0.0516,-0.45425 0.0207,-0.14741 0.0822,-0.28724 0.1652,-0.41081 0.12039,-0.17922 0.28386,-0.32434 0.44281,-0.47044 0.2034,-0.18696 0.40277,-0.37932 0.57947,-0.5917 0.27607,-0.33182 0.49479,-0.71123 0.64359,-1.11642 l 0.005,4.8e-4 c 0.27232,0.45554 0.59518,0.88084 0.96077,1.26558 0.23869,0.25119 0.49515,0.48479 0.75357,0.71564 0.20169,0.18018 0.40551,0.35961 0.58076,0.5656 0.11552,0.13578 0.2192,0.28467 0.28012,0.45221 0.0974,0.26774 0.0771,0.57311 -0.041,0.83236 -0.0644,0.14125 -0.15776,0.27081 -0.27994,0.36654 -0.19339,0.15152 -0.45302,0.20961 -0.69571,0.17137 -0.25622,-0.0404 -0.48814,-0.18094 -0.67887,-0.35673 -0.1695,-0.15622 -0.31167,-0.34201 -0.41815,-0.54646 z"
           id="path1086"
           style="fill:#000000;fill-opacity:1;stroke:none;stroke-width:0.0115585"
           transform="matrix(-0.95655227,0,0,-0.95655227,9.4991251,732.40348)"
           inkscape:original-d="m -149.32498,219.43056 c -0.10895,0.23457 -0.13991,0.36139 -0.28128,0.48142 -0.15811,0.13425 -0.36577,0.24598 -0.5997,0.23786 -0.25351,-0.009 -0.53013,-0.14518 -0.75936,-0.30665 -0.15732,-0.11082 -0.292,-0.26624 -0.3858,-0.42843 -0.1573,-0.27199 -0.27134,-0.58134 -0.26648,-0.86095 0.003,-0.15703 0.0872,-0.28827 0.1652,-0.41081 0.11608,-0.18234 0.29363,-0.31507 0.44281,-0.47044 0.19116,-0.1991 0.41269,-0.37166 0.57947,-0.5917 0.25793,-0.34031 0.41711,-0.77178 0.64359,-1.11642 l 0.005,4.8e-4 c 0.32509,0.39592 0.60461,0.86818 0.96077,1.26558 0.23031,0.25696 0.50393,0.47556 0.75357,0.71564 0.1948,0.18735 0.4126,0.35683 0.58076,0.5656 0.113,0.14029 0.23498,0.29073 0.28012,0.45221 0.0804,0.28753 0.0469,0.58317 -0.041,0.83236 -0.0524,0.1486 -0.14857,0.28256 -0.27994,0.36654 -0.19143,0.12236 -0.43822,0.21009 -0.69571,0.17137 -0.2376,-0.0357 -0.4806,-0.18935 -0.67887,-0.35673 -0.17729,-0.14966 -0.24323,-0.28549 -0.41815,-0.54646 z"
           inkscape:path-effect="#path-effect3942-31" />
        <path
           style="fill:#000000;fill-opacity:1;stroke:none;stroke-width:0.00706641"
           id="path1090"
           d="m -131.77646,265.09507 c -0.0264,0.11191 -0.0877,0.21533 -0.17319,0.29224 -0.10043,0.0904 -0.23418,0.14316 -0.36926,0.14438 -0.17122,0.002 -0.33528,-0.0774 -0.46757,-0.18614 -0.091,-0.0748 -0.16974,-0.16379 -0.23756,-0.26007 -0.0539,-0.0765 -0.10128,-0.15822 -0.13224,-0.24649 -0.0309,-0.0883 -0.045,-0.1835 -0.0318,-0.27611 0.0128,-0.0897 0.0507,-0.17452 0.10172,-0.24936 0.0743,-0.10905 0.17485,-0.197 0.27266,-0.28557 0.12519,-0.11336 0.24792,-0.23006 0.3568,-0.35917 0.16953,-0.20102 0.30422,-0.43135 0.39629,-0.67767 l 0.003,2.9e-4 c 0.16806,0.27684 0.36687,0.535 0.59159,0.76821 0.14706,0.15261 0.30495,0.29435 0.464,0.43441 0.12412,0.1093 0.24951,0.21815 0.3576,0.34332 0.071,0.0822 0.13493,0.17254 0.17248,0.2745 0.0598,0.16239 0.0474,0.34818 -0.0252,0.50525 -0.0398,0.086 -0.0975,0.16453 -0.17238,0.22249 -0.11949,0.0924 -0.27911,0.12734 -0.42837,0.10403 -0.15727,-0.0246 -0.30018,-0.10952 -0.41801,-0.21654 -0.10414,-0.0946 -0.19168,-0.20737 -0.25747,-0.33171 z"
           inkscape:connector-curvature="0"
           sodipodi:nodetypes="caaaaaaaaccaaaaaaaacc"
           transform="matrix(-0.95655227,0,0,-0.95655227,9.4991251,732.40348)"
           inkscape:original-d="m -131.77646,265.09507 c -0.0671,0.14239 -0.0862,0.21937 -0.17319,0.29224 -0.0974,0.0815 -0.22523,0.1493 -0.36926,0.14438 -0.1561,-0.005 -0.32643,-0.0881 -0.46757,-0.18614 -0.0969,-0.0673 -0.1798,-0.16161 -0.23756,-0.26007 -0.0968,-0.1651 -0.16707,-0.35288 -0.16408,-0.5226 0.002,-0.0953 0.0537,-0.17498 0.10172,-0.24936 0.0715,-0.11069 0.18081,-0.19126 0.27266,-0.28557 0.1177,-0.12085 0.25411,-0.2256 0.3568,-0.35917 0.15882,-0.20657 0.25684,-0.46847 0.39629,-0.67767 l 0.003,2.9e-4 c 0.20018,0.24032 0.37229,0.52699 0.59159,0.76821 0.14181,0.15599 0.31029,0.28868 0.464,0.43441 0.11995,0.11372 0.25406,0.2166 0.3576,0.34332 0.0696,0.0852 0.14469,0.17648 0.17248,0.2745 0.0495,0.17454 0.0289,0.35399 -0.0252,0.50525 -0.0323,0.0902 -0.0915,0.17152 -0.17238,0.22249 -0.11787,0.0743 -0.26982,0.12753 -0.42837,0.10403 -0.1463,-0.0217 -0.29592,-0.11494 -0.41801,-0.21654 -0.10916,-0.0908 -0.14976,-0.1733 -0.25747,-0.33171 z"
           inkscape:path-effect="#path-effect3942-31" />
        <path
           sodipodi:nodetypes="caaaaaaaaccaaaaaaaacc"
           inkscape:connector-curvature="0"
           d="m -150.03589,202.04833 c -0.0264,0.11191 -0.0877,0.21533 -0.17319,0.29224 -0.10043,0.0903 -0.23418,0.14316 -0.36926,0.14438 -0.17122,0.002 -0.33528,-0.0774 -0.46757,-0.18614 -0.091,-0.0748 -0.16974,-0.16379 -0.23756,-0.26007 -0.0539,-0.0765 -0.10128,-0.15822 -0.13224,-0.24649 -0.031,-0.0883 -0.045,-0.1835 -0.0318,-0.27611 0.0128,-0.0897 0.0507,-0.17452 0.10172,-0.24936 0.0743,-0.10905 0.17485,-0.197 0.27266,-0.28557 0.12519,-0.11336 0.24792,-0.23006 0.3568,-0.35917 0.16953,-0.20102 0.30422,-0.43135 0.39629,-0.67767 l 0.003,2.9e-4 c 0.16806,0.27684 0.36687,0.535 0.59159,0.76821 0.14706,0.15261 0.30495,0.29435 0.464,0.43441 0.12412,0.1093 0.24951,0.21815 0.3576,0.34332 0.071,0.0822 0.13493,0.17254 0.17248,0.2745 0.0598,0.16239 0.0474,0.34818 -0.0252,0.50525 -0.0397,0.086 -0.0975,0.16453 -0.17238,0.22249 -0.11949,0.0924 -0.27911,0.12734 -0.42837,0.10403 -0.15727,-0.0246 -0.30018,-0.10952 -0.41801,-0.21654 -0.10414,-0.0946 -0.19168,-0.20737 -0.25747,-0.33171 z"
           id="path1094"
           style="fill:#000000;fill-opacity:1;stroke:none;stroke-width:0.00706641"
           transform="matrix(-0.95655227,0,0,-0.95655227,9.4991251,732.40348)"
           inkscape:original-d="m -150.03589,202.04833 c -0.0671,0.14239 -0.0862,0.21937 -0.17319,0.29224 -0.0974,0.0815 -0.22523,0.1493 -0.36926,0.14438 -0.1561,-0.005 -0.32643,-0.0881 -0.46757,-0.18614 -0.0969,-0.0673 -0.1798,-0.16161 -0.23756,-0.26007 -0.0969,-0.1651 -0.16707,-0.35288 -0.16408,-0.5226 0.002,-0.0953 0.0537,-0.17498 0.10172,-0.24936 0.0715,-0.11069 0.18081,-0.19126 0.27266,-0.28557 0.1177,-0.12085 0.25411,-0.2256 0.3568,-0.35917 0.15882,-0.20657 0.25684,-0.46847 0.39629,-0.67767 l 0.003,2.9e-4 c 0.20018,0.24032 0.37229,0.52699 0.59159,0.76821 0.14181,0.15599 0.31029,0.28868 0.464,0.43441 0.11995,0.11372 0.25406,0.2166 0.3576,0.34332 0.0696,0.0852 0.14469,0.17648 0.17248,0.2745 0.0495,0.17454 0.0289,0.35399 -0.0252,0.50525 -0.0323,0.0902 -0.0915,0.17152 -0.17238,0.22249 -0.11787,0.0743 -0.26982,0.12753 -0.42837,0.10403 -0.1463,-0.0217 -0.29592,-0.11494 -0.41801,-0.21654 -0.10916,-0.0908 -0.14976,-0.1733 -0.25747,-0.33171 z"
           inkscape:path-effect="#path-effect3942-31" />
        <path
           style="fill:#000000;fill-opacity:1;stroke:none;stroke-width:0.00706641"
           id="path1098"
           d="m -142.28425,229.43748 c -0.0264,0.11191 -0.0877,0.21533 -0.17319,0.29224 -0.10043,0.0904 -0.23418,0.14316 -0.36926,0.14438 -0.17122,0.002 -0.33528,-0.0774 -0.46757,-0.18614 -0.091,-0.0748 -0.16974,-0.16379 -0.23756,-0.26007 -0.0539,-0.0765 -0.10128,-0.15822 -0.13224,-0.24649 -0.0309,-0.0883 -0.045,-0.1835 -0.0318,-0.27611 0.0128,-0.0897 0.0507,-0.17452 0.10172,-0.24936 0.0743,-0.10905 0.17485,-0.197 0.27266,-0.28557 0.12519,-0.11336 0.24792,-0.23006 0.3568,-0.35917 0.16953,-0.20102 0.30422,-0.43135 0.39629,-0.67767 l 0.003,2.9e-4 c 0.16806,0.27684 0.36687,0.535 0.59159,0.76821 0.14706,0.15261 0.30495,0.29435 0.464,0.43441 0.12412,0.1093 0.24951,0.21815 0.3576,0.34332 0.071,0.0822 0.13493,0.17254 0.17248,0.2745 0.0598,0.16239 0.0474,0.34818 -0.0252,0.50525 -0.0398,0.086 -0.0975,0.16453 -0.17238,0.22249 -0.11949,0.0924 -0.27911,0.12734 -0.42837,0.10403 -0.15727,-0.0246 -0.30018,-0.10952 -0.41801,-0.21654 -0.10414,-0.0946 -0.19168,-0.20737 -0.25747,-0.33171 z"
           inkscape:connector-curvature="0"
           sodipodi:nodetypes="caaaaaaaaccaaaaaaaacc"
           transform="matrix(-0.95655227,0,0,-0.95655227,9.4991251,732.40348)"
           inkscape:original-d="m -142.28425,229.43748 c -0.0671,0.14239 -0.0862,0.21937 -0.17319,0.29224 -0.0974,0.0815 -0.22523,0.1493 -0.36926,0.14438 -0.1561,-0.005 -0.32643,-0.0881 -0.46757,-0.18614 -0.0969,-0.0673 -0.1798,-0.16161 -0.23756,-0.26007 -0.0968,-0.1651 -0.16707,-0.35288 -0.16408,-0.5226 0.002,-0.0953 0.0537,-0.17498 0.10172,-0.24936 0.0715,-0.11069 0.18081,-0.19126 0.27266,-0.28557 0.1177,-0.12085 0.25411,-0.2256 0.3568,-0.35917 0.15882,-0.20657 0.25684,-0.46847 0.39629,-0.67767 l 0.003,2.9e-4 c 0.20018,0.24032 0.37229,0.52699 0.59159,0.76821 0.14181,0.15599 0.31029,0.28868 0.464,0.43441 0.11995,0.11372 0.25406,0.2166 0.3576,0.34332 0.0696,0.0852 0.14469,0.17648 0.17248,0.2745 0.0495,0.17454 0.0289,0.35399 -0.0252,0.50525 -0.0323,0.0902 -0.0915,0.17152 -0.17238,0.22249 -0.11787,0.0743 -0.26982,0.12753 -0.42837,0.10403 -0.1463,-0.0217 -0.29592,-0.11494 -0.41801,-0.21654 -0.10916,-0.0908 -0.14976,-0.1733 -0.25747,-0.33171 z"
           inkscape:path-effect="#path-effect3942-31" />
        <path
           style="fill:#000000;fill-opacity:1;stroke:none;stroke-width:0.0065477"
           id="path1102"
           d="m -144.903,246.29741 c 0.005,0.11374 -0.0223,0.22872 -0.0778,0.32811 -0.0599,0.10714 -0.15551,0.19743 -0.27254,0.23441 -0.0705,0.0223 -0.14644,0.0247 -0.21931,0.0123 -0.0729,-0.0124 -0.14279,-0.0392 -0.20798,-0.074 -0.094,-0.0502 -0.17854,-0.11689 -0.25394,-0.19215 -0.12742,-0.12717 -0.23227,-0.28703 -0.25179,-0.46599 -0.01,-0.09 0.002,-0.18154 0.0284,-0.26823 0.0368,-0.12241 0.1002,-0.23476 0.16139,-0.34697 0.0781,-0.14331 0.15353,-0.2885 0.21443,-0.43995 0.0973,-0.24208 0.15696,-0.49928 0.17606,-0.7595 l 0.003,-5.2e-4 c 0.19562,0.22327 0.41736,0.42363 0.65926,0.59568 0.15427,0.10973 0.31647,0.20782 0.47963,0.30383 0.12759,0.0751 0.25647,0.14935 0.37155,0.24246 0.0786,0.0636 0.1509,0.13644 0.20346,0.22276 0.0895,0.14691 0.11656,0.32718 0.0917,0.49738 -0.0134,0.0918 -0.0418,0.18254 -0.0927,0.26013 -0.0739,0.11264 -0.19664,0.19364 -0.33031,0.21027 -0.1371,0.0171 -0.27518,-0.032 -0.39316,-0.10386 -0.11009,-0.0671 -0.20768,-0.15456 -0.28634,-0.25669 z"
           inkscape:connector-curvature="0"
           sodipodi:nodetypes="caaaaaaaaccaaaaaaaacc"
           transform="matrix(-0.95655227,0,0,-0.95655227,9.4991251,732.40348)"
           inkscape:original-d="m -144.903,246.29741 c -0.0236,0.15546 -0.0222,0.23512 -0.0778,0.32811 -0.0622,0.104 -0.15259,0.20249 -0.27254,0.23441 -0.13,0.0346 -0.28899,-0.002 -0.42729,-0.0617 -0.0949,-0.0407 -0.18435,-0.11121 -0.25394,-0.19215 -0.1167,-0.13574 -0.21646,-0.30031 -0.25179,-0.46599 -0.0199,-0.093 0.005,-0.18371 0.0284,-0.26823 0.0343,-0.12577 0.1066,-0.23192 0.16139,-0.34697 0.0702,-0.14744 0.15944,-0.28399 0.21443,-0.43995 0.085,-0.2412 0.10759,-0.52068 0.17606,-0.7595 l 0.003,-5.2e-4 c 0.2187,0.1825 0.42457,0.41718 0.65926,0.59568 0.15176,0.11542 0.32034,0.20141 0.47963,0.30383 0.12431,0.0799 0.25789,0.14571 0.37155,0.24246 0.0764,0.065 0.1587,0.1346 0.20346,0.22276 0.0797,0.15698 0.10268,0.33661 0.0917,0.49738 -0.007,0.0959 -0.0373,0.18998 -0.0927,0.26013 -0.0807,0.10222 -0.19424,0.19269 -0.33031,0.21027 -0.12555,0.0162 -0.26979,-0.0363 -0.39316,-0.10386 -0.11031,-0.0605 -0.16217,-0.13022 -0.28634,-0.25669 z"
           inkscape:path-effect="#path-effect3942-31" />
        <path
           style="fill:#000000;fill-opacity:1;stroke:none;stroke-width:0.00656189"
           id="path1106"
           d="m -132.57588,183.13591 c -0.0239,0.10445 -0.0804,0.20119 -0.15969,0.27331 -0.0923,0.084 -0.21563,0.13381 -0.34045,0.13504 -0.15825,0.002 -0.30956,-0.0727 -0.4311,-0.17409 -0.084,-0.0701 -0.15662,-0.15333 -0.21902,-0.24323 -0.0498,-0.0717 -0.0935,-0.14835 -0.12201,-0.23089 -0.0285,-0.0825 -0.0414,-0.17141 -0.0293,-0.25788 0.0118,-0.0837 0.0467,-0.16307 0.0938,-0.23322 0.0684,-0.10174 0.16115,-0.18413 0.25139,-0.26707 0.11547,-0.10614 0.22866,-0.21535 0.32897,-0.33592 0.15673,-0.18838 0.2809,-0.40377 0.36537,-0.6338 l 0.003,2.7e-4 c 0.1546,0.25862 0.33789,0.50006 0.54544,0.71848 0.13551,0.1426 0.28111,0.27522 0.42781,0.40628 0.1145,0.10229 0.2302,0.20416 0.3297,0.3211 0.0656,0.0771 0.12445,0.16161 0.15903,0.25672 0.0553,0.152 0.0438,0.32536 -0.0233,0.47254 -0.0365,0.0802 -0.0896,0.15374 -0.15892,0.20809 -0.10979,0.086 -0.25718,0.119 -0.39496,0.0973 -0.14546,-0.0229 -0.27713,-0.10272 -0.38541,-0.20252 -0.0962,-0.0887 -0.17694,-0.19416 -0.23738,-0.31023 z"
           inkscape:connector-curvature="0"
           sodipodi:nodetypes="caaaaaaaaccaaaaaaaacc"
           transform="matrix(-0.95655227,0,0,-0.95655227,9.4991251,732.40348)"
           inkscape:original-d="m -132.57588,183.13591 c -0.0618,0.13317 -0.0794,0.20517 -0.15969,0.27331 -0.0898,0.0762 -0.20765,0.13964 -0.34045,0.13504 -0.14392,-0.005 -0.30096,-0.0824 -0.4311,-0.17409 -0.0893,-0.0629 -0.16577,-0.15115 -0.21902,-0.24323 -0.0893,-0.15441 -0.15404,-0.33003 -0.15128,-0.48877 0.002,-0.0891 0.0495,-0.16365 0.0938,-0.23322 0.0659,-0.10352 0.1667,-0.17887 0.25139,-0.26707 0.10852,-0.11303 0.23429,-0.211 0.32897,-0.33592 0.14643,-0.19319 0.2368,-0.43815 0.36537,-0.6338 l 0.003,2.7e-4 c 0.18456,0.22477 0.34325,0.49287 0.54544,0.71848 0.13075,0.14588 0.28608,0.26998 0.42781,0.40628 0.11059,0.10636 0.23424,0.20258 0.3297,0.3211 0.0642,0.0796 0.1334,0.16505 0.15903,0.25672 0.0456,0.16324 0.0266,0.33108 -0.0233,0.47254 -0.0298,0.0844 -0.0843,0.16042 -0.15892,0.20809 -0.10868,0.0695 -0.24878,0.11927 -0.39496,0.0973 -0.13489,-0.0203 -0.27284,-0.10749 -0.38541,-0.20252 -0.10064,-0.085 -0.13808,-0.16208 -0.23738,-0.31023 z"
           inkscape:path-effect="#path-effect3942-31" />
      </g>
      <g
         id="g21">
        <path
           style="fill:#000000;fill-opacity:1;stroke:none;stroke-width:0.0369903"
           id="path1287"
           d="m -22.321018,188.80553 c 0.564602,0.34189 1.208665,0.55163 1.866325,0.60776 0.768236,0.0656 1.565527,-0.0848 2.218544,-0.49472 0.715382,-0.4491 1.224544,-1.19317 1.45215,-2.00659 0.148481,-0.53064 0.183255,-1.09015 0.1291,-1.63851 -0.04516,-0.45724 -0.152456,-0.91064 -0.344259,-1.32815 -0.191804,-0.41752 -0.469958,-0.79864 -0.82804,-1.08654 -0.399483,-0.32118 -0.886065,-0.51819 -1.382016,-0.64771 -0.748158,-0.19539 -1.525279,-0.24563 -2.296317,-0.30409 -0.988164,-0.0749 -1.976872,-0.16498 -2.95164,-0.34361 -1.491037,-0.27323 -2.943875,-0.7541 -4.303496,-1.42438 l -0.0134,0.01 c 0.249429,1.4952 0.290604,3.025 0.121965,4.53145 -0.110248,0.98485 -0.309318,1.95749 -0.522725,2.92524 -0.166515,0.75511 -0.342659,1.51367 -0.371469,2.28638 -0.0191,0.51223 0.02912,1.03496 0.221362,1.51013 0.17232,0.42592 0.456971,0.80223 0.801377,1.10635 0.344406,0.30412 0.747556,0.53769 1.172314,0.71287 0.509407,0.21009 1.05515,0.33824 1.606069,0.3492 0.844498,0.0168 1.703841,-0.256 2.340264,-0.81136 0.58094,-0.50694 0.954956,-1.22693 1.113859,-1.98141 0.136032,-0.64588 0.121065,-1.32308 -0.04337,-1.96232 z"
           inkscape:connector-curvature="0"
           sodipodi:nodetypes="caaaaaaaaccaaaaaaaacc"
           transform="matrix(-0.95655227,0,0,-0.95655227,9.4991251,732.40348)"
           inkscape:original-d="m -22.321018,188.80553 c 0.830256,0.34462 1.20053,0.57915 1.866325,0.60776 0.744636,0.032 1.578411,-0.0726 2.218544,-0.49472 0.693728,-0.4574 1.167635,-1.24441 1.45215,-2.00659 0.195265,-0.52308 0.227255,-1.10837 0.1291,-1.63851 -0.164599,-0.88901 -0.534361,-1.7882 -1.172299,-2.41469 -0.35825,-0.35182 -0.888947,-0.50408 -1.382016,-0.64771 -0.733745,-0.21373 -1.529685,-0.20871 -2.296317,-0.30409 -0.982412,-0.12222 -1.991046,-0.13177 -2.95164,-0.34361 -1.485547,-0.32762 -2.896776,-1.03265 -4.303496,-1.42438 l -0.0134,0.01 c -0.03086,1.45992 0.236951,3.01456 0.121965,4.53145 -0.07435,0.98086 -0.356261,1.94935 -0.522725,2.92524 -0.129901,0.76154 -0.36438,1.52217 -0.371469,2.28638 -0.0048,0.51354 -0.01212,1.0656 0.221362,1.51013 0.415757,0.79158 1.169998,1.40509 1.973691,1.81922 0.479265,0.24695 1.048888,0.38521 1.606069,0.3492 0.811856,-0.0525 1.702132,-0.27913 2.340264,-0.81136 0.588832,-0.49111 0.929621,-1.25922 1.113859,-1.98141 0.164731,-0.64573 0.04702,-1.06793 -0.04337,-1.96232 z"
           inkscape:path-effect="#path-effect1365-49" />
        <path
           sodipodi:nodetypes="caaaaaaaaccaaaaaaaacc"
           inkscape:connector-curvature="0"
           d="m -22.321018,188.80553 c 0.564602,0.34189 1.208665,0.55163 1.866325,0.60776 0.768236,0.0656 1.565527,-0.0848 2.218544,-0.49472 0.715382,-0.4491 1.224544,-1.19317 1.45215,-2.00659 0.148481,-0.53064 0.183255,-1.09015 0.1291,-1.63851 -0.04516,-0.45724 -0.152456,-0.91064 -0.344259,-1.32815 -0.191804,-0.41752 -0.469958,-0.79864 -0.82804,-1.08654 -0.399483,-0.32118 -0.886065,-0.51819 -1.382016,-0.64771 -0.748158,-0.19539 -1.525279,-0.24563 -2.296317,-0.30409 -0.988164,-0.0749 -1.976872,-0.16498 -2.95164,-0.34361 -1.491037,-0.27323 -2.943875,-0.7541 -4.303496,-1.42438 l -0.0134,0.01 c 0.249429,1.4952 0.290604,3.025 0.121965,4.53145 -0.110248,0.98485 -0.309318,1.95749 -0.522725,2.92524 -0.166515,0.75511 -0.342659,1.51367 -0.371469,2.28638 -0.0191,0.51223 0.02912,1.03496 0.221362,1.51013 0.17232,0.42592 0.456971,0.80223 0.801377,1.10635 0.344406,0.30412 0.747556,0.53769 1.172314,0.71287 0.509407,0.21009 1.05515,0.33824 1.606069,0.3492 0.844498,0.0168 1.703841,-0.256 2.340264,-0.81136 0.58094,-0.50694 0.954956,-1.22693 1.113859,-1.98141 0.136032,-0.64588 0.121065,-1.32308 -0.04337,-1.96232 z"
           id="path1291"
           style="fill:#000000;fill-opacity:1;stroke:none;stroke-width:0.0369903"
           transform="matrix(-0.95655227,0,0,-0.95655227,9.4991251,732.40348)"
           inkscape:original-d="m -22.321018,188.80553 c 0.830256,0.34462 1.20053,0.57915 1.866325,0.60776 0.744636,0.032 1.578411,-0.0726 2.218544,-0.49472 0.693728,-0.4574 1.167635,-1.24441 1.45215,-2.00659 0.195265,-0.52308 0.227255,-1.10837 0.1291,-1.63851 -0.164599,-0.88901 -0.534361,-1.7882 -1.172299,-2.41469 -0.35825,-0.35182 -0.888947,-0.50408 -1.382016,-0.64771 -0.733745,-0.21373 -1.529685,-0.20871 -2.296317,-0.30409 -0.982412,-0.12222 -1.991046,-0.13177 -2.95164,-0.34361 -1.485547,-0.32762 -2.896776,-1.03265 -4.303496,-1.42438 l -0.0134,0.01 c -0.03086,1.45992 0.236951,3.01456 0.121965,4.53145 -0.07435,0.98086 -0.356261,1.94935 -0.522725,2.92524 -0.129901,0.76154 -0.36438,1.52217 -0.371469,2.28638 -0.0048,0.51354 -0.01212,1.0656 0.221362,1.51013 0.415757,0.79158 1.169998,1.40509 1.973691,1.81922 0.479265,0.24695 1.048888,0.38521 1.606069,0.3492 0.811856,-0.0525 1.702132,-0.27913 2.340264,-0.81136 0.588832,-0.49111 0.929621,-1.25922 1.113859,-1.98141 0.164731,-0.64573 0.04702,-1.06793 -0.04337,-1.96232 z"
           inkscape:path-effect="#path-effect1367-4" />
        <path
           style="fill:#000000;fill-opacity:1;stroke:none;stroke-width:0.0369903"
           id="path1295"
           d="m -22.321018,188.80553 c 0.564602,0.34189 1.208665,0.55163 1.866325,0.60776 0.768236,0.0656 1.565527,-0.0848 2.218544,-0.49472 0.715382,-0.4491 1.224544,-1.19317 1.45215,-2.00659 0.148481,-0.53064 0.183255,-1.09015 0.1291,-1.63851 -0.04516,-0.45724 -0.152456,-0.91064 -0.344259,-1.32815 -0.191804,-0.41752 -0.469958,-0.79864 -0.82804,-1.08654 -0.399483,-0.32118 -0.886065,-0.51819 -1.382016,-0.64771 -0.748158,-0.19539 -1.525279,-0.24563 -2.296317,-0.30409 -0.988164,-0.0749 -1.976872,-0.16498 -2.95164,-0.34361 -1.491037,-0.27323 -2.943875,-0.7541 -4.303496,-1.42438 l -0.0134,0.01 c 0.249429,1.4952 0.290604,3.025 0.121965,4.53145 -0.110248,0.98485 -0.309318,1.95749 -0.522725,2.92524 -0.166515,0.75511 -0.342659,1.51367 -0.371469,2.28638 -0.0191,0.51223 0.02912,1.03496 0.221362,1.51013 0.17232,0.42592 0.456971,0.80223 0.801377,1.10635 0.344406,0.30412 0.747556,0.53769 1.172314,0.71287 0.509407,0.21009 1.05515,0.33824 1.606069,0.3492 0.844498,0.0168 1.703841,-0.256 2.340264,-0.81136 0.58094,-0.50694 0.954956,-1.22693 1.113859,-1.98141 0.136032,-0.64588 0.121065,-1.32308 -0.04337,-1.96232 z"
           inkscape:connector-curvature="0"
           sodipodi:nodetypes="caaaaaaaaccaaaaaaaacc"
           transform="matrix(-0.95655227,0,0,-0.95655227,9.4991251,732.40348)"
           inkscape:original-d="m -22.321018,188.80553 c 0.830256,0.34462 1.20053,0.57915 1.866325,0.60776 0.744636,0.032 1.578411,-0.0726 2.218544,-0.49472 0.693728,-0.4574 1.167635,-1.24441 1.45215,-2.00659 0.195265,-0.52308 0.227255,-1.10837 0.1291,-1.63851 -0.164599,-0.88901 -0.534361,-1.7882 -1.172299,-2.41469 -0.35825,-0.35182 -0.888947,-0.50408 -1.382016,-0.64771 -0.733745,-0.21373 -1.529685,-0.20871 -2.296317,-0.30409 -0.982412,-0.12222 -1.991046,-0.13177 -2.95164,-0.34361 -1.485547,-0.32762 -2.896776,-1.03265 -4.303496,-1.42438 l -0.0134,0.01 c -0.03086,1.45992 0.236951,3.01456 0.121965,4.53145 -0.07435,0.98086 -0.356261,1.94935 -0.522725,2.92524 -0.129901,0.76154 -0.36438,1.52217 -0.371469,2.28638 -0.0048,0.51354 -0.01212,1.0656 0.221362,1.51013 0.415757,0.79158 1.169998,1.40509 1.973691,1.81922 0.479265,0.24695 1.048888,0.38521 1.606069,0.3492 0.811856,-0.0525 1.702132,-0.27913 2.340264,-0.81136 0.588832,-0.49111 0.929621,-1.25922 1.113859,-1.98141 0.164731,-0.64573 0.04702,-1.06793 -0.04337,-1.96232 z"
           inkscape:path-effect="#path-effect1369-8" />
        <path
           sodipodi:nodetypes="caaaaaaaaccaaaaaaaacc"
           inkscape:connector-curvature="0"
           d="m -32.339996,258.67484 c 0.01799,0.35446 0.146054,0.70256 0.362059,0.98418 0.248592,0.3241 0.615792,0.5583 1.017416,0.63273 0.506993,0.094 1.033837,-0.0658 1.477523,-0.32853 0.30879,-0.18283 0.587029,-0.41475 0.83555,-0.67362 0.199865,-0.20819 0.382104,-0.43566 0.518483,-0.69001 0.136379,-0.25434 0.225939,-0.53694 0.234544,-0.82541 0.0084,-0.28022 -0.05979,-0.55945 -0.172778,-0.81602 -0.163027,-0.37019 -0.415482,-0.69248 -0.659465,-1.01511 -0.312113,-0.41272 -0.615147,-0.83387 -0.870454,-1.28395 -0.400541,-0.70611 -0.68039,-1.48048 -0.823793,-2.27952 l -0.0095,-7.5e-4 c -0.635486,0.75876 -1.355575,1.44662 -2.142628,2.04671 -0.51216,0.3905 -1.051785,0.74341 -1.594297,1.09051 -0.423543,0.27098 -0.850865,0.53989 -1.23309,0.86658 -0.253186,0.2164 -0.487968,0.46074 -0.650602,0.7514 -0.262007,0.46825 -0.318818,1.04055 -0.184511,1.56004 0.07292,0.28205 0.201703,0.55262 0.395397,0.77023 0.302806,0.3402 0.757462,0.53314 1.212855,0.53967 0.480139,0.007 0.946252,-0.18208 1.346625,-0.44719 0.358397,-0.23731 0.67505,-0.53748 0.931167,-0.88269 z"
           id="path1299"
           style="fill:#000000;fill-opacity:1;stroke:none;stroke-width:0.0215671"
           transform="matrix(-0.95655227,0,0,-0.95655227,9.4991251,732.40348)"
           inkscape:original-d="m -32.339996,258.67484 c 0.125254,0.4706 0.142128,0.71615 0.362059,0.98418 0.245974,0.29978 0.58914,0.57344 1.017416,0.63273 0.464134,0.0643 1.010058,-0.10129 1.477523,-0.32853 0.320824,-0.15595 0.61433,-0.40199 0.83555,-0.67362 0.370971,-0.4555 0.67483,-0.9942 0.753027,-1.51542 0.04391,-0.2927 -0.06895,-0.56348 -0.172778,-0.81602 -0.154502,-0.37581 -0.436336,-0.67893 -0.659465,-1.01511 -0.285931,-0.43081 -0.635408,-0.82195 -0.870454,-1.28395 -0.363496,-0.71447 -0.518887,-1.567 -0.823793,-2.27952 l -0.0095,-7.5e-4 c -0.714927,0.63249 -1.370689,1.42135 -2.142628,2.04671 -0.499155,0.40438 -1.065204,0.72367 -1.594297,1.09051 -0.412881,0.28627 -0.862037,0.53202 -1.23309,0.86658 -0.249344,0.22482 -0.518174,0.46564 -0.650602,0.7514 -0.235815,0.50885 -0.266921,1.06896 -0.184511,1.56004 0.04914,0.29284 0.182428,0.57238 0.395397,0.77023 0.310312,0.28828 0.732153,0.52977 1.212855,0.53967 0.443565,0.009 0.933646,-0.19913 1.346625,-0.44719 0.369253,-0.22179 0.531551,-0.45328 0.931167,-0.88269 z"
           inkscape:path-effect="#path-effect1371-66" />
        <path
           style="fill:#000000;fill-opacity:1;stroke:none;stroke-width:0.0369903"
           id="path1303"
           d="m -22.566503,264.39461 c 0.357143,0.55508 0.843706,1.02632 1.409932,1.36552 0.661428,0.39623 1.443764,0.61123 2.210465,0.52965 0.839923,-0.0894 1.624086,-0.53432 2.185739,-1.1652 0.366401,-0.41156 0.643316,-0.89898 0.835436,-1.41543 0.160195,-0.43063 0.262872,-0.8851 0.27387,-1.34443 0.011,-0.45933 -0.07156,-0.92389 -0.26687,-1.33977 -0.217889,-0.46397 -0.568556,-0.85462 -0.957269,-1.18875 -0.586387,-0.50405 -1.262528,-0.89041 -1.929594,-1.28149 -0.854913,-0.5012 -1.703669,-1.01625 -2.501013,-1.60474 -1.21964,-0.90018 -2.313798,-1.97012 -3.24104,-3.16931 l -0.01641,0.003 c -0.432421,1.45288 -1.067136,2.84539 -1.880108,4.12481 -0.531484,0.83643 -1.137407,1.62288 -1.754065,2.39865 -0.481161,0.60531 -0.972489,1.2095 -1.33766,1.89109 -0.242069,0.45182 -0.428273,0.94264 -0.464193,1.45396 -0.0322,0.45833 0.05832,0.92141 0.234212,1.34587 0.175895,0.42446 0.435549,0.81133 0.740256,1.15522 0.365429,0.41242 0.799479,0.76719 1.289638,1.01893 0.751361,0.3859 1.643213,0.51814 2.458855,0.29862 0.744537,-0.20038 1.396706,-0.68303 1.870749,-1.29112 0.405811,-0.52056 0.689708,-1.13555 0.822657,-1.78207 z"
           inkscape:connector-curvature="0"
           sodipodi:nodetypes="caaaaaaaaccaaaaaaaacc"
           transform="matrix(-0.95655227,0,0,-0.95655227,9.4991251,732.40348)"
           inkscape:original-d="m -22.566503,264.39461 c 0.59462,0.67418 0.824312,1.04748 1.409932,1.36552 0.654966,0.35571 1.450017,0.62778 2.210465,0.52965 0.824118,-0.10635 1.595458,-0.60535 2.185739,-1.1652 0.405114,-0.38422 0.690847,-0.89603 0.835436,-1.41543 0.242465,-0.87099 0.305073,-1.84122 0.007,-2.6842 -0.16739,-0.47339 -0.577337,-0.84321 -0.957269,-1.18875 -0.565383,-0.5142 -1.282695,-0.85918 -1.929594,-1.28149 -0.82898,-0.54117 -1.73099,-0.99262 -2.501013,-1.60474 -1.190832,-0.94663 -2.149179,-2.1997 -3.24104,-3.16931 l -0.01641,0.003 c -0.668752,1.2981 -1.110756,2.81246 -1.880108,4.12481 -0.497483,0.84861 -1.176009,1.59496 -1.754065,2.39865 -0.45109,0.62717 -0.995739,1.2076 -1.33766,1.89109 -0.229767,0.45929 -0.478773,0.95206 -0.464193,1.45396 0.02596,0.89375 0.434231,1.77613 0.974468,2.50109 0.322159,0.43231 0.773226,0.80664 1.289638,1.01893 0.752451,0.30933 1.651834,0.4966 2.458855,0.29862 0.744671,-0.18269 1.388118,-0.72317 1.870749,-1.29112 0.431531,-0.50782 0.511156,-0.93883 0.822657,-1.78207 z"
           inkscape:path-effect="#path-effect1373-58" />
        <path
           sodipodi:nodetypes="caaaaaaaaccaaaaaaaacc"
           inkscape:connector-curvature="0"
           d="m -21.290612,229.26311 c 0.365524,0.33992 0.8117,0.59253 1.291242,0.73107 0.571412,0.16508 1.196226,0.1652 1.75382,-0.0418 0.618942,-0.22978 1.13249,-0.7081 1.450584,-1.28663 0.204926,-0.37271 0.332713,-0.7858 0.391541,-1.20704 0.04814,-0.3447 0.05044,-0.69777 -0.01784,-1.03905 -0.06828,-0.34128 -0.208876,-0.67075 -0.42764,-0.94145 -0.242905,-0.30057 -0.573372,-0.51967 -0.920621,-0.68926 -0.528676,-0.2582 -1.101579,-0.41019 -1.668529,-0.56746 -0.727023,-0.20167 -1.452235,-0.41495 -2.153193,-0.69404 -1.064661,-0.4239 -2.068955,-0.99909 -2.973304,-1.7029 l -0.01185,0.005 c -0.08456,1.1622 -0.328681,2.31267 -0.723383,3.40906 -0.260112,0.72253 -0.584592,1.42004 -0.918324,2.11165 -0.260241,0.53931 -0.527861,1.07951 -0.68993,1.65598 -0.106159,0.3776 -0.165982,0.7753 -0.105457,1.16284 0.05335,0.3416 0.199728,0.66564 0.403578,0.94489 0.203851,0.27926 0.464071,0.51479 0.750374,0.70862 0.346204,0.23438 0.733929,0.41009 1.142438,0.49905 0.639082,0.13917 1.3303,0.0568 1.902104,-0.26076 0.526429,-0.29235 0.936709,-0.7726 1.192195,-1.31787 0.215252,-0.4594 0.325627,-0.96757 0.320346,-1.47487 z"
           id="path1307"
           style="fill:#000000;fill-opacity:1;stroke:none;stroke-width:0.028369"
           transform="matrix(-0.95655227,0,0,-0.95655227,9.4991251,732.40348)"
           inkscape:original-d="m -21.290612,229.26311 c 0.56107,0.38079 0.796756,0.61111 1.291242,0.73107 0.553039,0.13416 1.197545,0.17926 1.75382,-0.0418 0.602849,-0.2396 1.100011,-0.75839 1.450584,-1.28663 0.2406,-0.36254 0.369862,-0.79579 0.391541,-1.20704 0.03635,-0.68963 -0.07942,-1.41725 -0.445481,-1.9805 -0.205571,-0.3163 -0.576438,-0.5088 -0.920621,-0.68926 -0.512184,-0.26855 -1.11038,-0.38261 -1.668529,-0.56746 -0.715248,-0.23688 -1.470436,-0.39332 -2.153193,-0.69404 -1.055876,-0.46506 -1.988111,-1.20154 -2.973304,-1.7029 l -0.01185,0.005 c -0.2857,1.08792 -0.364306,2.29094 -0.723383,3.40906 -0.232189,0.723 -0.617907,1.40601 -0.918324,2.11165 -0.234432,0.55066 -0.547179,1.08515 -0.68993,1.65598 -0.09593,0.38359 -0.200723,0.79562 -0.105457,1.16284 0.169642,0.6539 0.625315,1.22464 1.153952,1.65351 0.315242,0.25575 0.717838,0.44353 1.142438,0.49905 0.618675,0.0809 1.327521,0.0431 1.902104,-0.26076 0.530193,-0.28035 0.924063,-0.8047 1.192195,-1.31787 0.239742,-0.45883 0.227336,-0.7922 0.320346,-1.47487 z"
           inkscape:path-effect="#path-effect1375-6" />
        <path
           style="fill:#000000;fill-opacity:1;stroke:none;stroke-width:0.0215671"
           id="path1311"
           d="m -28.550302,196.14488 c 0.01799,0.35446 0.146054,0.70256 0.362059,0.98418 0.248592,0.3241 0.615792,0.5583 1.017416,0.63273 0.506993,0.094 1.033837,-0.0658 1.477523,-0.32853 0.30879,-0.18283 0.587029,-0.41475 0.83555,-0.67362 0.199865,-0.20819 0.382104,-0.43566 0.518483,-0.69001 0.136379,-0.25434 0.225939,-0.53694 0.234544,-0.82541 0.0084,-0.28022 -0.05979,-0.55945 -0.172778,-0.81602 -0.163027,-0.37019 -0.415482,-0.69248 -0.659465,-1.01511 -0.312113,-0.41272 -0.615147,-0.83387 -0.870454,-1.28395 -0.400541,-0.70611 -0.68039,-1.48048 -0.823793,-2.27952 l -0.0095,-7.5e-4 c -0.635486,0.75876 -1.355575,1.44662 -2.142628,2.04671 -0.51216,0.3905 -1.051785,0.74341 -1.594297,1.09051 -0.423543,0.27098 -0.850865,0.53989 -1.23309,0.86658 -0.253186,0.2164 -0.487968,0.46074 -0.650602,0.7514 -0.262007,0.46825 -0.318818,1.04055 -0.184511,1.56004 0.07292,0.28205 0.201703,0.55262 0.395397,0.77023 0.302806,0.3402 0.757462,0.53314 1.212855,0.53967 0.480139,0.007 0.946252,-0.18208 1.346625,-0.44719 0.358397,-0.23731 0.67505,-0.53748 0.931167,-0.88269 z"
           inkscape:connector-curvature="0"
           sodipodi:nodetypes="caaaaaaaaccaaaaaaaacc"
           transform="matrix(-0.95655227,0,0,-0.95655227,9.4991251,732.40348)"
           inkscape:original-d="m -28.550302,196.14488 c 0.125254,0.4706 0.142128,0.71615 0.362059,0.98418 0.245974,0.29978 0.58914,0.57344 1.017416,0.63273 0.464134,0.0643 1.010058,-0.10129 1.477523,-0.32853 0.320824,-0.15595 0.61433,-0.40199 0.83555,-0.67362 0.370971,-0.4555 0.67483,-0.9942 0.753027,-1.51542 0.04391,-0.2927 -0.06895,-0.56348 -0.172778,-0.81602 -0.154502,-0.37581 -0.436336,-0.67893 -0.659465,-1.01511 -0.285931,-0.43081 -0.635408,-0.82195 -0.870454,-1.28395 -0.363496,-0.71447 -0.518887,-1.567 -0.823793,-2.27952 l -0.0095,-7.5e-4 c -0.714927,0.63249 -1.370689,1.42135 -2.142628,2.04671 -0.499155,0.40438 -1.065204,0.72367 -1.594297,1.09051 -0.412881,0.28627 -0.862037,0.53202 -1.23309,0.86658 -0.249344,0.22482 -0.518174,0.46564 -0.650602,0.7514 -0.235815,0.50885 -0.266921,1.06896 -0.184511,1.56004 0.04914,0.29284 0.182428,0.57238 0.395397,0.77023 0.310312,0.28828 0.732153,0.52977 1.212855,0.53967 0.443565,0.009 0.933646,-0.19913 1.346625,-0.44719 0.369253,-0.22179 0.531551,-0.45328 0.931167,-0.88269 z"
           inkscape:path-effect="#path-effect1377-19" />
        <path
           sodipodi:nodetypes="caaaaaaaaccaaaaaaaacc"
           inkscape:connector-curvature="0"
           d="m -23.668815,209.23655 c 0.0051,0.34416 0.10018,0.68659 0.27314,0.98418 0.08567,0.1474 0.190811,0.28462 0.319615,0.39631 0.128805,0.1117 0.281985,0.19734 0.447933,0.23642 0.195029,0.0459 0.402171,0.0261 0.592309,-0.0371 0.190138,-0.0632 0.364283,-0.16834 0.522348,-0.29147 0.243446,-0.18964 0.451052,-0.42245 0.630347,-0.67362 0.318115,-0.44563 0.553468,-0.96809 0.568091,-1.51542 0.0074,-0.27679 -0.04186,-0.55365 -0.130346,-0.81602 -0.120615,-0.35764 -0.312011,-0.68641 -0.497506,-1.01511 -0.236366,-0.41885 -0.465482,-0.84265 -0.656679,-1.28395 -0.314164,-0.72512 -0.524138,-1.49529 -0.621477,-2.27952 l -0.0072,-7.5e-4 c -0.458488,0.74084 -1.00199,1.42902 -1.616419,2.04671 -0.38177,0.38379 -0.790256,0.73995 -1.202752,1.09051 -0.323235,0.2747 -0.650621,0.5476 -0.930255,0.86658 -0.198024,0.22589 -0.371877,0.47556 -0.49082,0.7514 -0.209839,0.48664 -0.239718,1.0397 -0.139197,1.56004 0.05259,0.27224 0.141621,0.54146 0.298291,0.77023 0.103815,0.15159 0.237069,0.28398 0.393889,0.37972 0.156819,0.0957 0.337459,0.15411 0.521101,0.15995 0.189467,0.006 0.378167,-0.0436 0.549033,-0.12569 0.170866,-0.0821 0.324899,-0.19589 0.466873,-0.3215 0.283064,-0.25043 0.521976,-0.55063 0.702481,-0.88269 z"
           id="path1315"
           style="fill:#000000;fill-opacity:1;stroke:none;stroke-width:0.0187325"
           transform="matrix(-0.95655227,0,0,-0.95655227,9.4991251,732.40348)"
           inkscape:original-d="m -23.668815,209.23655 c 0.09449,0.4706 0.107222,0.71615 0.27314,0.98418 0.185565,0.29978 0.444453,0.57344 0.767548,0.63273 0.350147,0.0642 0.761997,-0.10129 1.114657,-0.32853 0.242033,-0.15595 0.463456,-0.40199 0.630347,-0.67362 0.279863,-0.4555 0.509098,-0.9942 0.568091,-1.51542 0.03313,-0.2927 -0.05202,-0.56348 -0.130346,-0.81602 -0.116558,-0.37581 -0.329176,-0.67893 -0.497506,-1.01511 -0.21571,-0.43081 -0.479358,-0.82195 -0.656679,-1.28395 -0.274225,-0.71447 -0.391453,-1.567 -0.621477,-2.27952 l -0.0072,-7.5e-4 c -0.539348,0.63249 -1.034061,1.42135 -1.616419,2.04671 -0.376567,0.40438 -0.803599,0.72367 -1.202752,1.09051 -0.311482,0.28627 -0.650329,0.53202 -0.930255,0.86658 -0.188107,0.22482 -0.390915,0.46564 -0.49082,0.7514 -0.177901,0.50885 -0.201367,1.06896 -0.139197,1.56004 0.03707,0.29284 0.137626,0.57238 0.298291,0.77023 0.234103,0.28828 0.552344,0.52977 0.91499,0.53967 0.334629,0.009 0.704351,-0.19913 1.015906,-0.44719 0.278568,-0.22179 0.401007,-0.45328 0.702481,-0.88269 z"
           inkscape:path-effect="#path-effect1379-5" />
        <path
           style="fill:#000000;fill-opacity:1;stroke:none;stroke-width:0.0161009"
           id="path1319"
           d="m -19.134639,247.01097 c 0.208354,0.16036 0.466391,0.25522 0.729004,0.26798 0.305928,0.0149 0.617071,-0.0834 0.855248,-0.27601 0.301958,-0.24414 0.472337,-0.62102 0.544131,-1.00264 0.04965,-0.26389 0.05703,-0.53477 0.03478,-0.80236 -0.01775,-0.21353 -0.05464,-0.4268 -0.129571,-0.62754 -0.07493,-0.20073 -0.189256,-0.3891 -0.347274,-0.53381 -0.152924,-0.14004 -0.342939,-0.23578 -0.541669,-0.29498 -0.288227,-0.0859 -0.592518,-0.0969 -0.89283,-0.11298 -0.384299,-0.0206 -0.769051,-0.0506 -1.147187,-0.12214 -0.590787,-0.11183 -1.162133,-0.32563 -1.681199,-0.62912 l -0.0051,0.005 c 0.111188,0.73089 0.141254,1.47409 0.08947,2.21158 -0.03381,0.4815 -0.10231,0.95985 -0.175352,1.43698 -0.05701,0.3724 -0.116955,0.74588 -0.122678,1.12257 -0.0038,0.2483 0.01681,0.5002 0.09986,0.73423 0.132725,0.374 0.425155,0.6842 0.781899,0.85806 0.194366,0.0947 0.409577,0.15115 0.625727,0.14571 0.342118,-0.009 0.672595,-0.17635 0.899475,-0.43256 0.239538,-0.27051 0.364125,-0.62714 0.413251,-0.98511 0.04366,-0.31812 0.03173,-0.64379 -0.03508,-0.95786 z"
           inkscape:connector-curvature="0"
           sodipodi:nodetypes="caaaaaaaaccaaaaaaaacc"
           transform="matrix(-0.95655227,0,0,-0.95655227,9.4991251,732.40348)"
           inkscape:original-d="m -19.134639,247.01097 c 0.324998,0.15549 0.470691,0.26431 0.729004,0.26798 0.288902,0.004 0.611079,-0.0599 0.855248,-0.27601 0.264613,-0.23417 0.440958,-0.62594 0.544131,-1.00264 0.07081,-0.25854 0.07776,-0.54493 0.03478,-0.80236 -0.07207,-0.4317 -0.22376,-0.8652 -0.476845,-1.16135 -0.142125,-0.1663 -0.349229,-0.23246 -0.541669,-0.29498 -0.286373,-0.093 -0.594813,-0.0783 -0.89283,-0.11298 -0.381898,-0.0445 -0.77291,-0.0335 -1.147187,-0.12214 -0.578814,-0.13703 -1.132339,-0.45956 -1.681199,-0.62912 l -0.0051,0.005 c 0.0016,0.7136 0.119913,1.46884 0.08947,2.21158 -0.01968,0.48027 -0.119923,0.95771 -0.175352,1.43698 -0.04325,0.374 -0.127048,0.74917 -0.122678,1.12257 0.0029,0.25092 0.0052,0.5207 0.09986,0.73423 0.16851,0.38022 0.46655,0.66822 0.781899,0.85806 0.188052,0.11321 0.410112,0.17193 0.625727,0.14571 0.314167,-0.0382 0.657107,-0.16271 0.899475,-0.43256 0.223643,-0.24901 0.348571,-0.62949 0.413251,-0.98511 0.05783,-0.31797 0.0083,-0.52238 -0.03508,-0.95786 z"
           inkscape:path-effect="#path-effect1381-99" />
        <path
           sodipodi:nodetypes="caaaaaaaaccaaaaaaaacc"
           inkscape:connector-curvature="0"
           d="m -32.373443,184.63428 c 0.04212,0.18398 0.141684,0.35439 0.281279,0.48142 0.162622,0.14799 0.379829,0.23569 0.599697,0.23786 0.278747,0.003 0.545268,-0.12812 0.759359,-0.30665 0.148043,-0.12345 0.275879,-0.27008 0.385802,-0.42843 0.08771,-0.12636 0.164716,-0.26131 0.214923,-0.4067 0.05021,-0.14539 0.07295,-0.30193 0.05156,-0.45425 -0.02071,-0.14741 -0.08219,-0.28724 -0.1652,-0.41081 -0.120387,-0.17922 -0.283853,-0.32434 -0.442806,-0.47044 -0.203404,-0.18696 -0.402774,-0.37932 -0.579475,-0.5917 -0.276076,-0.33182 -0.494796,-0.71123 -0.643589,-1.11642 l -0.0051,4.8e-4 c -0.272318,0.45554 -0.595186,0.88084 -0.960771,1.26558 -0.238687,0.25119 -0.495147,0.48479 -0.753562,0.71564 -0.201694,0.18018 -0.40551,0.35961 -0.580764,0.5656 -0.115518,0.13578 -0.219199,0.28467 -0.280118,0.45221 -0.09736,0.26774 -0.07713,0.57311 0.041,0.83236 0.06436,0.14125 0.157762,0.27081 0.279944,0.36654 0.193387,0.15152 0.453022,0.2096 0.695706,0.17137 0.256224,-0.0404 0.488139,-0.18094 0.678873,-0.35673 0.169503,-0.15622 0.311673,-0.34201 0.41815,-0.54646 z"
           id="path1323"
           style="fill:#000000;fill-opacity:1;stroke:none;stroke-width:0.0115585"
           transform="matrix(-0.95655227,0,0,-0.95655227,9.4991251,732.40348)"
           inkscape:original-d="m -32.373443,184.63428 c 0.108943,0.23457 0.139908,0.36139 0.281279,0.48142 0.158111,0.13425 0.365772,0.24598 0.599697,0.23786 0.25351,-0.009 0.530134,-0.14518 0.759359,-0.30665 0.157318,-0.11082 0.291998,-0.26624 0.385802,-0.42843 0.157303,-0.27199 0.271341,-0.58134 0.266478,-0.86095 -0.0027,-0.15703 -0.0872,-0.28827 -0.1652,-0.41081 -0.11608,-0.18234 -0.293634,-0.31507 -0.442806,-0.47044 -0.191158,-0.1991 -0.412692,-0.37166 -0.579475,-0.5917 -0.257929,-0.34031 -0.417111,-0.77178 -0.643589,-1.11642 l -0.0051,4.8e-4 c -0.325089,0.39592 -0.604611,0.86818 -0.960771,1.26558 -0.230303,0.25696 -0.503922,0.47556 -0.753562,0.71564 -0.194808,0.18735 -0.412603,0.35683 -0.580764,0.5656 -0.113003,0.14029 -0.234977,0.29073 -0.280118,0.45221 -0.08038,0.28753 -0.04691,0.58317 0.041,0.83236 0.05242,0.1486 0.148566,0.28256 0.279944,0.36654 0.191429,0.12236 0.438211,0.21009 0.695706,0.17137 0.237602,-0.0357 0.480596,-0.18935 0.678873,-0.35673 0.177283,-0.14966 0.243222,-0.28549 0.41815,-0.54646 z"
           inkscape:path-effect="#path-effect1383-46" />
        <path
           style="fill:#000000;fill-opacity:1;stroke:none;stroke-width:0.0115585"
           id="path1327"
           d="m -19.626289,195.48658 c 0.04212,0.18398 0.141684,0.35439 0.281279,0.48142 0.162622,0.14799 0.379829,0.23569 0.599697,0.23786 0.278747,0.003 0.545268,-0.12812 0.759359,-0.30665 0.148043,-0.12345 0.275879,-0.27008 0.385802,-0.42843 0.08772,-0.12636 0.164716,-0.26131 0.214923,-0.4067 0.05021,-0.14539 0.07295,-0.30193 0.05156,-0.45425 -0.02071,-0.14741 -0.08219,-0.28724 -0.1652,-0.41081 -0.120387,-0.17922 -0.283853,-0.32434 -0.442806,-0.47044 -0.203404,-0.18696 -0.402774,-0.37932 -0.579475,-0.5917 -0.276076,-0.33182 -0.494796,-0.71123 -0.643589,-1.11642 l -0.0051,4.8e-4 c -0.272318,0.45554 -0.595186,0.88084 -0.960771,1.26558 -0.238687,0.25119 -0.495147,0.48479 -0.753562,0.71564 -0.201694,0.18018 -0.40551,0.35961 -0.580764,0.5656 -0.115518,0.13578 -0.219199,0.28467 -0.280118,0.45221 -0.09736,0.26774 -0.07713,0.57311 0.041,0.83236 0.06436,0.14125 0.157762,0.27081 0.279944,0.36654 0.193387,0.15152 0.453022,0.2096 0.695706,0.17137 0.256224,-0.0404 0.488139,-0.18094 0.678873,-0.35673 0.169503,-0.15622 0.311673,-0.34201 0.41815,-0.54646 z"
           inkscape:connector-curvature="0"
           sodipodi:nodetypes="caaaaaaaaccaaaaaaaacc"
           transform="matrix(-0.95655227,0,0,-0.95655227,9.4991251,732.40348)"
           inkscape:original-d="m -19.626289,195.48658 c 0.108943,0.23457 0.139908,0.36139 0.281279,0.48142 0.158111,0.13425 0.365772,0.24598 0.599697,0.23786 0.25351,-0.009 0.530134,-0.14518 0.759359,-0.30665 0.157318,-0.11082 0.291998,-0.26624 0.385802,-0.42843 0.157303,-0.27199 0.271341,-0.58134 0.266478,-0.86095 -0.0027,-0.15703 -0.0872,-0.28827 -0.1652,-0.41081 -0.11608,-0.18234 -0.293634,-0.31507 -0.442806,-0.47044 -0.191158,-0.1991 -0.412692,-0.37166 -0.579475,-0.5917 -0.257929,-0.34031 -0.417111,-0.77178 -0.643589,-1.11642 l -0.0051,4.8e-4 c -0.325089,0.39592 -0.604611,0.86818 -0.960771,1.26558 -0.230303,0.25696 -0.503922,0.47556 -0.753562,0.71564 -0.194808,0.18735 -0.412603,0.35683 -0.580764,0.5656 -0.113003,0.14029 -0.234977,0.29073 -0.280118,0.45221 -0.08038,0.28753 -0.04691,0.58317 0.041,0.83236 0.05242,0.1486 0.148566,0.28256 0.279944,0.36654 0.191429,0.12236 0.438211,0.21009 0.695706,0.17137 0.237602,-0.0357 0.480596,-0.18935 0.678873,-0.35673 0.177283,-0.14966 0.243222,-0.28549 0.41815,-0.54646 z"
           inkscape:path-effect="#path-effect1385-68" />
        <path
           sodipodi:nodetypes="caaaaaaaaccaaaaaaaacc"
           inkscape:connector-curvature="0"
           d="m -32.116969,265.68344 c 0.1016,0.15907 0.252713,0.28601 0.426926,0.35864 0.202948,0.0846 0.437002,0.0941 0.644767,0.0221 0.263403,-0.0913 0.470314,-0.3042 0.611811,-0.54438 0.09784,-0.16608 0.168858,-0.34719 0.21906,-0.5333 0.04006,-0.14851 0.06714,-0.3015 0.06547,-0.45531 -0.0017,-0.15381 -0.03295,-0.30887 -0.10437,-0.4451 -0.06912,-0.13184 -0.174089,-0.2428 -0.293848,-0.33122 -0.173691,-0.12823 -0.376469,-0.20985 -0.575327,-0.29392 -0.254471,-0.10758 -0.506961,-0.2216 -0.744843,-0.3621 -0.37166,-0.21951 -0.705335,-0.50315 -0.981846,-0.8346 l -0.0047,0.002 c -0.103078,0.52062 -0.263934,1.02979 -0.478664,1.51514 -0.140196,0.31688 -0.303049,0.62318 -0.468672,0.92755 -0.129268,0.23756 -0.260785,0.47513 -0.356469,0.72809 -0.06307,0.16674 -0.110574,0.34185 -0.111541,0.52011 -0.0015,0.28489 0.120297,0.56563 0.318805,0.76998 0.108154,0.11134 0.239718,0.20189 0.386994,0.25091 0.233105,0.0776 0.49714,0.0449 0.712791,-0.0728 0.227684,-0.12426 0.398739,-0.33471 0.519163,-0.56444 0.107018,-0.20416 0.178347,-0.42697 0.209791,-0.65532 z"
           id="path1331"
           style="fill:#000000;fill-opacity:1;stroke:none;stroke-width:0.0115585"
           transform="matrix(-0.95655227,0,0,-0.95655227,9.4991251,732.40348)"
           inkscape:original-d="m -32.116969,265.68344 c 0.181548,0.1842 0.253398,0.2932 0.426926,0.35864 0.194075,0.0732 0.427226,0.10848 0.644767,0.0221 0.235754,-0.0936 0.450322,-0.31517 0.611811,-0.54438 0.11083,-0.15731 0.185331,-0.349 0.21906,-0.5333 0.05656,-0.30907 0.05981,-0.63876 -0.0389,-0.90041 -0.05543,-0.14694 -0.179147,-0.24209 -0.293848,-0.33122 -0.170689,-0.13263 -0.382559,-0.19783 -0.575327,-0.29392 -0.247025,-0.12313 -0.513718,-0.21104 -0.744843,-0.3621 -0.357432,-0.23362 -0.652571,-0.58632 -0.981846,-0.8346 l -0.0047,0.002 c -0.172837,0.48224 -0.277067,1.02104 -0.478664,1.51514 -0.130358,0.31949 -0.314422,0.61744 -0.468672,0.92755 -0.12037,0.24199 -0.268402,0.47489 -0.356469,0.72809 -0.05918,0.17015 -0.123392,0.35287 -0.111541,0.52011 0.0211,0.29782 0.152147,0.56493 0.318805,0.76998 0.09938,0.12229 0.235013,0.21606 0.386994,0.25091 0.221448,0.0508 0.483358,0.0503 0.712791,-0.0728 0.211708,-0.11362 0.388806,-0.34008 0.519163,-0.56444 0.116556,-0.2006 0.132921,-0.35071 0.209791,-0.65532 z"
           inkscape:path-effect="#path-effect1387-6" />
        <path
           sodipodi:nodetypes="caaaaaaaaccaaaaaaaacc"
           inkscape:connector-curvature="0"
           d="m -22.160134,237.48106 c -0.0093,0.22232 0.0476,0.44699 0.161547,0.63811 0.126918,0.21288 0.328277,0.38485 0.56572,0.4559 0.146403,0.0438 0.302999,0.049 0.45393,0.025 0.150931,-0.0239 0.296454,-0.0764 0.432985,-0.14502 0.193076,-0.0971 0.368904,-0.22649 0.527118,-0.3737 0.130393,-0.12132 0.249851,-0.25574 0.342964,-0.40757 0.09311,-0.15183 0.159434,-0.32175 0.179686,-0.4987 0.02005,-0.17517 -0.0054,-0.35369 -0.05894,-0.52167 -0.07644,-0.23979 -0.208132,-0.45743 -0.334987,-0.6748 -0.162154,-0.27785 -0.318546,-0.55987 -0.445094,-0.85564 -0.200393,-0.46836 -0.324342,-0.96933 -0.365464,-1.4771 l -0.0056,-0.001 c -0.410095,0.43654 -0.870204,0.82607 -1.368436,1.1585 -0.321115,0.21426 -0.657497,0.40458 -0.995576,0.59092 -0.264136,0.14559 -0.530673,0.28961 -0.771228,0.47154 -0.161685,0.12228 -0.312309,0.26297 -0.422329,0.43323 -0.182364,0.28222 -0.242025,0.63533 -0.190348,0.96734 0.02799,0.17982 0.08827,0.35665 0.192382,0.50591 0.156883,0.22492 0.413227,0.37743 0.685636,0.40893 0.283152,0.0327 0.568628,-0.0605 0.816083,-0.202 0.225822,-0.1291 0.428194,-0.29908 0.594354,-0.49921 z"
           id="path1335"
           style="fill:#000000;fill-opacity:1;stroke:none;stroke-width:0.0131557"
           transform="matrix(-0.95655227,0,0,-0.95655227,9.4991251,732.40348)"
           inkscape:original-d="m -22.160134,237.48106 c 0.04907,0.30233 0.04613,0.45726 0.161547,0.63811 0.129078,0.20226 0.316735,0.3938 0.56572,0.4559 0.269833,0.0673 0.599849,-0.005 0.886915,-0.11999 0.197015,-0.0791 0.382671,-0.21628 0.527118,-0.3737 0.242227,-0.26399 0.449311,-0.58404 0.52265,-0.90627 0.04118,-0.18096 -0.01106,-0.3573 -0.05894,-0.52167 -0.07125,-0.2446 -0.221264,-0.45105 -0.334987,-0.6748 -0.145733,-0.28674 -0.330948,-0.55231 -0.445094,-0.85564 -0.176526,-0.46909 -0.223323,-1.01263 -0.365464,-1.4771 l -0.0056,-0.001 c -0.453962,0.35493 -0.881291,0.81135 -1.368436,1.1585 -0.315002,0.22448 -0.664919,0.39171 -0.995576,0.59092 -0.25803,0.15545 -0.535289,0.28338 -0.771228,0.47154 -0.158549,0.12644 -0.329407,0.26178 -0.422329,0.43323 -0.165467,0.3053 -0.213124,0.65465 -0.190348,0.96734 0.01358,0.18646 0.07739,0.36947 0.192382,0.50591 0.167552,0.19879 0.403203,0.37475 0.685636,0.40893 0.260612,0.0315 0.559998,-0.0705 0.816083,-0.202 0.228971,-0.11756 0.336632,-0.25325 0.594354,-0.49921 z"
           inkscape:path-effect="#path-effect1389-62" />
        <path
           sodipodi:nodetypes="caaaaaaaaccaaaaaaaacc"
           inkscape:connector-curvature="0"
           d="m -19.970806,219.43056 c 0.04212,0.18398 0.141684,0.35439 0.281279,0.48142 0.162622,0.14799 0.379829,0.23569 0.599697,0.23786 0.278747,0.003 0.545268,-0.12812 0.759359,-0.30665 0.148043,-0.12345 0.275879,-0.27008 0.385802,-0.42843 0.08771,-0.12636 0.164716,-0.26131 0.214923,-0.4067 0.05021,-0.14539 0.07295,-0.30193 0.05155,-0.45425 -0.02071,-0.14741 -0.08219,-0.28724 -0.1652,-0.41081 -0.120387,-0.17922 -0.283853,-0.32434 -0.442806,-0.47044 -0.203404,-0.18696 -0.402774,-0.37932 -0.579475,-0.5917 -0.276076,-0.33182 -0.494796,-0.71123 -0.643589,-1.11642 l -0.0051,4.8e-4 c -0.272318,0.45554 -0.595186,0.88084 -0.960771,1.26558 -0.238687,0.25119 -0.495147,0.48479 -0.753562,0.71564 -0.201694,0.18018 -0.40551,0.35961 -0.580764,0.5656 -0.115518,0.13578 -0.219199,0.28467 -0.280118,0.45221 -0.09736,0.26774 -0.07713,0.57311 0.041,0.83236 0.06436,0.14125 0.157762,0.27081 0.279944,0.36654 0.193387,0.15152 0.453022,0.2096 0.695706,0.17137 0.256224,-0.0404 0.488139,-0.18094 0.678873,-0.35673 0.169503,-0.15622 0.311673,-0.34201 0.41815,-0.54646 z"
           id="path1339"
           style="fill:#000000;fill-opacity:1;stroke:none;stroke-width:0.0115585"
           transform="matrix(-0.95655227,0,0,-0.95655227,9.4991251,732.40348)"
           inkscape:original-d="m -19.970806,219.43056 c 0.108943,0.23457 0.139908,0.36139 0.281279,0.48142 0.158111,0.13425 0.365772,0.24598 0.599697,0.23786 0.25351,-0.009 0.530134,-0.14518 0.759359,-0.30665 0.157318,-0.11082 0.291998,-0.26624 0.385802,-0.42843 0.157303,-0.27199 0.271341,-0.58134 0.266478,-0.86095 -0.0027,-0.15703 -0.08719,-0.28827 -0.1652,-0.41081 -0.11608,-0.18234 -0.293634,-0.31507 -0.442806,-0.47044 -0.191158,-0.1991 -0.412692,-0.37166 -0.579475,-0.5917 -0.257929,-0.34031 -0.417111,-0.77178 -0.643589,-1.11642 l -0.0051,4.8e-4 c -0.325089,0.39592 -0.604611,0.86818 -0.960771,1.26558 -0.230303,0.25696 -0.503922,0.47556 -0.753562,0.71564 -0.194808,0.18735 -0.412603,0.35683 -0.580764,0.5656 -0.113003,0.14029 -0.234977,0.29073 -0.280118,0.45221 -0.08038,0.28753 -0.0469,0.58317 0.041,0.83236 0.05242,0.1486 0.148566,0.28256 0.279944,0.36654 0.191429,0.12236 0.438211,0.21009 0.695706,0.17137 0.237602,-0.0357 0.480596,-0.18935 0.678873,-0.35673 0.177283,-0.14966 0.243222,-0.28549 0.41815,-0.54646 z"
           inkscape:path-effect="#path-effect1391-27" />
        <path
           style="fill:#000000;fill-opacity:1;stroke:none;stroke-width:0.00706641"
           id="path1343"
           d="m -37.519332,265.09507 c 0.02642,0.11191 0.08771,0.21533 0.173195,0.29224 0.100427,0.0904 0.234175,0.14316 0.369258,0.14438 0.171215,0.002 0.335285,-0.0774 0.46757,-0.18614 0.09099,-0.0748 0.169732,-0.16379 0.237554,-0.26007 0.05387,-0.0765 0.101279,-0.15822 0.132236,-0.24649 0.03096,-0.0883 0.04504,-0.1835 0.03185,-0.27611 -0.01277,-0.0897 -0.05074,-0.17451 -0.101721,-0.24936 -0.07428,-0.10905 -0.17485,-0.197 -0.272654,-0.28557 -0.125188,-0.11336 -0.247926,-0.23006 -0.356807,-0.35917 -0.169531,-0.20102 -0.30422,-0.43135 -0.396285,-0.67767 l -0.0032,2.9e-4 c -0.168056,0.27684 -0.366863,0.53501 -0.591587,0.76821 -0.147059,0.15261 -0.304947,0.29435 -0.463999,0.43441 -0.124116,0.1093 -0.249513,0.21815 -0.357601,0.34332 -0.07101,0.0822 -0.134938,0.17254 -0.17248,0.2745 -0.05979,0.16239 -0.04738,0.34818 0.02524,0.50525 0.03975,0.086 0.09745,0.16453 0.172373,0.22249 0.119492,0.0924 0.27911,0.12734 0.428376,0.10403 0.157272,-0.0246 0.300176,-0.10952 0.41801,-0.21654 0.104136,-0.0946 0.191684,-0.20737 0.257472,-0.33171 z"
           inkscape:connector-curvature="0"
           sodipodi:nodetypes="caaaaaaaaccaaaaaaaacc"
           transform="matrix(-0.95655227,0,0,-0.95655227,9.4991251,732.40348)"
           inkscape:original-d="m -37.519332,265.09507 c 0.06708,0.14239 0.08615,0.21937 0.173195,0.29224 0.09736,0.0815 0.225221,0.1493 0.369258,0.14438 0.156097,-0.005 0.326427,-0.0881 0.46757,-0.18614 0.09687,-0.0673 0.179795,-0.16161 0.237554,-0.26007 0.09686,-0.1651 0.167076,-0.35288 0.164082,-0.5226 -0.0017,-0.0953 -0.05369,-0.17498 -0.101721,-0.24936 -0.07147,-0.11069 -0.180802,-0.19126 -0.272654,-0.28557 -0.117704,-0.12085 -0.254112,-0.2256 -0.356807,-0.35917 -0.158818,-0.20657 -0.256833,-0.46847 -0.396285,-0.67767 l -0.0032,2.9e-4 c -0.200171,0.24032 -0.372284,0.52699 -0.591587,0.76821 -0.141807,0.15599 -0.310286,0.28868 -0.463999,0.43441 -0.119952,0.11372 -0.254057,0.2166 -0.357601,0.34332 -0.06958,0.0852 -0.144685,0.17648 -0.17248,0.2745 -0.0495,0.17454 -0.02888,0.35399 0.02524,0.50525 0.03228,0.0902 0.09148,0.17152 0.172373,0.22249 0.117871,0.0743 0.269825,0.12753 0.428376,0.10403 0.146301,-0.0217 0.295922,-0.11494 0.41801,-0.21654 0.10916,-0.0908 0.149762,-0.1733 0.257472,-0.33171 z"
           inkscape:path-effect="#path-effect1393-96" />
        <path
           sodipodi:nodetypes="caaaaaaaaccaaaaaaaacc"
           inkscape:connector-curvature="0"
           d="m -19.259894,202.04833 c 0.02642,0.11191 0.08771,0.21533 0.173195,0.29224 0.100427,0.0903 0.234175,0.14316 0.369258,0.14438 0.171215,0.002 0.335285,-0.0774 0.46757,-0.18614 0.09099,-0.0748 0.169732,-0.16379 0.237554,-0.26007 0.05387,-0.0765 0.101279,-0.15822 0.132236,-0.24649 0.03096,-0.0883 0.04504,-0.1835 0.03185,-0.27611 -0.01277,-0.0897 -0.05074,-0.17451 -0.101721,-0.24936 -0.07428,-0.10905 -0.17485,-0.197 -0.272654,-0.28557 -0.125188,-0.11336 -0.247926,-0.23006 -0.356807,-0.35917 -0.169531,-0.20102 -0.30422,-0.43135 -0.396285,-0.67767 l -0.0032,2.9e-4 c -0.168056,0.27684 -0.366863,0.53501 -0.591587,0.76821 -0.147059,0.15261 -0.304947,0.29435 -0.463999,0.43441 -0.124116,0.1093 -0.249513,0.21815 -0.357601,0.34332 -0.07101,0.0822 -0.134938,0.17254 -0.17248,0.2745 -0.05979,0.16239 -0.04738,0.34818 0.02524,0.50525 0.03975,0.086 0.09745,0.16453 0.172373,0.22249 0.119492,0.0924 0.27911,0.12734 0.428376,0.10403 0.157272,-0.0246 0.300176,-0.10952 0.41801,-0.21654 0.104136,-0.0946 0.191684,-0.20737 0.257472,-0.33171 z"
           id="path1347"
           style="fill:#000000;fill-opacity:1;stroke:none;stroke-width:0.00706641"
           transform="matrix(-0.95655227,0,0,-0.95655227,9.4991251,732.40348)"
           inkscape:original-d="m -19.259894,202.04833 c 0.06708,0.14239 0.08615,0.21937 0.173195,0.29224 0.09736,0.0815 0.225221,0.1493 0.369258,0.14438 0.156097,-0.005 0.326427,-0.0881 0.46757,-0.18614 0.09687,-0.0673 0.179795,-0.16161 0.237554,-0.26007 0.09686,-0.1651 0.167076,-0.35288 0.164082,-0.5226 -0.0017,-0.0953 -0.05369,-0.17498 -0.101721,-0.24936 -0.07147,-0.11069 -0.180802,-0.19126 -0.272654,-0.28557 -0.117704,-0.12085 -0.254112,-0.2256 -0.356807,-0.35917 -0.158818,-0.20657 -0.256833,-0.46847 -0.396285,-0.67767 l -0.0032,2.9e-4 c -0.200171,0.24032 -0.372284,0.52699 -0.591587,0.76821 -0.141807,0.15599 -0.310286,0.28868 -0.463999,0.43441 -0.119952,0.11372 -0.254057,0.2166 -0.357601,0.34332 -0.06958,0.0852 -0.144685,0.17648 -0.17248,0.2745 -0.0495,0.17454 -0.02888,0.35399 0.02524,0.50525 0.03228,0.0902 0.09148,0.17152 0.172373,0.22249 0.117871,0.0743 0.269825,0.12753 0.428376,0.10403 0.146301,-0.0217 0.295922,-0.11494 0.41801,-0.21654 0.10916,-0.0908 0.149762,-0.1733 0.257472,-0.33171 z"
           inkscape:path-effect="#path-effect1395-48" />
        <path
           style="fill:#000000;fill-opacity:1;stroke:none;stroke-width:0.00706641"
           id="path1351"
           d="m -27.011543,229.43748 c 0.02642,0.11191 0.08771,0.21533 0.173195,0.29224 0.100427,0.0904 0.234175,0.14316 0.369258,0.14438 0.171215,0.002 0.335285,-0.0774 0.46757,-0.18614 0.09099,-0.0748 0.169732,-0.16379 0.237554,-0.26007 0.05387,-0.0765 0.101279,-0.15822 0.132236,-0.24649 0.03096,-0.0883 0.04504,-0.1835 0.03185,-0.27611 -0.01277,-0.0897 -0.05074,-0.17451 -0.101721,-0.24936 -0.07428,-0.10905 -0.17485,-0.197 -0.272654,-0.28557 -0.125188,-0.11336 -0.247926,-0.23006 -0.356807,-0.35917 -0.169531,-0.20102 -0.30422,-0.43135 -0.396285,-0.67767 l -0.0032,2.9e-4 c -0.168056,0.27684 -0.366863,0.53501 -0.591587,0.76821 -0.147059,0.15261 -0.304947,0.29435 -0.463999,0.43441 -0.124116,0.1093 -0.249513,0.21815 -0.357601,0.34332 -0.07101,0.0822 -0.134938,0.17254 -0.17248,0.2745 -0.05979,0.16239 -0.04738,0.34818 0.02524,0.50525 0.03975,0.086 0.09745,0.16453 0.172373,0.22249 0.119492,0.0924 0.27911,0.12734 0.428376,0.10403 0.157272,-0.0246 0.300176,-0.10952 0.41801,-0.21654 0.104136,-0.0946 0.191684,-0.20737 0.257472,-0.33171 z"
           inkscape:connector-curvature="0"
           sodipodi:nodetypes="caaaaaaaaccaaaaaaaacc"
           transform="matrix(-0.95655227,0,0,-0.95655227,9.4991251,732.40348)"
           inkscape:original-d="m -27.011543,229.43748 c 0.06708,0.14239 0.08615,0.21937 0.173195,0.29224 0.09736,0.0815 0.225221,0.1493 0.369258,0.14438 0.156097,-0.005 0.326427,-0.0881 0.46757,-0.18614 0.09687,-0.0673 0.179795,-0.16161 0.237554,-0.26007 0.09686,-0.1651 0.167076,-0.35288 0.164082,-0.5226 -0.0017,-0.0953 -0.05369,-0.17498 -0.101721,-0.24936 -0.07147,-0.11069 -0.180802,-0.19126 -0.272654,-0.28557 -0.117704,-0.12085 -0.254112,-0.2256 -0.356807,-0.35917 -0.158818,-0.20657 -0.256833,-0.46847 -0.396285,-0.67767 l -0.0032,2.9e-4 c -0.200171,0.24032 -0.372284,0.52699 -0.591587,0.76821 -0.141807,0.15599 -0.310286,0.28868 -0.463999,0.43441 -0.119952,0.11372 -0.254057,0.2166 -0.357601,0.34332 -0.06958,0.0852 -0.144685,0.17648 -0.17248,0.2745 -0.0495,0.17454 -0.02888,0.35399 0.02524,0.50525 0.03228,0.0902 0.09148,0.17152 0.172373,0.22249 0.117871,0.0743 0.269825,0.12753 0.428376,0.10403 0.146301,-0.0217 0.295922,-0.11494 0.41801,-0.21654 0.10916,-0.0908 0.149762,-0.1733 0.257472,-0.33171 z"
           inkscape:path-effect="#path-effect1397-457" />
        <path
           style="fill:#000000;fill-opacity:1;stroke:none;stroke-width:0.0065477"
           id="path1355"
           d="m -24.392786,246.29741 c -0.005,0.11374 0.02229,0.22872 0.07783,0.32811 0.05987,0.10714 0.155517,0.19743 0.272543,0.23441 0.07047,0.0223 0.146439,0.0247 0.219305,0.0123 0.07287,-0.0124 0.142784,-0.0392 0.207977,-0.074 0.09397,-0.0502 0.178541,-0.11689 0.253946,-0.19215 0.127419,-0.12717 0.23227,-0.28703 0.251793,-0.46599 0.0098,-0.09 -0.0024,-0.18154 -0.0284,-0.26823 -0.03675,-0.12241 -0.100197,-0.23476 -0.161385,-0.34697 -0.07815,-0.14331 -0.153531,-0.2885 -0.214429,-0.43995 -0.09734,-0.24208 -0.156963,-0.49928 -0.176067,-0.7595 l -0.0027,-5.2e-4 c -0.195617,0.22327 -0.417362,0.42363 -0.659262,0.59568 -0.154275,0.10973 -0.316466,0.20782 -0.479631,0.30383 -0.127585,0.0751 -0.256464,0.14935 -0.371549,0.24246 -0.07857,0.0636 -0.1509,0.13644 -0.203462,0.22276 -0.08946,0.14691 -0.116553,0.32718 -0.0917,0.49738 0.01341,0.0918 0.04181,0.18254 0.09268,0.26013 0.07385,0.11265 0.196646,0.19364 0.330314,0.21027 0.137097,0.0171 0.275176,-0.032 0.393158,-0.10386 0.110086,-0.0671 0.207683,-0.15456 0.286338,-0.25669 z"
           inkscape:connector-curvature="0"
           sodipodi:nodetypes="caaaaaaaaccaaaaaaaacc"
           transform="matrix(-0.95655227,0,0,-0.95655227,9.4991251,732.40348)"
           inkscape:original-d="m -24.392786,246.29741 c 0.02364,0.15546 0.02223,0.23512 0.07783,0.32811 0.06218,0.104 0.152591,0.20249 0.272543,0.23441 0.129995,0.0346 0.288985,-0.002 0.427282,-0.0617 0.09492,-0.0407 0.184357,-0.11121 0.253946,-0.19215 0.116696,-0.13574 0.216461,-0.30031 0.251793,-0.46599 0.01984,-0.093 -0.0053,-0.18371 -0.0284,-0.26823 -0.03433,-0.12577 -0.106597,-0.23192 -0.161385,-0.34697 -0.07021,-0.14744 -0.159438,-0.28399 -0.214429,-0.43995 -0.08504,-0.2412 -0.107589,-0.52068 -0.176067,-0.7595 l -0.0027,-5.2e-4 c -0.218702,0.1825 -0.424573,0.41718 -0.659262,0.59568 -0.151756,0.11542 -0.320333,0.20141 -0.479631,0.30383 -0.124309,0.0799 -0.257882,0.14571 -0.371549,0.24246 -0.07638,0.065 -0.158695,0.1346 -0.203462,0.22276 -0.07972,0.15698 -0.102675,0.33661 -0.0917,0.49738 0.0065,0.0959 0.03728,0.18998 0.09268,0.26013 0.08072,0.10222 0.194249,0.19269 0.330314,0.21027 0.125554,0.0162 0.269786,-0.0363 0.393158,-0.10386 0.11031,-0.0605 0.162177,-0.13022 0.286338,-0.25669 z"
           inkscape:path-effect="#path-effect1399-38" />
        <path
           style="fill:#000000;fill-opacity:1;stroke:none;stroke-width:0.00656189"
           id="path1359"
           d="m -36.719902,183.13591 c 0.02391,0.10445 0.08044,0.20119 0.159685,0.27331 0.09232,0.084 0.215632,0.13381 0.340454,0.13504 0.158248,0.002 0.309555,-0.0727 0.431096,-0.17409 0.08405,-0.0701 0.156619,-0.15333 0.219024,-0.24323 0.0498,-0.0717 0.09351,-0.14835 0.122015,-0.23089 0.0285,-0.0825 0.04142,-0.17141 0.02927,-0.25788 -0.01176,-0.0837 -0.04666,-0.16307 -0.09379,-0.23322 -0.06835,-0.10174 -0.161148,-0.18413 -0.251386,-0.26707 -0.115475,-0.10614 -0.228659,-0.21535 -0.328974,-0.33592 -0.156729,-0.18838 -0.280898,-0.40377 -0.365372,-0.6338 l -0.0029,2.7e-4 c -0.154599,0.25861 -0.337895,0.50006 -0.54544,0.71848 -0.135505,0.14261 -0.2811,0.27522 -0.427805,0.40628 -0.114504,0.10229 -0.230212,0.20416 -0.329706,0.3211 -0.06558,0.0771 -0.12444,0.16161 -0.159026,0.25672 -0.05527,0.152 -0.04379,0.32536 0.02327,0.47254 0.03654,0.0802 0.08956,0.15374 0.158928,0.20809 0.109787,0.086 0.257184,0.119 0.394959,0.0973 0.145461,-0.0229 0.277122,-0.10272 0.385403,-0.20252 0.09623,-0.0887 0.176939,-0.19416 0.237389,-0.31023 z"
           inkscape:connector-curvature="0"
           sodipodi:nodetypes="caaaaaaaaccaaaaaaaacc"
           transform="matrix(-0.95655227,0,0,-0.95655227,9.4991251,732.40348)"
           inkscape:original-d="m -36.719902,183.13591 c 0.06185,0.13317 0.07943,0.20517 0.159685,0.27331 0.08976,0.0762 0.207653,0.13964 0.340454,0.13504 0.143921,-0.005 0.300963,-0.0824 0.431096,-0.17409 0.08931,-0.0629 0.165771,-0.15115 0.219024,-0.24323 0.0893,-0.15441 0.154043,-0.33003 0.151283,-0.48877 -0.0016,-0.0891 -0.0495,-0.16365 -0.09379,-0.23322 -0.0659,-0.10352 -0.166699,-0.17887 -0.251386,-0.26707 -0.108522,-0.11303 -0.234289,-0.211 -0.328974,-0.33592 -0.146429,-0.19319 -0.236798,-0.43815 -0.365372,-0.6338 l -0.0029,2.7e-4 c -0.184556,0.22477 -0.343244,0.49287 -0.54544,0.71848 -0.130745,0.14588 -0.286082,0.26998 -0.427805,0.40628 -0.110594,0.10636 -0.234239,0.20258 -0.329706,0.3211 -0.06415,0.0796 -0.133398,0.16505 -0.159026,0.25672 -0.04563,0.16324 -0.02663,0.33108 0.02327,0.47254 0.02976,0.0844 0.08434,0.16042 0.158928,0.20809 0.108676,0.0695 0.248777,0.11927 0.394959,0.0973 0.134889,-0.0203 0.27284,-0.10749 0.385403,-0.20252 0.100646,-0.085 0.13808,-0.16208 0.237389,-0.31023 z"
           inkscape:path-effect="#path-effect1401-4" />
      </g>
    </g>
  </g>
</svg>
