<?xml version="1.0" encoding="UTF-8" standalone="no"?>
<!-- Created with Inkscape (http://www.inkscape.org/) -->

<svg
   width="140.00002mm"
   height="90.000031mm"
   viewBox="0 0 140.00002 90.000031"
   version="1.1"
   id="svg1"
   sodipodi:docname="Image.svg"
   inkscape:version="1.4 (86a8ad7, 2024-10-11)"
   xmlns:inkscape="http://www.inkscape.org/namespaces/inkscape"
   xmlns:sodipodi="http://sodipodi.sourceforge.net/DTD/sodipodi-0.dtd"
   xmlns="http://www.w3.org/2000/svg"
   xmlns:svg="http://www.w3.org/2000/svg">
  <sodipodi:namedview
     id="namedview1"
     pagecolor="#ffffff"
     bordercolor="#000000"
     borderopacity="0.25"
     inkscape:showpageshadow="2"
     inkscape:pageopacity="0.0"
     inkscape:pagecheckerboard="0"
     inkscape:deskcolor="#d1d1d1"
     inkscape:document-units="mm"
     inkscape:zoom="0.93806818"
     inkscape:cx="132.71956"
     inkscape:cy="-221.19927"
     inkscape:window-width="2400"
     inkscape:window-height="1271"
     inkscape:window-x="3191"
     inkscape:window-y="-9"
     inkscape:window-maximized="1"
     inkscape:current-layer="layer1" />
  <defs
     id="defs1" />
  <g
     inkscape:label="Layer 1"
     inkscape:groupmode="layer"
     id="layer1"
     transform="translate(-69.99999,-206.99997)">
    <g
       id="g1"
       transform="translate(25.695853,13.59705)">
      <path
         style="fill:#000000;stroke-width:0.102529"
         d="m 73.77317,280.34686 c -0.6762,-0.10038 -1.7908,-0.61157 -2.73556,-1.25471 l -0.71773,-0.48859 0.61198,0.6263 0.61197,0.62632 -0.35565,-3.8e-4 c -0.47308,-4e-4 -0.95625,-0.30954 -1.27605,-0.81614 -0.14374,-0.2276 -0.27576,-0.41381 -0.29349,-0.41381 -0.0186,0 -0.0124,0.13689 0.0124,0.30431 0.0683,0.46437 -0.43419,0.92605 -1.00761,0.92605 -0.38424,0 -0.41584,-0.0186 -0.29351,-0.16509 0.23651,-0.28498 0.1682,-1.1662 -0.13937,-1.7945 -0.31268,-0.63906 -1.1371,-1.52225 -1.75945,-1.88486 -1.46335,-0.8526 -3.24299,-1.02516 -5.49286,-0.53263 -0.70489,0.15432 -1.55846,0.36431 -1.8968,0.4667 l -0.61518,0.18604 0.71769,-0.005 c 0.39477,-0.002 1.09924,0.0348 1.56559,0.0831 0.75959,0.0786 0.92188,0.0627 1.55896,-0.15431 0.39112,-0.13316 0.74466,-0.20857 0.78562,-0.16759 0.1147,0.1147 -0.57597,0.77345 -1.01354,0.9665 -0.24387,0.10764 -0.37075,0.22356 -0.338,0.30892 0.0842,0.21917 -0.21618,0.26417 -0.57345,0.0859 -0.18128,-0.0905 -0.40649,-0.13999 -0.50047,-0.11014 -0.0939,0.0298 -0.2948,-0.0434 -0.44632,-0.16239 -0.17588,-0.13834 -0.33917,-0.18999 -0.45185,-0.14291 -0.14705,0.0614 -0.13088,0.0868 0.0962,0.15224 0.34554,0.0996 0.90907,0.48971 2.13688,1.47953 2.07786,1.67509 3.73958,2.01908 4.91079,1.01655 0.53534,-0.45822 0.729,-0.82897 0.72609,-1.39003 -0.002,-0.46636 -0.19496,-0.79558 -0.58053,-0.99277 -0.26816,-0.13709 -1.0222,-0.15243 -1.10261,-0.0222 -0.0314,0.0508 0.10723,0.0923 0.30777,0.0923 0.9157,0 1.24937,1.19888 0.44886,1.61285 -0.42872,0.22168 -0.59162,0.18874 -0.97827,-0.19787 -0.26232,-0.26231 -0.34861,-0.43655 -0.34861,-0.70388 0,-1.00883 1.34302,-1.44802 2.06488,-0.67524 0.60372,0.64626 0.44455,1.60173 -0.38905,2.3355 -1.31592,1.15834 -3.27496,0.93053 -4.95968,-0.5767 -0.36496,-0.3265 -0.60168,-0.51493 -0.52603,-0.41872 0.0757,0.0962 0.16282,0.45348 0.19372,0.79395 0.0466,0.51488 0.0295,0.61901 -0.10287,0.61901 -0.24506,0 -0.70696,-0.60469 -0.63505,-0.83127 0.0442,-0.13938 0.0207,-0.17714 -0.0859,-0.13627 -0.15369,0.0589 -0.2725,-0.21915 -0.27511,-0.64404 -7.7e-4,-0.15784 -0.0477,-0.20974 -0.15224,-0.16966 -0.10723,0.0411 -0.22396,-0.10766 -0.40449,-0.51587 -0.13958,-0.31556 -0.28096,-0.57374 -0.31422,-0.57374 -0.0334,0 -0.007,0.10267 0.0616,0.2283 0.23215,0.43377 0.28844,0.92222 0.1456,1.26391 -0.19373,0.46374 -0.52667,0.66094 -1.11575,0.66094 -0.44631,0 -0.54598,-0.0442 -0.89995,-0.39806 -0.29406,-0.29405 -0.39805,-0.48251 -0.39805,-0.72132 0,-0.4037 0.26894,-0.8287 0.52442,-0.8287 0.25047,0 0.24581,0.21315 -0.0124,0.54063 -0.26717,0.33963 -0.25865,0.5135 0.0423,0.86345 0.21182,0.24624 0.32383,0.28768 0.77786,0.28768 0.45402,0 0.56605,-0.0414 0.77784,-0.28768 0.296,-0.34413 0.31437,-0.7186 0.0587,-1.19544 -0.26041,-0.48557 -0.83326,-0.75952 -1.69,-0.80811 -0.84451,-0.0479 -1.73296,0.15119 -3.29895,0.73963 l -1.12783,0.42376 0.68227,0.0587 c 0.38225,0.033 0.80131,0.13668 0.95298,0.23605 0.80877,0.52992 0.40134,1.7638 -0.65197,1.97446 -0.85859,0.17174 -1.60098,-0.83126 -1.03454,-1.3977 0.38088,-0.38088 1.15129,-0.16863 0.9827,0.27077 -0.0581,0.15141 -0.0798,0.15327 -0.19082,0.0166 -0.19518,-0.2418 -0.44066,-0.28492 -0.67749,-0.11905 -0.28713,0.20118 -0.27421,0.50231 0.0348,0.81136 0.57795,0.57793 1.70287,0.12506 1.7261,-0.69481 0.0207,-0.71723 -0.66899,-1.07935 -1.82262,-0.95745 -1.31176,0.13854 -3.85441,1.27866 -4.23158,1.89732 -0.22138,0.36311 0.10557,0.25773 0.69517,-0.2241 0.67963,-0.55536 1.02212,-0.77074 1.27941,-0.80456 0.31488,-0.0414 1.48053,0.12216 1.53842,0.21575 0.0282,0.0457 -0.0964,0.20749 -0.27715,0.3595 -0.26753,0.22515 -0.4001,0.26682 -0.71459,0.22463 -0.2591,-0.0348 -0.37876,-0.0124 -0.36384,0.0661 0.022,0.11699 -0.3896,0.1479 -0.79573,0.0595 -0.12589,-0.0273 -0.20368,0.0104 -0.20513,0.0994 -9e-4,0.0791 -0.0946,0.1794 -0.2074,0.2235 -0.28989,0.11303 -1.05308,0.11283 -1.12308,-3.8e-4 -0.0321,-0.0523 0.12631,-0.30845 0.35227,-0.56953 0.47484,-0.54864 0.49717,-0.62424 0.53641,-1.81383 0.0257,-0.77733 0.0606,-0.92216 0.27789,-1.15346 0.44979,-0.47868 0.62453,-0.31265 0.62069,0.58973 -9.1e-4,0.29937 -0.0905,0.73062 -0.20513,0.99128 -0.13522,0.30757 -0.15058,0.39362 -0.0459,0.2581 0.21078,-0.27304 0.45829,-1.13126 0.45829,-1.58906 0,-0.20409 0.0554,-0.42637 0.123,-0.49404 0.21369,-0.2137 0.57759,-0.14311 0.72639,0.14083 0.12298,0.23457 0.15306,0.24596 0.27213,0.10245 0.1987,-0.23942 0.50768,-0.19558 0.63801,0.0905 0.16696,0.36649 -0.0423,0.78786 -0.61609,1.24076 -0.55878,0.44103 -0.37426,0.41402 0.78017,-0.11429 0.77496,-0.35462 1.65609,-1.0983 2.38567,-2.01356 0.21112,-0.26486 0.41954,-0.44941 0.46316,-0.41013 0.0436,0.0392 0.0507,0.0209 0.0145,-0.0407 -0.035,-0.0618 0.0266,-0.35059 0.13731,-0.64194 0.24684,-0.64961 0.26322,-1.64195 0.0379,-2.30289 -0.2106,-0.61809 -0.90051,-1.38115 -1.59532,-1.76454 -0.4904,-0.27059 -0.64052,-0.30191 -1.41989,-0.29625 -0.89313,0.007 -1.45053,0.0614 -1.37642,0.13565 0.0621,0.0623 -0.17049,0.31702 -0.28916,0.31702 -0.0564,0 -0.0407,-0.0807 0.035,-0.1794 0.0757,-0.0987 0.0124,-0.0676 -0.14124,0.0691 -0.29004,0.25852 -0.39467,0.43655 -0.12508,0.21284 0.18107,-0.15037 0.19725,-0.0678 0.0434,0.21975 -0.0609,0.11387 -0.17402,0.1819 -0.25277,0.15162 -0.16654,-0.0638 -0.35309,0.5005 -0.35398,1.0714 -9.2e-4,0.70557 0.43346,1.61779 0.83956,1.76241 0.0736,0.0264 0.0996,0.0844 0.0577,0.12942 -0.1203,0.12901 -0.45966,-0.2394 -0.74168,-0.80536 -0.14228,-0.28541 -0.25861,-0.46146 -0.25861,-0.39117 0,0.23443 0.32613,0.77977 0.69919,1.16914 0.88601,0.92475 2.77164,1.0727 3.44669,0.27045 1.07863,-1.28188 -1.22556,-3.66483 -2.50371,-2.58936 -0.24254,0.20409 -0.35067,0.24166 -0.43964,0.15266 -0.22311,-0.22311 0.25853,-0.55385 0.88175,-0.60555 0.73224,-0.0607 1.1965,0.1037 1.69185,0.59904 0.52866,0.52861 0.7802,1.0591 0.78365,1.65271 0.005,0.85909 -0.77071,1.43187 -1.93167,1.42637 -0.72338,-0.005 -1.15819,-0.11346 -1.65053,-0.41779 -0.3614,-0.22333 -0.91818,-0.80294 -1.00211,-1.04318 -0.0348,-0.1 -0.10226,-0.0726 -0.24347,0.0989 -0.13088,0.15886 -0.25432,0.21424 -0.3746,0.1682 -0.27983,-0.10743 -0.3115,-0.47422 -0.0911,-1.05446 l 0.20221,-0.53215 -0.30606,0.25754 c -0.16842,0.14166 -0.36147,0.25755 -0.4292,0.25755 -0.19454,0 -0.57885,-0.30503 -0.57885,-0.45934 0,-0.22993 0.49123,-0.74271 0.79431,-0.82909 l 0.28224,-0.0805 -0.35068,-0.0588 c -0.19289,-0.0323 -0.36716,-0.10868 -0.38726,-0.16966 -0.0614,-0.18584 0.374,-0.65141 0.8231,-0.88054 0.39997,-0.20409 0.41117,-0.22155 0.19309,-0.30225 -0.12734,-0.0471 -0.26106,-0.16262 -0.29716,-0.25673 -0.11138,-0.29012 0.25148,-0.44863 1.03819,-0.45354 l 0.72376,-0.005 -0.37786,-0.19953 c -0.4532,-0.23937 -0.56916,-0.39829 -0.37864,-0.51896 0.21514,-0.13626 1.01451,-0.10141 1.4742,0.0641 0.22557,0.0814 0.41626,0.14851 0.42379,0.14934 0.008,5.3e-4 0.0365,-0.0861 0.0648,-0.1931 0.0539,-0.20596 -0.2445,-0.31795 -0.84751,-0.31795 -0.2714,0 -0.56955,-0.21626 -0.45546,-0.33036 0.0302,-0.0302 -0.11842,-0.0878 -0.33056,-0.12756 -0.43008,-0.0807 -0.90805,-0.30319 -1.01177,-0.47099 -0.0373,-0.0605 0.0166,-0.17277 0.12174,-0.24945 0.18459,-0.13543 0.18439,-0.14829 -0.002,-0.46521 -0.25334,-0.43102 -0.4722,-1.27394 -0.47372,-1.82438 -0.002,-0.68951 0.27241,-0.52135 0.88088,0.54005 0.56982,0.99392 1.05927,1.46331 2.10953,2.0231 0.33332,0.17775 0.82117,0.51157 1.08413,0.74204 l 0.47807,0.41905 -0.34796,-0.51265 c -0.43193,-0.63635 -1.20413,-1.59802 -1.27916,-1.59298 -0.0307,0.002 -0.0443,-0.0166 -0.0302,-0.0436 0.0145,-0.0259 -0.20451,-0.28105 -0.48586,-0.56666 -0.28133,-0.28561 -0.51203,-0.57576 -0.51264,-0.64474 -7.9e-4,-0.0691 -0.0473,-0.14021 -0.10371,-0.15825 -0.0564,-0.0187 -0.18832,-0.11034 -0.29325,-0.20513 -0.27178,-0.24526 -0.8667,-1.02094 -0.6532,-0.85165 0.10558,0.0836 0.17755,0.0964 0.17755,0.0317 0,-0.12009 -0.19807,-0.2709 -0.35884,-0.27336 -0.0564,-5.4e-4 -0.28503,-0.36093 -0.50805,-0.80016 -0.32314,-0.63633 -0.41387,-0.93838 -0.44652,-1.48669 -0.0226,-0.37843 -0.0823,-0.73191 -0.13275,-0.78549 -0.15492,-0.16447 -0.10205,-0.36398 0.0969,-0.36398 0.18292,0 0.18292,-0.0255 0.002,-0.84587 -0.2104,-0.95609 -0.23059,-1.29098 -0.0913,-1.51147 0.077,-0.12175 0.12258,-0.12694 0.22398,-0.0255 0.0701,0.0701 0.16427,0.12735 0.20933,0.12735 0.16261,0 0.0755,-0.26281 -0.27599,-0.83232 -0.44713,-0.72389 -0.49002,-1.01081 -0.17526,-1.17209 l 0.23563,-0.12072 -0.26125,-0.31047 c -0.32146,-0.38202 -0.35079,-1.09947 -0.0703,-1.7163 0.35845,-0.78796 0.42477,-0.76251 1.01907,0.39093 0.61443,1.19246 0.7639,1.85508 0.58101,2.57538 -0.15411,0.60711 -0.0598,0.49781 0.30399,-0.35178 0.69172,-1.61584 1.42661,-3.16849 1.48317,-3.13355 0.0338,0.0209 0.0693,-0.0614 0.0788,-0.18293 0.0104,-0.12154 0.16593,-0.63617 0.34769,-1.1437 0.69424,-1.93885 0.35242,-3.19149 -0.96842,-3.54902 -0.65667,-0.17774 -0.74024,-0.21311 -0.6154,-0.26036 0.0626,-0.0238 0.37139,0.0531 0.68591,0.1707 1.2796,0.47874 1.6548,1.55759 1.13897,3.27495 -0.0752,0.25114 -0.11863,0.47518 -0.0959,0.49787 0.0226,0.0228 0.14561,-0.29813 0.27309,-0.71292 0.30853,-1.0036 0.32461,-2.15201 0.0369,-2.64012 -0.32273,-0.54767 -0.89071,-0.94945 -1.42775,-1.00999 -0.30307,-0.0343 -0.46905,-0.10266 -0.46905,-0.1933 0,-0.16322 0.16384,-0.1875 0.25634,-0.0379 0.0348,0.0564 0.13833,0.10246 0.22999,0.10246 0.3505,0 1.08216,0.45409 1.36844,0.84924 0.34069,0.47036 0.41244,0.4038 0.0796,-0.0738 -0.46816,-0.67207 -1.4268,-1.17464 -2.25478,-1.18212 -1.16084,-0.0104 -2.39421,1.01986 -2.60581,2.17674 -0.0388,0.21218 -0.0375,0.64963 0.002,0.9721 0.0725,0.58154 0.0745,0.58406 0.21862,0.3089 0.18439,-0.35173 0.43912,-0.48769 0.91401,-0.48769 0.29074,0 0.45481,0.0791 0.72446,0.3486 0.30668,0.30667 0.34861,0.41247 0.34861,0.87939 0,0.44998 -0.0457,0.57645 -0.2997,0.8305 -0.33236,0.33235 -0.56913,0.36783 -1.06691,0.15991 -1.05074,-0.43902 -1.56554,-2.49838 -0.95327,-3.81326 0.98301,-2.11104 4.27192,-2.11104 5.25494,0 0.28783,0.61814 0.32834,1.69015 0.0934,2.47098 -0.24413,0.81128 -0.10266,0.6376 0.22899,-0.28108 0.44841,-1.24214 0.57695,-1.95022 0.57321,-3.15825 -0.002,-0.87413 -0.0508,-1.21149 -0.25511,-1.79426 -0.27718,-0.79009 -0.42262,-0.87742 -0.77785,-0.46721 -0.17982,0.20757 -0.22777,0.22605 -0.23067,0.0888 -0.002,-0.0954 -0.0493,-0.20161 -0.10495,-0.23603 -0.0559,-0.0346 -0.0766,0.002 -0.0459,0.0821 0.0305,0.0796 -0.0543,0.27811 -0.18875,0.44109 -0.1344,0.16302 -0.28013,0.38857 -0.3239,0.50137 -0.0776,0.20015 -0.0821,0.19953 -0.18563,-0.0226 l -0.10599,-0.22774 -0.30112,0.25336 c -0.35182,0.29604 -0.58265,0.31558 -1.03381,0.0875 -0.63158,-0.31933 -0.96879,-0.6373 -1.01583,-0.95782 -0.0484,-0.32922 -0.0262,-0.3433 0.49795,-0.31513 0.30676,0.0166 1.28926,-0.40004 1.41197,-0.59857 0.0317,-0.0512 -0.0987,-0.12258 -0.28994,-0.15846 -0.49621,-0.0931 -0.88171,-0.42655 -0.87776,-0.75932 0.007,-0.43601 0.22105,-0.63339 0.69272,-0.63339 0.33533,0 0.46363,0.0577 0.65514,0.29401 0.13087,0.16178 0.3758,0.38086 0.54409,0.48703 l 0.30594,0.1931 -0.35418,-0.46138 c -0.19476,-0.25378 -0.48671,-0.60642 -0.64868,-0.78365 -0.24952,-0.27308 -0.27682,-0.35523 -0.17878,-0.53829 0.0637,-0.11884 0.20346,-0.21601 0.31101,-0.21601 0.10744,0 0.22049,-0.0407 0.25116,-0.0902 0.0307,-0.0495 0.28659,-0.16572 0.56871,-0.258 0.42127,-0.13771 0.55,-0.14456 0.72041,-0.0381 0.30215,0.18874 0.31455,0.33446 0.11925,1.40241 -0.13896,0.76014 -0.21923,0.98347 -0.37846,1.05304 -0.16633,0.0726 -0.1568,0.0791 0.0543,0.0363 0.14104,-0.0286 0.28425,-0.0527 0.31841,-0.0534 0.0343,-7.7e-4 0.088,-0.34206 0.11927,-0.75843 0.0745,-0.98461 0.27255,-1.359 0.85541,-1.61685 0.39978,-0.17691 0.49718,-0.18563 0.76171,-0.0685 0.57147,0.25295 0.31184,0.9636 -0.52365,1.43316 -0.24526,0.13794 -0.50719,0.40601 -0.65514,0.67072 -0.28284,0.50608 -0.20305,0.58794 0.13171,0.13524 0.26964,-0.36475 0.60425,-0.54656 1.31143,-0.7127 0.36013,-0.0846 0.63047,-0.23216 0.86088,-0.46989 l 0.33589,-0.34655 0.18999,0.24161 c 0.22869,0.29073 0.23603,0.48526 0.0427,1.12801 -0.19351,0.6429 -0.5131,0.97805 -0.93275,0.97805 -0.30112,0 -0.32256,0.022 -0.2732,0.28195 0.0442,0.23229 0.028,0.26173 -0.091,0.16718 -0.0796,-0.063 -0.32915,-0.1481 -0.55459,-0.18875 -0.22543,-0.0407 -0.4486,-0.12755 -0.49591,-0.19268 -0.0514,-0.0709 -0.0645,-0.0212 -0.0325,0.12341 0.0492,0.22244 0.0282,0.2371 -0.25825,0.17982 -0.26849,-0.0537 -0.30137,-0.0375 -0.23661,0.11657 0.38346,0.91303 0.48865,1.31415 0.53555,2.04232 l 0.054,0.83799 0.24737,-0.49643 c 0.13606,-0.27303 0.39558,-0.60945 0.57672,-0.74762 0.31656,-0.24147 2.17046,-1.30344 2.27539,-1.30344 0.028,0 0.051,0.19932 0.051,0.44301 0,0.28018 -0.10371,0.64721 -0.28196,0.99873 -0.23169,0.45665 -0.35508,0.58197 -0.69208,0.703 -0.5215,0.18727 -0.49711,0.15907 -0.34652,0.40021 0.18066,0.28924 -0.0124,0.49531 -0.79413,0.85105 -0.64958,0.29533 -0.94635,0.61999 -0.52572,0.57515 0.14539,-0.0145 0.23608,0.0416 0.26161,0.16468 0.0266,0.12776 -0.21685,0.44128 -0.75603,0.97403 -0.58309,0.57616 -0.91028,1.00825 -1.22702,1.62038 -0.23752,0.45909 -0.5695,1.03581 -0.73773,1.28162 -0.47897,0.69988 -2.12825,3.84715 -2.47877,4.73023 -0.34181,0.86103 -0.40426,1.1301 -0.14809,0.63817 1.18668,-2.27955 1.79039,-2.88824 3.64307,-3.67318 1.30892,-0.55458 1.23081,-0.45362 -0.17236,0.22278 -1.23493,0.59529 -1.81393,1.00632 -2.21921,1.57547 l -0.21755,0.30553 0.50108,-0.35557 c 0.65422,-0.46429 1.16667,-0.621 1.84622,-0.56465 0.62175,0.0514 0.9943,0.31524 1.2313,0.87145 0.31114,0.73017 0.0461,1.62287 -0.5802,1.95424 -0.34399,0.18189 -1.17754,0.1 -1.51053,-0.14871 -0.67205,-0.50178 -0.92924,-1.31774 -0.55933,-1.77457 0.18066,-0.22302 0.23328,-0.2374 0.47167,-0.12879 0.30062,0.13688 0.34513,0.34545 0.11449,0.53678 -0.27238,0.22606 -0.18645,0.70557 0.19476,1.08685 0.47287,0.47286 1.0617,0.49199 1.50481,0.049 0.78339,-0.78337 0.0187,-2.3645 -1.14496,-2.36571 -0.52175,-3.8e-4 -1.53393,0.53757 -2.03625,1.08254 -0.23435,0.25424 -0.6082,0.83881 -0.83077,1.29909 -0.59793,1.2364 -0.49181,1.28227 0.13067,0.0564 0.29441,-0.57986 0.54894,-1.07426 0.56564,-1.09869 0.0166,-0.0245 0.0838,0.008 0.14892,0.0743 0.0898,0.09 0.0514,0.18107 -0.15846,0.37554 -0.28218,0.26152 -0.98762,1.6138 -0.99046,1.89869 -9.1e-4,0.10577 -0.0259,0.11822 -0.0769,0.0386 -0.0414,-0.065 -0.088,0.3272 -0.10329,0.87152 -0.0145,0.54432 -0.05,1.12807 -0.0767,1.29727 -0.0393,0.2475 -0.03,0.26754 0.0464,0.10246 0.0523,-0.11283 0.0983,-0.41935 0.10226,-0.68127 0.0104,-0.65062 0.33648,-1.65758 0.77246,-2.38142 0.19932,-0.33109 0.36256,-0.66559 0.36256,-0.74338 0,-0.0778 0.0693,-0.14144 0.1539,-0.14144 0.19683,0 0.19704,0.14394 7.7e-4,0.30706 -0.50684,0.42065 -1.17976,2.14815 -1.17976,3.02868 0,0.31563 -0.0481,0.66375 -0.10682,0.77357 -0.0749,0.14001 -0.0734,0.25296 0.005,0.37777 0.0973,0.15494 0.10391,0.14913 0.0514,-0.044 -0.0332,-0.12217 -0.0124,-0.25173 0.0464,-0.28801 0.0595,-0.0369 0.1066,0.0207 0.1066,0.12881 0,0.41794 0.66275,1.47241 1.8507,2.94453 0.68258,0.84589 1.46947,1.90707 1.74862,2.35821 0.27917,0.45114 0.59932,0.93558 0.71145,1.07656 0.1958,0.24621 0.19538,0.23611 -0.0124,-0.25633 -0.47644,-1.13145 -0.61719,-2.44556 -0.36579,-3.41477 l 0.13938,-0.53734 -0.23832,0.15618 c -0.33687,0.22071 -0.66731,0.20761 -0.58608,-0.0232 0.0514,-0.14643 0.0378,-0.15597 -0.0749,-0.0512 -0.0759,0.0705 -0.27036,0.12818 -0.43194,0.12818 -0.16157,0 -0.38309,0.0477 -0.49216,0.10619 -0.22423,0.12009 -0.24533,0.0707 -0.0923,-0.2154 0.0967,-0.18064 0.0698,-0.19827 -0.30358,-0.19827 -0.60857,0 -0.89075,-0.3703 -1.0713,-1.40584 -0.0379,-0.21741 -0.007,-0.38034 0.0929,-0.47969 0.0828,-0.0828 0.15038,-0.19995 0.15038,-0.26028 0,-0.18853 0.15535,-0.12154 0.46323,0.19973 0.19994,0.20862 0.53198,0.37944 1.01885,0.52402 0.5916,0.17568 0.80348,0.30058 1.17086,0.69017 l 0.44855,0.47566 -0.29012,-0.54692 c -0.20118,-0.3792 -0.40547,-0.60577 -0.66633,-0.73886 -0.5081,-0.25921 -0.93363,-0.77971 -0.8945,-1.09413 0.0166,-0.1371 0.1483,-0.32008 0.29148,-0.40646 0.23976,-0.14456 0.29815,-0.13939 0.73701,0.0671 0.63676,0.29932 0.80239,0.58412 0.87156,1.49861 0.0315,0.41767 0.0969,0.7594 0.14519,0.7594 0.11636,0 0.11096,-0.18791 -0.0343,-1.1912 -0.0987,-0.68342 -0.0964,-0.87367 0.0124,-1.005 0.15846,-0.19102 0.49968,-0.20797 0.89914,-0.045 0.98656,0.40267 1.15827,0.50699 1.15827,0.70372 0,0.11241 -0.0419,0.2045 -0.0929,0.2045 -0.0786,0 -0.67956,0.75235 -0.96817,1.21228 -0.17775,0.28318 0.33263,-0.0819 0.62273,-0.44551 0.36748,-0.46055 0.8197,-0.4893 1.2025,-0.0764 0.41545,0.44801 0.20409,0.80678 -0.68417,1.16091 l -0.40004,0.1595 0.54601,0.27622 c 0.36179,0.18315 0.70813,0.27626 1.02665,0.27626 h 0.48067 l -0.0416,0.3292 c -0.044,0.3476 -0.26581,0.57233 -0.89292,0.90464 -0.52204,0.27661 -0.91479,0.25822 -1.21064,-0.0566 l -0.24264,-0.25827 -0.12569,0.28392 c -0.0792,0.17878 -0.1288,0.22041 -0.1342,0.11241 -0.005,-0.0944 -0.12361,-0.30865 -0.26465,-0.47619 -0.14104,-0.16759 -0.25795,-0.41333 -0.25995,-0.54615 l -0.005,-0.24153 -0.12859,0.23168 c -0.10059,0.18128 -0.15575,0.2047 -0.25268,0.10764 -0.0683,-0.0683 -0.12403,-0.2274 -0.12403,-0.35379 0,-0.38524 -0.18106,-0.36857 -0.31229,0.0286 -0.21231,0.64324 -0.0723,2.20473 0.2834,3.16534 0.16737,0.45175 0.37245,0.95145 0.45569,1.11034 0.14602,0.2788 0.14975,0.26748 0.10703,-0.32356 -0.0562,-0.77757 0.10371,-1.26036 0.54675,-1.64929 0.4332,-0.38035 0.96716,-0.49101 1.57933,-0.32727 1.12614,0.30118 1.82525,1.42482 1.54172,2.47785 -0.23828,0.88486 -0.98529,1.25465 -1.74302,0.86281 -0.3777,-0.19537 -0.51059,-0.44264 -0.51059,-0.95032 0,-0.56857 0.50473,-0.96997 0.87719,-0.69762 0.22683,0.16593 0.10993,0.36737 -0.21319,0.36737 -0.44048,0 -0.6291,0.73702 -0.27144,1.06068 0.30074,0.2722 0.80829,0.21495 1.15327,-0.13005 0.25695,-0.25691 0.29971,-0.37834 0.29971,-0.85097 0,-1.96681 -2.81128,-2.55522 -3.03857,-0.63597 -0.0852,0.71991 0.18562,1.68545 0.68131,2.42763 0.39256,0.58787 0.71678,1.42848 0.71678,1.85844 0,0.14851 0.0816,0.0784 0.29098,-0.24931 0.59677,-0.93483 1.36667,-1.47829 2.97902,-2.1029 0.74785,-0.28969 0.75365,-0.29478 0.43209,-0.3781 -0.1792,-0.0464 -0.2982,-0.12921 -0.26434,-0.18417 0.0338,-0.0548 -0.0796,-0.17983 -0.25204,-0.27808 -0.32015,-0.18209 -0.40885,-0.33227 -0.19642,-0.33227 0.068,0 0.0409,-0.0857 -0.0635,-0.20098 -0.22272,-0.24611 -0.15639,-0.58553 0.196,-1.00445 0.31755,-0.37736 0.56921,-0.39152 0.56921,-0.032 0,0.14643 0.0923,0.43857 0.20514,0.64898 0.11282,0.21041 0.20829,0.55577 0.21226,0.76746 0.007,0.30517 0.0249,0.34241 0.0932,0.17982 0.0473,-0.11283 0.0616,-0.46014 0.0319,-0.7719 -0.0598,-0.62663 0.0987,-0.88807 0.46711,-0.77112 0.39071,0.12403 0.42458,0.78289 0.0672,1.30871 -0.30023,0.44182 -0.30983,0.49065 -0.0965,0.49065 0.0879,0 0.13337,-0.043 0.1008,-0.0955 -0.0323,-0.0524 -0.005,-0.12879 0.0609,-0.16965 0.0749,-0.0464 0.0925,-0.0297 0.0469,0.0442 -0.0402,0.0652 -0.0257,0.11844 0.0321,0.11844 0.17629,0 -3.8e-4,0.30706 -0.18106,0.3148 -0.30065,0.0124 0.20834,0.18272 0.57128,0.1906 0.37089,0.008 0.59468,0.29451 0.48939,0.62625 -0.0703,0.22149 -0.44675,0.27046 -0.76595,0.0996 -0.17629,-0.0944 -0.18252,-0.0745 -0.0861,0.28195 0.0571,0.21096 0.20202,0.48978 0.32203,0.61963 0.18646,0.20181 0.19621,0.2508 0.0671,0.33743 -0.21448,0.14374 -0.89966,0.0407 -1.13311,-0.17069 -0.10849,-0.0981 -0.19705,-0.28515 -0.19705,-0.41561 0,-0.16199 -0.0459,-0.21964 -0.14476,-0.18169 -0.11657,0.0445 -0.12881,-0.0145 -0.063,-0.30619 0.0514,-0.22857 0.0428,-0.37467 -0.0238,-0.39686 -0.0701,-0.0235 -0.0664,-0.10827 0.0124,-0.25362 0.11469,-0.21425 0.10452,-0.21345 -0.52361,0.0417 -1.44047,0.58503 -2.20875,1.09938 -2.73339,1.82992 l -0.34559,0.48125 0.31978,-0.0703 c 0.784,-0.17216 0.98889,0.28644 0.32441,0.72617 -0.22556,0.14933 -0.4101,0.28349 -0.4101,0.29825 0,0.0145 0.17297,-0.0124 0.38448,-0.0624 0.54858,-0.12736 0.61668,-0.11823 0.84823,0.11324 0.28326,0.28325 0.12797,0.54967 -0.43693,0.74959 -0.4223,0.14954 -0.42631,0.15493 -0.11967,0.16281 0.33802,0.008 0.7218,0.33248 0.60943,0.51429 -0.0855,0.13814 -0.0892,0.13855 0.52798,-0.0448 0.28482,-0.0846 1.08909,-0.27408 1.78723,-0.42107 1.72682,-0.36362 2.88968,-0.35949 4.1402,0.0145 1.78069,0.53278 2.02377,0.58078 2.58558,0.5106 0.3205,-0.04 0.54158,-0.028 0.54158,0.0295 0,0.0535 0.20921,0.0222 0.46492,-0.0695 0.35339,-0.12673 0.48319,-0.13731 0.54098,-0.044 0.0502,0.0809 0.12755,0.0902 0.22717,0.0272 0.0832,-0.0527 0.32722,-0.0962 0.54248,-0.0971 0.33246,-9.2e-4 0.38247,0.0266 0.33206,0.18542 -0.0421,0.13295 0.0521,0.27679 0.32632,0.49792 0.21212,0.17111 0.49241,0.50218 0.62292,0.73582 0.21959,0.39325 0.2233,0.42484 0.0498,0.42484 -0.10308,0 -0.42736,-0.16157 -0.72068,-0.35917 -0.57667,-0.38837 -1.09924,-0.52601 -2.25766,-0.59468 l -0.74311,-0.0439 0.99945,0.68494 c 0.5497,0.37673 1.36854,0.93973 1.81967,1.25109 2.23429,1.54208 3.91911,2.0601 4.96496,1.52654 0.94731,-0.48326 1.48762,-1.37876 1.48716,-2.46467 -7.6e-4,-1.45756 -1.11021,-2.55585 -2.58732,-2.56099 l -0.64653,-0.002 0.28534,0.24545 c 0.7729,0.66483 -0.0622,1.96388 -1.1333,1.76294 -1.08435,-0.20347 -1.26871,-1.24082 -0.34545,-1.94412 0.89014,-0.67803 2.68429,-0.59487 3.67725,0.1705 0.59533,0.45889 0.94875,1.18075 0.99711,2.03666 0.11469,2.03007 -1.43438,3.43981 -3.45099,3.14064 z m -23.27979,-1.49035 c 0.12756,-0.16262 0.12381,-0.16635 -0.0388,-0.0388 -0.0987,0.0773 -0.17942,0.15804 -0.17942,0.17941 0,0.0844 0.0842,0.03 0.21815,-0.14083 z m 1.02754,-0.61694 c 0.28186,-0.44516 0.17961,-0.42081 -0.17277,0.0411 -0.15639,0.20491 -0.22865,0.35412 -0.16074,0.33147 0.068,-0.0226 0.21798,-0.1904 0.33341,-0.37265 z m 9.36913,-0.32669 c -0.0331,-0.0537 -0.20896,-0.19578 -0.39053,-0.31567 l -0.33011,-0.21793 0.35496,0.31568 c 0.36591,0.32538 0.47069,0.38783 0.36568,0.21792 z m -4.9465,-2.03952 c 0.56085,-0.73547 0.79778,-1.35236 0.84411,-2.19789 l 0.0407,-0.74008 -0.0987,0.70254 c -0.0543,0.38642 -0.19018,0.89395 -0.3018,1.12784 -0.11741,0.24599 -0.18005,0.31721 -0.14831,0.16904 0.0469,-0.21847 0.0381,-0.2297 -0.0581,-0.0762 -0.0621,0.0992 -0.0834,0.22805 -0.0473,0.28649 0.0886,0.1433 -0.18231,0.53967 -0.86748,1.26954 -0.50187,0.53453 -0.52082,0.56871 -0.15618,0.28137 0.22832,-0.17983 0.58522,-0.55009 0.7931,-0.82269 z m 0.40208,0.79736 c 0.68262,-0.12632 2.12851,-0.70813 1.76392,-0.70974 -0.40965,-0.002 -1.77038,0.39789 -2.26323,0.66479 -0.2727,0.14768 -0.41715,0.2451 -0.32094,0.21647 0.0962,-0.0286 0.4653,-0.10577 0.82025,-0.17152 z m 0.21871,-3.22268 c 0.005,-0.52728 -0.0552,-0.85113 -0.22132,-1.22057 -0.12424,-0.27658 -0.20617,-0.52275 -0.1819,-0.54705 0.0624,-0.0624 0.27861,0.36148 0.4307,0.84485 0.0709,0.22558 0.13171,0.31785 0.13482,0.20512 0.008,-0.31435 -0.43724,-1.18098 -0.85567,-1.66181 -1.12612,-1.29409 -3.45574,-1.55266 -4.63785,-0.51477 -0.35873,0.31497 -0.65226,0.77599 -0.64817,1.01802 9e-4,0.0732 0.0869,-0.053 0.1904,-0.2811 0.72288,-1.59144 3.27655,-1.72146 4.87484,-0.2482 0.25797,0.23779 0.46905,0.47892 0.46905,0.53586 0,0.0568 -0.22414,-0.1062 -0.49808,-0.36241 -0.45178,-0.4226 -1.21629,-0.90193 -1.42028,-0.8905 -0.0445,0.002 0.1035,0.10038 0.32914,0.21765 0.68508,0.35604 1.22049,0.85367 1.54091,1.43222 0.28192,0.50896 0.30462,0.62792 0.30462,1.59479 0,0.71473 0.0291,0.97387 0.0919,0.82025 0.0507,-0.12361 0.0939,-0.54754 0.0967,-0.94228 z m -6.00973,-1.40796 c -0.0228,-0.18439 -0.0419,-0.0583 -0.0425,0.28012 -3.9e-4,0.33837 0.0187,0.48914 0.0415,0.33507 0.0235,-0.15411 0.0238,-0.43092 9.1e-4,-0.61519 z m 11.2152,-0.0623 c -0.0909,-0.27282 -0.24706,-0.60733 -0.34739,-0.74335 -0.15846,-0.21489 -0.16862,-0.21796 -0.0769,-0.0235 0.058,0.12321 0.10558,0.30773 0.10578,0.41012 3e-4,0.17091 0.35623,0.85263 0.44508,0.85263 0.0212,0 -0.0359,-0.22324 -0.12673,-0.49606 z m 0.37116,-1.00132 c -0.0341,-0.0341 -0.12258,-0.0378 -0.19663,-0.008 -0.0816,0.0328 -0.0575,0.0571 0.0621,0.0621 0.10805,0.005 0.16863,-0.0207 0.13461,-0.0539 z m -9.37938,-0.82621 c -0.0705,-0.0284 -0.18583,-0.0284 -0.25633,0 -0.0705,0.0284 -0.0124,0.0516 0.12818,0.0516 0.14103,0 0.19869,-0.0233 0.12818,-0.0516 z m 0.92276,0 c -0.0705,-0.0284 -0.18584,-0.0284 -0.25632,0 -0.0705,0.0284 -0.0124,0.0516 0.12819,0.0516 0.14103,0 0.19869,-0.0233 0.12817,-0.0516 z m 8.07269,-0.63552 c -7.7e-4,-0.0925 -0.0462,-0.23728 -0.10102,-0.32187 -0.0732,-0.11325 -0.0997,-0.0444 -0.101,0.26145 -7.7e-4,0.22838 -0.0362,0.46005 -0.0784,0.51481 -0.0423,0.0548 0.005,0.0124 0.10247,-0.0934 0.0987,-0.1062 0.17878,-0.2686 0.17795,-0.36101 z m -7.22681,0.12589 c -0.506,-0.4489 -0.80881,-0.60637 -1.31684,-0.68482 -0.33154,-0.0512 -0.25022,0.0124 0.51265,0.40142 0.4987,0.25427 0.95055,0.50581 1.00413,0.55903 0.0535,0.0533 0.12279,0.0948 0.15389,0.0925 0.0312,-0.002 -0.12817,-0.16801 -0.35373,-0.36812 z m 6.19317,-0.43379 c -0.16303,-0.3231 -0.25138,-0.41836 -0.27601,-0.29728 -0.0428,0.2099 0.41577,1.07273 0.47524,0.89439 0.0222,-0.0668 -0.0674,-0.33559 -0.19932,-0.59711 z m -2.9122,-3.29501 c 0.0348,-0.0564 -0.0166,-0.10246 -0.11387,-0.10246 -0.0975,0 -0.4116,-0.13171 -0.69812,-0.29252 -0.28651,-0.16096 -0.70549,-0.32396 -0.93108,-0.36237 -0.22555,-0.0384 -0.54275,-0.0962 -0.70489,-0.1286 -0.17941,-0.0357 -0.27057,-0.0186 -0.23296,0.0413 0.0341,0.055 0.23586,0.12963 0.44858,0.16573 0.21273,0.0361 0.63838,0.22677 0.94593,0.42358 0.55259,0.35366 1.15205,0.47264 1.28636,0.25531 z m -5.58789,-0.13586 c 0,-0.0186 -0.12694,-0.14518 -0.28195,-0.28195 l -0.28197,-0.24858 0.24855,0.28198 c 0.23234,0.26354 0.31537,0.32897 0.31537,0.24855 z M 51.198,264.57899 c -0.30358,-0.38328 -0.41013,-0.47743 -0.41013,-0.36241 0,0.0674 0.62595,0.77254 0.68569,0.77254 0.0272,0 -0.0969,-0.18459 -0.27556,-0.41013 z m 4.38102,0.14312 c -0.0341,-0.0341 -0.12257,-0.0378 -0.19661,-0.008 -0.0816,0.0328 -0.0574,0.0571 0.0621,0.0621 0.10806,0.005 0.16862,-0.0207 0.1346,-0.0539 z m -1.20258,-0.0834 c 0,-0.11553 -1.28274,-0.87997 -1.47669,-0.87997 -0.12258,0 -0.3942,-0.0873 -0.6035,-0.19393 -0.43037,-0.21942 -0.48251,-0.15929 -0.16095,0.18604 0.26654,0.28608 0.80031,0.5205 1.18694,0.52122 0.1568,3.2e-4 0.42365,0.0892 0.59283,0.19746 0.30394,0.19475 0.46139,0.25243 0.46139,0.16925 z m 2.7142,-0.47632 c 0.18128,-0.17795 0.18397,-0.19848 0.0257,-0.19848 -0.0971,0 -0.2631,0.0864 -0.36881,0.19227 -0.10578,0.10578 -0.2557,0.22135 -0.33322,0.25695 -0.0775,0.0357 -0.002,0.0384 0.16654,0.007 0.16925,-0.032 0.39859,-0.14767 0.50979,-0.25695 z m -2.55131,-0.64753 c -0.0569,-0.30312 -0.29729,-0.59586 -0.8037,-0.97855 -0.31855,-0.24069 -0.19082,0.0471 0.22761,0.51295 0.22387,0.24923 0.43841,0.59156 0.47676,0.76075 0.0917,0.40399 0.18086,0.13896 0.0994,-0.29515 z m -4.01992,0.0848 c 0.0357,-0.0929 0.0186,-0.13254 -0.0423,-0.0952 -0.18085,0.1118 -0.71006,-1.19605 -0.8125,-2.00825 l -0.096,-0.76201 0.0323,0.74783 c 0.0268,0.61592 0.0991,0.88273 0.4102,1.51231 0.20781,0.42048 0.39344,0.76448 0.41254,0.76448 0.0186,0 0.0623,-0.0716 0.0959,-0.15907 z m 5.44625,-0.35353 c 0.10204,-0.11283 0.1626,-0.20513 0.1344,-0.20513 -0.0282,0 -0.13482,0.0923 -0.23684,0.20513 -0.10205,0.11283 -0.16261,0.20512 -0.1344,0.20512 0.0282,0 0.13481,-0.0923 0.23684,-0.20512 z m -0.79792,-0.58815 c -0.0236,-0.15576 -0.0436,-0.0527 -0.0442,0.22929 -7.7e-4,0.28195 0.0187,0.40949 0.0427,0.28339 0.0243,-0.12612 0.025,-0.35681 0.002,-0.51268 z m -4.83767,-4.41387 c -0.0531,-0.0557 -0.46377,1.05523 -0.52263,1.41346 -0.0323,0.19746 0.0782,-0.0334 0.24583,-0.51265 0.1676,-0.47935 0.29221,-0.8847 0.2768,-0.90081 z m 3.60375,-8.55118 c -0.0328,-0.0816 -0.0571,-0.0574 -0.0621,0.0621 -0.005,0.10806 0.0207,0.16863 0.0539,0.1346 0.0341,-0.034 0.0378,-0.12257 0.008,-0.19641 z m -0.10246,-0.51267 c -0.0328,-0.0817 -0.0571,-0.0575 -0.0621,0.0621 -0.005,0.10807 0.0207,0.16863 0.0539,0.1346 0.0341,-0.0341 0.0378,-0.12258 0.008,-0.19661 z m -1.63832,-3.76421 c 0.22581,-0.16365 0.63646,-0.36796 0.91253,-0.45418 l 0.50196,-0.15681 -0.56393,0.055 c -0.32604,0.0317 -0.86665,0.19787 -1.28162,0.39367 -0.39475,0.18625 -0.78693,0.36236 -0.8715,0.39119 -0.0846,0.0288 0.0815,0.0559 0.3691,0.0606 0.42204,0.007 0.60209,-0.0492 0.93346,-0.28932 z m 2.37789,-1.07396 c 0.10621,-0.12777 0.50704,-0.26069 1.25873,-0.4171 0.30099,-0.0627 0.90505,-0.52576 0.90505,-0.69393 0,-0.0629 -0.0633,-0.0535 -0.15536,0.023 -0.0854,0.0709 -0.40792,0.1877 -0.71668,0.25941 -0.61657,0.14331 -1.89382,0.9697 -1.49874,0.9697 0.0495,0 0.1427,-0.0635 0.20699,-0.14103 z m -2.5806,-0.37164 c -0.14333,-0.11282 -0.31824,-0.20512 -0.38858,-0.20512 -0.083,0 -0.0627,0.072 0.0577,0.20512 0.10204,0.11283 0.27693,0.20513 0.38857,0.20513 0.18314,0 0.17734,-0.0207 -0.0577,-0.20513 z m 2.84938,-1.3484 c 0.47131,-0.5217 0.45162,-0.58928 -0.0548,-0.18812 -0.46519,0.36846 -0.61373,0.59634 -0.61282,0.94029 7.8e-4,0.22207 0.0104,0.21821 0.15556,-0.0598 0.0852,-0.16344 0.31565,-0.475 0.51203,-0.69238 z m -1.79611,0.69785 c 0,-0.0186 -0.1037,-0.1232 -0.2307,-0.23071 l -0.23067,-0.19537 0.19537,0.2307 c 0.18357,0.21678 0.26607,0.27736 0.26607,0.19538 z m 0.48371,-0.86036 c -0.0236,-0.15596 -0.0436,-0.0527 -0.0442,0.22927 -7.9e-4,0.28198 0.0187,0.40949 0.0428,0.28337 0.0243,-0.1261 0.0249,-0.35679 0.002,-0.51264 z m -1.82968,23.27295 c -0.12756,-0.1626 -0.12381,-0.16634 0.0388,-0.0388 0.0987,0.0773 0.17941,0.15804 0.17941,0.17941 0,0.0844 -0.0842,0.03 -0.21814,-0.14063 z m -1.17756,-0.99014 c -0.97549,-0.91023 -1.49369,-1.69457 -1.67735,-2.53874 -0.0531,-0.24428 -0.12818,-0.57707 -0.16676,-0.73951 -0.0539,-0.22697 -0.0371,-0.28434 0.0723,-0.24786 0.0933,0.0311 0.15099,0.23637 0.16717,0.59562 0.0429,0.95014 0.50262,1.74942 1.63581,2.84406 0.53998,0.52161 0.96171,0.9484 0.93717,0.9484 -0.0245,0 -0.46032,-0.3879 -0.96839,-0.86197 z m 5.01347,-7.90192 c -0.20554,-0.0894 -0.3545,-0.24234 -0.39561,-0.40611 -0.0363,-0.14456 -0.0956,-0.26278 -0.1317,-0.26278 -0.12818,0 -0.0637,-0.99643 0.0755,-1.16408 0.12507,-0.15079 0.10452,-0.18315 -0.17941,-0.28212 -0.1765,-0.0614 -0.32076,-0.16862 -0.32076,-0.23825 0,-0.0695 -0.11531,-0.18812 -0.25634,-0.26362 -0.26768,-0.14331 -0.34135,-0.3076 -0.13792,-0.3076 0.0685,0 0.0428,-0.0834 -0.0609,-0.19829 -0.22884,-0.25284 -0.14519,-0.68341 0.20658,-1.06273 0.34609,-0.37324 0.55616,-0.36017 0.55616,0.0346 0,0.17154 0.0923,0.49258 0.20513,0.71363 0.11282,0.22108 0.20964,0.53068 0.21527,0.688 l 0.0104,0.28606 0.0745,-0.25634 c 0.0411,-0.14104 0.0359,-0.39473 -0.0104,-0.56391 -0.16717,-0.59988 0.29075,-1.13123 0.62637,-0.72688 0.0659,0.0796 0.14582,0.30392 0.17754,0.4986 0.0484,0.29834 0.007,0.40847 -0.26788,0.70122 -0.21776,0.23249 -0.28926,0.27326 -0.21618,0.12341 0.06,-0.1232 0.10287,-0.4 0.0954,-0.61519 l -0.0145,-0.39122 -0.0657,0.46137 c -0.0363,0.25377 -0.0987,0.51384 -0.13897,0.57795 -0.0927,0.14789 0.18439,0.38514 0.36763,0.31482 0.0759,-0.0293 0.13793,0.008 0.13793,0.0814 0,0.0738 -0.0614,0.11055 -0.13668,0.0816 -0.0752,-0.0288 -0.13668,-0.007 -0.13668,0.05 0,0.13212 0.47702,0.25228 0.70923,0.17858 0.10639,-0.0338 0.25525,0.0273 0.36639,0.15015 0.15492,0.17112 0.16717,0.25116 0.0707,0.46287 -0.12652,0.2778 -0.40622,0.32996 -0.75847,0.14144 -0.18293,-0.0979 -0.2043,-0.0894 -0.14705,0.0595 0.0367,0.0959 0.0668,0.23601 0.0668,0.31164 0,0.0757 0.11324,0.27228 0.25189,0.43693 0.19082,0.22663 0.22309,0.32819 0.13337,0.418 -0.15763,0.15763 -0.56518,0.14373 -0.97117,-0.0328 z m 0.41644,-0.5787 c -0.18211,-0.52837 -0.4138,-0.98117 -0.54313,-1.06109 -0.0543,-0.0336 -0.0319,0.0672 0.0498,0.22419 0.0819,0.15701 0.14913,0.38291 0.14955,0.50219 3.9e-4,0.17982 0.34929,0.75717 0.45745,0.75717 0.0166,0 -0.0336,-0.18999 -0.11366,-0.42246 z m 0.34683,-1.07491 c -0.0341,-0.0341 -0.12258,-0.0378 -0.19663,-0.008 -0.0819,0.0328 -0.0575,0.0571 0.0621,0.0621 0.10805,0.005 0.16862,-0.0207 0.13461,-0.0539 z m -1.454,-1.79057 c -0.22051,-0.47374 -0.2594,-0.51402 -0.26024,-0.26965 -9e-4,0.31196 0.44158,1.17984 0.48992,0.96056 0.0166,-0.0736 -0.0871,-0.38459 -0.22968,-0.69091 z"
         id="path1129" />
      <path
         style="fill:#000000;stroke-width:0.102529"
         d="m 154.83539,196.45903 c 0.6762,0.10039 1.79081,0.61157 2.73557,1.25472 l 0.71772,0.48858 -0.61199,-0.62629 -0.61195,-0.62632 0.35564,3.7e-4 c 0.47307,4.1e-4 0.95626,0.30955 1.27606,0.81615 0.14373,0.22759 0.27576,0.41381 0.29349,0.41381 0.0186,0 0.0124,-0.13689 -0.0124,-0.30432 -0.0683,-0.46437 0.43418,-0.92605 1.00761,-0.92605 0.38424,0 0.41584,0.0186 0.2935,0.1651 -0.23651,0.28498 -0.16821,1.16619 0.13938,1.7945 0.31267,0.63905 1.13709,1.52225 1.75945,1.88486 1.46335,0.85259 3.24298,1.02515 5.49284,0.53262 0.7049,-0.15432 1.55848,-0.36431 1.89682,-0.46669 l 0.61518,-0.18605 -0.7177,0.005 c -0.39476,0.002 -1.09924,-0.0348 -1.56559,-0.0831 -0.75959,-0.0786 -0.92188,-0.0626 -1.55895,0.15431 -0.39114,0.13315 -0.74467,0.20857 -0.78563,0.16759 -0.11469,-0.1147 0.57598,-0.77345 1.01355,-0.9665 0.24386,-0.10765 0.37074,-0.22357 0.33799,-0.30892 -0.0842,-0.21917 0.21618,-0.26417 0.57346,-0.0859 0.18128,0.0905 0.40648,0.13999 0.50046,0.11013 0.0939,-0.0298 0.29481,0.0434 0.44632,0.16239 0.17588,0.13835 0.33917,0.18999 0.45185,0.14291 0.14706,-0.0614 0.13088,-0.0868 -0.0962,-0.15223 -0.34554,-0.0996 -0.90907,-0.48971 -2.13689,-1.47953 -2.07786,-1.6751 -3.73957,-2.01908 -4.91078,-1.01655 -0.53534,0.45822 -0.729,0.82896 -0.7261,1.39003 0.002,0.46635 0.19497,0.79557 0.58054,0.99276 0.26816,0.1371 1.0222,0.15244 1.10261,0.0222 0.0314,-0.0509 -0.10723,-0.0923 -0.30779,-0.0923 -0.9157,0 -1.24936,-1.19887 -0.44884,-1.61284 0.42871,-0.22168 0.59161,-0.18874 0.97826,0.19787 0.26233,0.26231 0.34862,0.43655 0.34862,0.70388 0,1.00883 -1.34302,1.44802 -2.06488,0.67524 -0.60372,-0.64626 -0.44457,-1.60173 0.38904,-2.3355 1.31592,-1.15834 3.27497,-0.93053 4.95969,0.57669 0.36496,0.32651 0.60167,0.51494 0.52603,0.41872 -0.0757,-0.0962 -0.16282,-0.45348 -0.19372,-0.79394 -0.0466,-0.51489 -0.0295,-0.61901 0.10287,-0.61901 0.24506,0 0.70695,0.60468 0.63505,0.83127 -0.0442,0.13938 -0.0207,0.17713 0.0859,0.13627 0.15369,-0.0589 0.2725,0.21915 0.2751,0.64404 7.7e-4,0.15784 0.0478,0.20974 0.15224,0.16966 0.10723,-0.0411 0.22396,0.10765 0.40449,0.51586 0.13959,0.31556 0.28095,0.57374 0.31422,0.57374 0.0334,0 0.007,-0.10266 -0.0616,-0.22829 -0.23214,-0.43377 -0.28843,-0.92223 -0.14559,-1.26392 0.19372,-0.46374 0.52667,-0.66093 1.11575,-0.66093 0.4463,0 0.54598,0.0442 0.89994,0.39806 0.29407,0.29404 0.39806,0.48251 0.39806,0.72131 0,0.4037 -0.26895,0.82871 -0.52443,0.82871 -0.25046,0 -0.2458,-0.21316 0.0124,-0.54063 0.26716,-0.33963 0.25864,-0.5135 -0.0423,-0.86346 -0.21183,-0.24623 -0.32383,-0.28767 -0.77787,-0.28767 -0.45401,0 -0.56604,0.0415 -0.77784,0.28767 -0.29599,0.34413 -0.31437,0.71861 -0.0587,1.19544 0.26042,0.48558 0.83326,0.75952 1.69001,0.80812 0.84449,0.0479 1.73295,-0.15119 3.29895,-0.73963 l 1.12783,-0.42377 -0.68229,-0.0587 c -0.38224,-0.033 -0.80129,-0.13667 -0.95297,-0.23604 -0.80877,-0.52992 -0.40133,-1.76381 0.65197,-1.97447 0.85859,-0.17173 1.60098,0.83127 1.03455,1.39771 -0.38089,0.38087 -1.1513,0.16862 -0.9827,-0.27077 0.0581,-0.15141 0.0798,-0.15328 0.19082,-0.0166 0.19516,0.24179 0.44066,0.28492 0.67747,0.11905 0.28714,-0.20118 0.27423,-0.50232 -0.0348,-0.81136 -0.57795,-0.57793 -1.70287,-0.12507 -1.72609,0.6948 -0.0207,0.71724 0.66899,1.07936 1.82262,0.95746 1.31175,-0.13855 3.8544,-1.27866 4.23157,-1.89733 0.22138,-0.3631 -0.10556,-0.25773 -0.69516,0.22411 -0.67964,0.55535 -1.02213,0.77073 -1.27942,0.80455 -0.31487,0.0415 -1.48052,-0.12216 -1.53841,-0.21574 -0.0282,-0.0457 0.0964,-0.2075 0.27714,-0.3595 0.26753,-0.22515 0.40011,-0.26682 0.71458,-0.22463 0.25912,0.0348 0.37877,0.0124 0.36386,-0.0661 -0.022,-0.11699 0.3896,-0.14789 0.79572,-0.0595 0.1259,0.0273 0.20368,-0.0104 0.20513,-0.0994 9e-4,-0.0791 0.0946,-0.1794 0.20741,-0.22349 0.28989,-0.11304 1.05307,-0.11284 1.12308,3.8e-4 0.0321,0.0523 -0.12632,0.30845 -0.35228,0.56953 -0.47484,0.54863 -0.49717,0.62424 -0.53641,1.81383 -0.0257,0.77732 -0.0605,0.92216 -0.27788,1.15345 -0.4498,0.47869 -0.62454,0.31265 -0.6207,-0.58972 9.1e-4,-0.29937 0.0905,-0.73062 0.20513,-0.99129 0.13523,-0.30756 0.15057,-0.39362 0.0459,-0.25809 -0.2108,0.27303 -0.45829,1.13126 -0.45829,1.58906 0,0.20408 -0.0554,0.42636 -0.123,0.49403 -0.21369,0.2137 -0.57759,0.14312 -0.72639,-0.14083 -0.12299,-0.23456 -0.15306,-0.24595 -0.27213,-0.10245 -0.19871,0.23943 -0.50768,0.19559 -0.63802,-0.0905 -0.16695,-0.36649 0.0423,-0.78787 0.61609,-1.24076 0.55877,-0.44104 0.37427,-0.41403 -0.78016,0.11428 -0.77496,0.35463 -1.65609,1.09831 -2.38568,2.01356 -0.21112,0.26486 -0.41954,0.44942 -0.46316,0.41014 -0.0436,-0.0393 -0.0507,-0.0209 -0.0145,0.0407 0.035,0.0618 -0.0266,0.35058 -0.13731,0.64193 -0.24684,0.64962 -0.26323,1.64196 -0.0379,2.30289 0.2106,0.6181 0.9005,1.38116 1.59531,1.76455 0.4904,0.27059 0.64053,0.3019 1.41989,0.29624 0.89314,-0.007 1.45053,-0.0614 1.37642,-0.13565 -0.0621,-0.0623 0.17049,-0.31701 0.28917,-0.31701 0.0564,0 0.0407,0.0807 -0.035,0.1794 -0.0757,0.0987 -0.0124,0.0676 0.14124,-0.0691 0.29004,-0.25852 0.39465,-0.43655 0.12507,-0.21284 -0.18107,0.15037 -0.19724,0.0678 -0.0434,-0.21976 0.0609,-0.11387 0.17402,-0.18189 0.25278,-0.15161 0.16654,0.0638 0.35309,-0.5005 0.35398,-1.0714 9e-4,-0.70557 -0.43346,-1.6178 -0.83957,-1.76242 -0.0736,-0.0264 -0.0996,-0.0844 -0.0577,-0.12942 0.1203,-0.12901 0.45966,0.23941 0.74167,0.80536 0.14228,0.28541 0.25862,0.46147 0.25862,0.39118 0,-0.23444 -0.32613,-0.77978 -0.69919,-1.16915 -0.88602,-0.92474 -2.77164,-1.07269 -3.44669,-0.27045 -1.07863,1.28189 1.22556,3.66484 2.50371,2.58937 0.24253,-0.20409 0.35066,-0.24166 0.43964,-0.15266 0.22311,0.22311 -0.25854,0.55385 -0.88176,0.60555 -0.73223,0.0607 -1.19649,-0.10371 -1.69185,-0.59904 -0.52866,-0.52861 -0.78019,-1.0591 -0.78364,-1.65271 -0.005,-0.85909 0.7707,-1.43187 1.93167,-1.42637 0.72337,0.005 1.15818,0.11345 1.65053,0.41779 0.36139,0.22333 0.91818,0.80294 1.00211,1.04318 0.0348,0.1 0.10226,0.0726 0.24346,-0.0989 0.13088,-0.15887 0.25432,-0.21425 0.37461,-0.1682 0.27982,0.10743 0.31149,0.47422 0.091,1.05445 l -0.20222,0.53216 0.30607,-0.25754 c 0.16841,-0.14166 0.36147,-0.25756 0.4292,-0.25756 0.19454,0 0.57885,0.30503 0.57885,0.45934 0,0.22994 -0.49124,0.74271 -0.79431,0.82909 l -0.28224,0.0805 0.35068,0.0588 c 0.19289,0.0323 0.36716,0.10868 0.38725,0.16966 0.0614,0.18584 -0.37399,0.65141 -0.8231,0.88054 -0.39997,0.20408 -0.41116,0.22154 -0.19309,0.30224 0.12734,0.0471 0.26105,0.16262 0.29717,0.25674 0.11137,0.29012 -0.25148,0.44862 -1.03821,0.45353 l -0.72375,0.005 0.37787,0.19953 c 0.4532,0.23938 0.56916,0.39829 0.37864,0.51896 -0.21514,0.13627 -1.01453,0.10142 -1.4742,-0.0641 -0.22557,-0.0814 -0.41628,-0.1485 -0.4238,-0.14934 -0.008,-5.3e-4 -0.0365,0.0861 -0.0648,0.1931 -0.0539,0.20596 0.24449,0.31796 0.84751,0.31796 0.27139,0 0.56954,0.21625 0.45545,0.33036 -0.0302,0.0302 0.11842,0.0878 0.33057,0.12755 0.43008,0.0807 0.90804,0.30319 1.01177,0.47099 0.0373,0.0605 -0.0166,0.17277 -0.12175,0.24945 -0.18459,0.13544 -0.18439,0.1483 0.002,0.46522 0.25335,0.43101 0.4722,1.27394 0.47373,1.82437 0.002,0.68952 -0.27242,0.52135 -0.88089,-0.54004 -0.56982,-0.99392 -1.05926,-1.46331 -2.10953,-2.0231 -0.33331,-0.17775 -0.82118,-0.51158 -1.08413,-0.74205 l -0.47807,-0.41904 0.34797,0.51265 c 0.43193,0.63635 1.20412,1.59802 1.27915,1.59297 0.0307,-0.002 0.0444,0.0166 0.0302,0.0436 -0.0145,0.0259 0.2045,0.28106 0.48586,0.56667 0.28132,0.2856 0.51202,0.57575 0.51264,0.64474 7.9e-4,0.0691 0.0473,0.1402 0.10371,0.15824 0.0564,0.0187 0.18832,0.11035 0.29325,0.20513 0.27177,0.24526 0.8667,1.02095 0.65319,0.85166 -0.10557,-0.0836 -0.17755,-0.0964 -0.17755,-0.0317 0,0.12008 0.19808,0.27089 0.35885,0.27336 0.0564,5.3e-4 0.28502,0.36093 0.50804,0.80016 0.32315,0.63632 0.41387,0.93837 0.44653,1.48668 0.0226,0.37843 0.0823,0.73192 0.13274,0.7855 0.15493,0.16447 0.10205,0.36398 -0.0969,0.36398 -0.18292,0 -0.18292,0.0255 -0.002,0.84587 0.2104,0.95609 0.23059,1.29097 0.0913,1.51147 -0.077,0.12174 -0.12259,0.12693 -0.22398,0.0255 -0.0701,-0.0701 -0.16427,-0.12735 -0.20934,-0.12735 -0.16262,0 -0.0755,0.2628 0.27599,0.83232 0.44714,0.72389 0.49003,1.0108 0.17527,1.17209 l -0.23564,0.12072 0.26124,0.31047 c 0.32147,0.38202 0.3508,1.09946 0.0703,1.71629 -0.35843,0.78797 -0.42475,0.76252 -1.01906,-0.39092 -0.61442,-1.19247 -0.76389,-1.85508 -0.58101,-2.57539 0.15411,-0.6071 0.0598,-0.4978 -0.304,0.35178 -0.6917,1.61585 -1.42659,3.1685 -1.48315,3.13355 -0.0338,-0.0209 -0.0693,0.0614 -0.0788,0.18293 -0.0104,0.12155 -0.16593,0.63617 -0.34769,1.1437 -0.69424,1.93885 -0.35242,3.19149 0.96842,3.54903 0.65667,0.17774 0.74023,0.2131 0.6154,0.26036 -0.0626,0.0238 -0.37139,-0.0531 -0.68591,-0.1707 -1.2796,-0.47874 -1.6548,-1.55759 -1.13898,-3.27496 0.0752,-0.25114 0.11864,-0.47517 0.0958,-0.49786 -0.0226,-0.0228 -0.1456,0.29812 -0.2731,0.71292 -0.30852,1.00359 -0.32459,2.15201 -0.0369,2.64012 0.32274,0.54767 0.89073,0.94945 1.42777,1.00998 0.30306,0.0343 0.46905,0.10267 0.46905,0.19331 0,0.16322 -0.16385,0.18749 -0.25634,0.0379 -0.0348,-0.0564 -0.13833,-0.10246 -0.22999,-0.10246 -0.3505,0 -1.08217,-0.45408 -1.36844,-0.84923 -0.34071,-0.47036 -0.41245,-0.4038 -0.0796,0.0738 0.46817,0.67206 1.42681,1.17464 2.25478,1.18211 1.16085,0.0104 2.39421,-1.01986 2.60581,-2.17674 0.0388,-0.21217 0.0375,-0.64962 -0.002,-0.97209 -0.0725,-0.58154 -0.0745,-0.58407 -0.21862,-0.3089 -0.18439,0.35173 -0.43912,0.48768 -0.91401,0.48768 -0.29075,0 -0.4548,-0.0791 -0.72446,-0.34859 -0.30667,-0.30667 -0.3486,-0.41247 -0.3486,-0.87939 0,-0.44998 0.0457,-0.57646 0.2997,-0.8305 0.33235,-0.33235 0.56913,-0.36783 1.06691,-0.15992 1.05073,0.43902 1.56554,2.49838 0.95326,3.81327 -0.98301,2.11104 -4.27191,2.11104 -5.25493,0 -0.28784,-0.61815 -0.32836,-1.69015 -0.0934,-2.47098 0.24414,-0.81128 0.10267,-0.6376 -0.22898,0.28107 -0.44842,1.24215 -0.57695,1.95022 -0.57321,3.15825 0.002,0.87414 0.0507,1.21149 0.25511,1.79427 0.27718,0.79009 0.42261,0.87742 0.77784,0.46721 0.17983,-0.20757 0.22778,-0.22606 0.23068,-0.0888 0.002,0.0954 0.0494,0.2016 0.10494,0.23603 0.0559,0.0346 0.0766,-0.002 0.0459,-0.0821 -0.0305,-0.0796 0.0543,-0.27811 0.18874,-0.4411 0.13439,-0.16302 0.28014,-0.38857 0.32391,-0.50136 0.0776,-0.20016 0.0821,-0.19953 0.18562,0.0226 l 0.10599,0.22774 0.30112,-0.25337 c 0.35183,-0.29604 0.58264,-0.31557 1.0338,-0.0875 0.6316,0.31933 0.96881,0.63729 1.01584,0.95781 0.0484,0.32922 0.0262,0.34331 -0.49794,0.31514 -0.30676,-0.0166 -1.28927,0.40003 -1.41197,0.59857 -0.0317,0.0512 0.0987,0.12258 0.28994,0.15846 0.4962,0.0931 0.8817,0.42655 0.87774,0.75932 -0.007,0.43601 -0.22103,0.63339 -0.6927,0.63339 -0.33533,0 -0.46364,-0.0577 -0.65514,-0.29401 -0.13087,-0.16179 -0.3758,-0.38086 -0.5441,-0.48703 l -0.30593,-0.1931 0.35418,0.46137 c 0.19475,0.25379 0.48671,0.60643 0.64867,0.78365 0.24953,0.27308 0.27683,0.35523 0.17879,0.5383 -0.0637,0.11884 -0.20346,0.21601 -0.31102,0.21601 -0.10743,0 -0.22048,0.0407 -0.25117,0.0902 -0.0307,0.0495 -0.28657,0.16572 -0.56869,0.258 -0.42127,0.13771 -0.55,0.14456 -0.72041,0.0381 -0.30215,-0.18875 -0.31455,-0.33447 -0.11925,-1.40242 0.13896,-0.76013 0.21922,-0.98346 0.37846,-1.05303 0.16633,-0.0726 0.15679,-0.0791 -0.0543,-0.0363 -0.14103,0.0286 -0.28426,0.0527 -0.3184,0.0533 -0.0343,7.7e-4 -0.088,0.34206 -0.11928,0.75844 -0.0745,0.98461 -0.27254,1.359 -0.8554,1.61684 -0.39978,0.17692 -0.49719,0.18563 -0.76171,0.0685 -0.57147,-0.25295 -0.31184,-0.96361 0.52365,-1.43317 0.24524,-0.13794 0.50719,-0.406 0.65513,-0.67072 0.28284,-0.50607 0.20306,-0.58794 -0.1317,-0.13523 -0.26965,0.36475 -0.60425,0.54655 -1.31143,0.71269 -0.36013,0.0846 -0.63047,0.23217 -0.86089,0.46989 l -0.33588,0.34656 -0.19,-0.24161 c -0.22868,-0.29073 -0.23602,-0.48526 -0.0428,-1.12801 0.19351,-0.6429 0.5131,-0.97806 0.93275,-0.97806 0.30112,0 0.32256,-0.022 0.2732,-0.28195 -0.0442,-0.23228 -0.028,-0.26173 0.091,-0.16717 0.0796,0.063 0.32915,0.14809 0.55459,0.18874 0.22543,0.0407 0.4486,0.12755 0.49592,0.19268 0.0514,0.0709 0.0645,0.0212 0.0325,-0.1234 -0.0492,-0.22244 -0.0282,-0.23711 0.25824,-0.17983 0.2685,0.0537 0.30138,0.0375 0.23661,-0.11656 -0.38346,-0.91303 -0.48864,-1.31416 -0.53554,-2.04233 l -0.054,-0.83798 -0.24738,0.49642 c -0.13605,0.27304 -0.39557,0.60945 -0.57671,0.74762 -0.31656,0.24147 -2.17046,1.30344 -2.27539,1.30344 -0.028,0 -0.051,-0.19932 -0.051,-0.443 0,-0.28018 0.10371,-0.64721 0.28195,-0.99873 0.2317,-0.45666 0.35509,-0.58197 0.69209,-0.703 0.5215,-0.18728 0.49711,-0.15908 0.34651,-0.40021 -0.18065,-0.28925 0.0124,-0.49531 0.79414,-0.85105 0.64957,-0.29533 0.94635,-0.62 0.52572,-0.57515 -0.14539,0.0145 -0.23608,-0.0416 -0.26161,-0.16468 -0.0266,-0.12776 0.21685,-0.44129 0.75603,-0.97404 0.58309,-0.57615 0.91028,-1.00825 1.22702,-1.62037 0.23751,-0.4591 0.5695,-1.03582 0.73773,-1.28162 0.47896,-0.69988 2.12826,-3.84715 2.47877,-4.73023 0.3418,-0.86103 0.40426,-1.1301 0.14809,-0.63818 -1.18669,2.27956 -1.79038,2.88825 -3.64307,3.67318 -1.30893,0.55459 -1.23081,0.45363 0.17236,-0.22277 1.23492,-0.59529 1.81393,-1.00633 2.21921,-1.57548 l 0.21755,-0.30553 -0.50108,0.35558 c -0.65423,0.46428 -1.16667,0.621 -1.84622,0.56465 -0.62175,-0.0514 -0.9943,-0.31524 -1.2313,-0.87145 -0.31114,-0.73018 -0.046,-1.62287 0.5802,-1.95424 0.34399,-0.18189 1.17754,-0.1 1.51053,0.14871 0.67205,0.50178 0.92923,1.31773 0.55933,1.77457 -0.18066,0.22302 -0.23328,0.2374 -0.47167,0.12879 -0.30062,-0.13688 -0.34513,-0.34546 -0.1145,-0.53678 0.27239,-0.22606 0.18646,-0.70557 -0.19475,-1.08685 -0.47287,-0.47286 -1.0617,-0.49199 -1.50482,-0.049 -0.78338,0.78336 -0.0186,2.3645 1.14497,2.3657 0.52175,3.9e-4 1.53393,-0.53756 2.03625,-1.08254 0.23435,-0.25423 0.6082,-0.8388 0.83077,-1.29909 0.59793,-1.2364 0.49181,-1.28226 -0.13067,-0.0564 -0.29441,0.57986 -0.54894,1.07426 -0.56564,1.09869 -0.0166,0.0245 -0.0838,-0.008 -0.14892,-0.0743 -0.0898,-0.09 -0.0514,-0.18107 0.15846,-0.37553 0.28218,-0.26152 0.98762,-1.6138 0.99046,-1.8987 9.1e-4,-0.10577 0.0259,-0.11821 0.077,-0.0386 0.0414,0.065 0.088,-0.32719 0.10329,-0.87151 0.0145,-0.54433 0.05,-1.12807 0.0767,-1.29727 0.0392,-0.2475 0.03,-0.26755 -0.0464,-0.10246 -0.0523,0.11283 -0.0983,0.41935 -0.10226,0.68126 -0.0104,0.65062 -0.33648,1.65759 -0.77246,2.38142 -0.19931,0.33109 -0.36256,0.6656 -0.36256,0.74338 0,0.0778 -0.0693,0.14145 -0.1539,0.14145 -0.19683,0 -0.19704,-0.14394 -7.7e-4,-0.30707 0.50684,-0.42065 1.17976,-2.14815 1.17976,-3.02867 0,-0.31564 0.0481,-0.66376 0.10682,-0.77358 0.0749,-0.14 0.0735,-0.25295 -0.005,-0.37777 -0.0973,-0.15493 -0.10392,-0.14912 -0.0514,0.044 0.0332,0.12217 0.0124,0.25174 -0.0464,0.28801 -0.0595,0.0369 -0.10661,-0.0207 -0.10661,-0.1288 0,-0.41794 -0.66275,-1.47241 -1.8507,-2.94453 -0.68258,-0.84589 -1.46947,-1.90707 -1.74862,-2.35821 -0.27917,-0.45114 -0.59932,-0.93558 -0.71145,-1.07657 -0.1958,-0.2462 -0.19539,-0.2361 0.0124,0.25633 0.47644,1.13146 0.61719,2.44556 0.36579,3.41477 l -0.13938,0.53735 0.23832,-0.15618 c 0.33687,-0.22072 0.6673,-0.20762 0.58607,0.0232 -0.0514,0.14643 -0.0378,0.15597 0.0749,0.0512 0.0759,-0.0705 0.27037,-0.12817 0.43195,-0.12817 0.16157,0 0.38309,-0.0477 0.49216,-0.10619 0.22423,-0.12009 0.24532,-0.0707 0.0923,0.21539 -0.0967,0.18064 -0.0698,0.19828 0.30358,0.19828 0.60858,0 0.89075,0.37029 1.07129,1.40584 0.0379,0.2174 0.007,0.38034 -0.0929,0.47969 -0.0828,0.0828 -0.15038,0.19994 -0.15038,0.26027 0,0.18854 -0.15534,0.12155 -0.46322,-0.19973 -0.19994,-0.20861 -0.53198,-0.37944 -1.01885,-0.52402 -0.59161,-0.17567 -0.80348,-0.30058 -1.17086,-0.69017 l -0.44855,-0.47565 0.29012,0.54691 c 0.20118,0.37921 0.40548,0.60578 0.66633,0.73886 0.5081,0.25921 0.93363,0.77972 0.89449,1.09414 -0.0166,0.13709 -0.14829,0.32007 -0.29147,0.40645 -0.23976,0.14456 -0.29815,0.13939 -0.73701,-0.0671 -0.63676,-0.29933 -0.8024,-0.58412 -0.87156,-1.49862 -0.0315,-0.41767 -0.0969,-0.75939 -0.1452,-0.75939 -0.11635,0 -0.11096,0.1879 0.0343,1.1912 0.0987,0.68341 0.0964,0.87367 -0.0124,1.005 -0.15846,0.19102 -0.49967,0.20797 -0.89913,0.045 -0.98656,-0.40267 -1.15827,-0.50699 -1.15827,-0.70372 0,-0.11241 0.0419,-0.2045 0.0929,-0.2045 0.0786,0 0.67955,-0.75235 0.96816,-1.21229 0.17774,-0.28317 -0.33263,0.0819 -0.62273,0.44552 -0.36748,0.46055 -0.8197,0.48929 -1.2025,0.0764 -0.41545,-0.44801 -0.2041,-0.80678 0.68417,-1.16091 l 0.40004,-0.1595 -0.54601,-0.27623 c -0.36179,-0.18314 -0.70813,-0.27626 -1.02665,-0.27626 h -0.48067 l 0.0417,-0.3292 c 0.044,-0.34759 0.2658,-0.57233 0.89291,-0.90463 0.52204,-0.27662 0.91479,-0.25822 1.21064,0.0566 l 0.24263,0.25827 0.1257,-0.28391 c 0.0793,-0.17879 0.1288,-0.22041 0.13419,-0.11241 0.005,0.0944 0.12362,0.30865 0.26466,0.47619 0.14104,0.16759 0.25795,0.41332 0.25995,0.54614 l 0.005,0.24154 0.12858,-0.23169 c 0.1006,-0.18128 0.15576,-0.2047 0.25269,-0.10764 0.0683,0.0683 0.12403,0.2274 0.12403,0.35379 0,0.38525 0.18107,0.36857 0.31229,-0.0286 0.2123,-0.64323 0.0723,-2.20472 -0.2834,-3.16534 -0.16737,-0.45175 -0.37245,-0.95145 -0.45569,-1.11033 -0.14602,-0.2788 -0.14975,-0.26748 -0.10703,0.32356 0.0562,0.77756 -0.10371,1.26035 -0.54675,1.64928 -0.43319,0.38036 -0.96716,0.49102 -1.57933,0.32727 -1.12614,-0.30117 -1.82525,-1.42482 -1.54173,-2.47784 0.23829,-0.88487 0.98529,-1.25465 1.74302,-0.86282 0.37771,0.19538 0.51059,0.44265 0.51059,0.95033 0,0.56857 -0.50472,0.96997 -0.87718,0.69761 -0.22683,-0.16593 -0.10993,-0.36736 0.21319,-0.36736 0.44048,0 0.62909,-0.73702 0.27144,-1.06069 -0.30074,-0.2722 -0.80829,-0.21495 -1.15327,0.13006 -0.25695,0.2569 -0.29971,0.37834 -0.29971,0.85096 0,1.96682 2.81128,2.55523 3.03857,0.63598 0.0852,-0.71991 -0.18562,-1.68546 -0.68132,-2.42764 -0.39255,-0.58787 -0.71677,-1.42847 -0.71677,-1.85844 0,-0.1485 -0.0817,-0.0784 -0.29098,0.24931 -0.59677,0.93483 -1.36667,1.4783 -2.97903,2.10291 -0.74785,0.28969 -0.75364,0.29477 -0.43209,0.37809 0.17921,0.0464 0.29821,0.12922 0.26435,0.18417 -0.0338,0.0548 0.0796,0.17983 0.25204,0.27808 0.32014,0.1821 0.40885,0.33227 0.19642,0.33227 -0.068,0 -0.0409,0.0857 0.0635,0.20098 0.22272,0.24611 0.15638,0.58553 -0.196,1.00445 -0.31755,0.37737 -0.56921,0.39153 -0.56921,0.032 0,-0.14642 -0.0923,-0.43857 -0.20514,-0.64898 -0.11283,-0.21041 -0.20829,-0.55576 -0.21226,-0.76745 -0.007,-0.30518 -0.0249,-0.34241 -0.0932,-0.17982 -0.0473,0.11283 -0.0616,0.46014 -0.0319,0.77189 0.0598,0.62664 -0.0987,0.88808 -0.4671,0.77112 -0.39072,-0.12403 -0.42459,-0.78288 -0.0672,-1.3087 0.30022,-0.44182 0.30983,-0.49065 0.0965,-0.49065 -0.088,0 -0.13337,0.043 -0.1008,0.0955 0.0323,0.0524 0.005,0.12879 -0.0609,0.16966 -0.0749,0.0464 -0.0925,0.0296 -0.0469,-0.0442 0.0402,-0.0652 0.0257,-0.11844 -0.0321,-0.11844 -0.1763,0 3.8e-4,-0.30707 0.18106,-0.3148 0.30065,-0.0124 -0.20834,-0.18273 -0.57128,-0.19061 -0.37089,-0.008 -0.59468,-0.2945 -0.48939,-0.62625 0.0703,-0.22149 0.44675,-0.27046 0.76595,-0.0996 0.1763,0.0944 0.18252,0.0745 0.0861,-0.28196 -0.0571,-0.21095 -0.20203,-0.48977 -0.32204,-0.61963 -0.18645,-0.2018 -0.1962,-0.2508 -0.0671,-0.33743 0.21449,-0.14374 0.89967,-0.0407 1.13311,0.1707 0.10849,0.0981 0.19704,0.28514 0.19704,0.41561 0,0.16198 0.0459,0.21964 0.14477,0.18168 0.11656,-0.0445 0.12881,0.0145 0.063,0.3062 -0.0514,0.22857 -0.0427,0.37466 0.0238,0.39686 0.0701,0.0235 0.0664,0.10826 -0.0124,0.25361 -0.11469,0.21426 -0.10453,0.21345 0.52361,-0.0416 1.44047,-0.58503 2.20875,-1.09939 2.73339,-1.82992 l 0.34559,-0.48126 -0.31979,0.0703 c -0.78399,0.17216 -0.98888,-0.28645 -0.3244,-0.72618 0.22555,-0.14933 0.4101,-0.28348 0.4101,-0.29825 0,-0.0145 -0.17297,0.0124 -0.38448,0.0624 -0.54859,0.12736 -0.61668,0.11822 -0.84823,-0.11325 -0.28326,-0.28325 -0.12797,-0.54966 0.43693,-0.74958 0.4223,-0.14955 0.4263,-0.15494 0.11968,-0.16282 -0.33804,-0.008 -0.72182,-0.33248 -0.60943,-0.51429 0.0855,-0.13813 0.0892,-0.13854 -0.52799,0.0448 -0.28482,0.0846 -1.08909,0.27409 -1.78723,0.42108 -1.72682,0.36362 -2.88968,0.35949 -4.1402,-0.0145 -1.78069,-0.53278 -2.02376,-0.58078 -2.58558,-0.51059 -0.32051,0.04 -0.54158,0.028 -0.54158,-0.0295 0,-0.0535 -0.20921,-0.0222 -0.46493,0.0695 -0.35338,0.12673 -0.48318,0.1373 -0.54097,0.044 -0.0502,-0.0809 -0.12756,-0.0902 -0.22717,-0.0272 -0.0832,0.0527 -0.32722,0.0962 -0.54248,0.0971 -0.33246,9.1e-4 -0.38247,-0.0266 -0.33207,-0.18543 0.0421,-0.13295 -0.0521,-0.27678 -0.32632,-0.49792 -0.21211,-0.17111 -0.4924,-0.50217 -0.62291,-0.73582 -0.2196,-0.39324 -0.22331,-0.42484 -0.0498,-0.42484 0.10308,0 0.42736,0.16158 0.72068,0.35918 0.57667,0.38837 1.09924,0.526 2.25766,0.59467 l 0.74311,0.0439 -0.99945,-0.68494 c -0.5497,-0.37673 -1.36854,-0.93972 -1.81967,-1.25108 -2.23429,-1.54208 -3.91911,-2.0601 -4.96496,-1.52655 -0.9473,0.48327 -1.48763,1.37877 -1.48716,2.46468 7.6e-4,1.45755 1.11021,2.55585 2.58732,2.56099 l 0.64653,0.002 -0.28534,-0.24545 c -0.77291,-0.66483 0.0622,-1.96388 1.1333,-1.76294 1.08436,0.20346 1.26871,1.24081 0.34545,1.94412 -0.89014,0.67803 -2.68429,0.59486 -3.67725,-0.1705 -0.59533,-0.45889 -0.94875,-1.18075 -0.9971,-2.03667 -0.1147,-2.03006 1.43437,-3.4398 3.45098,-3.14063 z m 23.2798,1.49035 c -0.12756,0.16262 -0.12382,0.16635 0.0388,0.0388 0.0987,-0.0773 0.17941,-0.15804 0.17941,-0.17941 0,-0.0844 -0.0842,-0.03 -0.21813,0.14083 z m -1.02754,0.61695 c -0.28187,0.44516 -0.17962,0.42081 0.17277,-0.0411 0.15639,-0.20491 0.22864,-0.35413 0.16073,-0.33147 -0.068,0.0226 -0.21798,0.19039 -0.3334,0.37264 z m -9.36913,0.32668 c 0.0331,0.0537 0.20896,0.19579 0.39053,0.31567 l 0.3301,0.21794 -0.35495,-0.31569 c -0.36591,-0.32538 -0.4707,-0.38783 -0.36568,-0.21792 z m 4.9465,2.03953 c -0.56086,0.73546 -0.79778,1.35236 -0.84412,2.19788 l -0.0407,0.74008 0.0987,-0.70253 c 0.0543,-0.38643 0.19019,-0.89395 0.30181,-1.12785 0.1174,-0.24599 0.18004,-0.31721 0.1483,-0.16904 -0.0469,0.21847 -0.0381,0.22971 0.058,0.0762 0.0621,-0.0992 0.0834,-0.22804 0.0473,-0.28648 -0.0886,-0.14331 0.18231,-0.53968 0.86749,-1.26954 0.50186,-0.53454 0.52081,-0.56871 0.15618,-0.28137 -0.22832,0.17983 -0.58522,0.55009 -0.79311,0.82269 z m -0.40209,-0.79736 c -0.68262,0.12631 -2.1285,0.70813 -1.76391,0.70973 0.40965,0.002 1.77037,-0.39789 2.26323,-0.66478 0.2727,-0.14768 0.41715,-0.2451 0.32094,-0.21647 -0.0962,0.0286 -0.4653,0.10577 -0.82026,0.17152 z m -0.21871,3.22267 c -0.005,0.52729 0.0552,0.85113 0.22133,1.22057 0.12424,0.27659 0.20617,0.52276 0.18189,0.54706 -0.0624,0.0624 -0.27861,-0.36149 -0.43069,-0.84485 -0.0709,-0.22558 -0.13172,-0.31785 -0.13482,-0.20513 -0.008,0.31435 0.43723,1.18098 0.85566,1.66182 1.12612,1.29408 3.45573,1.55266 4.63786,0.51477 0.35873,-0.31497 0.65226,-0.77599 0.64817,-1.01803 -9e-4,-0.0732 -0.0869,0.0531 -0.19041,0.2811 -0.72287,1.59144 -3.27655,1.72147 -4.87484,0.24821 -0.25797,-0.2378 -0.46905,-0.47893 -0.46905,-0.53586 0,-0.0568 0.22414,0.10619 0.49809,0.36241 0.45178,0.42259 1.21629,0.90193 1.42027,0.8905 0.0445,-0.002 -0.1035,-0.10039 -0.32913,-0.21765 -0.68508,-0.35604 -1.2205,-0.85367 -1.54092,-1.43222 -0.28192,-0.50896 -0.30462,-0.62793 -0.30462,-1.5948 0,-0.71473 -0.0291,-0.97387 -0.0919,-0.82024 -0.0507,0.12361 -0.0939,0.54754 -0.0967,0.94228 z m 6.00974,1.40797 c 0.0228,0.18439 0.0419,0.0583 0.0425,-0.28013 3.9e-4,-0.33836 -0.0186,-0.48913 -0.0414,-0.33506 -0.0235,0.15411 -0.0238,0.43091 -9e-4,0.61519 z m -11.21521,0.0623 c 0.0909,0.27282 0.24707,0.60732 0.34739,0.74335 0.15847,0.21489 0.16863,0.21796 0.077,0.0235 -0.0581,-0.1232 -0.10558,-0.30772 -0.10578,-0.41012 -3.2e-4,-0.17091 -0.35623,-0.85262 -0.44508,-0.85262 -0.0212,0 0.0359,0.22323 0.12672,0.49606 z m -0.37116,1.00132 c 0.0341,0.0341 0.12258,0.0378 0.19663,0.008 0.0817,-0.0328 0.0574,-0.0571 -0.0621,-0.0621 -0.10806,-0.005 -0.16863,0.0207 -0.13462,0.0539 z m 9.37939,0.82621 c 0.0705,0.0284 0.18582,0.0284 0.25633,0 0.0705,-0.0284 0.0124,-0.0516 -0.12819,-0.0516 -0.14103,0 -0.19869,0.0233 -0.12817,0.0516 z m -0.92278,0 c 0.0705,0.0284 0.18585,0.0284 0.25633,0 0.0705,-0.0284 0.0124,-0.0516 -0.12818,-0.0516 -0.14104,0 -0.1987,0.0233 -0.12817,0.0516 z m -8.07267,0.63552 c 7.7e-4,0.0925 0.0462,0.23727 0.10101,0.32187 0.0732,0.11324 0.0998,0.0444 0.101,-0.26146 7.7e-4,-0.22838 0.0362,-0.46005 0.0784,-0.5148 0.0423,-0.0548 -0.005,-0.0124 -0.10246,0.0934 -0.0987,0.1062 -0.17878,0.2686 -0.17795,0.36102 z m 7.2268,-0.12589 c 0.506,0.4489 0.80882,0.60637 1.31685,0.68481 0.33154,0.0512 0.25021,-0.0124 -0.51265,-0.40142 -0.4987,-0.25426 -0.95056,-0.50581 -1.00414,-0.55903 -0.0535,-0.0533 -0.12278,-0.0948 -0.15389,-0.0925 -0.0312,0.002 0.12818,0.168 0.35374,0.36812 z m -6.19316,0.43379 c 0.16303,0.3231 0.25138,0.41836 0.276,0.29728 0.0427,-0.2099 -0.41578,-1.07274 -0.47525,-0.89439 -0.0222,0.0668 0.0674,0.33559 0.19933,0.59711 z m 2.9122,3.29501 c -0.0348,0.0564 0.0166,0.10246 0.11387,0.10246 0.0975,0 0.4116,0.1317 0.69811,0.29252 0.28652,0.16096 0.70549,0.32396 0.93107,0.36237 0.22556,0.0384 0.54277,0.0962 0.7049,0.12859 0.17942,0.0357 0.27057,0.0186 0.23297,-0.0412 -0.0341,-0.055 -0.23588,-0.12963 -0.44859,-0.16573 -0.21272,-0.0361 -0.63838,-0.22678 -0.94592,-0.42358 -0.55259,-0.35366 -1.15206,-0.47264 -1.28637,-0.25532 z m 5.58788,0.13586 c 0,0.0186 0.12694,0.14517 0.28196,0.28194 l 0.28197,0.24858 -0.24855,-0.28197 c -0.23235,-0.26354 -0.31538,-0.32897 -0.31538,-0.24855 z m 1.02531,1.19696 c 0.30358,0.38329 0.41012,0.47743 0.41012,0.36242 0,-0.0674 -0.62593,-0.77255 -0.68568,-0.77255 -0.0271,0 0.0969,0.18459 0.27556,0.41013 z m -4.38102,-0.14311 c 0.0341,0.0341 0.12257,0.0378 0.19662,0.008 0.0817,-0.0328 0.0574,-0.0571 -0.0621,-0.0621 -0.10805,-0.005 -0.16861,0.0207 -0.1346,0.0539 z m 1.20259,0.0834 c 0,0.11553 1.28274,0.87997 1.47668,0.87997 0.12258,0 0.39421,0.0873 0.6035,0.19392 0.43037,0.21942 0.48252,0.15929 0.16094,-0.18604 -0.26653,-0.28608 -0.80029,-0.52049 -1.18693,-0.52121 -0.1568,-3.2e-4 -0.42366,-0.0892 -0.59283,-0.19746 -0.30394,-0.19475 -0.46138,-0.25244 -0.46138,-0.16925 z m -2.7142,0.47631 c -0.18128,0.17795 -0.18397,0.19849 -0.0257,0.19849 0.0971,0 0.26311,-0.0865 0.36881,-0.19227 0.10579,-0.10578 0.2557,-0.22136 0.33322,-0.25695 0.0775,-0.0357 0.002,-0.0384 -0.16653,-0.007 -0.16926,0.032 -0.39859,0.14767 -0.50979,0.25694 z m 2.55131,0.64753 c 0.0569,0.30313 0.29729,0.59587 0.8037,0.97856 0.31854,0.24069 0.19082,-0.0471 -0.22761,-0.51295 -0.22387,-0.24923 -0.43842,-0.59157 -0.47677,-0.76076 -0.0917,-0.40399 -0.18087,-0.13896 -0.0994,0.29515 z m 4.01991,-0.0848 c -0.0357,0.0929 -0.0186,0.13254 0.0423,0.0952 0.18087,-0.11179 0.71007,1.19606 0.81251,2.00825 l 0.096,0.76202 -0.0323,-0.74784 c -0.0268,-0.61591 -0.0991,-0.88272 -0.41022,-1.51231 -0.2078,-0.42047 -0.39342,-0.76448 -0.41253,-0.76448 -0.0186,0 -0.0623,0.0716 -0.0959,0.15908 z m -5.44625,0.35353 c -0.10203,0.11282 -0.1626,0.20512 -0.1344,0.20512 0.0282,0 0.13482,-0.0923 0.23685,-0.20512 0.10204,-0.11283 0.1626,-0.20512 0.1344,-0.20512 -0.0282,0 -0.13483,0.0923 -0.23685,0.20512 z m 0.79793,0.58815 c 0.0236,0.15576 0.0436,0.0527 0.0442,-0.22929 7.6e-4,-0.28195 -0.0187,-0.40949 -0.0428,-0.28339 -0.0243,0.12611 -0.0249,0.3568 -0.002,0.51268 z m 4.83767,4.41387 c 0.0531,0.0556 0.46376,-1.05523 0.52263,-1.41346 0.0323,-0.19746 -0.0782,0.0334 -0.24584,0.51265 -0.16759,0.47934 -0.2922,0.8847 -0.27679,0.90081 z m -3.60376,8.55117 c 0.0328,0.0816 0.0571,0.0574 0.0621,-0.0621 0.005,-0.10807 -0.0207,-0.16863 -0.0539,-0.13461 -0.0341,0.034 -0.0378,0.12257 -0.009,0.19641 z m 0.10247,0.51267 c 0.0328,0.0817 0.0571,0.0575 0.0621,-0.0621 0.005,-0.10806 -0.0207,-0.16862 -0.0539,-0.1346 -0.0341,0.0341 -0.0378,0.12258 -0.008,0.19661 z m 1.63831,3.76422 c -0.22581,0.16364 -0.63645,0.36796 -0.91252,0.45418 l -0.50196,0.1568 0.56392,-0.055 c 0.32605,-0.0317 0.86665,-0.19787 1.28163,-0.39366 0.39474,-0.18625 0.78691,-0.36236 0.8715,-0.39119 0.0846,-0.0288 -0.0815,-0.0559 -0.36911,-0.0606 -0.42203,-0.007 -0.60209,0.0492 -0.93346,0.28931 z m -2.3779,1.07396 c -0.10619,0.12776 -0.50703,0.26069 -1.25871,0.4171 -0.301,0.0626 -0.90505,0.52575 -0.90505,0.69393 0,0.0628 0.0633,0.0535 0.15534,-0.023 0.0854,-0.0709 0.40794,-0.18771 0.71668,-0.25941 0.61659,-0.14331 1.89383,-0.96971 1.49876,-0.96971 -0.0495,0 -0.1427,0.0635 -0.207,0.14103 z m 2.58062,0.37164 c 0.14332,0.11282 0.31823,0.20512 0.38858,0.20512 0.083,0 0.0627,-0.072 -0.0577,-0.20512 -0.10204,-0.11283 -0.27693,-0.20514 -0.38858,-0.20514 -0.18314,0 -0.17733,0.0207 0.0577,0.20514 z m -2.84938,1.3484 c -0.47132,0.52169 -0.45163,0.58928 0.0548,0.18812 0.46519,-0.36846 0.61372,-0.59635 0.6128,-0.94029 -7.6e-4,-0.22207 -0.0104,-0.21821 -0.15555,0.0598 -0.0852,0.16343 -0.31565,0.475 -0.51203,0.69238 z m 1.7961,-0.69785 c 0,0.0186 0.10371,0.1232 0.23069,0.2307 l 0.23069,0.19538 -0.19538,-0.2307 c -0.18356,-0.21678 -0.26607,-0.27737 -0.26607,-0.19538 z m -0.4837,0.86036 c 0.0236,0.15596 0.0436,0.0527 0.0442,-0.22927 7.9e-4,-0.28198 -0.0186,-0.40949 -0.0427,-0.28337 -0.0243,0.1261 -0.0249,0.35678 -0.002,0.51264 z m 1.82967,-23.27296 c 0.12756,0.1626 0.12382,0.16634 -0.0388,0.0388 -0.0987,-0.0773 -0.17942,-0.15804 -0.17942,-0.17941 0,-0.0844 0.0842,-0.03 0.21814,0.14063 z m 1.17756,0.99015 c 0.97548,0.91023 1.4937,1.69457 1.67736,2.53874 0.0531,0.24428 0.12817,0.57707 0.16676,0.73951 0.0539,0.22697 0.0371,0.28433 -0.0723,0.24785 -0.0934,-0.0311 -0.151,-0.23636 -0.16717,-0.59561 -0.0429,-0.95015 -0.50262,-1.74943 -1.63581,-2.84406 -0.53999,-0.52162 -0.96171,-0.9484 -0.93718,-0.9484 0.0245,0 0.46032,0.3879 0.9684,0.86197 z m -5.01346,7.90192 c 0.20553,0.0894 0.3545,0.24234 0.39561,0.40611 0.0363,0.14456 0.0956,0.26278 0.1317,0.26278 0.12818,0 0.0637,0.99642 -0.0755,1.16408 -0.12507,0.15079 -0.10454,0.18314 0.17941,0.28212 0.1765,0.0614 0.32075,0.16862 0.32075,0.23824 0,0.0695 0.11532,0.18813 0.25634,0.26363 0.26768,0.14331 0.34135,0.3076 0.13793,0.3076 -0.0685,0 -0.0427,0.0834 0.0609,0.19828 0.22883,0.25285 0.14519,0.68342 -0.20658,1.06274 -0.3461,0.37324 -0.55616,0.36017 -0.55616,-0.0346 0,-0.17153 -0.0923,-0.49258 -0.20513,-0.71363 -0.11284,-0.22107 -0.20965,-0.53067 -0.21527,-0.688 l -0.0104,-0.28605 -0.0745,0.25634 c -0.0411,0.14104 -0.0359,0.39473 0.0104,0.5639 0.16716,0.59989 -0.29075,1.13124 -0.62638,0.72688 -0.0659,-0.0796 -0.14582,-0.30392 -0.17754,-0.49859 -0.0484,-0.29835 -0.007,-0.40847 0.26788,-0.70122 0.21776,-0.23249 0.28925,-0.27327 0.21619,-0.12341 -0.06,0.12319 -0.10287,0.4 -0.0954,0.61519 l 0.0145,0.39122 0.0657,-0.46138 c 0.0364,-0.25377 0.0987,-0.51384 0.13897,-0.57794 0.0927,-0.14789 -0.18439,-0.38515 -0.36764,-0.31483 -0.0759,0.0293 -0.13793,-0.008 -0.13793,-0.0814 0,-0.0738 0.0614,-0.11055 0.13669,-0.0816 0.0752,0.0288 0.13668,0.007 0.13668,-0.05 0,-0.13212 -0.47702,-0.25227 -0.70923,-0.17857 -0.1064,0.0338 -0.25526,-0.0273 -0.36639,-0.15016 -0.15494,-0.17112 -0.16717,-0.25116 -0.0707,-0.46286 0.12652,-0.2778 0.40622,-0.32996 0.75847,-0.14145 0.18293,0.0979 0.2043,0.0894 0.14705,-0.0595 -0.0367,-0.0958 -0.0668,-0.23601 -0.0668,-0.31164 0,-0.0757 -0.11325,-0.27228 -0.25189,-0.43693 -0.19083,-0.22664 -0.22309,-0.3282 -0.13338,-0.418 0.15763,-0.15763 0.56518,-0.14373 0.97118,0.0328 z m -0.41644,0.5787 c 0.1821,0.52836 0.4138,0.98117 0.54311,1.06108 0.0543,0.0336 0.0319,-0.0672 -0.0498,-0.22418 -0.0819,-0.15701 -0.14912,-0.38292 -0.14954,-0.5022 -4e-4,-0.17982 -0.3493,-0.75716 -0.45747,-0.75716 -0.0166,0 0.0336,0.18999 0.11367,0.42246 z m -0.34683,1.07491 c 0.0341,0.0341 0.12258,0.0378 0.19663,0.008 0.0819,-0.0328 0.0574,-0.0571 -0.0621,-0.0621 -0.10805,-0.005 -0.16863,0.0207 -0.13461,0.0539 z m 1.45399,1.79056 c 0.22051,0.47375 0.25941,0.51403 0.26024,0.26966 9.1e-4,-0.31197 -0.44158,-1.17985 -0.48992,-0.96056 -0.0166,0.0736 0.0871,0.38459 0.22968,0.6909 z"
         id="path1034" />
    </g>
  </g>
</svg>
