<?xml version="1.0" encoding="UTF-8" standalone="no"?>
<!-- Created with Inkscape (http://www.inkscape.org/) -->

<svg
   width="140.00002mm"
   height="90.000031mm"
   viewBox="0 0 140.00002 90.000031"
   version="1.1"
   id="svg1"
   sodipodi:docname="Rose.svg"
   inkscape:version="1.4 (86a8ad7, 2024-10-11)"
   xmlns:inkscape="http://www.inkscape.org/namespaces/inkscape"
   xmlns:sodipodi="http://sodipodi.sourceforge.net/DTD/sodipodi-0.dtd"
   xmlns="http://www.w3.org/2000/svg"
   xmlns:svg="http://www.w3.org/2000/svg">
  <sodipodi:namedview
     id="namedview1"
     pagecolor="#ffffff"
     bordercolor="#000000"
     borderopacity="0.25"
     inkscape:showpageshadow="2"
     inkscape:pageopacity="0.0"
     inkscape:pagecheckerboard="0"
     inkscape:deskcolor="#d1d1d1"
     inkscape:document-units="mm"
     inkscape:zoom="0.93806818"
     inkscape:cx="132.71956"
     inkscape:cy="-221.19927"
     inkscape:window-width="2400"
     inkscape:window-height="1271"
     inkscape:window-x="3191"
     inkscape:window-y="-9"
     inkscape:window-maximized="1"
     inkscape:current-layer="layer1" />
  <defs
     id="defs1" />
  <g
     inkscape:label="Layer 1"
     inkscape:groupmode="layer"
     id="layer1"
     transform="translate(-69.99999,-206.99997)">
    <g
       id="g15"
       transform="translate(-387.81974,-498.31925)">
      <path
         id="path933-6"
         d="m 574.12899,792.04103 c 0,-0.0157 0.16108,-0.18394 0.3578,-0.3739 0.23434,-0.22626 0.39671,-0.43591 0.4706,-0.60771 l 0.11284,-0.26233 0.17677,0.17679 c 0.5162,0.51619 0.18793,0.99688 -0.72816,1.06618 -0.21441,0.0157 -0.38986,0.0174 -0.38986,6.4e-4 z m 1.65812,-0.75994 c -0.0886,-0.21393 -0.60375,-0.69047 -0.91919,-0.8503 -0.14574,-0.074 -0.56393,-0.22456 -0.92916,-0.33482 -0.79145,-0.23892 -1.01591,-0.34702 -1.29018,-0.62127 -0.42389,-0.42392 -0.58002,-0.86659 -0.71902,-2.03913 -0.1184,-0.99851 -0.34767,-1.74527 -0.63652,-2.07329 -0.10831,-0.12311 -0.0702,-0.14696 0.28193,-0.17625 0.42633,-0.0355 0.71515,0.11788 0.89333,0.47427 0.11021,0.22062 0.13354,0.35384 0.15722,0.90148 0.025,0.58044 0.0353,0.63351 0.10552,0.5488 0.0557,-0.0672 0.0827,-0.25399 0.0954,-0.6607 l 0.0175,-0.56692 0.15044,0.14417 c 0.25614,0.24543 0.36869,0.63301 0.40417,1.39177 l 0.0314,0.67127 0.10325,-0.15358 c 0.0832,-0.12379 0.10849,-0.26892 0.12937,-0.74895 l 0.0262,-0.5954 0.11979,0.25887 c 0.17029,0.36838 0.26692,0.82096 0.26781,1.25554 7.9e-4,0.71699 0.19886,0.33357 0.21322,-0.41419 0.006,-0.24917 0.0234,-0.45302 0.0417,-0.45302 0.018,0 0.33525,0.51079 0.70488,1.13509 0.49327,0.83312 0.6837,1.11434 0.71584,1.05712 0.14435,-0.25701 -0.33785,-1.25211 -0.9489,-1.95813 -0.22501,-0.25996 -0.24969,-0.3422 -0.13198,-0.43986 0.0723,-0.0601 0.32498,-0.0267 1.01122,0.13267 l 0.12939,0.0301 -0.12939,-0.10811 c -0.15164,-0.12659 -0.48839,-0.29457 -1.05235,-0.52485 -0.2758,-0.11266 -0.38826,-0.18234 -0.35226,-0.21834 0.0664,-0.0665 0.48432,-0.0775 0.75671,-0.0203 l 0.20638,0.0435 -0.10274,-0.11545 c -0.16732,-0.18793 -0.67666,-0.40103 -1.05346,-0.44076 -0.65794,-0.0694 -0.73877,-0.18903 -0.17525,-0.25943 0.15009,-0.0189 0.28446,-0.0528 0.29855,-0.0755 0.0497,-0.0805 -0.48839,-0.21048 -1.06323,-0.25719 -0.31988,-0.0262 -0.5936,-0.0594 -0.60826,-0.0739 -0.0139,-0.014 0.0406,-0.0533 0.12293,-0.0859 0.77432,-0.30634 1.454,-0.26469 2.17834,0.13354 1.28202,0.70467 1.94929,1.78597 1.94929,3.1588 0,0.55681 -0.058,0.90173 -0.26141,1.55325 -0.15599,0.4997 -0.58492,1.52739 -0.63754,1.52739 -0.0207,0 -0.0661,-0.0685 -0.10082,-0.15218 z m 1.49259,-5.9003 c -0.46523,-0.4095 -0.65799,-1.10332 -0.4894,-1.76141 0.0468,-0.18268 0.18091,-0.54379 0.29802,-0.80242 0.19273,-0.42574 0.21251,-0.50808 0.20869,-0.86921 -0.006,-0.48054 0.068,-0.60319 0.38384,-0.64558 0.1857,-0.0249 0.22478,-0.0105 0.32308,0.11388 0.0826,0.10481 0.11177,0.21382 0.11177,0.41491 0,0.23393 -0.0509,0.37493 -0.35855,0.98971 -0.5926,1.18484 -0.68357,1.99395 -0.28945,2.57468 0.16471,0.24283 0.0984,0.23771 -0.18801,-0.014 z m -10.19471,-0.55199 c -0.0999,-0.12031 -0.003,-0.33468 0.2044,-0.45631 0.17098,-0.0999 0.18605,-0.10011 0.60327,-0.0139 0.23534,0.0489 0.62225,0.10255 0.85984,0.11909 0.74934,0.0523 2.25937,-0.1661 2.75251,-0.39792 0.53529,-0.2516 0.90653,-0.72543 0.96149,-1.22713 0.0353,-0.32213 0.14382,-0.44679 0.2861,-0.32867 0.11511,0.0956 0.10535,0.48931 -0.0216,0.8579 -0.1668,0.48469 -0.15618,0.51179 0.18487,0.47657 0.51028,-0.0528 1.52264,-0.61797 2.1379,-1.19382 0.0958,-0.0897 0.3336,-0.3526 0.52856,-0.58442 0.41822,-0.49732 0.66496,-0.64175 1.08703,-0.63626 0.52633,0.008 0.52706,0.0301 0.0157,0.50949 -1.4634,1.37109 -3.39318,2.39567 -5.18422,2.75242 -0.44783,0.0891 -0.85766,0.11911 -2.10909,0.15376 -2.24022,0.0622 -2.22899,0.0624 -2.30656,-0.0311 z m 12.86877,-0.17451 c -0.27908,-0.0675 -0.54709,-0.22215 -0.67446,-0.38913 -0.26139,-0.34269 -0.33661,-0.59489 -0.51816,-1.73728 -0.0476,-0.29899 -0.13058,-0.66014 -0.18466,-0.80251 -0.0541,-0.14243 -0.0982,-0.27667 -0.0982,-0.29842 -3e-5,-0.0218 0.0872,-0.003 0.19413,0.0414 0.49662,0.20714 0.82359,0.78239 1.02534,1.80394 0.14382,0.72822 0.29297,1.08415 0.54229,1.29393 l 0.16176,0.13615 -0.14626,-0.006 c -0.0805,-0.003 -0.21626,-0.0223 -0.30168,-0.0427 z m -10.39585,-0.82041 c -0.0423,-0.35801 -0.22518,-0.69108 -0.62891,-1.14605 -0.39408,-0.44411 -0.55614,-0.74904 -0.70163,-1.32024 -0.2005,-0.78722 -0.0761,-1.30314 0.23223,-0.96251 0.0923,0.10186 0.23213,0.14069 0.2339,0.0647 4.9e-4,-0.0212 0.0343,-0.19657 0.0752,-0.38935 0.18859,-0.88995 0.76643,-1.48601 1.6684,-1.72093 0.40247,-0.10483 0.44466,-0.10117 0.40153,0.0348 -0.0195,0.0616 -0.0338,0.26543 -0.0319,0.45302 0.003,0.35984 0.082,0.62441 0.39088,1.32477 0.41725,0.94641 0.34674,1.82152 -0.21319,2.64607 -0.19368,0.28521 -0.82901,0.93107 -0.8728,0.88726 -0.0301,-0.0301 0.17116,-0.52916 0.38741,-0.96047 0.34404,-0.68617 0.33384,-0.92888 -0.0228,-0.54066 -0.22419,0.2441 -0.22937,0.1689 -0.0301,-0.43931 0.16419,-0.50112 0.23912,-0.8939 0.17064,-0.8939 -0.0702,0 -0.18816,0.16229 -0.29154,0.40127 -0.0525,0.12101 -0.1163,0.22005 -0.14208,0.22005 -0.0777,0 -0.23892,-0.4214 -0.27735,-0.72487 -0.0556,-0.43925 -0.10622,-0.47487 -0.17859,-0.12589 -0.0376,0.1808 -0.0535,0.50411 -0.0386,0.78603 0.0139,0.26343 0.0139,0.47894 -4.7e-4,0.47894 -0.014,0 -0.10395,-0.0484 -0.19998,-0.10778 -0.28258,-0.17467 -0.29371,-0.096 -0.0399,0.28243 0.34956,0.52105 0.48599,0.84321 0.48527,1.14567 -6e-4,0.24904 -0.11057,0.56405 -0.26935,0.77126 -0.0694,0.0905 -0.0775,0.0783 -0.10639,-0.16419 z m 13.03639,-0.62875 c -0.0853,-0.0208 -0.3092,-0.0996 -0.4973,-0.17505 -0.20186,-0.0808 -0.53764,-0.15915 -0.8195,-0.19115 -1.11681,-0.12659 -1.53469,-0.44489 -2.40639,-1.83337 -0.34186,-0.54451 -0.80632,-1.44769 -1.13793,-2.21279 -0.13128,-0.30303 -0.23876,-0.5621 -0.23876,-0.57575 0,-0.014 0.15792,0.13042 0.35101,0.31999 0.41228,0.405 0.96054,0.77809 1.93315,1.31548 0.7876,0.4352 1.04478,0.52458 1.3589,0.47229 0.38217,-0.0637 0.61711,-0.22336 1.14671,-0.77971 0.45956,-0.48274 0.54234,-0.54768 0.73034,-0.5729 0.27748,-0.0373 0.42001,0.0448 0.54088,0.31096 0.0879,0.19364 0.098,0.35199 0.0986,1.53617 5.6e-4,1.37685 -0.035,1.67774 -0.23957,2.02701 -0.1771,0.3024 -0.49042,0.4395 -0.8201,0.35882 z m -9.73379,-1.5927 c -0.23975,-0.054 -0.44011,-0.13095 -0.44011,-0.16925 0,-0.0227 0.11075,-0.0565 0.24594,-0.0751 0.22628,-0.0314 0.43261,-0.12833 1.2736,-0.59963 0.55868,-0.31304 0.94176,-0.32142 1.25349,-0.0275 0.22146,0.20888 0.2329,0.30551 0.0309,0.26113 -0.22724,-0.0498 -0.83386,0.0991 -1.2434,0.30527 -0.31352,0.15793 -0.89493,0.35436 -0.98889,0.33418 -0.0157,-0.003 -0.0745,-0.0157 -0.13146,-0.0293 z m 11.15486,-0.14923 c -0.0454,-0.0547 -0.0792,-0.36112 -0.1043,-0.94491 -0.0234,-0.55035 -0.067,-0.95786 -0.11945,-1.12278 -0.0452,-0.14243 -0.0706,-0.29647 -0.0561,-0.34242 0.0322,-0.10291 0.41475,-0.42804 0.81529,-0.6932 l 0.29969,-0.1984 0.17974,0.0857 c 0.26404,0.12587 0.62428,0.47797 0.74569,0.72876 0.17869,0.36916 0.14747,0.76497 -0.0993,1.25784 -0.28178,0.56302 -0.80121,1.16623 -1.07482,1.24823 -0.28399,0.0851 -0.50622,0.0781 -0.58656,-0.0189 z m -7.90731,-0.33169 c -0.52524,-0.18901 -0.74676,-0.38357 -0.99156,-0.8709 -0.22247,-0.44291 -0.49508,-0.64364 -1.38251,-1.018 -0.11754,-0.0497 -0.30181,-0.17527 -0.40936,-0.2793 -0.51717,-0.5002 -0.52178,-0.9137 -0.0174,-1.48349 0.12623,-0.14243 0.30686,-0.3586 0.40138,-0.4805 0.19864,-0.25614 0.39734,-0.3738 0.63135,-0.3738 h 0.16524 l -0.23665,-0.20834 c -0.33266,-0.29279 -0.38781,-0.48774 -0.25356,-0.89635 0.22187,-0.67531 0.19608,-0.87844 -0.18129,-1.42794 -0.22011,-0.32053 -0.23249,-0.35682 -0.20713,-0.6069 0.032,-0.31654 0.1487,-0.56206 0.30728,-0.64692 0.0633,-0.034 0.30392,-0.0788 0.53457,-0.0999 0.31318,-0.0286 0.48785,-0.0756 0.68998,-0.1858 0.14887,-0.0812 0.36733,-0.20001 0.4855,-0.26409 0.53379,-0.28944 1.39633,0.0327 1.67182,0.62438 0.18386,0.39491 0.16714,0.68456 -0.0767,1.33383 -0.11162,0.29697 -0.24186,0.72635 -0.28954,0.95416 -0.12224,0.58447 -0.1137,1.4774 0.0202,2.08524 0.12744,0.57904 0.67403,1.98202 1.08664,2.7895 0.16508,0.32318 0.29583,0.58759 0.29044,0.58759 -0.006,0 -0.21567,-0.11839 -0.46725,-0.26321 -0.2516,-0.1447 -0.6219,-0.3455 -0.82291,-0.44606 -0.201,-0.10064 -0.46306,-0.26209 -0.58234,-0.35897 -0.26729,-0.21702 -0.67279,-0.81435 -0.85716,-1.26262 -0.0759,-0.18456 -0.20981,-0.51293 -0.29755,-0.72969 -0.15566,-0.38451 -0.43173,-0.77268 -0.62209,-0.87456 -0.0621,-0.0332 -0.0239,0.0556 0.11109,0.25759 0.11318,0.16959 0.3112,0.59457 0.43994,0.94446 0.49068,1.33349 0.94449,1.87073 1.94589,2.30367 0.45142,0.19515 0.91981,0.48864 1.11402,0.69804 l 0.11579,0.12484 -0.34881,0.008 c -0.19182,0.003 -0.51921,0.0433 -0.72753,0.0879 -0.49815,0.10674 -0.90491,0.0999 -1.24059,-0.0209 z m 4.33756,-1.31599 c -1.57081,-0.65781 -2.61926,-1.49445 -2.9595,-2.36159 -0.16855,-0.42941 -0.15932,-1.11699 0.0236,-1.76037 0.0769,-0.27053 0.13981,-0.61525 0.13981,-0.76604 5e-5,-0.22204 0.0242,-0.29835 0.12712,-0.40126 0.0698,-0.07 0.15061,-0.1271 0.1792,-0.1271 0.13825,0 0.25762,0.26744 0.46645,1.04572 0.36122,1.34633 0.63382,2.01573 0.98845,2.42724 0.14173,0.16455 0.13564,0.14034 -0.0875,-0.34054 -0.29946,-0.64568 -0.48254,-1.15743 -0.44714,-1.24973 0.0504,-0.13094 0.39774,-0.0731 1.15548,0.19232 1.2209,0.42771 1.202,0.42338 1.69905,0.39067 0.24707,-0.0157 0.55697,-0.0439 0.68865,-0.0615 0.30363,-0.0406 0.51837,0.0635 0.63378,0.30663 0.17866,0.37649 0.0659,0.55433 -0.64638,1.01874 -1.1568,0.75428 -1.68094,0.82618 -2.40576,0.32994 -0.18269,-0.12501 -0.33217,-0.21284 -0.33217,-0.19504 0,0.0572 0.21915,0.40042 0.40025,0.62683 0.17184,0.21488 0.61989,0.56355 0.66551,0.51795 0.0122,-0.0122 -0.0256,-0.0848 -0.0851,-0.16053 -0.12257,-0.15601 -0.13895,-0.1454 0.36558,-0.23693 0.61312,-0.11126 1.5006,-0.60984 1.9285,-1.08346 0.25066,-0.27744 0.32688,-0.56348 0.25472,-0.95585 -0.0635,-0.34561 -0.0299,-0.46936 0.18029,-0.66409 0.32719,-0.30302 0.77177,-0.44753 1.01682,-0.33054 0.53911,0.25737 0.5809,1.12312 0.0909,1.88134 -0.32682,0.50563 -0.73434,0.80289 -1.32404,0.96576 -0.49452,0.13651 -0.67939,0.23391 -0.85178,0.44842 -0.33294,0.41431 -0.8124,0.53503 -1.31002,0.32982 -0.0834,-0.0345 -0.0862,-0.0248 -0.0288,0.10133 0.0523,0.11475 0.0504,0.14765 -0.0105,0.1866 -0.11073,0.0702 -0.19997,0.0571 -0.51481,-0.0747 z m 8.46287,-0.3294 c 0.0157,-0.35255 0.0294,-0.40315 0.11909,-0.41688 0.13338,-0.0203 0.42698,0.22848 0.42698,0.36194 0,0.13545 -0.32163,0.4562 -0.4576,0.4562 -0.0985,0 -0.10446,-0.0265 -0.0884,-0.40126 z m 0.44456,-0.44258 c -0.15235,-0.094 -0.29154,-0.11544 -0.93197,-0.14451 -0.9057,-0.0411 -1.13825,-0.11283 -1.53276,-0.47344 -0.23679,-0.21638 -0.34001,-0.37394 -0.61613,-0.94013 -0.19637,-0.40264 -0.41755,-0.77317 -0.54213,-0.90811 -0.1158,-0.12538 -0.19679,-0.24152 -0.18011,-0.25816 0.0174,-0.0174 0.16732,-0.0293 0.33462,-0.0284 0.40604,0.003 0.64387,0.16995 1.08478,0.76448 0.37768,0.50923 0.46275,0.48869 0.21031,-0.0507 -0.0883,-0.18845 -0.14992,-0.35307 -0.13721,-0.36584 0.0122,-0.0122 0.0963,0.0199 0.18552,0.0725 0.17606,0.10377 0.45789,0.49576 0.63687,0.88588 0.10238,0.22324 0.11404,0.23302 0.1292,0.10899 0.009,-0.0751 -0.0413,-0.27887 -0.11215,-0.45303 -0.0916,-0.22515 -0.10951,-0.31666 -0.0624,-0.31666 0.12606,0 0.41905,0.23792 0.65095,0.52867 0.12797,0.16036 0.24002,0.28437 0.24896,0.27544 0.0539,-0.0539 -0.1944,-0.46231 -0.46783,-0.77 l -0.31931,-0.35927 0.42455,0.0248 c 0.23353,0.014 0.42457,0.008 0.42457,-0.0157 0,-0.0217 -0.0744,-0.0926 -0.16524,-0.1574 -0.13371,-0.0952 -0.28441,-0.12902 -0.78959,-0.17715 l -0.62426,-0.0594 0.21954,-0.0982 c 0.12066,-0.054 0.21974,-0.11578 0.22005,-0.13703 7.8e-4,-0.0653 -0.67784,-0.0397 -1.03499,0.0388 -0.37814,0.0832 -1.06594,0.10238 -1.11009,0.0309 -0.0157,-0.0258 0.0975,-0.13058 0.25187,-0.23313 1.1974,-0.79479 2.6052,-0.71747 3.42277,0.18797 0.46811,0.51839 0.68044,1.21095 0.62997,2.05485 -0.0355,0.59573 -0.13249,1.09345 -0.21163,1.08756 -0.0317,-0.003 -0.13826,-0.054 -0.23677,-0.11475 z m -18.29591,-0.3675 c -0.0421,-0.3072 0.0426,-0.53282 0.23826,-0.63396 0.21556,-0.11143 0.7224,-0.28317 0.7511,-0.25446 0.0698,0.0698 -0.24501,0.53173 -0.54085,0.79371 -0.18413,0.16298 -0.35322,0.3031 -0.37577,0.31126 -0.0227,0.009 -0.0554,-0.0893 -0.0728,-0.21655 z m 10.17668,-2.02304 c -0.1217,-0.038 -0.27352,-0.10325 -0.33725,-0.14504 -0.23431,-0.15357 -0.87056,-0.34498 -1.41527,-0.42586 -0.3078,-0.0458 -0.56712,-0.0905 -0.57626,-0.0998 -0.0268,-0.0267 0.45791,-0.32514 0.73852,-0.4545 0.22955,-0.10586 0.34251,-0.11979 1.01113,-0.12501 0.8479,-0.008 0.96872,-0.0425 1.22585,-0.36297 0.19213,-0.23954 0.28521,-0.21251 0.39687,0.11526 0.10257,0.30118 0.10605,0.63181 0.0105,0.99149 -0.0399,0.14957 -0.0569,0.27177 -0.0384,0.27172 0.0723,-1.8e-4 0.31409,-0.45402 0.39901,-0.74873 0.10796,-0.37488 0.0806,-1.23614 -0.0491,-1.53935 -0.0449,-0.10517 -0.0688,-0.22501 -0.053,-0.26628 0.05,-0.13006 0.63322,-0.36015 0.83132,-0.328 0.53918,0.0875 0.94618,0.89062 0.79448,1.56767 -0.0963,0.42955 -0.203,0.57765 -0.76108,1.05618 -0.5609,0.48096 -0.6186,0.50583 -0.95618,0.41205 -0.15479,-0.043 -0.25025,-0.0332 -0.50316,0.0521 -0.35894,0.12084 -0.41643,0.12327 -0.718,0.0291 z m -4.04109,-0.9431 c -0.0923,-0.17186 -0.0728,-0.62165 0.0458,-1.05289 0.22094,-0.80413 0.72158,-1.62854 1.47196,-2.42399 0.52234,-0.5537 0.74891,-0.58978 1.37343,-0.21874 0.36314,0.21572 0.76078,0.60359 0.90527,0.88307 l 0.0886,0.17116 -0.28933,-0.0298 c -0.95387,-0.0986 -1.7823,0.3572 -2.18286,1.20063 -0.0822,0.17326 -0.17427,0.31513 -0.20436,0.31513 -0.0301,0 -0.0989,-0.082 -0.15305,-0.18244 -0.17168,-0.31872 -0.53505,-0.29243 -0.67771,0.0489 -0.0406,0.0973 -0.0963,0.37355 -0.12362,0.6138 -0.0273,0.24023 -0.082,0.51587 -0.12154,0.61248 -0.0701,0.17133 -0.0734,0.1729 -0.13267,0.0625 z m 7.60204,-0.10707 c 0,-0.1964 1.71218,-1.10927 2.64055,-1.40786 1.79604,-0.57767 3.90314,-0.59736 4.98573,-0.0465 0.48754,0.24801 0.78709,0.69025 0.75136,1.10919 l -0.0174,0.203 -0.0847,-0.18843 c -0.12484,-0.2772 -0.44219,-0.60467 -0.72488,-0.74793 -0.39963,-0.20248 -0.8401,-0.2826 -1.73792,-0.31608 -1.71635,-0.0639 -2.90704,0.20793 -4.56153,1.04168 -0.85961,0.43316 -1.25113,0.54365 -1.25113,0.35301 z m -6.07719,-0.25876 c -0.0674,-0.61041 0.15288,-1.25712 0.53548,-1.57273 0.30889,-0.25479 0.68253,-0.36469 1.36346,-0.401 l 0.61099,-0.0325 0.25118,-0.27182 c 0.26517,-0.28695 0.48808,-0.35764 0.62138,-0.19704 0.0935,0.11265 0.40146,1.25886 0.44339,1.65048 0.0202,0.18916 0.0202,0.43171 5e-5,0.53902 l -0.0367,0.19504 -0.0992,-0.19315 c -0.14609,-0.28409 -0.43859,-0.55316 -0.76647,-0.70505 -0.38287,-0.17733 -1.24736,-0.223 -1.65548,-0.0875 -0.45142,0.14992 -1.00195,0.75499 -1.12065,1.23161 -0.0563,0.2256 -0.1116,0.16698 -0.14714,-0.15531 z m 0.5372,0.11125 c 0,-0.0122 0.0706,-0.16349 0.15688,-0.33455 0.22155,-0.43888 0.38081,-0.52905 0.8751,-0.49545 0.2693,0.0183 0.43833,0.003 0.56293,-0.0482 0.38861,-0.16245 0.81257,-0.0533 0.81257,0.20902 0,0.1177 -0.0399,0.17435 -0.18122,0.25735 -0.1588,0.0934 -0.2681,0.10639 -0.88421,0.10639 -0.68832,0 -0.70971,0.003 -1.02257,0.16454 -0.17577,0.0906 -0.31957,0.15392 -0.31957,0.14086 z m 5.25735,-0.18893 c 0.0541,-0.25085 0.13756,-0.38569 0.52144,-0.84135 0.87718,-1.04125 1.63419,-2.4964 1.85509,-3.56594 0.0842,-0.40709 0.0729,-0.5751 -0.0644,-0.97983 -0.10778,-0.31743 -0.0654,-0.38716 0.32923,-0.53996 0.46143,-0.17873 0.64418,-0.14191 0.64418,0.1299 0,0.14521 -0.47894,1.55842 -0.75176,2.21812 -0.55295,1.33715 -1.34841,2.64441 -2.02028,3.32009 -0.46785,0.47054 -0.57029,0.52218 -0.51358,0.25888 z m 0.10012,-1.04268 c 0.0298,-0.13615 -0.014,-0.1969 -0.4867,-0.67743 -0.37336,-0.3794 -0.55814,-0.61233 -0.65693,-0.8281 -0.13094,-0.28587 -0.13582,-0.32664 -0.10238,-0.85398 0.0317,-0.50097 0.006,-0.79593 -0.10639,-1.16111 -0.0258,-0.0851 -0.0105,-0.0928 0.1184,-0.0605 0.0815,0.0203 0.34614,0.13355 0.58819,0.25157 0.91399,0.44563 1.60784,1.44644 1.479,2.13326 -0.0309,0.1642 -0.48387,0.89242 -0.75686,1.21657 l -0.109,0.12938 z m 0.19078,-0.47837 c 0.0661,-0.14938 0.11561,-0.398 0.13146,-0.66014 l 0.0255,-0.42052 -0.12327,0.14765 -0.12328,0.14766 -0.12049,-0.39252 c -0.12172,-0.39645 -0.37418,-0.8605 -0.46828,-0.8605 -0.0281,0 -0.006,0.10481 0.0507,0.23299 0.0559,0.12816 0.14835,0.33977 0.20527,0.4703 0.0568,0.13059 0.10343,0.33436 0.10326,0.45302 l -1.9e-4,0.21576 -0.18372,-0.20006 c -0.10099,-0.11004 -0.1981,-0.18565 -0.21568,-0.16802 -0.0175,0.0175 0.0174,0.0844 0.0764,0.14818 0.10778,0.11561 0.37488,0.60872 0.37544,0.69333 6e-4,0.0855 0.10847,0.43257 0.13442,0.43257 0.014,0 0.074,-0.10776 0.13233,-0.2396 z m 2.04419,-0.49188 c 0.0806,-0.42459 0.29462,-1.08511 0.46479,-1.4344 0.20561,-0.42206 0.72398,-1.01366 1.03119,-1.17687 l 0.18884,-0.1003 0.15027,0.17882 c 0.15965,0.19011 0.23335,0.44435 0.18426,0.63632 -0.0395,0.15461 -0.48644,0.66046 -0.58352,0.66046 -0.0628,0 -0.0698,-0.0566 -0.0397,-0.3236 0.0325,-0.28844 0.0278,-0.31638 -0.0435,-0.25724 -0.0441,0.0366 -0.13041,0.18792 -0.19183,0.33653 -0.0615,0.1487 -0.15148,0.36328 -0.19983,0.47703 l -0.0881,0.20681 -0.0258,-0.23271 c -0.0139,-0.12797 -0.0469,-0.22827 -0.0723,-0.22285 -0.0255,0.006 -0.13181,0.21684 -0.23612,0.46986 -0.20044,0.48588 -0.36734,0.78708 -0.49476,0.89284 -0.0665,0.0551 -0.0724,0.0399 -0.0439,-0.11074 z m 0.74344,-0.15166 c 0,-0.0784 0.3929,-0.37912 0.64739,-0.49565 0.30689,-0.14051 1.01611,-0.32783 1.24546,-0.32898 0.20276,-6.4e-4 0.36086,-0.11369 0.31764,-0.2263 -0.0231,-0.0605 -0.097,-0.0853 -0.25435,-0.086 -0.12188,-4e-4 -0.25394,-0.0212 -0.29337,-0.0461 -0.11666,-0.074 0.0952,-0.156 0.75783,-0.29334 0.56758,-0.1177 1.04835,-0.29339 1.04835,-0.3831 0,-0.0744 -0.27266,-0.0953 -0.613,-0.0471 -0.18393,0.0262 -0.3463,0.0356 -0.36079,0.021 -0.014,-0.014 0.15792,-0.10848 0.38312,-0.20873 0.6746,-0.30052 0.94701,-0.45445 1.11991,-0.63284 0.14539,-0.14992 0.15217,-0.16942 0.06,-0.16942 -0.17582,0 -0.63638,0.15427 -1.17974,0.39517 -0.62031,0.27506 -0.69426,0.27591 -0.54922,0.006 0.15566,-0.28918 0.1224,-0.34914 -0.0716,-0.12972 -0.0943,0.10673 -0.19305,0.19415 -0.21927,0.19415 -0.0681,0 -0.32968,-0.41737 -0.32968,-0.52608 0,-0.27779 0.50175,-0.43462 1.54477,-0.48282 0.73973,-0.0342 1.08188,-0.10639 1.25761,-0.26551 0.0492,-0.0444 0.13182,-0.0727 0.1838,-0.0629 0.19053,0.0363 0.28522,0.83394 0.1661,1.39948 -0.17822,0.84631 -0.98199,1.70156 -1.9314,2.05515 -0.25978,0.0969 -0.44119,0.11736 -1.19085,0.13581 -0.60774,0.0157 -1.01796,0.0521 -1.31151,0.11857 -0.23492,0.0533 -0.42714,0.0797 -0.42714,0.0588 z m -4.704,-2.02492 c -0.28317,-0.13006 -0.72361,-0.17794 -0.9405,-0.10237 -0.15357,0.0535 -0.16071,0.0511 -0.0954,-0.0314 0.22553,-0.28547 0.59225,-0.41316 0.92732,-0.32293 0.21238,0.0572 0.32393,0.18217 0.3806,0.42646 0.0385,0.16594 0.0265,0.16715 -0.272,0.0301 z m 6.31733,-0.1116 c -0.0358,-0.12136 -0.17469,-0.36246 -0.30855,-0.53571 -0.13389,-0.17326 -0.3416,-0.44123 -0.46164,-0.59554 -0.11997,-0.15428 -0.25433,-0.36688 -0.2984,-0.47238 l -0.0801,-0.19182 h 0.22566 c 0.26433,0 0.36179,0.0855 0.44281,0.38831 0.0305,0.11387 0.15913,0.34553 0.28592,0.51475 0.28445,0.37954 0.42118,0.85866 0.29967,1.04991 -0.0255,0.0401 -0.0639,-0.0175 -0.10534,-0.15758 z m -3.93906,-0.19575 c -0.10656,-0.44783 0.006,-0.70677 0.55793,-1.302 0.25158,-0.27055 0.33508,-0.29301 0.51929,-0.13964 0.12153,0.10133 0.12206,0.10464 0.0258,0.21105 -0.0536,0.0594 -0.24199,0.22307 -0.41837,0.36352 -0.38871,0.30949 -0.54935,0.55525 -0.58717,0.89824 l -0.0286,0.25887 z m -1.00813,-1.302 c 0.21215,-0.4151 0.55123,-0.8762 0.75048,-1.02055 0.27719,-0.20078 0.46193,-0.20173 0.6798,-0.003 l 0.16907,0.15373 -0.19582,7.9e-4 c -0.32289,0.003 -0.52551,0.12571 -0.974,0.59266 -0.23478,0.2444 -0.44682,0.44438 -0.47121,0.44438 -0.0244,0 -0.006,-0.0757 0.0417,-0.1682 z m 7.44194,-0.35029 c 0.1834,-0.46589 0.25727,-0.50068 0.41993,-0.19786 0.0875,0.16279 0.0914,0.20024 0.0293,0.27524 -0.0615,0.074 -0.52186,0.33762 -0.58974,0.33762 -0.0122,0 0.0508,-0.18675 0.14069,-0.415 z m -5.1177,0.069 c -0.15688,-0.0407 -0.32043,-0.21259 -0.49263,-0.51773 -0.18162,-0.3218 -0.44189,-0.52604 -0.87852,-0.6893 -0.39272,-0.14695 -0.57045,-0.34303 -0.57045,-0.62962 0,-0.1621 0.0345,-0.24163 0.1588,-0.36583 0.15827,-0.15827 0.16001,-0.15863 0.58667,-0.12589 0.69476,0.0535 1.23109,0.16645 1.6389,0.34543 0.4426,0.19427 0.90266,0.25105 1.27477,0.1574 0.67292,-0.16941 1.14446,-0.009 1.38405,0.47225 0.25522,0.51219 0.13965,1.04623 -0.26293,1.21443 -0.15637,0.0653 -0.25766,0.0691 -0.60253,0.0229 -0.55642,-0.0749 -0.87119,-0.0704 -1.38793,0.0201 -0.66635,0.11666 -0.7369,0.12467 -0.84813,0.0958 z m 0.64718,-2.03646 c -0.3386,-0.15845 -0.67309,-0.51274 -0.67309,-0.71311 0,-0.025 0.14173,-0.0853 0.31484,-0.13338 0.70547,-0.19613 1.60328,-0.72554 2.3775,-1.40192 0.27325,-0.23871 0.42997,-0.33929 0.52887,-0.33945 0.20038,-4e-4 0.29391,-0.18418 0.16124,-0.31687 -0.0947,-0.0947 -0.10308,-0.0928 -0.36556,0.084 -0.14783,0.0994 -0.27826,0.1809 -0.28998,0.1809 -0.0122,0 -0.0357,-0.0899 -0.0533,-0.19988 -0.1177,-0.73633 -0.39615,-1.19526 -0.87111,-1.43592 -0.13703,-0.0695 -0.24921,-0.15566 -0.24921,-0.19157 0,-0.12589 0.16523,-0.29892 0.43081,-0.45129 0.47721,-0.27371 0.96979,-0.20422 1.56582,0.22092 0.1405,0.10029 0.43755,0.26816 0.65996,0.37311 0.63213,0.29831 0.74241,0.59208 0.45235,1.20521 -0.18596,0.39308 -0.20772,0.50838 -0.22989,1.21746 -0.0157,0.50173 -0.0336,0.58975 -0.18153,0.89021 -0.2405,0.48854 -0.59962,0.74348 -1.21179,0.86029 -0.19045,0.0364 -0.30096,0.0345 -0.37842,-0.008 -0.0883,-0.0468 -0.18359,-0.0309 -0.49189,0.0818 -0.53578,0.196 -1.17058,0.22844 -1.49562,0.0764 z m 2.25597,-0.5001 c 0.0706,-0.0761 0.1393,-0.18677 0.1527,-0.24595 0.0363,-0.15897 0.12937,-1.59946 0.10499,-1.62376 -0.0122,-0.0122 -0.0574,0.0502 -0.10221,0.13669 -0.0525,0.10168 -0.0815,0.29348 -0.0815,0.54136 0,0.46518 -0.0727,0.87512 -0.20166,1.13578 -0.11231,0.22704 -0.0543,0.25232 0.12781,0.0557 z m -3.83512,-0.034 c -0.45083,-0.21261 -0.78689,-0.67225 -0.90307,-1.23521 -0.0832,-0.40316 -0.037,-0.59224 0.31803,-1.30322 0.16855,-0.33761 0.29541,-0.625 0.28176,-0.63866 -0.0526,-0.0525 -0.45102,0.42103 -0.58506,0.69499 -0.25708,0.52546 -0.21876,1.40022 0.0934,2.12802 0.12258,0.28603 0.0891,0.31739 -0.33988,0.31853 -0.29491,6.3e-4 -0.31486,-0.009 -0.52384,-0.22596 -0.43473,-0.45371 -0.6233,-1.0893 -0.49737,-1.67652 0.0714,-0.33246 0.49708,-1.29134 0.64646,-1.45589 0.16959,-0.18687 0.40765,-0.26514 0.80619,-0.26514 0.31153,0 0.37193,0.0157 0.43957,0.11195 0.0432,0.0616 0.0664,0.13146 0.0517,0.1553 -0.014,0.0239 -0.009,0.042 0.0157,0.0405 0.023,-7.9e-4 0.1304,-0.1191 0.23864,-0.26118 0.10813,-0.14208 0.25211,-0.28345 0.31976,-0.31428 0.14575,-0.0664 0.36658,-0.0223 0.40637,0.0815 0.0157,0.0405 -0.074,0.37412 -0.19893,0.74149 -0.40791,1.19938 -0.42347,1.9544 -0.0527,2.55509 0.0994,0.16108 0.18711,0.37173 0.19486,0.46813 0.014,0.1736 0.0122,0.17539 -0.21893,0.18898 -0.15983,0.009 -0.31435,-0.0245 -0.49183,-0.1083 z m 0.75043,-0.59666 c -0.19886,-0.19883 -0.33259,-0.66544 -0.2877,-1.00379 0.0323,-0.24256 0.26575,-0.95176 0.38167,-1.15891 0.0481,-0.0857 0.0622,-0.0783 0.148,0.0775 0.0523,0.0945 0.13721,0.22774 0.18869,0.29571 0.0934,0.12292 0.0943,0.12309 0.233,0.0256 0.14503,-0.10204 0.88997,-0.18778 0.88997,-0.10238 0,0.0237 -0.0722,0.12536 -0.16071,0.22609 -0.17838,0.20315 -0.32352,0.22979 -0.56672,0.10396 -0.13826,-0.0716 -0.22613,-0.0242 -0.0999,0.0536 0.13371,0.0826 0.32025,0.56975 0.32675,0.8531 0.009,0.36188 -0.0963,0.54062 -0.39649,0.67688 -0.30834,0.13998 -0.48158,0.12745 -0.6564,-0.0474 z m 1.24292,-0.74678 v -0.53333 l 0.23167,-0.19365 c 0.27472,-0.22963 0.47915,-0.55998 0.62644,-1.01221 l 0.10742,-0.32965 0.10866,0.30375 c 0.23892,0.66787 0.28744,1.13683 0.14591,1.41046 -0.11493,0.22235 -0.45653,0.50344 -0.85635,0.7048 l -0.36374,0.18316 z m -0.36234,-1.21899 c -0.40432,-0.0288 -0.5407,-0.28676 -0.28067,-0.53103 0.1158,-0.10883 0.18321,-0.12554 0.50481,-0.12554 0.30526,0 0.4011,0.0212 0.53947,0.11997 0.0925,0.066 0.1682,0.14103 0.1682,0.16662 0,0.0263 -0.17943,0.0327 -0.41421,0.0139 -0.35241,-0.0271 -0.4142,-0.02 -0.4142,0.0479 0,0.0912 0.1057,0.14261 0.2933,0.14261 0.16316,0 0.1353,0.11318 -0.0378,0.15253 -0.0693,0.0157 -0.23087,0.0212 -0.35896,0.0122 z m -0.86212,-0.53744 c 0.16402,-0.43587 0.25653,-0.61205 0.42842,-0.81632 0.25921,-0.30807 0.49189,-0.30215 0.79301,0.0202 0.0694,0.0744 0.24293,0.16993 0.38537,0.21219 0.29579,0.0878 0.34063,0.13772 0.34173,0.37981 6.1e-4,0.14608 -0.014,0.1675 -0.0899,0.13441 -0.05,-0.0216 -0.21876,-0.0847 -0.37536,-0.14034 -0.48167,-0.1708 -0.94739,-0.0509 -1.40304,0.36059 l -0.20754,0.18748 z m 1.07382,-1.21933 c -0.084,-0.069 -0.12833,-0.20275 -0.18555,-0.55956 -0.19118,-1.19193 -0.51059,-1.76662 -1.13939,-2.04996 l -0.25889,-0.11666 0.15531,-0.0308 c 0.0853,-0.0174 0.23687,-0.0122 0.33654,0.009 0.0996,0.0222 0.23616,0.0406 0.30334,0.0413 0.1069,7.9e-4 0.11787,-0.0157 0.0886,-0.14121 -0.15949,-0.67795 -1.27014,-2.09656 -2.15902,-2.75792 -1.16113,-0.86391 -2.12216,-1.14623 -2.78502,-0.8182 -0.28154,0.13929 -0.30745,0.12328 -0.18446,-0.11457 0.1252,-0.24202 0.33462,-0.31837 0.87351,-0.31837 0.69324,0 1.21843,0.19335 2.09032,0.76958 0.88721,0.58635 1.61618,1.45484 2.16361,2.57774 0.51248,1.05122 0.85383,2.21966 0.93744,3.20903 0.0363,0.42863 -0.009,0.4867 -0.23632,0.30039 z m 2.35112,-0.39772 c -0.0284,-0.0122 -0.16211,-0.0362 -0.29692,-0.0543 -0.24023,-0.0324 -0.24361,-0.0352 -0.16872,-0.14957 0.14766,-0.22534 0.45578,-0.34768 0.95758,-0.3802 0.48449,-0.0314 0.57703,-0.0851 0.30822,-0.17875 -0.23805,-0.083 -0.15497,-0.17081 0.17813,-0.18828 0.35182,-0.0185 0.36738,-0.10411 0.0382,-0.21008 -0.12031,-0.0386 -0.21015,-0.097 -0.19967,-0.12938 0.0105,-0.0326 0.24425,-0.17552 0.51947,-0.31793 0.27523,-0.14242 0.50074,-0.27576 0.50112,-0.29641 6.5e-4,-0.0543 -0.30119,0.0105 -0.55175,0.11683 -0.11875,0.0507 -0.35621,0.1877 -0.52772,0.30417 -0.33032,0.22432 -0.42502,0.21051 -0.29402,-0.0428 0.0439,-0.0847 0.0798,-0.18235 0.0798,-0.21665 0,-0.11457 -0.19491,0.11005 -0.34539,0.39798 -0.15376,0.29444 -0.22414,0.34995 -0.22414,0.17701 0,-0.0568 -0.0174,-0.10325 -0.0388,-0.1029 -0.0214,4e-4 -0.17863,0.21587 -0.3495,0.47893 l -0.31063,0.47829 -0.0157,-0.23735 c -0.0458,-0.70276 0.63542,-1.4863 1.57283,-1.80941 0.61647,-0.21248 1.42349,-0.23571 1.89959,-0.0546 l 0.1325,0.0503 -0.20213,0.52128 c -0.42488,1.09562 -0.72528,1.48475 -1.3189,1.70836 -0.28537,0.10744 -1.18998,0.19886 -1.34355,0.13564 z m -1.39304,-0.94686 c -0.045,-1.06825 -0.10186,-1.54474 -0.26571,-2.23208 -0.0702,-0.29418 -0.12745,-0.54067 -0.12745,-0.54778 0,-0.0314 0.36131,0.003 0.396,0.0374 0.0449,0.0448 0.13827,0.96974 0.22839,2.2618 0.0657,0.94221 0.0277,1.34615 -0.12677,1.34615 -0.0517,0 -0.0765,-0.20478 -0.10446,-0.86565 z m 5.12087,-0.54517 c -0.11978,-0.0607 -0.35431,-0.11596 -0.55661,-0.13076 -0.1922,-0.0139 -0.34946,-0.0423 -0.34946,-0.0627 0,-0.1177 0.12814,-0.37273 0.20914,-0.41605 0.28989,-0.15514 0.63333,0.035 0.85567,0.4738 0.14192,0.28008 0.13583,0.28527 -0.15879,0.13565 z m -6.18717,-1.25813 c 0,-0.41434 0.0185,-0.53287 0.10464,-0.67227 0.1947,-0.31502 0.23194,-0.26443 0.23194,0.31512 0,0.45744 -0.0157,0.55329 -0.10673,0.67605 -0.19856,0.26619 -0.22984,0.22277 -0.22984,-0.3189 z m 2.18217,-0.5663 c -0.10987,-0.0992 -0.33147,-0.25981 -0.49245,-0.35673 -0.21236,-0.12799 -0.27006,-0.1849 -0.21031,-0.20781 0.19854,-0.0761 0.41936,-0.0225 0.76464,0.18619 0.2486,0.15027 0.42083,0.21851 0.55502,0.22005 0.16436,0.002 0.18526,0.0139 0.13442,0.0792 -0.24333,0.31186 -0.46762,0.33544 -0.7514,0.079 z m -1.46311,-0.62201 c -0.18964,-0.10306 -0.27324,-0.33627 -0.23727,-0.66191 0.0224,-0.20079 0.14417,-0.49294 0.47567,-1.1389 0.24521,-0.47787 0.52738,-1.11782 0.62706,-1.42208 0.1985,-0.606 0.29514,-0.79032 0.5341,-1.01895 0.18726,-0.17915 0.23306,-0.15933 0.15427,0.0664 -0.071,0.20356 -0.036,0.81379 0.0805,1.40528 0.2158,1.09599 -0.22973,2.34689 -0.9667,2.71414 -0.30036,0.14974 -0.46902,0.16385 -0.6676,0.0559 z m -0.86692,-0.13963 c -0.46019,-0.26569 -0.86526,-0.68069 -1.06941,-1.0956 -0.15218,-0.3093 -0.1938,-0.47172 -0.25401,-0.99122 -0.0397,-0.34172 -0.12083,-0.76619 -0.18055,-0.94326 -0.0596,-0.17709 -0.10847,-0.33436 -0.10847,-0.3495 0,-0.0157 0.0665,-0.0275 0.14783,-0.0275 0.0879,0 0.2401,0.0704 0.37537,0.17342 0.27113,0.20668 0.52767,0.34434 0.64169,0.34434 0.18576,0 0.39969,0.16784 0.49842,0.39101 0.091,0.20571 0.0996,0.32978 0.086,1.25188 -0.014,0.9104 -0.006,1.0427 0.0794,1.19662 0.0519,0.0952 0.0864,0.18111 0.0766,0.1909 -0.0105,0.0105 -0.14173,-0.0539 -0.293,-0.14103 z m 0.37805,-0.79295 c -0.02,-0.13372 -0.0252,-0.4678 -0.0122,-0.74256 0.0219,-0.4413 0.0529,-0.57025 0.26557,-1.10612 0.13232,-0.33362 0.24074,-0.69008 0.24074,-0.79216 0,-0.34626 -0.26932,-0.67702 -0.65495,-0.80429 -0.17842,-0.0588 -0.18495,-0.0681 -0.0949,-0.13388 0.18712,-0.13687 0.36982,-0.0847 0.7055,0.20117 0.50168,0.42728 0.53698,0.49279 0.5321,0.98754 -0.002,0.23285 -0.0425,0.55329 -0.0895,0.71212 -0.0668,0.22651 -0.77345,1.82556 -0.84108,1.9035 -0.009,0.0105 -0.0319,-0.0916 -0.0519,-0.22532 z m -0.0919,-1.93908 c -0.11544,-0.19662 -0.40127,-0.38924 -0.68954,-0.46466 -0.11806,-0.0308 -0.22861,-0.0923 -0.24559,-0.13652 -0.0724,-0.18878 0.33779,-0.6543 0.63388,-0.71934 0.19035,-0.0417 0.43624,0.0744 0.56128,0.26519 0.12572,0.19195 0.10552,0.62308 -0.0448,0.95253 l -0.1205,0.26414 z m -1.42732,-0.8581 c -0.1845,-0.21012 -0.20851,-0.4307 -0.0803,-0.73764 0.12763,-0.30571 0.32207,-0.47727 0.54068,-0.47727 0.10307,0 0.23208,0.0325 0.28655,0.0724 0.0899,0.0657 0.12397,0.0494 0.36756,-0.17307 0.33873,-0.30957 0.56473,-0.41709 0.87675,-0.41709 0.55866,0 0.95459,0.46716 0.95459,1.1263 0,0.32898 -0.0867,0.78981 -0.14853,0.78895 -0.018,-1.9e-4 -0.077,-0.14277 -0.13129,-0.31687 -0.11248,-0.36081 -0.35091,-0.73844 -0.56544,-0.89569 -0.20919,-0.15339 -0.75289,-0.14677 -1.05783,0.0122 -0.26185,0.13703 -0.53546,0.4911 -0.69735,0.90241 -0.0644,0.16368 -0.13233,0.2977 -0.15097,0.2977 -0.0186,0 -0.10604,-0.0824 -0.1944,-0.183 z m 0.83911,-1.38918 c 0.0157,-0.0408 -0.093,-0.18892 -0.25632,-0.34949 -0.45776,-0.4502 -0.49908,-0.54395 -0.50759,-1.15183 -0.003,-0.28868 -0.0266,-0.56664 -0.0504,-0.61771 -0.0408,-0.0881 -0.0299,-0.0877 0.2142,0.006 0.55704,0.21166 0.97749,0.63605 1.10715,1.11759 0.0631,0.23397 0.0122,0.3837 -0.28127,0.81997 -0.15462,0.23016 -0.28576,0.33276 -0.22583,0.17654 z m 0.21176,-0.64118 c 0.0223,-0.17506 0.0157,-0.27185 -0.019,-0.27185 -0.0293,0 -0.0535,0.035 -0.0535,0.0777 0,0.0427 -0.0233,0.0777 -0.0517,0.0777 -0.0286,0 -0.0521,-0.0408 -0.0523,-0.0906 -5.5e-4,-0.11926 -0.25217,-0.65769 -0.28969,-0.62018 -0.0157,0.0157 0.0193,0.13878 0.0787,0.27298 0.0594,0.13407 0.10795,0.30322 0.10795,0.37576 v 0.13181 l -0.13667,-0.12554 -0.13669,-0.12555 0.13128,0.20711 c 0.0724,0.11387 0.16002,0.29842 0.19536,0.41003 0.0637,0.2019 0.0644,0.20228 0.12799,0.0777 0.0352,-0.069 0.0794,-0.24757 0.0985,-0.39707 z m -1.36688,-1.28638 c -0.0996,-0.0387 -0.25694,-0.058 -0.34949,-0.0432 -0.20866,0.0334 -0.21641,-0.0305 -0.018,-0.14781 0.28161,-0.1663 0.54541,-0.0912 0.64267,0.18299 0.0374,0.10586 -0.0185,0.10761 -0.27528,0.009 z"
         style="fill:#000000;stroke-width:0.0517754" />
      <path
         id="path1036-2"
         d="m 481.51048,708.59743 c 0,0.0157 -0.16107,0.18394 -0.35779,0.3739 -0.23434,0.22625 -0.39671,0.4359 -0.4706,0.60771 l -0.11284,0.26233 -0.17677,-0.17679 c -0.51621,-0.5162 -0.18793,-0.99689 0.72816,-1.06618 0.21441,-0.0157 0.38985,-0.0174 0.38985,-6.4e-4 z m -1.65812,0.75994 c 0.0886,0.21392 0.60376,0.69046 0.91919,0.85029 0.14574,0.074 0.56393,0.22456 0.92917,0.33483 0.79145,0.23892 1.01591,0.34701 1.29017,0.62126 0.4239,0.42392 0.58002,0.86659 0.71903,2.03914 0.1184,0.99851 0.34766,1.74526 0.63652,2.07329 0.10831,0.1231 0.0702,0.14696 -0.28193,0.17625 -0.42633,0.0355 -0.71516,-0.11788 -0.89333,-0.47427 -0.11022,-0.22063 -0.13355,-0.35385 -0.15723,-0.90149 -0.025,-0.58043 -0.0353,-0.63351 -0.10552,-0.54879 -0.0557,0.0672 -0.0827,0.25398 -0.0954,0.66069 l -0.0175,0.56693 -0.15043,-0.14417 c -0.25614,-0.24543 -0.36869,-0.63302 -0.40417,-1.39178 l -0.0314,-0.67127 -0.10324,0.15358 c -0.0832,0.12379 -0.10849,0.26892 -0.12938,0.74895 l -0.0261,0.5954 -0.11978,-0.25887 c -0.17029,-0.36838 -0.26693,-0.82095 -0.26781,-1.25554 -8e-4,-0.71699 -0.19886,-0.33356 -0.21323,0.41419 -0.006,0.24918 -0.0234,0.45303 -0.0416,0.45303 -0.018,0 -0.33525,-0.51079 -0.70488,-1.1351 -0.49327,-0.83312 -0.68371,-1.11433 -0.71584,-1.05712 -0.14435,0.25702 0.33785,1.25211 0.9489,1.95813 0.225,0.25997 0.24968,0.3422 0.13198,0.43987 -0.0724,0.06 -0.32498,0.0267 -1.01123,-0.13268 l -0.12938,-0.0301 0.12938,0.10811 c 0.15165,0.1266 0.4884,0.29458 1.05235,0.52486 0.2758,0.11265 0.38826,0.18234 0.35227,0.21834 -0.0664,0.0665 -0.48433,0.0775 -0.75672,0.0202 l -0.20638,-0.0435 0.10274,0.11545 c 0.16732,0.18794 0.67667,0.40104 1.05347,0.44077 0.65793,0.0694 0.73876,0.18902 0.17525,0.25942 -0.15009,0.0189 -0.28446,0.0528 -0.29855,0.0755 -0.0497,0.0805 0.48838,0.21048 1.06322,0.25719 0.31989,0.0262 0.59361,0.0594 0.60826,0.0739 0.0139,0.0139 -0.0406,0.0533 -0.12292,0.0859 -0.77432,0.30634 -1.45401,0.2647 -2.17835,-0.13353 -1.28202,-0.70468 -1.94929,-1.78598 -1.94929,-3.15881 0,-0.55681 0.058,-0.90172 0.26141,-1.55325 0.156,-0.4997 0.58492,-1.52739 0.63755,-1.52739 0.0207,0 0.0661,0.0685 0.10081,0.15218 z m -1.49258,5.90029 c 0.46523,0.4095 0.65799,1.10332 0.48939,1.76141 -0.0468,0.18268 -0.1809,0.5438 -0.29802,0.80243 -0.19273,0.42573 -0.21251,0.50808 -0.20868,0.8692 0.006,0.48055 -0.068,0.6032 -0.38385,0.64558 -0.1857,0.0249 -0.22478,0.0105 -0.32307,-0.11388 -0.0826,-0.10481 -0.11178,-0.21381 -0.11178,-0.41491 0,-0.23393 0.051,-0.37492 0.35855,-0.9897 0.5926,-1.18484 0.68357,-1.99395 0.28946,-2.57469 -0.16471,-0.24283 -0.0984,-0.23771 0.18801,0.014 z m 10.1947,0.55199 c 0.0999,0.12032 0.003,0.33469 -0.20439,0.45631 -0.17098,0.0999 -0.18605,0.10011 -0.60327,0.014 -0.23534,-0.0489 -0.62226,-0.10256 -0.85984,-0.1191 -0.74934,-0.0523 -2.25937,0.1661 -2.75251,0.39792 -0.5353,0.2516 -0.90654,0.72543 -0.9615,1.22714 -0.0353,0.32212 -0.14381,0.44679 -0.2861,0.32867 -0.1151,-0.0956 -0.10534,-0.48932 0.0216,-0.8579 0.16681,-0.48469 0.15618,-0.51179 -0.18487,-0.47658 -0.51027,0.0528 -1.52263,0.61798 -2.1379,1.19382 -0.0958,0.0897 -0.3336,0.35261 -0.52856,0.58443 -0.41822,0.49732 -0.66496,0.64174 -1.08702,0.63626 -0.52634,-0.008 -0.52706,-0.0301 -0.0157,-0.50949 1.46339,-1.3711 3.39317,-2.39567 5.18422,-2.75243 0.44783,-0.0891 0.85765,-0.11911 2.10909,-0.15376 2.24022,-0.0622 2.22898,-0.0624 2.30656,0.0311 z m -12.86877,0.17451 c 0.27909,0.0675 0.54709,0.22215 0.67446,0.38913 0.26139,0.3427 0.33661,0.5949 0.51816,1.73729 0.0476,0.29898 0.13058,0.66013 0.18467,0.8025 0.0541,0.14243 0.0982,0.27667 0.0982,0.29843 3e-5,0.0218 -0.0872,0.003 -0.19413,-0.0415 -0.49662,-0.20714 -0.82358,-0.78238 -1.02533,-1.80393 -0.14383,-0.72822 -0.29298,-1.08416 -0.5423,-1.29394 l -0.16176,-0.13615 0.14627,0.006 c 0.0805,0.003 0.21625,0.0223 0.30168,0.0427 z m 10.39586,0.82042 c 0.0423,0.358 0.22519,0.69107 0.62891,1.14604 0.39407,0.44412 0.55614,0.74904 0.70163,1.32025 0.2005,0.78722 0.0761,1.30313 -0.23224,0.96251 -0.0923,-0.10187 -0.23213,-0.1407 -0.23389,-0.0647 -4.9e-4,0.0212 -0.0343,0.19657 -0.0752,0.38935 -0.18857,0.88995 -0.76642,1.48602 -1.66839,1.72093 -0.40248,0.10483 -0.44466,0.10117 -0.40154,-0.0348 0.0195,-0.0616 0.0338,-0.26543 0.0319,-0.45302 -0.003,-0.35984 -0.082,-0.6244 -0.39088,-1.32477 -0.41725,-0.9464 -0.34675,-1.82152 0.21319,-2.64606 0.19368,-0.28522 0.82901,-0.93108 0.87279,-0.88726 0.0301,0.0301 -0.17115,0.52915 -0.38741,0.96046 -0.34404,0.68617 -0.33383,0.92888 0.0229,0.54066 0.22419,-0.2441 0.22936,-0.16889 0.0301,0.43932 -0.16418,0.50111 -0.23911,0.89389 -0.17063,0.89389 0.0702,0 0.18815,-0.16228 0.29154,-0.40126 0.0525,-0.12102 0.1163,-0.22006 0.14208,-0.22006 0.0777,0 0.23892,0.4214 0.27735,0.72487 0.0556,0.43925 0.10621,0.47487 0.17859,0.12589 0.0376,-0.18079 0.0535,-0.50411 0.0386,-0.78603 -0.0139,-0.26342 -0.0139,-0.47894 4.8e-4,-0.47894 0.014,0 0.10395,0.0484 0.19998,0.10779 0.28258,0.17466 0.29371,0.096 0.0399,-0.28244 -0.34956,-0.52104 -0.486,-0.84321 -0.48527,-1.14566 5.9e-4,-0.24904 0.11056,-0.56406 0.26934,-0.77126 0.0694,-0.0905 0.0775,-0.0783 0.10639,0.16419 z m -13.03639,0.62874 c 0.0853,0.0208 0.30919,0.0996 0.4973,0.17506 0.20185,0.0808 0.53763,0.15914 0.8195,0.19114 1.1168,0.1266 1.53468,0.44489 2.40639,1.83337 0.34186,0.54452 0.80632,1.4477 1.13792,2.2128 0.13128,0.30302 0.23877,0.56209 0.23877,0.57575 0,0.0139 -0.15793,-0.13042 -0.35102,-0.32 -0.41227,-0.405 -0.96053,-0.77809 -1.93314,-1.31548 -0.7876,-0.4352 -1.04478,-0.52457 -1.35891,-0.47228 -0.38217,0.0637 -0.61711,0.22335 -1.14671,0.7797 -0.45955,0.48274 -0.54233,0.54768 -0.73034,0.5729 -0.27747,0.0373 -0.42001,-0.0447 -0.54088,-0.31096 -0.0879,-0.19364 -0.098,-0.35199 -0.0986,-1.53616 -5.7e-4,-1.37686 0.035,-1.67775 0.23957,-2.02702 0.1771,-0.30239 0.49042,-0.4395 0.8201,-0.35882 z m 9.73378,1.59271 c 0.23976,0.054 0.44011,0.13094 0.44011,0.16924 0,0.0227 -0.11075,0.0565 -0.24593,0.0751 -0.22628,0.0314 -0.43261,0.12833 -1.27361,0.59963 -0.55868,0.31305 -0.94175,0.32142 -1.25349,0.0275 -0.22145,-0.20888 -0.23289,-0.30551 -0.0309,-0.26113 0.22723,0.0498 0.83385,-0.0991 1.2434,-0.30527 0.31351,-0.15793 0.89493,-0.35436 0.98888,-0.33417 0.0157,0.003 0.0745,0.0157 0.13147,0.0292 z m -11.15485,0.14923 c 0.0454,0.0547 0.0792,0.36111 0.1043,0.9449 0.0234,0.55035 0.067,0.95786 0.11944,1.12279 0.0452,0.14243 0.0706,0.29647 0.0561,0.34241 -0.0322,0.10292 -0.41475,0.42804 -0.8153,0.6932 l -0.29968,0.1984 -0.17975,-0.0857 c -0.26403,-0.12588 -0.62428,-0.47798 -0.74568,-0.72876 -0.1787,-0.36917 -0.14748,-0.76498 0.0992,-1.25784 0.28179,-0.56302 0.80122,-1.16624 1.07482,-1.24823 0.284,-0.0851 0.50623,-0.0781 0.58657,0.0189 z m 7.90731,0.33168 c 0.52524,0.18901 0.74675,0.38358 0.99155,0.8709 0.22248,0.44292 0.49508,0.64364 1.38252,1.01801 0.11753,0.0497 0.3018,0.17527 0.40936,0.27929 0.51717,0.5002 0.52178,0.9137 0.0174,1.48349 -0.12624,0.14243 -0.30686,0.3586 -0.40139,0.4805 -0.19863,0.25614 -0.39734,0.3738 -0.63135,0.3738 h -0.16524 l 0.23666,0.20834 c 0.33265,0.2928 0.38781,0.48775 0.25355,0.89635 -0.22186,0.67531 -0.19607,0.87845 0.1813,1.42795 0.2201,0.32052 0.23249,0.35681 0.20712,0.60689 -0.032,0.31655 -0.14869,0.56206 -0.30728,0.64692 -0.0633,0.034 -0.30391,0.0788 -0.53456,0.0999 -0.31319,0.0286 -0.48786,0.0755 -0.68999,0.18579 -0.14886,0.0812 -0.36732,0.20001 -0.4855,0.2641 -0.53379,0.28943 -1.39632,-0.0327 -1.67181,-0.62439 -0.18386,-0.39491 -0.16715,-0.68456 0.0767,-1.33383 0.11162,-0.29697 0.24187,-0.72635 0.28955,-0.95416 0.12223,-0.58446 0.1137,-1.4774 -0.0202,-2.08524 -0.12744,-0.57903 -0.67404,-1.98202 -1.08665,-2.78949 -0.16507,-0.32318 -0.29583,-0.58759 -0.29043,-0.58759 0.006,0 0.21566,0.11839 0.46724,0.26321 0.25161,0.14469 0.62191,0.34549 0.82291,0.44605 0.20101,0.10064 0.46306,0.2621 0.58235,0.35898 0.26728,0.21701 0.67279,0.81435 0.85715,1.26261 0.0759,0.18457 0.20982,0.51293 0.29756,0.72969 0.15565,0.38452 0.43173,0.77269 0.62209,0.87456 0.0621,0.0332 0.0239,-0.0556 -0.11109,-0.25759 -0.11318,-0.16959 -0.3112,-0.59457 -0.43994,-0.94446 -0.49069,-1.33349 -0.94449,-1.87073 -1.9459,-2.30367 -0.45142,-0.19514 -0.91981,-0.48864 -1.11401,-0.69804 l -0.1158,-0.12484 0.34881,-0.008 c 0.19182,-0.003 0.51922,-0.0433 0.72753,-0.0879 0.49815,-0.10674 0.90492,-0.0999 1.24059,0.0209 z m -4.33756,1.316 c 1.57081,0.65781 2.61925,1.49444 2.9595,2.36158 0.16855,0.42942 0.15932,1.11699 -0.0236,1.76038 -0.0769,0.27052 -0.13982,0.61524 -0.13982,0.76604 -4e-5,0.22204 -0.0242,0.29835 -0.12711,0.40125 -0.0698,0.07 -0.15061,0.12711 -0.17921,0.12711 -0.13825,0 -0.25762,-0.26745 -0.46645,-1.04573 -0.36121,-1.34633 -0.63382,-2.01573 -0.98844,-2.42724 -0.14174,-0.16455 -0.13564,-0.14034 0.0874,0.34055 0.29946,0.64567 0.48255,1.15742 0.44714,1.24973 -0.0504,0.13093 -0.39774,0.0731 -1.15547,-0.19233 -1.2209,-0.42771 -1.20201,-0.42338 -1.69905,-0.39066 -0.24707,0.0157 -0.55697,0.0439 -0.68865,0.0615 -0.30364,0.0406 -0.51837,-0.0635 -0.63378,-0.30663 -0.17866,-0.3765 -0.0659,-0.55434 0.64638,-1.01875 1.15679,-0.75428 1.68094,-0.82618 2.40576,-0.32994 0.18269,0.12502 0.33217,0.21284 0.33217,0.19504 0,-0.0572 -0.21916,-0.40042 -0.40026,-0.62683 -0.17184,-0.21488 -0.61988,-0.56355 -0.66551,-0.51794 -0.0122,0.0122 0.0256,0.0847 0.0851,0.16053 0.12258,0.156 0.13896,0.14539 -0.36558,0.23692 -0.61312,0.11126 -1.50059,0.60984 -1.9285,1.08346 -0.25065,0.27745 -0.32688,0.56349 -0.25471,0.95586 0.0635,0.3456 0.0299,0.46936 -0.1803,0.66408 -0.32718,0.30302 -0.77176,0.44753 -1.01682,0.33054 -0.5391,-0.25737 -0.5809,-1.12311 -0.0908,-1.88134 0.32681,-0.50563 0.73434,-0.80289 1.32403,-0.96575 0.49452,-0.13651 0.67939,-0.23392 0.85179,-0.44843 0.33294,-0.41431 0.8124,-0.53502 1.31002,-0.32982 0.0834,0.0345 0.0862,0.0248 0.0288,-0.10133 -0.0523,-0.11475 -0.0504,-0.14765 0.0105,-0.18659 0.11073,-0.0702 0.19998,-0.0571 0.51482,0.0747 z m -8.46288,0.32939 c -0.0157,0.35255 -0.0293,0.40315 -0.11908,0.41688 -0.13339,0.0203 -0.42699,-0.22848 -0.42699,-0.36193 0,-0.13546 0.32163,-0.45621 0.4576,-0.45621 0.0985,0 0.10446,0.0265 0.0884,0.40126 z m -0.44455,0.44258 c 0.15235,0.094 0.29154,0.11544 0.93196,0.14451 0.9057,0.0411 1.13826,0.11283 1.53276,0.47344 0.23679,0.21638 0.34001,0.37394 0.61614,0.94014 0.19636,0.40263 0.41755,0.77316 0.54213,0.90811 0.11579,0.12537 0.19679,0.24151 0.18011,0.25815 -0.0174,0.0174 -0.16733,0.0294 -0.33463,0.0284 -0.40604,-0.003 -0.64386,-0.16994 -1.08477,-0.76448 -0.37768,-0.50922 -0.46276,-0.48869 -0.21032,0.0507 0.0883,0.18845 0.14992,0.35308 0.13721,0.36584 -0.0122,0.0122 -0.0963,-0.0198 -0.18551,-0.0724 -0.17607,-0.10378 -0.45789,-0.49577 -0.63687,-0.88589 -0.10239,-0.22324 -0.11405,-0.23302 -0.1292,-0.10899 -0.009,0.0751 0.0413,0.27887 0.11214,0.45304 0.0916,0.22515 0.10952,0.31665 0.0624,0.31665 -0.12606,0 -0.41904,-0.23791 -0.65094,-0.52867 -0.12798,-0.16035 -0.24003,-0.28437 -0.24896,-0.27543 -0.0539,0.0539 0.19439,0.4623 0.46782,0.76999 l 0.31932,0.35928 -0.42456,-0.0248 c -0.23352,-0.0139 -0.42457,-0.008 -0.42457,0.0157 0,0.0217 0.0744,0.0926 0.16525,0.1574 0.13371,0.0952 0.28441,0.12902 0.78958,0.17715 l 0.62426,0.0594 -0.21954,0.0982 c -0.12066,0.054 -0.21973,0.11578 -0.22004,0.13703 -7.9e-4,0.0653 0.67783,0.0397 1.03498,-0.0388 0.37814,-0.0832 1.06595,-0.10238 1.11009,-0.0309 0.0157,0.0258 -0.0975,0.13058 -0.25187,0.23313 -1.19739,0.79479 -2.60519,0.71747 -3.42277,-0.18797 -0.4681,-0.51839 -0.68044,-1.21095 -0.62997,-2.05485 0.0355,-0.59573 0.13249,-1.09345 0.21164,-1.08755 0.0317,0.003 0.13825,0.054 0.23677,0.11475 z m 18.29591,0.3675 c 0.0421,0.3072 -0.0426,0.53283 -0.23826,0.63397 -0.21556,0.11142 -0.7224,0.28316 -0.75111,0.25445 -0.0698,-0.0698 0.24502,-0.53173 0.54086,-0.79371 0.18413,-0.16298 0.35322,-0.3031 0.37578,-0.31126 0.0227,-0.009 0.0554,0.0893 0.0728,0.21655 z m -10.17668,2.02305 c 0.12169,0.038 0.27351,0.10324 0.33724,0.14503 0.23431,0.15358 0.87056,0.34498 1.41528,0.42586 0.3078,0.0458 0.56712,0.0905 0.57626,0.0998 0.0268,0.0267 -0.45791,0.32514 -0.73853,0.45449 -0.22954,0.10587 -0.34251,0.11979 -1.01113,0.12501 -0.84789,0.008 -0.96871,0.0425 -1.22584,0.36297 -0.19213,0.23954 -0.28522,0.21251 -0.39688,-0.11526 -0.10256,-0.30118 -0.10605,-0.63181 -0.0105,-0.99149 0.0399,-0.14957 0.0568,-0.27176 0.0384,-0.27171 -0.0722,1.7e-4 -0.31409,0.45401 -0.39902,0.74872 -0.10796,0.37489 -0.0806,1.23614 0.0491,1.53935 0.0449,0.10517 0.0688,0.22501 0.053,0.26628 -0.05,0.13006 -0.63322,0.36015 -0.83132,0.32801 -0.53917,-0.0876 -0.94618,-0.89063 -0.79447,-1.56768 0.0963,-0.42955 0.203,-0.57765 0.76107,-1.05618 0.5609,-0.48096 0.6186,-0.50582 0.95619,-0.41205 0.15478,0.043 0.25024,0.0332 0.50316,-0.0521 0.35893,-0.12084 0.41642,-0.12327 0.718,-0.029 z m 4.04109,0.94309 c 0.0923,0.17186 0.0728,0.62165 -0.0458,1.05289 -0.22095,0.80413 -0.72159,1.62854 -1.47197,2.424 -0.52233,0.55369 -0.7489,0.58977 -1.37343,0.21873 -0.36314,-0.21572 -0.76078,-0.60359 -0.90527,-0.88307 l -0.0886,-0.17115 0.28934,0.0298 c 0.95387,0.0985 1.7823,-0.35721 2.18285,-1.20063 0.0822,-0.17327 0.17428,-0.31513 0.20437,-0.31513 0.0301,0 0.0989,0.082 0.15304,0.18243 0.17169,0.31872 0.53505,0.29243 0.67771,-0.0489 0.0406,-0.0973 0.0963,-0.37355 0.12362,-0.6138 0.0273,-0.24023 0.082,-0.51586 0.12154,-0.61248 0.0701,-0.17133 0.0734,-0.1729 0.13268,-0.0625 z m -7.60205,0.10708 c 0,0.19639 -1.71217,1.10927 -2.64054,1.40786 -1.79605,0.57766 -3.90315,0.59735 -4.98573,0.0465 -0.48754,-0.24801 -0.78709,-0.69025 -0.75136,-1.10919 l 0.0174,-0.203 0.0847,0.18844 c 0.12484,0.27719 0.44219,0.60466 0.72487,0.74793 0.39964,0.20247 0.84011,0.2826 1.73793,0.31608 1.71635,0.0639 2.90704,-0.20794 4.56153,-1.04169 0.8596,-0.43315 1.25112,-0.54365 1.25112,-0.35301 z m 6.07719,0.25875 c 0.0674,0.61041 -0.15287,1.25712 -0.53547,1.57273 -0.3089,0.2548 -0.68254,0.36469 -1.36347,0.401 l -0.61099,0.0325 -0.25118,0.27182 c -0.26517,0.28695 -0.48808,0.35764 -0.62137,0.19705 -0.0935,-0.11266 -0.40147,-1.25887 -0.4434,-1.65048 -0.0202,-0.18916 -0.0202,-0.43171 -4e-5,-0.53903 l 0.0367,-0.19503 0.0992,0.19315 c 0.14609,0.28409 0.43859,0.55315 0.76647,0.70504 0.38287,0.17733 1.24737,0.22301 1.65549,0.0875 0.45142,-0.14991 1.00195,-0.75499 1.12065,-1.23161 0.0563,-0.22559 0.1116,-0.16698 0.14713,0.15531 z m -0.5372,-0.11125 c 0,0.0122 -0.0706,0.16349 -0.15688,0.33455 -0.22154,0.43888 -0.3808,0.52906 -0.8751,0.49545 -0.26929,-0.0183 -0.43833,-0.003 -0.56292,0.0482 -0.38862,0.16245 -0.81257,0.0533 -0.81257,-0.20902 0,-0.11769 0.0399,-0.17435 0.18122,-0.25734 0.15879,-0.0934 0.2681,-0.10639 0.8842,-0.10639 0.68832,0 0.70971,-0.003 1.02257,-0.16454 0.17578,-0.0906 0.31958,-0.15393 0.31958,-0.14086 z m -5.25735,0.18894 c -0.054,0.25084 -0.13756,0.38568 -0.52143,0.84135 -0.87719,1.04125 -1.63419,2.49639 -1.8551,3.56593 -0.0842,0.40709 -0.0729,0.5751 0.0644,0.97984 0.10777,0.31743 0.0654,0.38716 -0.32924,0.53995 -0.46142,0.17874 -0.64418,0.14191 -0.64418,-0.1299 0,-0.1452 0.47895,-1.55842 0.75177,-2.21812 0.55294,-1.33715 1.34841,-2.64441 2.02027,-3.32008 0.46786,-0.47054 0.5703,-0.52218 0.51359,-0.25889 z m -0.10011,1.04267 c -0.0298,0.13615 0.0139,0.19691 0.48669,0.67743 0.37337,0.3794 0.55814,0.61233 0.65694,0.8281 0.13093,0.28588 0.13581,0.32664 0.10238,0.85398 -0.0317,0.50097 -0.006,0.79593 0.10639,1.16112 0.0258,0.0851 0.0105,0.0928 -0.11841,0.0605 -0.0814,-0.0203 -0.34613,-0.13355 -0.58818,-0.25157 -0.91399,-0.44563 -1.60785,-1.44644 -1.47901,-2.13326 0.0309,-0.16419 0.48388,-0.89241 0.75687,-1.21657 l 0.109,-0.12937 z m -0.19079,0.47838 c -0.0661,0.14938 -0.11561,0.39799 -0.13145,0.66013 l -0.0255,0.42052 0.12328,-0.14764 0.12328,-0.14766 0.12049,0.39251 c 0.12171,0.39645 0.37417,0.8605 0.46827,0.8605 0.0281,0 0.006,-0.10481 -0.0507,-0.23298 -0.0559,-0.12816 -0.14834,-0.33977 -0.20526,-0.47031 -0.0568,-0.13058 -0.10343,-0.33436 -0.10327,-0.45302 l 2e-4,-0.21575 0.18371,0.20005 c 0.10099,0.11004 0.1981,0.18566 0.21568,0.16802 0.0175,-0.0175 -0.0174,-0.0844 -0.0764,-0.14817 -0.10779,-0.11561 -0.37488,-0.60873 -0.37545,-0.69334 -6e-4,-0.0855 -0.10847,-0.43257 -0.13441,-0.43257 -0.0139,0 -0.074,0.10777 -0.13233,0.2396 z m -2.04419,0.49187 c -0.0806,0.42459 -0.29461,1.08511 -0.46478,1.43441 -0.20562,0.42205 -0.72399,1.01365 -1.0312,1.17687 l -0.18884,0.10029 -0.15026,-0.17882 c -0.15966,-0.19011 -0.23335,-0.44435 -0.18426,-0.63632 0.0395,-0.15461 0.48643,-0.66046 0.58352,-0.66046 0.0627,0 0.0698,0.0567 0.0397,0.32361 -0.0325,0.28844 -0.0278,0.31638 0.0435,0.25723 0.0441,-0.0366 0.13041,-0.18792 0.19182,-0.33653 0.0615,-0.1487 0.15149,-0.36327 0.19983,-0.47702 l 0.0881,-0.20682 0.0258,0.23271 c 0.0139,0.12797 0.0469,0.22827 0.0723,0.22286 0.0255,-0.006 0.1318,-0.21685 0.23612,-0.46986 0.20043,-0.48588 0.36733,-0.78709 0.49475,-0.89285 0.0665,-0.0551 0.0725,-0.0399 0.0439,0.11074 z m -0.74343,0.15166 c 0,0.0784 -0.3929,0.37912 -0.6474,0.49565 -0.30689,0.14051 -1.01611,0.32783 -1.24546,0.32898 -0.20275,6.4e-4 -0.36085,0.1137 -0.31764,0.2263 0.0231,0.0605 0.097,0.0853 0.25435,0.086 0.12189,3.9e-4 0.25394,0.0212 0.29338,0.0461 0.11666,0.074 -0.0952,0.15601 -0.75784,0.29334 -0.56757,0.1177 -1.04835,0.29339 -1.04835,0.3831 0,0.0744 0.27267,0.0953 0.61301,0.0471 0.18393,-0.0262 0.3463,-0.0355 0.36079,-0.021 0.0139,0.014 -0.15793,0.10849 -0.38312,0.20874 -0.67461,0.30051 -0.94702,0.45444 -1.11992,0.63283 -0.14539,0.14992 -0.15217,0.16942 -0.0599,0.16942 0.17583,0 0.63639,-0.15426 1.17975,-0.39517 0.62031,-0.27506 0.69425,-0.27591 0.54921,-0.006 -0.15566,0.28918 -0.1224,0.34914 0.0716,0.12972 0.0943,-0.10673 0.19306,-0.19415 0.21927,-0.19415 0.0681,0 0.32968,0.41737 0.32968,0.52609 0,0.27778 -0.50174,0.43461 -1.54476,0.48282 -0.73974,0.0342 -1.08188,0.10639 -1.25762,0.2655 -0.0492,0.0444 -0.13181,0.0727 -0.18379,0.0629 -0.19054,-0.0363 -0.28523,-0.83394 -0.1661,-1.39948 0.17821,-0.84631 0.98199,-1.70157 1.93139,-2.05515 0.25979,-0.0969 0.4412,-0.11737 1.19086,-0.13582 0.60774,-0.0157 1.01796,-0.0521 1.3115,-0.11857 0.23492,-0.0533 0.42714,-0.0797 0.42714,-0.0588 z m 4.70399,2.02492 c 0.28318,0.13006 0.72361,0.17795 0.9405,0.10237 0.15358,-0.0535 0.16072,-0.0511 0.0954,0.0314 -0.22554,0.28547 -0.59225,0.41317 -0.92733,0.32293 -0.21238,-0.0572 -0.32392,-0.18216 -0.3806,-0.42646 -0.0385,-0.16593 -0.0265,-0.16715 0.27201,-0.0301 z m -6.31733,0.1116 c 0.0358,0.12137 0.17469,0.36247 0.30856,0.53571 0.13388,0.17326 0.34159,0.44123 0.46164,0.59555 0.11997,0.15427 0.25433,0.36688 0.29839,0.47238 l 0.0801,0.19182 h -0.22566 c -0.26434,0 -0.3618,-0.0855 -0.44281,-0.38831 -0.0305,-0.11387 -0.15914,-0.34554 -0.28593,-0.51476 -0.28445,-0.37953 -0.42118,-0.85865 -0.29966,-1.0499 0.0255,-0.0401 0.0639,0.0175 0.10533,0.15757 z m 3.93906,0.19576 c 0.10657,0.44782 -0.006,0.70676 -0.55793,1.30199 -0.25157,0.27055 -0.33508,0.29301 -0.51929,0.13965 -0.12153,-0.10134 -0.12206,-0.10465 -0.0258,-0.21106 0.0536,-0.0594 0.24199,-0.22307 0.41836,-0.36352 0.38871,-0.30948 0.54935,-0.55524 0.58717,-0.89824 l 0.0286,-0.25887 z m 1.00814,1.30199 c -0.21215,0.4151 -0.55124,0.87621 -0.75049,1.02055 -0.27718,0.20078 -0.46193,0.20173 -0.67979,0.003 l -0.16907,-0.15373 0.19582,-8e-4 c 0.32289,-0.003 0.5255,-0.12571 0.974,-0.59266 0.23477,-0.2444 0.44682,-0.44437 0.4712,-0.44437 0.0244,0 0.006,0.0757 -0.0416,0.1682 z m -7.44194,0.3503 c -0.18341,0.46588 -0.25728,0.50068 -0.41994,0.19785 -0.0874,-0.16278 -0.0914,-0.20023 -0.0292,-0.27524 0.0615,-0.074 0.52186,-0.33762 0.58975,-0.33762 0.0122,0 -0.0509,0.18675 -0.1407,0.41501 z m 5.1177,-0.0691 c 0.15688,0.0407 0.32043,0.21259 0.49263,0.51774 0.18161,0.32179 0.44188,0.52603 0.87851,0.68929 0.39272,0.14695 0.57045,0.34303 0.57045,0.62962 0,0.16211 -0.0345,0.24163 -0.15879,0.36583 -0.15828,0.15828 -0.16001,0.15863 -0.58668,0.12589 -0.69475,-0.0535 -1.23108,-0.16645 -1.63889,-0.34543 -0.4426,-0.19427 -0.90267,-0.25104 -1.27478,-0.1574 -0.67292,0.16941 -1.14445,0.009 -1.38404,-0.47224 -0.25522,-0.5122 -0.13965,-1.04624 0.26293,-1.21443 0.15636,-0.0653 0.25766,-0.0691 0.60252,-0.0229 0.55643,0.0749 0.87119,0.0704 1.38793,-0.0201 0.66635,-0.11667 0.73691,-0.12468 0.84813,-0.0958 z m -0.64719,2.03646 c 0.3386,0.15845 0.6731,0.51274 0.6731,0.71311 0,0.025 -0.14173,0.0853 -0.31485,0.13339 -0.70547,0.19613 -1.60328,0.72553 -2.37749,1.40192 -0.27326,0.2387 -0.42997,0.33928 -0.52888,0.33944 -0.20038,4.1e-4 -0.29391,0.18418 -0.16123,0.31688 0.0947,0.0947 0.10308,0.0928 0.36556,-0.084 0.14782,-0.0994 0.27825,-0.18091 0.28997,-0.18091 0.0122,0 0.0357,0.0899 0.0533,0.19988 0.11769,0.73633 0.39615,1.19526 0.8711,1.43592 0.13704,0.0695 0.24922,0.15566 0.24922,0.19158 0,0.12588 -0.16524,0.29892 -0.43081,0.45128 -0.47722,0.27371 -0.9698,0.20422 -1.56583,-0.22092 -0.1405,-0.10028 -0.43755,-0.26816 -0.65995,-0.3731 -0.63214,-0.29831 -0.74241,-0.59209 -0.45236,-1.20521 0.18597,-0.39309 0.20773,-0.50839 0.2299,-1.21746 0.0157,-0.50174 0.0336,-0.58975 0.18153,-0.89021 0.2405,-0.48855 0.59962,-0.74349 1.21178,-0.8603 0.19046,-0.0364 0.30096,-0.0345 0.37843,0.008 0.0883,0.0468 0.18359,0.0309 0.49188,-0.0818 0.53579,-0.196 1.17058,-0.22844 1.49563,-0.0764 z m -2.25597,0.5001 c -0.0706,0.0761 -0.1393,0.18678 -0.15269,0.24595 -0.0363,0.15897 -0.12937,1.59946 -0.105,1.62376 0.0122,0.0122 0.0574,-0.0502 0.10221,-0.13669 0.0525,-0.10168 0.0815,-0.29347 0.0815,-0.54136 0,-0.46517 0.0727,-0.87511 0.20166,-1.13578 0.11231,-0.22704 0.0543,-0.25231 -0.1278,-0.0557 z m 3.83512,0.034 c 0.45083,0.21261 0.78689,0.67225 0.90308,1.23522 0.0832,0.40316 0.037,0.59223 -0.31803,1.30321 -0.16855,0.33761 -0.29542,0.625 -0.28177,0.63866 0.0526,0.0525 0.45102,-0.42103 0.58507,-0.69499 0.25708,-0.52545 0.21875,-1.40022 -0.0934,-2.12802 -0.12257,-0.28603 -0.0891,-0.31739 0.33989,-0.31852 0.29491,-6.4e-4 0.31485,0.009 0.52384,0.22595 0.43473,0.45372 0.6233,1.08931 0.49736,1.67652 -0.0714,0.33246 -0.49707,1.29134 -0.64646,1.45589 -0.16958,0.18687 -0.40764,0.26515 -0.80618,0.26515 -0.31153,0 -0.37194,-0.0157 -0.43958,-0.11196 -0.0432,-0.0616 -0.0664,-0.13146 -0.0517,-0.1553 0.0139,-0.0239 0.009,-0.042 -0.0157,-0.0405 -0.023,7.8e-4 -0.1304,0.11909 -0.23864,0.26117 -0.10814,0.14208 -0.25212,0.28345 -0.31977,0.31428 -0.14575,0.0664 -0.36658,0.0223 -0.40636,-0.0815 -0.0157,-0.0405 0.074,-0.37411 0.19893,-0.74149 0.4079,-1.19938 0.42347,-1.95439 0.0527,-2.55509 -0.0994,-0.16107 -0.18712,-0.37172 -0.19487,-0.46813 -0.0139,-0.17359 -0.0122,-0.17538 0.21893,-0.18897 0.15984,-0.009 0.31435,0.0245 0.49184,0.1083 z m -0.75042,0.59666 c 0.19886,0.19884 0.33258,0.66544 0.28769,1.00379 -0.0322,0.24256 -0.26575,0.95176 -0.38167,1.15891 -0.0481,0.0857 -0.0622,0.0783 -0.148,-0.0775 -0.0523,-0.0945 -0.1372,-0.22774 -0.18868,-0.29571 -0.0934,-0.12291 -0.0943,-0.12309 -0.233,-0.0256 -0.14504,0.10204 -0.88997,0.18779 -0.88997,0.10238 0,-0.0237 0.0722,-0.12536 0.1607,-0.22609 0.17838,-0.20315 0.32352,-0.22978 0.56672,-0.10396 0.13827,0.0716 0.22614,0.0242 0.0999,-0.0535 -0.13371,-0.0826 -0.32024,-0.56976 -0.32674,-0.8531 -0.009,-0.36188 0.0963,-0.54062 0.39648,-0.67689 0.30835,-0.13998 0.48158,-0.12745 0.65641,0.0474 z m -1.24293,0.74679 v 0.53332 l -0.23166,0.19366 c -0.27472,0.22962 -0.47915,0.55997 -0.62644,1.0122 l -0.10743,0.32965 -0.10866,-0.30375 c -0.23892,-0.66787 -0.28744,-1.13682 -0.1459,-1.41045 0.11492,-0.22235 0.45652,-0.50344 0.85634,-0.70481 l 0.36374,-0.18316 z m 0.36234,1.21899 c 0.40432,0.0288 0.54071,0.28675 0.28067,0.53102 -0.11579,0.10883 -0.18321,0.12555 -0.5048,0.12555 -0.30526,0 -0.40111,-0.0212 -0.53948,-0.11998 -0.0925,-0.066 -0.1682,-0.14102 -0.1682,-0.16661 0,-0.0264 0.17944,-0.0327 0.41421,-0.014 0.35241,0.0271 0.4142,0.02 0.4142,-0.0479 0,-0.0912 -0.10569,-0.1426 -0.2933,-0.1426 -0.16315,0 -0.13529,-0.11318 0.0378,-0.15253 0.0693,-0.0157 0.23087,-0.0212 0.35897,-0.0122 z m 0.86213,0.53743 c -0.16402,0.43587 -0.25653,0.61205 -0.42842,0.81633 -0.25921,0.30806 -0.4919,0.30214 -0.79302,-0.0202 -0.0694,-0.0744 -0.24293,-0.16993 -0.38536,-0.21219 -0.2958,-0.0877 -0.34064,-0.13772 -0.34173,-0.3798 -6.1e-4,-0.14608 0.0139,-0.16751 0.0899,-0.13441 0.05,0.0216 0.21875,0.0847 0.37536,0.14033 0.48167,0.1708 0.94738,0.051 1.40304,-0.36059 l 0.20754,-0.18748 z m -1.07383,1.21933 c 0.084,0.069 0.12833,0.20275 0.18555,0.55957 0.19118,1.19193 0.5106,1.76661 1.1394,2.04995 l 0.25888,0.11666 -0.15531,0.0308 c -0.0853,0.0174 -0.23687,0.0122 -0.33653,-0.009 -0.0996,-0.0222 -0.23617,-0.0406 -0.30334,-0.0413 -0.1069,-7.9e-4 -0.11788,0.0157 -0.0886,0.14121 0.15949,0.67796 1.27015,2.09657 2.15902,2.75792 1.16114,0.86392 2.12216,1.14624 2.78503,0.8182 0.28153,-0.13929 0.30744,-0.12328 0.18445,0.11457 -0.1252,0.24202 -0.33462,0.31838 -0.8735,0.31838 -0.69324,0 -1.21843,-0.19336 -2.09033,-0.76959 -0.88721,-0.58634 -1.61618,-1.45484 -2.1636,-2.57774 -0.51249,-1.05122 -0.85384,-2.21966 -0.93745,-3.20902 -0.0363,-0.42864 0.009,-0.48671 0.23633,-0.3004 z m -2.35111,0.39772 c 0.0284,0.0122 0.16211,0.0362 0.29691,0.0543 0.24023,0.0325 0.24361,0.0353 0.16873,0.14958 -0.14766,0.22533 -0.45578,0.34767 -0.95758,0.38019 -0.4845,0.0314 -0.57703,0.0851 -0.30822,0.17875 0.23805,0.083 0.15497,0.17082 -0.17814,0.18828 -0.35182,0.0185 -0.36737,0.10411 -0.0382,0.21009 0.12032,0.0386 0.21016,0.097 0.19968,0.12937 -0.0105,0.0326 -0.24426,0.17552 -0.51948,0.31793 -0.27523,0.14242 -0.50074,0.27577 -0.50111,0.29641 -6.5e-4,0.0543 0.30118,-0.0105 0.55174,-0.11683 0.11875,-0.0507 0.35621,-0.18769 0.52772,-0.30417 0.33032,-0.22432 0.42502,-0.21051 0.29402,0.0428 -0.0439,0.0847 -0.0798,0.18235 -0.0798,0.21666 0,0.11456 0.1949,-0.11005 0.34539,-0.39798 0.15376,-0.29445 0.22414,-0.34995 0.22414,-0.17702 0,0.0569 0.0174,0.10326 0.0388,0.10291 0.0214,-4.1e-4 0.17863,-0.21587 0.34949,-0.47894 l 0.31064,-0.47828 0.0157,0.23735 c 0.0458,0.70275 -0.63543,1.4863 -1.57284,1.8094 -0.61647,0.21248 -1.42349,0.23571 -1.89958,0.0546 l -0.13251,-0.0503 0.20213,-0.52128 c 0.42489,-1.09562 0.72529,-1.48476 1.3189,-1.70837 0.28537,-0.10744 1.18999,-0.19885 1.34355,-0.13564 z m 1.39304,0.94687 c 0.045,1.06824 0.10186,1.54474 0.26571,2.23208 0.0702,0.29417 0.12744,0.54066 0.12744,0.54777 0,0.0314 -0.36131,-0.003 -0.396,-0.0374 -0.0449,-0.0448 -0.13826,-0.96975 -0.22838,-2.2618 -0.0657,-0.94221 -0.0277,-1.34616 0.12677,-1.34616 0.0517,0 0.0765,0.20478 0.10446,0.86565 z m -5.12088,0.54516 c 0.11979,0.0607 0.35432,0.11596 0.55661,0.13076 0.1922,0.0139 0.34947,0.0423 0.34947,0.0627 0,0.1177 -0.12815,0.37273 -0.20914,0.41605 -0.2899,0.15515 -0.63334,-0.035 -0.85568,-0.4738 -0.14191,-0.28007 -0.13582,-0.28526 0.1588,-0.13565 z m 6.18718,1.25813 c 0,0.41434 -0.0185,0.53287 -0.10464,0.67228 -0.1947,0.31501 -0.23195,0.26442 -0.23195,-0.31513 0,-0.45744 0.0157,-0.55328 0.10674,-0.67604 0.19855,-0.2662 0.22984,-0.22278 0.22984,0.31889 z m -2.18217,0.5663 c 0.10986,0.0993 0.33147,0.25981 0.49244,0.35673 0.21237,0.12799 0.27007,0.1849 0.21031,0.20782 -0.19853,0.0761 -0.41936,0.0225 -0.76463,-0.1862 -0.24861,-0.15026 -0.42084,-0.2185 -0.55502,-0.22004 -0.16437,-0.002 -0.18527,-0.0139 -0.13442,-0.0792 0.24332,-0.31186 0.46761,-0.33544 0.75139,-0.079 z m 1.46311,0.62202 c 0.18963,0.10306 0.27323,0.33626 0.23726,0.6619 -0.0224,0.20079 -0.14417,0.49294 -0.47567,1.13891 -0.24521,0.47787 -0.52737,1.11781 -0.62706,1.42207 -0.19849,0.606 -0.29513,0.79032 -0.53409,1.01895 -0.18726,0.17915 -0.23306,0.15933 -0.15427,-0.0664 0.071,-0.20356 0.036,-0.81379 -0.0805,-1.40527 -0.2158,-1.09599 0.22973,-2.3469 0.96671,-2.71414 0.30035,-0.14974 0.46902,-0.16386 0.6676,-0.0559 z m 0.86692,0.13963 c 0.46018,0.26569 0.86525,0.68068 1.0694,1.09559 0.15218,0.3093 0.1938,0.47172 0.25401,0.99123 0.0397,0.34171 0.12083,0.76618 0.18055,0.94325 0.0596,0.17709 0.10847,0.33436 0.10847,0.3495 0,0.0157 -0.0665,0.0275 -0.14783,0.0275 -0.0879,0 -0.24009,-0.0704 -0.37536,-0.17342 -0.27114,-0.20668 -0.52767,-0.34434 -0.6417,-0.34434 -0.18576,0 -0.39969,-0.16784 -0.49842,-0.391 -0.091,-0.20571 -0.0996,-0.32979 -0.086,-1.25189 0.0139,-0.9104 0.006,-1.0427 -0.0794,-1.19661 -0.0519,-0.0952 -0.0864,-0.18111 -0.0766,-0.19091 0.0105,-0.0105 0.14173,0.0539 0.293,0.14104 z m -0.37806,0.79294 c 0.0201,0.13372 0.0252,0.4678 0.0122,0.74256 -0.0219,0.4413 -0.0529,0.57025 -0.26557,1.10613 -0.13232,0.33362 -0.24073,0.69008 -0.24073,0.79216 0,0.34626 0.26931,0.67701 0.65494,0.80428 0.17843,0.0588 0.18496,0.0681 0.0949,0.13389 -0.18711,0.13687 -0.36981,0.0847 -0.70549,-0.20118 -0.50168,-0.42728 -0.53698,-0.49279 -0.5321,-0.98754 0.002,-0.23285 0.0425,-0.55329 0.0895,-0.71212 0.0668,-0.2265 0.77345,-1.82556 0.84108,-1.90349 0.009,-0.0105 0.0319,0.0916 0.0519,0.22531 z m 0.0919,1.93909 c 0.11545,0.19661 0.40127,0.38923 0.68955,0.46466 0.11805,0.0308 0.22861,0.0923 0.24558,0.13652 0.0725,0.18878 -0.33778,0.65429 -0.63387,0.71933 -0.19035,0.0417 -0.43625,-0.0744 -0.56128,-0.26518 -0.12572,-0.19196 -0.10552,-0.62309 0.0448,-0.95254 l 0.12049,-0.26414 z m 1.42733,0.85809 c 0.1845,0.21012 0.20851,0.43071 0.0803,0.73765 -0.12763,0.3057 -0.32208,0.47727 -0.54068,0.47727 -0.10308,0 -0.23208,-0.0326 -0.28655,-0.0725 -0.0899,-0.0657 -0.12397,-0.0494 -0.36756,0.17307 -0.33874,0.30958 -0.56474,0.41709 -0.87675,0.41709 -0.55866,0 -0.9546,-0.46716 -0.9546,-1.12629 0,-0.32899 0.0867,-0.78981 0.14853,-0.78896 0.018,1.9e-4 0.077,0.14278 0.13129,0.31688 0.11248,0.3608 0.35091,0.73843 0.56545,0.89568 0.20918,0.15339 0.75288,0.14678 1.05783,-0.0122 0.26184,-0.13704 0.53545,-0.4911 0.69735,-0.90242 0.0644,-0.16368 0.13233,-0.2977 0.15096,-0.2977 0.0186,0 0.10604,0.0824 0.19441,0.183 z m -0.83912,1.38919 c -0.0157,0.0408 0.093,0.18891 0.25633,0.34948 0.45775,0.4502 0.49907,0.54396 0.50758,1.15183 0.003,0.28868 0.0266,0.56664 0.0504,0.61771 0.0408,0.0881 0.0299,0.0878 -0.21421,-0.006 -0.55703,-0.21166 -0.97748,-0.63605 -1.10715,-1.11759 -0.063,-0.23397 -0.0122,-0.3837 0.28128,-0.81996 0.15462,-0.23017 0.28575,-0.33276 0.22582,-0.17654 z m -0.21176,0.64118 c -0.0223,0.17506 -0.0157,0.27184 0.019,0.27184 0.0294,0 0.0535,-0.035 0.0535,-0.0777 0,-0.0427 0.0233,-0.0777 0.0517,-0.0777 0.0286,0 0.0521,0.0408 0.0523,0.0906 5.5e-4,0.11926 0.25217,0.6577 0.28969,0.62019 0.0157,-0.0157 -0.0193,-0.13878 -0.0787,-0.27299 -0.0594,-0.13407 -0.10795,-0.30322 -0.10795,-0.37576 v -0.1318 l 0.13668,0.12553 0.13668,0.12555 -0.13128,-0.2071 c -0.0723,-0.11388 -0.16001,-0.29843 -0.19535,-0.41004 -0.0637,-0.20189 -0.0644,-0.20228 -0.12799,-0.0777 -0.0352,0.0689 -0.0794,0.24757 -0.0985,0.39706 z m 1.36688,1.28638 c 0.0996,0.0386 0.25695,0.058 0.3495,0.0432 0.20865,-0.0334 0.2164,0.0305 0.018,0.14782 -0.2816,0.16629 -0.5454,0.0912 -0.64267,-0.18299 -0.0374,-0.10587 0.0185,-0.10761 0.27529,-0.009 z"
         style="fill:#000000;stroke-width:0.0517754" />
    </g>
  </g>
</svg>
