<?xml version="1.0" encoding="UTF-8" standalone="no"?>
<!-- Created with Inkscape (http://www.inkscape.org/) -->

<svg
   width="108.1mm"
   height="75.150002mm"
   viewBox="0 0 108.1 75.150002"
   version="1.1"
   id="svg1"
   inkscape:version="1.4 (86a8ad7, 2024-10-11)"
   sodipodi:docname="Small Cat.svg"
   xmlns:inkscape="http://www.inkscape.org/namespaces/inkscape"
   xmlns:sodipodi="http://sodipodi.sourceforge.net/DTD/sodipodi-0.dtd"
   xmlns="http://www.w3.org/2000/svg"
   xmlns:svg="http://www.w3.org/2000/svg">
  <sodipodi:namedview
     id="namedview1"
     pagecolor="#ffffff"
     bordercolor="#000000"
     borderopacity="0.25"
     inkscape:showpageshadow="2"
     inkscape:pageopacity="0.0"
     inkscape:pagecheckerboard="0"
     inkscape:deskcolor="#d1d1d1"
     inkscape:document-units="mm"
     inkscape:zoom="0.71891835"
     inkscape:cx="-354.69953"
     inkscape:cy="-18.77821"
     inkscape:window-width="1920"
     inkscape:window-height="1009"
     inkscape:window-x="1912"
     inkscape:window-y="-8"
     inkscape:window-maximized="1"
     inkscape:current-layer="layer1" />
  <defs
     id="defs1" />
  <g
     inkscape:label="Layer 1"
     inkscape:groupmode="layer"
     id="layer1"
     transform="translate(-198.7021,-153.45833)">
    <path
       style="display:inline;fill:#000000;stroke-width:0.464562"
       d="m 285.80373,219.82648 c -0.14012,-0.17812 -0.25474,-0.41885 -0.25474,-0.53494 0,-0.31345 0.50396,-1.00347 0.95482,-1.30728 0.91014,-0.61336 3.15884,-0.69855 5.58965,-0.21174 1.75147,0.35077 3.18759,0.42644 3.61721,0.1906 0.74469,-0.40881 0.88268,-1.00738 0.30154,-1.3079 -0.28164,-0.14564 -1.04459,-0.19075 -3.75895,-0.22228 -3.29394,-0.0383 -3.41239,-0.0481 -3.6107,-0.29886 -0.15223,-0.1925 -0.26841,-0.23327 -0.45086,-0.15827 -0.43819,0.18009 -1.5841,0.13272 -1.88486,-0.0779 -0.41235,-0.2888 -0.307,-0.69262 0.2255,-0.86444 0.40767,-0.13156 0.43549,-0.17651 0.53214,-0.85853 0.0588,-0.41517 0.0489,-1.3531 -0.0234,-2.21659 -0.11356,-1.36095 -0.18663,-1.66028 -0.80444,-3.29619 -0.87963,-2.32933 -1.01464,-3.04524 -0.73902,-3.91963 0.18961,-0.60143 0.19039,-0.68347 0.01,-1.0123 -0.53979,-0.98475 -0.59091,-1.17855 -0.51218,-1.94049 0.0531,-0.51044 0.0142,-1.02308 -0.11979,-1.5926 -0.19371,-0.82292 -0.16695,-1.31115 0.0718,-1.31115 0.0658,0 0.40795,0.21074 0.75998,0.4683 0.61441,0.44958 0.67791,0.46797 1.58813,0.45976 0.90108,-0.008 0.97946,-0.0319 1.57673,-0.47781 0.96934,-0.72367 1.16602,-0.48147 0.78639,0.96818 -0.30013,1.14585 -0.15336,2.01612 0.51146,3.03235 0.47147,0.72064 0.60556,0.84146 1.06258,0.95692 1.19179,0.30112 1.63671,0.54171 2.36949,1.28143 0.81825,0.82602 1.33842,1.72153 1.86192,3.20557 0.33362,0.9459 0.34714,1.07441 0.35401,3.37686 l 0.007,2.39353 0.70149,0.44262 c 0.96459,0.60863 1.39662,1.05022 1.63302,1.66918 0.28179,0.73789 0.15116,1.2957 -0.44243,1.8893 -1.00268,1.00267 -3.08437,1.25524 -5.53146,0.67112 -1.75536,-0.41901 -3.73948,-0.53243 -4.46526,-0.25525 -0.43812,0.16733 -0.5759,0.2981 -0.73152,0.69424 -0.16425,0.41816 -0.24468,0.48808 -0.56145,0.48808 -0.25304,0 -0.45015,-0.10223 -0.62446,-0.32387 z"
       id="path1-0" />
    <g
       id="g3-7-3"
       style="display:inline"
       transform="matrix(0.70800821,0,0,0.70800821,202.83819,159.45392)">
      <path
         style="fill:#000000;stroke-width:0.249539"
         d="m 19.132023,84.974836 c -0.470245,-0.133399 -0.942476,-0.78532 -1.003395,-1.385201 -0.04323,-0.42567 0.09258,-0.84455 0.555634,-1.713735 0.6793,-1.275107 1.183374,-1.827374 1.97646,-2.165436 1.206337,-0.514211 2.486606,-0.07229 3.860216,1.332469 0.779795,0.79748 1.150612,1.532717 1.059572,2.100873 -0.10525,0.656839 -0.551527,1.043293 -1.299167,1.125018 -0.347133,0.03793 -0.530011,0.01099 -1.076026,-0.158627 -1.02711,-0.319067 -1.378712,-0.24868 -2.90745,0.582031 -0.541532,0.294267 -0.856021,0.370502 -1.165844,0.282608 z m -2.142821,-3.116422 c -0.446129,-0.155109 -0.976985,-0.637805 -1.210698,-1.100863 -0.222296,-0.440437 -0.3698,-1.253063 -0.291632,-1.606652 0.07469,-0.337843 0.34969,-0.710639 0.609958,-0.826863 0.992969,-0.443406 2.746612,1.22933 2.599618,2.479683 -0.106743,0.907968 -0.835089,1.357923 -1.707246,1.054695 z m 7.962968,-0.939352 c -0.383954,-0.155385 -0.689299,-0.505638 -0.815733,-0.935706 -0.246629,-0.838918 0.123972,-2.091484 0.796113,-2.690721 0.199983,-0.178291 0.319634,-0.231441 0.580681,-0.257951 0.428097,-0.04348 0.715627,0.129196 1.015348,0.609744 0.202889,0.325297 0.230766,0.424797 0.293947,1.04911 0.08629,0.852709 -0.01536,1.226014 -0.480669,1.76511 -0.460725,0.53379 -0.871819,0.669987 -1.389687,0.460414 z m -2.712287,-2.250811 c -0.767994,-0.24577 -1.201117,-1.431239 -0.961036,-2.630374 0.187654,-0.937277 0.604072,-1.488382 1.167506,-1.54513 0.541126,-0.0545 1.006341,0.302182 1.303551,0.999434 0.332048,0.77898 0.284552,1.769996 -0.121762,2.540606 -0.275798,0.523074 -0.878036,0.798744 -1.388259,0.635464 z m -3.388365,0.171266 C 18.491393,78.630584 18.087843,78.14765 17.8594,77.652238 c -0.341512,-0.740625 -0.323398,-1.828997 0.0389,-2.337201 0.458061,-0.642537 1.048197,-0.674696 1.705029,-0.09292 1.052558,0.932289 1.358829,2.86815 0.559094,3.533897 -0.157314,0.130958 -0.297971,0.17958 -0.611681,0.211437 -0.348349,0.03537 -0.449686,0.01683 -0.699222,-0.127939 z"
         id="path2-7-6" />
      <path
         style="display:inline;fill:#000000;stroke-width:0.252501"
         d="m 7.3443927,70.667897 c -0.368583,-0.329816 -0.509092,-1.132144 -0.298551,-1.704789 0.149396,-0.406343 0.458631,-0.727137 1.265155,-1.312438 1.183179,-0.858646 1.8865133,-1.1375 2.7577613,-1.093386 1.325224,0.0671 2.293804,1.036655 2.920423,2.923362 0.35573,1.07108 0.367057,1.904233 0.03237,2.380652 -0.386935,0.550782 -0.964186,0.70444 -1.680454,0.447319 -0.332556,-0.119405 -0.486955,-0.224985 -0.908401,-0.621328 -0.79278,-0.745573 -1.143794,-0.83743 -2.9025833,-0.759582 -0.623024,0.02757 -0.942872,-0.04251 -1.185714,-0.25981 z M 6.7769637,66.88328 c -0.337022,-0.33887 -0.605878,-1.013267 -0.613167,-1.538067 -0.0069,-0.499163 0.21917,-1.303702 0.447029,-1.590663 0.217712,-0.274182 0.633124,-0.491349 0.921384,-0.481676 1.099759,0.03691 1.953242,2.335847 1.26521,3.407969 -0.499628,0.778542 -1.361595,0.864908 -2.020456,0.202437 z m 7.6593733,2.675877 c -0.280347,-0.311555 -0.402802,-0.765508 -0.327137,-1.21274 0.147597,-0.8724 1.039997,-1.847402 1.917025,-2.094468 0.260943,-0.07351 0.393337,-0.06881 0.642532,0.02281 0.408661,0.150249 0.59364,0.434779 0.653214,1.004752 0.04033,0.385829 0.02157,0.488691 -0.197744,1.084561 -0.299549,0.813862 -0.557513,1.108342 -1.219747,1.392403 -0.655713,0.281265 -1.090015,0.222893 -1.468143,-0.197321 z m -1.46916,-3.249743 c -0.589588,-0.564028 -0.457984,-1.834321 0.29201,-2.818588 0.586218,-0.76933 1.209307,-1.085988 1.746952,-0.887812 0.516356,0.190329 0.781374,0.721007 0.74259,1.486975 -0.04333,0.855751 -0.525886,1.736097 -1.2371,2.256891 -0.482757,0.353503 -1.152753,0.33725 -1.544452,-0.03747 z M 9.8092737,64.963001 c -0.234934,-0.349697 -0.387889,-0.967872 -0.37604,-1.519764 0.01771,-0.825059 0.516709,-1.806985 1.0715513,-2.108616 0.701503,-0.381359 1.252534,-0.148981 1.592049,0.671388 0.544061,1.314628 -0.0356,3.21122 -1.058175,3.462215 -0.201147,0.04937 -0.350641,0.03124 -0.650108,-0.07887 -0.332533,-0.12226 -0.4164843,-0.184055 -0.5792753,-0.426363 z"
         id="path2-8-9"
         inkscape:transform-center-x="3.8968283"
         inkscape:transform-center-y="1.9484149" />
    </g>
  </g>
</svg>
