<?xml version="1.0" encoding="UTF-8" standalone="no"?>
<!-- Created with Inkscape (http://www.inkscape.org/) -->

<svg
   width="140.00002mm"
   height="90.000031mm"
   viewBox="0 0 140.00002 90.000031"
   version="1.1"
   id="svg1"
   inkscape:version="1.4 (86a8ad7, 2024-10-11)"
   sodipodi:docname="Unicorn.svg"
   xmlns:inkscape="http://www.inkscape.org/namespaces/inkscape"
   xmlns:sodipodi="http://sodipodi.sourceforge.net/DTD/sodipodi-0.dtd"
   xmlns="http://www.w3.org/2000/svg"
   xmlns:svg="http://www.w3.org/2000/svg">
  <sodipodi:namedview
     id="namedview1"
     pagecolor="#ffffff"
     bordercolor="#000000"
     borderopacity="0.25"
     inkscape:showpageshadow="2"
     inkscape:pageopacity="0.0"
     inkscape:pagecheckerboard="0"
     inkscape:deskcolor="#d1d1d1"
     inkscape:document-units="mm"
     inkscape:zoom="1.0182449"
     inkscape:cx="225.38781"
     inkscape:cy="-26.025172"
     inkscape:window-width="2560"
     inkscape:window-height="1361"
     inkscape:window-x="-9"
     inkscape:window-y="-9"
     inkscape:window-maximized="1"
     inkscape:current-layer="layer1" />
  <defs
     id="defs1" />
  <g
     inkscape:label="Layer 1"
     inkscape:groupmode="layer"
     id="layer1"
     transform="translate(-69.99999,-206.99997)">
    <path
       style="fill:#000000;stroke-width:0.0466735"
       d="m 115.41132,280.10525 c -0.58706,-0.06 -1.2697,-0.2951 -1.60756,-0.5528 -0.14283,-0.1091 -0.18807,-0.1984 -0.34819,-0.6922 -0.24042,-0.7392 -0.43736,-1.5302 -0.58352,-2.3405 -0.27723,-1.5379 -0.34065,-2.3628 -0.37747,-4.924 -0.0399,-2.6756 -0.1446,-4.1112 -0.40142,-5.4443 l -0.0462,-0.2402 -0.24263,0.065 c -0.34065,0.091 -1.21062,0.1974 -1.89965,0.2331 -1.37899,0.071 -3.48037,-0.2052 -5.28789,-0.6959 l -0.41074,-0.1114 -0.20315,0.2383 c -0.4205,0.4936 -1.01066,1.375 -1.28332,1.917 -0.36106,0.7177 -0.44267,1.0353 -0.40852,1.5884 0.0488,0.7855 0.38945,1.5943 1.74471,4.1411 0.26924,0.5063 0.66322,1.3044 0.87511,1.7735 0.21202,0.4692 0.57672,1.2545 0.81074,1.7452 0.49187,1.0312 0.66211,1.5119 0.66211,1.8699 0,0.4513 -0.20581,0.6798 -0.76701,0.8517 -0.91152,0.2791 -2.61498,0.231 -3.37622,-0.095 -0.46663,-0.2 -0.56692,-0.3431 -1.01945,-1.4539 -0.65332,-1.6038 -1.858262,-5.0583 -2.372432,-6.8019 -0.42583,-1.4441 -0.44179,-1.5257 -0.49848,-2.5904 -0.0266,-0.539 -0.0594,-0.9879 -0.0679,-0.9975 -0.0266,-0.031 -1.01079,0.8566 -1.42171,1.2835 -0.74962,0.7788 -1.32772,1.5818 -1.70865,2.3735 -0.57148,1.1877 -0.61948,2.4546 -0.24662,6.5095 0.075,0.8158 0.0457,1.4736 -0.0759,1.683 -0.37348,0.6456 -2.44416,0.8798 -3.68268,0.4164 -0.33001,-0.1235 -0.6433,-0.3298 -0.78737,-0.5187 -0.37658,-0.4938 -0.40453,-1.948 -0.0763,-3.989 0.11666,-0.7264 0.32646,-1.7994 0.44512,-2.28 0.0355,-0.139 0.031,-0.1385 -0.17122,0.066 -0.7168,0.7183 -2.01613,1.3809 -3.39197,1.7299 -0.71214,0.1806 -1.63772,0.3368 -1.8882,0.3186 -0.16989,-0.012 -0.20448,-0.033 -0.2444,-0.1476 -0.0399,-0.1139 -0.0222,-0.1717 0.10645,-0.3968 0.47466,-0.8171 0.95189,-1.9192 1.19926,-2.7695 0.27102,-0.9318 0.3238,-1.2837 0.32425,-2.1612 4e-4,-0.867 -0.031,-1.0572 -0.28876,-1.8668 -0.20537,-0.64 -0.34465,-0.9614 -1.06238,-2.4505 -0.93889,-1.9483 -1.18649,-2.6062 -1.41843,-3.7683 -0.21601,-1.0815 -0.25948,-1.5061 -0.25948,-2.5326 -1.8e-4,-1.112 0.075,-1.6744 0.33267,-2.4877 0.58107,-1.8351 1.81985,-3.2029 3.79535,-4.1906 1.88323,-0.9417 3.70193,-1.1247 5.46079,-0.5496 0.47971,0.1568 1.20228,0.5143 1.62814,0.8055 l 0.39123,0.2675 0.62724,-0.6558 c 0.76399,-0.7989 1.25071,-1.1953 1.834,-1.4938 0.9529,-0.4877 1.69898,-0.6298 3.127122,-0.5955 1.23425,0.03 2.17137,0.1959 4.01389,0.7123 1.78862,0.5013 2.48067,0.5947 4.41065,0.5957 0.98715,4e-4 1.48767,-0.016 1.57523,-0.053 0.12242,-0.051 0.12819,-0.068 0.12819,-0.3786 0,-0.5143 -0.10912,-0.9102 -0.55761,-2.022 -0.23065,-0.5716 -0.46542,-1.2178 -0.52194,-1.436 -0.0568,-0.2182 -0.11488,-0.4111 -0.12996,-0.4287 -0.0133,-0.018 -0.15347,-0.001 -0.30739,0.037 -0.46428,0.1147 -1.26704,0.093 -1.81918,-0.049 -0.83643,-0.2152 -1.8509,-0.7919 -1.88319,-1.0706 -0.0222,-0.2074 0.0923,-0.2921 0.44542,-0.3252 1.02743,-0.096 2.14268,-1.1806 2.48533,-2.4171 0.14726,-0.5314 0.18186,-0.7838 0.25948,-1.9003 0.10868,-1.5641 0.22489,-2.1076 0.61097,-2.8583 l 0.20581,-0.4005 -0.64459,-1.0464 c -2.35327,-3.8199 -3.83331,-6.4339 -4.11307,-7.2643 -0.12597,-0.3734 -0.12464,-0.5442 0.005,-0.6645 0.1486,-0.1385 0.35796,-0.1198 0.62494,0.056 0.44684,0.2935 1.95035,1.8804 3.63686,3.8387 0.85648,0.9944 0.9333,1.0848 2.02629,2.3839 0.36194,0.4305 0.65726,0.7414 0.70011,0.7375 0.0399,0 0.30828,-0.1134 0.59442,-0.2439 1.0221,-0.4659 1.87153,-0.6373 2.95675,-0.5967 1.06362,0.04 1.94564,0.2999 2.90754,0.8577 0.20005,0.116 0.36993,0.2031 0.37747,0.1936 0.009,-0.01 0.16634,-0.3954 0.35264,-0.8575 0.37259,-0.9232 0.49364,-1.0968 0.7647,-1.0968 0.43203,0 1.0752,0.7417 1.47388,1.6994 0.16943,0.4075 0.36416,1.0659 0.40407,1.369 0.0311,0.2224 0.0311,0.2227 0.2932,0.3096 0.42139,0.1391 1.48709,0.622 1.94414,0.8811 2.64053,1.4968 4.03483,3.4658 4.48637,6.3358 0.12819,0.8134 0.11755,2.5511 -0.0221,3.913 -0.0913,0.8822 -0.10468,1.2159 -0.0865,2.1703 0.0221,1.245 0.0536,1.4247 0.34021,2.0318 0.11976,0.2544 0.25195,0.4338 0.50663,0.6884 0.59265,0.5927 1.21333,0.7968 2.25362,0.7414 l 0.56842,-0.03 0.083,0.1268 c 0.0825,0.1259 0.0816,0.1295 -0.12286,0.5202 -0.26348,0.5033 -0.68824,0.9179 -1.17664,1.1488 -0.52124,0.2465 -0.7585,0.2885 -1.60056,0.2831 -0.64893,-0.01 -0.80751,-0.021 -1.21022,-0.1278 -0.25504,-0.068 -0.46653,-0.118 -0.47035,-0.1119 -0.004,0.01 -0.0311,0.176 -0.0617,0.3776 -0.0709,0.4756 -0.28032,1.1431 -0.59885,1.9113 -0.86331,2.0823 -0.93547,2.3622 -0.80942,3.1388 0.0528,0.326 0.2311,0.7886 0.40409,1.0505 0.20892,0.3158 0.0621,0.518 -0.32424,0.4455 -0.19251,-0.036 -0.68344,-0.3237 -0.94532,-0.5536 -0.45138,-0.3961 -0.9023,-1.1584 -1.1581,-1.9575 -0.0178,-0.062 -0.10069,0 -0.36594,0.2739 -0.42405,0.4394 -0.91241,0.8154 -1.47263,1.1339 -0.2373,0.135 -0.43159,0.261 -0.43159,0.2801 0,0.1313 0.75078,0.9896 1.97044,2.2524 1.85529,1.9211 2.03334,2.196 1.98437,3.0643 -0.0501,0.8886 -0.53156,1.8361 -1.61337,3.1756 -2.23884,2.7721 -3.13945,3.6933 -3.88916,3.9781 -0.59021,0.2243 -1.34488,0 -1.90927,-0.5636 -0.5167,-0.5174 -0.75942,-1.1583 -0.76151,-2.0105 -0.002,-0.7274 0.17344,-1.212 0.5081,-1.4064 0.0768,-0.045 0.34376,-0.1227 0.59256,-0.1733 0.52491,-0.1069 0.90269,-0.2834 1.37402,-0.6423 0.66011,-0.5025 1.38924,-1.3271 1.55195,-1.755 0.0443,-0.1107 0.0178,-0.1473 -0.31272,-0.4667 -0.91348,-0.8826 -2.04537,-1.7069 -3.17924,-2.3153 l -0.39344,-0.2112 -0.22311,0.2424 c -0.34997,0.3804 -0.68499,0.9268 -0.80878,1.3184 -0.37127,1.1745 -0.42405,3.8956 -0.11533,5.9825 0.21911,1.484 0.47235,2.4369 1.13059,4.2575 0.64778,1.7919 0.65341,1.9829 0.0697,2.3602 -0.58502,0.3781 -1.54462,0.5681 -2.4164,0.4785 z m -21.938942,-0.5779 c 0.16545,-0.027 0.4378,-0.1057 0.60476,-0.1752 0.28432,-0.1182 0.3065,-0.1383 0.34465,-0.3125 0.0399,-0.1811 0.0133,-0.9443 -0.0355,-0.9919 -0.0133,-0.013 -0.14638,5e-4 -0.2963,0.03 -0.75291,0.1481 -1.89388,0.1078 -2.94664,-0.1041 -0.39699,-0.08 -0.53258,-0.092 -0.54891,-0.05 -0.0266,0.068 0.0568,0.6746 0.12598,0.917 0.11976,0.4221 0.9282,0.72 1.98246,0.7306 0.25682,0 0.60213,-0.017 0.76767,-0.044 z m 23.157762,0 c 0.49542,-0.092 1.04969,-0.3655 1.09542,-0.5399 0.0178,-0.072 -0.26968,-1.1076 -0.32691,-1.174 -0.005,-0.01 -0.11843,0.031 -0.25238,0.082 -0.13352,0.051 -0.43691,0.1262 -0.67395,0.1676 -0.54469,0.095 -1.67502,0.063 -2.30941,-0.066 -0.2373,-0.048 -0.43158,-0.082 -0.43158,-0.075 0,0.094 0.35218,1.1355 0.40275,1.1918 0.10113,0.1122 0.58382,0.3174 0.91702,0.3898 0.3482,0.076 1.22947,0.089 1.57926,0.024 z m -11.91685,-0.3747 c 0.24928,-0.027 0.59451,-0.09 0.76719,-0.141 0.31448,-0.093 0.40941,-0.1766 0.40941,-0.3601 0,-0.1224 -0.16989,-0.6287 -0.3278,-0.9771 l -0.13129,-0.2895 -0.31892,0.091 c -0.62733,0.1799 -1.13544,0.2455 -1.92919,0.249 -0.45519,0 -0.90975,-0.022 -1.11157,-0.059 -0.18763,-0.034 -0.35086,-0.053 -0.36239,-0.041 -0.031,0.029 0.0781,0.3199 0.28565,0.7737 0.16013,0.3504 0.19827,0.3988 0.39123,0.4954 0.49878,0.2498 1.43275,0.3535 2.3275,0.2583 z m -10.544782,-1.6345 0.2036,-0.058 -0.0311,-0.2613 c -0.16501,-1.4675 -0.23731,-3.1441 -0.17211,-3.9725 0.12154,-1.5373 0.44654,-2.3728 1.43795,-3.6972 0.48991,-0.6546 1.69676,-1.851 2.62678,-2.6042 1.43492,-1.162 2.014222,-1.8085 2.762862,-3.0836 0.65044,-1.1078 1.27023,-2.6477 1.53469,-3.813 0.13617,-0.6006 0.24662,-0.721 0.49945,-0.5441 0.12996,0.091 0.13307,0.2519 0.0133,0.7208 -0.33977,1.3335 -0.83563,2.5866 -1.47196,3.7208 -0.25106,0.4475 -0.32292,0.3852 0.58213,0.5045 0.7572,0.1 1.49219,0.2375 1.84362,0.3455 1.11814,0.3436 2.25348,0.5991 3.36048,0.7561 0.84614,0.1201 2.56725,0.1678 3.24515,0.09 0.51453,-0.059 1.20014,-0.1819 1.2866,-0.2307 0.0355,-0.02 0.009,-0.2068 -0.0909,-0.5985 -0.13839,-0.5559 -0.13972,-0.5721 -0.0555,-0.6651 0.0967,-0.107 0.31448,-0.1268 0.39033,-0.035 0.10202,0.1229 0.44179,1.6372 0.58905,2.6237 0.19295,1.2933 0.25372,2.2676 0.28432,4.5389 0.0355,2.5967 0.10912,3.6097 0.36861,5.0637 0.14859,0.8307 0.19827,1.0054 0.29585,1.0321 0.70345,0.1926 1.71504,0.2863 2.39094,0.2216 0.47354,-0.045 1.12017,-0.2052 1.12017,-0.2767 0,-0.019 -0.12641,-0.4103 -0.28033,-0.8692 -0.64436,-1.9161 -0.95685,-3.7403 -1.01167,-5.9065 -0.0355,-1.4488 0.0882,-2.8568 0.31847,-3.5939 0.23597,-0.7547 0.57574,-1.2207 1.83116,-2.5113 1.58072,-1.6252 2.22424,-2.4302 3.15967,-3.9527 1.03075,-1.6777 1.72923,-3.1588 2.30453,-4.8867 0.48273,-1.4499 0.76653,-2.7193 0.94239,-4.2148 0.10114,-0.8599 0.11534,-3.1063 0.0222,-3.8272 -0.27945,-2.2109 -0.85679,-3.8638 -1.89709,-5.4319 -0.32644,-0.4917 -0.89839,-1.2208 -0.95578,-1.2178 -0.0133,5e-4 -0.10867,0.1739 -0.21157,0.385 -0.15837,0.3258 -0.20582,0.386 -0.31272,0.3983 -0.16989,0.02 -0.31759,-0.066 -0.31759,-0.1845 0,-0.053 0.0612,-0.2258 0.13617,-0.3834 0.165,-0.3476 0.26436,-0.7206 0.35264,-1.3248 0.22088,-1.5117 0.10025,-2.4611 -0.45984,-3.6293 -0.224,-0.4668 -0.668,-1.0968 -0.77313,-1.0968 -0.0221,0 -0.13573,0.2258 -0.2515,0.5017 -0.19339,0.4601 -0.41784,1.0234 -1.59332,4.0023 -0.22312,0.5647 -0.43558,1.074 -0.47271,1.1318 -0.13085,0.2039 -0.45748,0.09 -0.44822,-0.1564 0.003,-0.074 0.0794,-0.3124 0.16989,-0.5288 0.0909,-0.2164 0.15657,-0.4015 0.14682,-0.4114 -0.009,-0.01 -0.25639,0.079 -0.5478,0.1978 -1.33979,0.5457 -2.33745,1.3006 -2.94828,2.2308 -0.23553,0.359 -0.40763,0.6747 -1.16284,2.1335 -0.65017,1.2561 -1.35416,2.0479 -2.32458,2.6147 -0.17876,0.1044 -0.32513,0.1998 -0.32513,0.212 0,0.1493 0.27678,0.958 0.63132,1.8454 0.24219,0.6059 0.47564,1.2465 0.51879,1.4236 0.12419,0.5102 0.10468,1.109 -0.0567,1.7454 -0.10601,0.4171 -0.13661,0.6411 -0.13661,1.0045 0,0.4341 0.009,0.4902 0.15259,0.7778 0.0838,0.1705 0.22665,0.375 0.31714,0.4544 0.57255,0.5027 1.78903,0.7706 2.67974,0.5901 0.90997,-0.1844 1.32403,-0.4475 1.60003,-1.0165 0.22444,-0.4625 0.29097,-0.7697 0.28565,-1.3202 -0.005,-0.4451 -0.0221,-0.5377 -0.20627,-0.9836 -0.11931,-0.2909 0.0759,-0.5287 0.32426,-0.3957 0.22355,0.1197 0.42227,0.7735 0.4236,1.395 l 5.3e-4,0.3424 0.28476,-0.3891 c 0.16944,-0.2319 0.75286,-0.851 1.44384,-1.5326 0.63762,-0.6289 1.25284,-1.2739 1.36719,-1.4334 0.4174,-0.5821 0.68084,-1.4434 0.81815,-2.6763 0.087,-0.7813 0.1078,-0.8354 0.31849,-0.8369 0.26436,0 0.30428,0.2695 0.17875,1.2268 -0.13396,1.0214 -0.40985,1.8757 -0.80144,2.4796 -0.14592,0.2252 -0.58008,0.6935 -1.36617,1.4736 -1.23939,1.23 -1.55233,1.5888 -1.89325,2.1703 -0.6369,1.0866 -1.22286,1.5936 -2.21697,1.9184 -0.36417,0.1191 -0.45758,0.1299 -1.14346,0.1324 -0.64383,0 -0.80152,-0.012 -1.14351,-0.1062 -1.04045,-0.2859 -1.60006,-0.7468 -1.86331,-1.5347 -0.13928,-0.4169 -0.12996,-1.1446 0.0222,-1.6468 0.0178,-0.061 -0.12908,-0.068 -1.18764,-0.053 -1.78162,0.025 -2.91475,-0.089 -4.15499,-0.4189 -2.90938,-0.7727 -3.44125,-0.8767 -4.67001,-0.9132 -0.941602,-0.028 -1.476932,0.039 -2.168312,0.2696 -0.75628,0.2526 -1.24957,0.5727 -2.0042,1.3005 -1.37709,1.3279 -2.20344,2.7187 -2.55616,4.3016 -0.15037,0.6754 -0.15303,1.9459 -0.005,2.6081 0.15214,0.6822 0.36549,1.3035 0.7407,2.1585 0.4967,1.1315 0.55623,1.3458 0.55441,1.9955 -0.001,0.4144 -0.0266,0.6218 -0.10778,0.9101 -0.34554,1.2156 -1.11095,2.6662 -2.07277,3.9295 -0.26304,0.3456 -0.55588,0.7436 -0.65053,0.8844 -0.51986,0.7731 -1.65378,5.302 -1.8564,7.4145 -0.0266,0.2824 -0.0572,0.5902 -0.067,0.6842 l -0.0177,0.1707 0.63673,0.1195 c 0.34997,0.066 0.69977,0.1287 0.77677,0.14 0.2892,0.042 1.96365,-0.01 2.16388,-0.067 z m 19.427792,-23.6628 c -0.22222,-0.2223 -0.2923,-0.5527 -0.16767,-0.7932 0.20006,-0.3868 0.75455,-0.061 0.80592,0.4736 0.0311,0.3167 -0.0683,0.4615 -0.31404,0.4615 -0.14061,0 -0.21424,-0.032 -0.32381,-0.1419 z m 3.16855,-6.6102 c -0.55667,-0.2292 -0.81341,-1.068 -0.49755,-1.6257 0.15835,-0.2792 0.31893,-0.3735 0.63665,-0.3735 0.23288,0 0.29808,0.02 0.45168,0.1421 0.4134,0.3274 0.5678,1.0033 0.33311,1.4592 -0.1477,0.2868 -0.30605,0.3945 -0.60692,0.4122 -0.13573,0.01 -0.27855,0 -0.31714,-0.014 z m 2.6443,-5.9817 c -0.10557,-0.1168 -0.0972,-0.2332 0.0399,-0.5304 0.18583,-0.406 0.30959,-0.9784 0.29408,-1.3594 l -0.0133,-0.3352 -0.087,0.1867 c -0.13972,0.2995 -0.30295,0.7097 -0.50237,1.2602 -0.10247,0.2823 -0.21689,0.5606 -0.25461,0.6184 -0.13041,0.2002 -0.43957,0.09 -0.43957,-0.1564 0,-0.1645 0.43647,-1.3561 0.70686,-1.9299 0.30695,-0.6518 0.41961,-0.7958 0.6224,-0.7958 0.19695,0 0.27324,0.075 0.38946,0.3853 0.1415,0.3781 0.16811,0.7884 0.0834,1.2797 -0.0825,0.4789 -0.31583,1.1659 -0.45585,1.3442 -0.10912,0.1386 -0.27368,0.1527 -0.38236,0.032 z m -15.2316,35.8609 c 0.44627,-0.067 0.95273,-0.182 0.99647,-0.2257 0.0133,-0.012 -0.0608,-0.1867 -0.1619,-0.3883 -0.10113,-0.2016 -0.30429,-0.6396 -0.45173,-0.9733 -0.32601,-0.738 -0.41517,-0.9181 -1.26433,-2.5437 -1.71619,-3.2863 -1.85817,-3.9902 -1.11773,-5.5395 0.2861,-0.5985 0.53356,-0.9963 1.06277,-1.7082 0.20582,-0.2769 0.36639,-0.511 0.35663,-0.5202 -0.0546,-0.051 -1.60978,-0.3011 -2.32813,-0.3738 l -0.25682,-0.026 -0.25682,0.3603 c -0.30917,0.4342 -0.901902,1.0642 -1.462702,1.5553 l -0.41251,0.3613 0.005,0.7999 c 0.009,1.2101 0.0621,1.6467 0.30606,2.5238 0.35263,1.2694 1.989152,6.0624 2.212182,6.4791 0.0355,0.065 0.15258,0.1098 0.43469,0.1651 0.21291,0.042 0.42893,0.084 0.48016,0.094 0.24307,0.048 1.44672,0.022 1.85808,-0.04 z m -17.238892,-2.7605 c 1.64859,-0.4149 2.60008,-0.93 3.56363,-1.9294 l 0.53099,-0.5508 0.15125,-0.5536 c 0.24574,-0.8992 0.56315,-1.9032 0.71383,-2.2573 0.0492,-0.1155 0.2067,-0.3659 0.34997,-0.5565 l 0.26081,-0.3464 0.0177,-1.0304 0.0177,-1.0305 -0.16234,0.4641 c -0.35929,1.0273 -0.87608,1.8805 -1.599,2.6408 -0.4708,0.4951 -1.06264,0.9324 -1.26198,0.9324 -0.13928,0 -0.29187,-0.1202 -0.29098,-0.2289 3.6e-4,-0.041 0.0448,-0.211 0.0989,-0.3779 0.15658,-0.4829 0.1761,-1.6098 0.0399,-2.4031 -0.11843,-0.6969 -0.32912,-1.4525 -0.63381,-2.2737 -0.33977,-0.9155 -0.545,-1.3712 -1.29879,-2.8842 -0.61234,-1.2292 -0.72789,-1.4969 -0.8461,-1.9603 -0.12597,-0.4941 -0.13662,-0.6017 -0.13617,-1.3536 5.3e-4,-0.6982 0.0177,-0.8811 0.11044,-1.2601 0.55415,-2.2419 2.08781,-3.7207 4.28859,-4.1351 0.31316,-0.059 0.57482,-0.071 1.15202,-0.052 0.83058,0.027 1.34209,0.1296 2.1421,0.4292 0.24086,0.09 0.45745,0.164 0.48145,0.164 0.047,0 0.29364,-0.3552 0.29364,-0.4231 0,-0.066 -0.64437,-0.5026 -1.02681,-0.696 -0.44569,-0.2254 -1.03399,-0.433 -1.54023,-0.5436 -0.57037,-0.1247 -1.71747,-0.1134 -2.34955,0.023 -0.66601,0.1437 -1.23231,0.345 -1.92103,0.6827 -1.8422,0.9033 -3.00088,2.1216 -3.5442,3.7265 -0.41162,1.2162 -0.49111,2.4952 -0.25416,4.0915 0.25106,1.6881 0.41961,2.1645 1.77886,5.0174 0.93069,1.9534 1.17274,2.7897 1.16853,4.0372 -0.004,1.3066 -0.38014,2.7241 -1.12546,4.2473 -0.1446,0.2952 -0.27057,0.5548 -0.28077,0.5769 -0.0266,0.062 0.42227,-0.013 1.11148,-0.1866 z m 33.365552,0.057 c 0.11976,-0.061 0.31228,-0.196 0.42805,-0.3004 l 0.21024,-0.19 -0.16323,-0.1265 c -0.56027,-0.4339 -1.12696,-1.2136 -1.43001,-1.9675 -0.10645,-0.2654 -0.20182,-0.4903 -0.21113,-0.4998 -0.009,-0.01 -0.18496,0.018 -0.38944,0.061 -0.36196,0.076 -0.37482,0.084 -0.46148,0.2652 -0.12909,0.2706 -0.15747,1.0212 -0.0532,1.4201 0.19826,0.7589 0.63398,1.2476 1.27457,1.4299 0.27456,0.078 0.51472,0.05 0.7961,-0.092 z m 2.05167,-2.0059 c 1.55374,-1.8703 1.7954,-2.1761 2.16546,-2.7402 0.41429,-0.6316 0.62165,-1.0756 0.72026,-1.5425 0.17654,-0.8356 0.0355,-1.0728 -1.70536,-2.8633 -0.99873,-1.0274 -1.35159,-1.4087 -1.6415,-1.7736 -0.32292,-0.4068 -0.72944,-1.0029 -0.88282,-1.2952 -0.0638,-0.1219 -0.1282,-0.2217 -0.14239,-0.2217 -0.0133,0 -0.12863,0.1418 -0.25416,0.3151 -0.45594,0.6292 -1.04104,1.3103 -1.74112,2.0266 l -0.71494,0.7314 0.2249,0.1268 c 0.99038,0.5592 1.43243,0.8495 2.20717,1.4494 0.74602,0.5777 1.68242,1.498 1.68181,1.653 -5.2e-4,0.142 -0.2657,0.7084 -0.45074,0.9627 -0.43338,0.5959 -1.28031,1.38 -1.84825,1.7114 l -0.30562,0.1785 0.0465,0.1716 c 0.18984,0.6977 0.79447,1.5853 1.4132,2.075 l 0.23242,0.184 0.24795,-0.2736 c 0.13617,-0.1505 0.47276,-0.5444 0.74768,-0.8753 z m -31.977352,-3.5439 c 1.79448,-1.8957 2.27282,-4.4739 1.27458,-6.8693 -0.56479,-1.3552 -0.73986,-2.0278 -0.77743,-2.9871 -0.0492,-1.2577 0.2617,-2.1916 1.00485,-3.0183 0.39698,-0.4415 0.9863,-0.7234 1.74967,-0.837 l 0.35131,-0.052 0.19117,-0.3983 c 0.10513,-0.219 0.18541,-0.4028 0.17831,-0.4084 -0.009,-0.01 -0.18097,-0.074 -0.3859,-0.1527 -1.1793,-0.4501 -2.35762,-0.5432 -3.40173,-0.2687 -1.48615,0.3906 -2.57603,1.3341 -3.20043,2.7705 -0.47289,1.0879 -0.51392,2.6818 -0.0963,3.742 0.0555,0.1412 0.37924,0.8133 0.71937,1.4936 1.1262,2.2529 1.6658,3.725 1.92453,5.2507 0.0829,0.4888 0.11532,1.7614 0.051,1.9953 -0.0177,0.072 -0.0177,0.1284 0.009,0.1284 0.0222,0 0.20803,-0.1748 0.41029,-0.3885 z m 3.14092,-2.1086 c 0.16012,-0.2567 0.4134,-0.7187 0.56332,-1.0268 0.55534,-1.141 0.74816,-1.7679 0.74918,-2.4358 5.3e-4,-0.5042 -0.09,-0.8144 -0.51631,-1.7666 -0.62356,-1.3925 -0.83616,-2.2099 -0.87351,-3.3587 -0.0266,-0.8503 0.0355,-1.4475 0.224,-2.1288 0.051,-0.1834 0.0834,-0.3423 0.0727,-0.3531 -0.0311,-0.032 -0.59894,0.1116 -0.82409,0.2097 -0.48854,0.2128 -0.89769,0.6565 -1.1915,1.2921 -0.24662,0.5334 -0.31848,0.8973 -0.31892,1.6102 -1.8e-4,0.8034 0.0923,1.2492 0.40009,1.9301 0.91099,2.0153 1.24255,3.5494 1.26376,5.8472 0.009,0.9427 -0.0177,0.9324 0.45119,0.1805 z m 32.133912,-4.621 c -0.0892,-0.3784 -0.0847,-1.1182 0.009,-1.5307 0.0399,-0.1847 0.22888,-0.6929 0.41562,-1.1293 0.71643,-1.6744 0.87448,-2.168 1.02046,-3.1871 0.0133,-0.084 -0.0355,-0.1408 -0.23154,-0.2705 -0.33312,-0.2211 -0.79784,-0.7224 -1.06029,-1.1437 -0.23908,-0.3839 -0.49413,-0.9979 -0.75956,-1.8287 -0.0963,-0.302 -0.18452,-0.54 -0.19561,-0.5288 -0.0133,0.011 -0.0799,0.3149 -0.15259,0.675 -0.15037,0.7443 -0.3198,1.4196 -0.49568,1.9765 l -0.12064,0.3823 0.10201,0.4923 c 0.0564,0.2707 0.11222,0.5343 0.12509,0.5856 0.0133,0.051 0.0399,0.7549 0.063,1.5635 0.055,2.0151 0.16944,2.5809 0.71232,3.5101 0.17698,0.3027 0.57223,0.7752 0.61393,0.7335 0.0133,-0.011 -0.009,-0.1462 -0.0453,-0.3 z m -3.77778,-0.2635 c 0.15393,-0.081 0.43648,-0.2524 0.62779,-0.3811 0.54037,-0.3636 1.40999,-1.2687 1.40604,-1.4634 -0.0221,-1.1453 -0.10601,-3.2064 -0.13307,-3.3269 -0.0355,-0.1573 -0.0399,-0.1488 -0.23819,0.3501 -0.23067,0.5856 -0.98103,2.1501 -1.29662,2.704 -0.11712,0.2058 -0.39123,0.6623 -0.60827,1.0144 -0.28697,0.4654 -0.38679,0.6659 -0.36505,0.7345 0.0443,0.1395 0.26038,0.5156 0.29631,0.5155 0.0178,-1e-4 0.15702,-0.066 0.31094,-0.1472 z m 8.34688,-5.8036 c 0.41429,-0.1079 0.72883,-0.2912 1.03283,-0.6016 l 0.27945,-0.2853 -0.48889,-0.029 c -0.58267,-0.035 -0.97766,-0.1319 -1.39816,-0.3437 -0.79717,-0.4014 -1.37131,-1.1515 -1.60999,-2.1031 -0.17432,-0.6945 -0.21381,-2.067 -0.0932,-3.2414 0.13927,-1.3601 0.16456,-1.7679 0.16543,-2.6604 5.4e-4,-1.3887 -0.1162,-2.1867 -0.47478,-3.2405 -0.3961,-1.1641 -0.97384,-2.0649 -1.88133,-2.9336 -0.84955,-0.8133 -1.82676,-1.4376 -3.10782,-1.9852 -0.82038,-0.3507 -0.72744,-0.3852 -0.76132,0.2823 -0.0178,0.315 -0.0533,0.7339 -0.0825,0.9309 l -0.0532,0.3583 0.34952,0.3927 c 1.50558,1.6922 2.43853,3.7793 2.84018,6.3538 0.12153,0.7799 0.17254,2.9104 0.0927,3.8671 l -0.0536,0.642 0.18274,0.3848 c 0.10069,0.2117 0.30206,0.7419 0.44786,1.1783 0.42539,1.2734 0.77155,1.8853 1.34037,2.3683 0.75682,0.6426 2.22048,0.94 3.27443,0.6655 z m -20.80447,-9.4042 c 0.9914,-0.249 1.95465,-0.9939 2.62616,-2.031 0.13306,-0.2053 0.46436,-0.8133 0.73644,-1.3511 0.27191,-0.5378 0.60671,-1.159 0.74368,-1.3804 0.76834,-1.2421 1.9865,-2.1478 3.73337,-2.7759 l 0.60951,-0.2191 0.37082,-0.9337 c 0.20404,-0.5135 0.37659,-0.9495 0.38412,-0.969 0.0222,-0.055 -0.52961,-0.3968 -0.97042,-0.6032 -1.5463,-0.7241 -3.36288,-0.6792 -4.97048,0.1226 -0.17964,0.09 -0.33578,0.1713 -0.34686,0.1816 -0.009,0.01 0.0443,0.086 0.12109,0.1695 0.35928,0.3846 1.08939,1.3359 1.08939,1.4198 0,0.117 -0.0709,0.1808 -0.53675,0.4837 -0.50829,0.3305 -1.07623,0.8188 -1.35164,1.1622 -0.24972,0.3112 -0.38722,0.3779 -0.55404,0.2685 -0.0595,-0.039 -0.30607,-0.3875 -0.54808,-0.7746 -0.24218,-0.3872 -0.4538,-0.7042 -0.47066,-0.7045 -0.0461,-10e-4 -0.30162,0.6379 -0.38279,0.9563 -0.0958,0.3777 -0.1588,0.8846 -0.21646,1.7502 -0.0927,1.3874 -0.21203,2.0294 -0.49116,2.6419 -0.4063,0.8912 -1.1883,1.6867 -1.97119,2.0049 -0.13618,0.055 -0.26038,0.1138 -0.27679,0.1301 -0.0497,0.049 0.65816,0.3526 1.04535,0.4478 0.49603,0.1219 1.1502,0.1233 1.6277,0 z m 2.55589,-7.7886 c 0.18364,-0.1494 0.45443,-0.3515 0.60206,-0.4491 0.1477,-0.098 0.26835,-0.1869 0.26835,-0.1984 0,-0.012 -0.079,-0.1255 -0.17521,-0.2531 l -0.17521,-0.2321 -1.14195,0.029 c -0.62804,0.016 -1.14861,0.035 -1.15677,0.043 -0.009,0.01 0.22977,0.4066 0.52864,0.8852 l 0.54346,0.8704 0.18629,-0.2116 c 0.10247,-0.1165 0.33666,-0.334 0.51995,-0.4834 z m -0.93818,-1.6395 c 0.53267,-3e-4 0.96839,-0.016 0.96825,-0.035 -2.6e-4,-0.044 -0.50699,-0.6608 -1.4005,-1.7039 l -0.1171,-0.1368 -0.89289,0.034 -0.89294,0.034 0.3136,0.5188 c 0.79296,1.3125 0.82201,1.3524 0.95814,1.3158 0.0523,-0.014 0.53099,-0.026 1.06367,-0.026 z m -0.99486,-2.4092 c 0.0133,-0.011 -0.0537,-0.098 -0.14416,-0.1943 -0.0905,-0.096 -0.43469,-0.4892 -0.76475,-0.8743 -0.33001,-0.385 -0.62236,-0.7153 -0.64929,-0.7338 -0.0444,-0.029 -1.1467,0 -1.18218,0.033 -0.009,0.01 0.22932,0.4187 0.52567,0.9164 l 0.5387,0.9048 0.82787,-0.016 c 0.45532,-0.01 0.837,-0.025 0.84814,-0.036 z m -2.12773,-2.4598 c -0.54603,-0.6441 -1.88829,-2.0761 -2.14543,-2.2889 l -0.16057,-0.1329 0.12065,0.273 c 0.11489,0.2603 0.52416,1.0268 1.00552,1.8831 l 0.22311,0.3968 0.52167,-0.015 0.52163,-0.015 z m -21.719332,15.7208 c -2.86329,-0.3127 -4.91711,-1.2574 -5.52564,-2.5415 -0.12908,-0.2723 -0.14504,-0.3532 -0.14504,-0.7265 0,-0.3516 0.0177,-0.458 0.11488,-0.6534 0.41695,-0.8483 1.64744,-1.2759 2.59125,-0.9005 0.12908,0.051 0.27856,0.1104 0.33267,0.1315 0.0918,0.036 0.10335,0.014 0.17344,-0.3432 0.25815,-1.3119 1.28797,-2.2225 2.80549,-2.4802 0.89276,-0.1515 1.75358,0.053 2.51615,0.5987 0.28433,0.2035 0.7133,0.6269 0.90012,0.8888 l 0.0967,0.1354 0.14328,-0.2081 c 0.079,-0.1145 0.17565,-0.2352 0.21557,-0.2682 0.0643,-0.053 0.0541,-0.096 -0.0909,-0.3841 -0.35397,-0.7032 -0.57007,-1.5571 -0.61221,-2.4209 -0.13262,-2.7146 1.56578,-5.2078 4.13325,-6.068 0.57939,-0.1941 1.02526,-0.281 1.60472,-0.3127 0.44224,-0.024 0.51308,-0.017 0.59509,0.057 0.094,0.085 0.12065,0.2375 0.0572,0.33 -0.0177,0.027 -0.11488,0.1044 -0.2138,0.1707 -0.33001,0.2215 -0.75836,0.6308 -1.02232,0.9767 -1.48478,1.9458 -1.18778,4.8703 0.68162,6.7117 0.66033,0.6505 1.32581,1.0721 2.10307,1.3324 0.71835,0.2406 1.55056,0.3209 2.366892,0.2286 0.24662,-0.028 0.27013,-0.022 0.34066,0.086 0.11089,0.1693 0.0475,0.2851 -0.380582,0.6942 -0.42005,0.4011 -0.9989,0.7987 -1.48278,1.018 -0.17965,0.082 -0.36861,0.1679 -0.42006,0.1919 -0.18541,0.087 -0.75512,0.2487 -1.14351,0.3244 l -0.39654,0.077 0.0177,0.2367 c 0.0177,0.301 -0.10069,0.7765 -0.25682,1.013 -0.61962,0.9385 -2.75768,1.6978 -5.80296,2.0609 -0.87196,0.104 -3.4974,0.1307 -4.29396,0.043 z m 3.96723,-0.5644 c 2.35669,-0.2175 4.48722,-0.8251 5.37771,-1.5335 0.32824,-0.2611 0.41828,-0.4284 0.44268,-0.8196 0.0177,-0.2538 0.001,-0.334 -0.0887,-0.4877 -0.18009,-0.3089 -0.66796,-0.4929 -1.30696,-0.4929 -0.44609,0 -0.45035,-0.01 -0.44627,-0.618 0.003,-0.4362 -0.0133,-0.5707 -0.0998,-0.7916 -0.22355,-0.5773 -0.77743,-0.9739 -1.58684,-1.1365 -0.93628,-0.1882 -1.59914,0.1604 -2.02948,1.0673 -0.17255,0.3635 -0.17299,0.3641 -0.34243,0.3497 -0.14993,-0.013 -0.18497,-0.042 -0.2963,-0.2451 -0.64015,-1.1663 -1.68324,-1.8084 -2.82035,-1.7361 -1.65667,0.1052 -2.77329,1.1812 -2.7764,2.6753 -10e-4,0.5159 -0.16855,0.6115 -0.57055,0.3256 -0.12065,-0.086 -0.34909,-0.2142 -0.50779,-0.2854 -0.26082,-0.117 -0.32691,-0.1274 -0.6905,-0.1089 -0.32069,0.016 -0.45421,0.047 -0.65887,0.1504 -0.49501,0.2504 -0.71262,0.5413 -0.71857,0.9604 -0.009,0.75 0.80973,1.5203 2.20655,2.0722 1.68785,0.6667 4.20138,0.9047 6.91324,0.6544 z m 6.80346,-3.4315 c 0.78457,-0.1691 1.5106,-0.4878 2.08448,-0.915 l 0.30073,-0.224 -0.21867,-0.012 c -1.53509,-0.08 -2.85872,-0.6694 -3.95011,-1.7592 -0.8115,-0.8103 -1.35979,-1.7578 -1.6359,-2.8267 -0.16944,-0.6556 -0.21336,-1.7254 -0.0971,-2.357 0.18496,-1.0041 0.64219,-1.9526 1.25821,-2.61 0.11843,-0.1263 0.20803,-0.2369 0.19871,-0.2459 -0.0266,-0.029 -0.62626,0.1237 -0.9753,0.2491 -0.79096,0.284 -1.41657,0.6879 -2.05037,1.3237 -0.73774,0.7401 -1.20157,1.5502 -1.4697,2.5666 -0.11977,0.4547 -0.12908,0.5542 -0.12775,1.3769 0.002,0.8051 0.0133,0.9281 0.12287,1.3353 0.11532,0.428 0.43203,1.2343 0.50104,1.2771 0.0177,0.011 0.16679,-0.034 0.33046,-0.1 0.71063,-0.287 1.9161,-0.057 2.64399,0.5045 0.47719,0.3682 0.80826,1.044 0.80826,1.6499 0,0.3217 0.0266,0.3485 0.35663,0.3499 0.24218,0 0.73981,0.1779 0.98076,0.3484 0.26835,0.1899 0.34553,0.1955 0.93858,0.068 z m 4.239172,-2.9755 c -0.0133,-0.022 -0.0453,-0.2581 -0.071,-0.5251 -0.0719,-0.7503 -0.2617,-1.2223 -0.64152,-1.5917 -0.3065,-0.2983 -0.674262,-0.459 -1.141732,-0.4992 -0.37792,-0.032 -0.45834,-0.076 -0.45989,-0.2482 -0.001,-0.1101 0.11311,-0.1589 0.44929,-0.1924 1.109882,-0.1104 1.685142,-0.8344 1.816302,-2.2858 0.0266,-0.2768 0.0444,-0.3245 0.14149,-0.3692 0.0812,-0.037 0.14372,-0.037 0.22356,-6e-4 0.10025,0.046 0.11399,0.089 0.14327,0.4626 0.10823,1.3855 0.70744,2.107 1.82296,2.1957 0.3513,0.028 0.44356,0.07 0.44356,0.2024 0,0.1477 -0.13218,0.231 -0.36683,0.231 -0.54877,0 -1.12754,0.2789 -1.42916,0.6887 -0.27678,0.3761 -0.41562,0.8302 -0.4727,1.5465 -0.0177,0.1953 -0.0523,0.3706 -0.0816,0.3894 -0.0736,0.047 -0.34554,0.044 -0.3757,0 z m 0.36195,-1.7581 c 0.19029,-0.401 0.54004,-0.7982 0.84499,-0.96 l 0.20537,-0.1088 -0.21824,-0.1246 c -0.32646,-0.1866 -0.6456,-0.5567 -0.84432,-0.9795 l -0.1752,-0.3725 -0.0528,0.1763 c -0.114,0.3811 -0.51702,0.8897 -0.89849,1.1345 l -0.23065,0.1481 0.26969,0.1743 c 0.14859,0.096 0.34908,0.2671 0.44627,0.3803 0.16633,0.1942 0.45048,0.7182 0.45048,0.831 0,0.1032 0.0399,0.045 0.20271,-0.2991 z m 12.87499,-5.7728 c -0.0311,-0.031 -0.0563,-0.1515 -0.0567,-0.2683 -9.7e-4,-0.2965 -0.11355,-0.796 -0.23109,-1.0263 -0.24218,-0.4747 -0.6512,-0.7414 -1.20516,-0.7858 -0.33578,-0.027 -0.43381,-0.1187 -0.34243,-0.3198 0.0399,-0.092 0.0852,-0.1107 0.25327,-0.1107 0.84792,0 1.42721,-0.6404 1.51007,-1.6693 0.0178,-0.1986 0.0496,-0.3873 0.075,-0.4194 0.0505,-0.064 0.25949,-0.077 0.34686,-0.022 0.0311,0.02 0.0759,0.2344 0.10114,0.4777 0.0634,0.6161 0.19473,0.9461 0.4924,1.2385 0.18852,0.1851 0.30118,0.253 0.5222,0.315 0.15481,0.043 0.3655,0.079 0.46774,0.079 0.20893,0 0.29808,0.064 0.29808,0.2137 0,0.1481 -0.0803,0.1913 -0.42183,0.2267 -0.41562,0.043 -0.76705,0.2248 -0.97988,0.5064 -0.22266,0.2946 -0.32025,0.5833 -0.37436,1.1089 -0.0266,0.2499 -0.0697,0.4523 -0.10291,0.4733 -0.0874,0.055 -0.28876,0.045 -0.35175,-0.018 z m 0.31937,-1.535 c 0.10778,-0.2299 0.59703,-0.7426 0.70881,-0.7426 0.0266,0 -0.0484,-0.067 -0.17121,-0.1479 -0.23953,-0.1586 -0.503,-0.4808 -0.59495,-0.7273 -0.0697,-0.1861 -0.0967,-0.1892 -0.16102,-0.019 -0.0803,0.213 -0.34908,0.5422 -0.58585,0.7182 l -0.21913,0.1627 0.11843,0.063 c 0.18186,0.097 0.60893,0.5811 0.67551,0.7652 0.0311,0.09 0.0728,0.1644 0.0887,0.1644 0.0178,0 0.0794,-0.107 0.14061,-0.2376 z m -12.69548,-0.9262 c -0.0266,-0.05 -0.0483,-0.1719 -0.0483,-0.2716 0,-0.2749 -0.12775,-0.6478 -0.28211,-0.8238 -0.169,-0.1925 -0.36727,-0.2893 -0.67448,-0.3295 -0.27856,-0.036 -0.31537,-0.066 -0.29542,-0.2386 0.0133,-0.1232 0.0355,-0.1353 0.3349,-0.1903 0.20403,-0.038 0.37702,-0.1028 0.47909,-0.1804 0.22178,-0.169 0.38945,-0.5221 0.42404,-0.8921 0.031,-0.3274 0.098,-0.4373 0.2688,-0.4373 0.15569,0 0.19606,0.077 0.23199,0.442 0.0399,0.4043 0.14903,0.6584 0.36594,0.8485 0.15524,0.1365 0.48902,0.2497 0.73556,0.2497 0.1202,0 0.20359,0.1598 0.14282,0.2734 -0.031,0.057 -0.12109,0.097 -0.26259,0.1164 -0.31847,0.043 -0.59779,0.1839 -0.74137,0.3721 -0.14238,0.187 -0.25815,0.567 -0.25904,0.8507 -3.1e-4,0.1039 -0.0266,0.2142 -0.0568,0.245 -0.0887,0.089 -0.30783,0.068 -0.36239,-0.034 z m 0.56026,-1.558 0.10468,-0.073 -0.14416,-0.1213 c -0.0794,-0.067 -0.18895,-0.1941 -0.24396,-0.2831 l -0.0998,-0.1619 -0.11754,0.1756 c -0.0648,0.097 -0.17299,0.2226 -0.24086,0.2802 l -0.12331,0.1049 0.1211,0.092 c 0.0665,0.051 0.17964,0.1765 0.25105,0.2798 l 0.12997,0.1878 0.12907,-0.2036 c 0.071,-0.1119 0.1761,-0.2366 0.2342,-0.277 z m 6.60581,1.1548 c -0.0537,-0.053 -0.0732,-0.1671 -0.0732,-0.42 v -0.3468 h -0.36417 c -0.37348,0 -0.47608,-0.041 -0.47608,-0.1926 0,-0.1675 0.12997,-0.2274 0.49342,-0.2274 h 0.34687 v -0.3297 c 0,-0.3784 0.0523,-0.5104 0.20227,-0.5104 0.17742,0 0.21778,0.088 0.21778,0.4761 v 0.364 h 0.32957 c 0.37836,0 0.51037,0.052 0.51037,0.2024 0,0.1775 -0.0878,0.2177 -0.47608,0.2177 h -0.36417 v 0.364 c 0,0.221 -0.0222,0.3861 -0.0559,0.4201 -0.0776,0.078 -0.20359,0.07 -0.29053,-0.017 z m -3.79611,-3.1546 c -0.0355,-0.036 -0.0577,-0.1947 -0.0577,-0.4219 v -0.364 l -0.36151,-6e-4 c -0.19871,-4e-4 -0.38412,-0.016 -0.41162,-0.035 -0.0914,-0.062 -0.10735,-0.1855 -0.0355,-0.2856 0.0603,-0.086 0.11532,-0.099 0.43824,-0.099 h 0.36904 l 0.0133,-0.4084 0.0133,-0.4084 h 0.16146 c 0.15036,0 0.16412,0.013 0.20138,0.1867 0.0222,0.1027 0.0266,0.2856 0.0133,0.4065 l -0.0266,0.2197 0.38102,0.014 c 0.32113,0.012 0.39033,0.028 0.44045,0.107 0.0399,0.062 0.0457,0.129 0.0177,0.1983 -0.0355,0.097 -0.0696,0.1051 -0.42715,0.105 h -0.38678 l 0.009,0.2949 c 0.005,0.1621 -0.0177,0.3459 -0.0479,0.4084 -0.0639,0.1281 -0.21291,0.1693 -0.29985,0.083 z"
       id="path2431" />
    <path
       style="fill:#000000;stroke-width:0.0477915"
       d="m 172.35829,230.06707 c -0.0803,-0.085 -0.48459,-0.5747 -0.89844,-1.0873 -0.41385,-0.5125 -0.77713,-0.9365 -0.80728,-0.9421 -0.0301,-0.01 -0.19461,0.1735 -0.36546,0.398 -0.32672,0.4292 -0.43339,0.5191 -0.57249,0.4828 -0.0467,-0.012 -1.25418,-0.9036 -2.6834,-1.9809 -1.76565,-1.3309 -2.7006,-2.0669 -2.91685,-2.2963 -0.75314,-0.799 -1.14573,-1.8705 -1.07716,-2.9398 0.037,-0.5765 0.12936,-0.9158 0.39907,-1.4655 0.60693,-1.2369 1.96602,-1.9178 3.19669,-1.6015 0.57963,0.1489 1.35029,0.5907 1.7399,0.9974 0.0906,0.095 0.18034,0.1719 0.19945,0.1719 0.0191,0 0.13442,-0.1499 0.25625,-0.3331 0.43342,-0.652 1.08728,-1.2015 1.6975,-1.4266 0.42748,-0.1576 1.01786,-0.1902 1.50065,-0.083 1.26773,0.282 2.25806,1.3532 2.54011,2.7475 0.14139,0.6989 0.0629,1.5879 -0.20103,2.2755 -0.0195,0.051 0.0243,0.05 0.23066,-0.01 1.08117,-0.2878 2.23294,0.4707 2.54725,1.6775 0.0947,0.3635 0.0935,1.0046 -0.002,1.377 -0.10946,0.4243 -0.38405,0.916 -0.70038,1.2542 -0.37627,0.4022 -3.67605,2.9345 -3.82394,2.9345 -0.0652,0 -0.17399,-0.065 -0.25852,-0.1553 z m 1.8955,-1.7289 c 0.82798,-0.6328 1.60575,-1.2523 1.72836,-1.3766 0.75611,-0.7664 0.89376,-1.9923 0.31432,-2.7991 -0.64864,-0.9032 -1.70439,-0.8924 -2.60265,0.026 -0.44709,0.4574 -0.53818,0.4599 -0.77014,0.021 -0.21825,-0.4127 -0.66809,-0.8827 -1.00051,-1.0454 -0.92594,-0.453 -2.03675,0.2795 -2.262,1.4917 -0.0911,0.4905 0.0486,1.1647 0.32742,1.5794 0.29731,0.4423 2.66423,3.3084 2.7101,3.2817 0.0273,-0.016 0.72712,-0.5466 1.5551,-1.1794 z m -4.2366,-0.4653 c 0.23362,-0.2953 0.26205,-0.3526 0.20716,-0.4182 -0.66424,-0.7925 -0.87362,-1.1267 -1.0359,-1.653 -0.11845,-0.3842 -0.14215,-1.0466 -0.0513,-1.4338 0.16797,-0.7157 0.69738,-1.3993 1.31723,-1.701 0.32135,-0.1564 0.35622,-0.1628 0.88415,-0.1628 0.53035,0 0.56034,0.01 0.85591,0.1598 0.29591,0.1545 0.85804,0.6604 1.01646,0.9148 0.0645,0.1036 0.0841,0.1105 0.15303,0.053 0.14396,-0.1195 0.54512,-0.9917 0.62855,-1.3667 0.12184,-0.5476 0.0801,-1.4113 -0.0903,-1.8702 -0.19702,-0.5304 -0.35412,-0.7771 -0.74454,-1.1692 -0.55992,-0.5623 -1.14717,-0.7947 -1.89847,-0.7512 -0.83625,0.048 -1.67841,0.7019 -2.1714,1.6851 -0.23751,0.4736 -0.26346,0.5044 -0.42554,0.5044 -0.10247,0 -0.18124,-0.061 -0.35539,-0.2748 -0.42125,-0.5175 -1.05129,-0.9602 -1.65187,-1.1606 -0.25326,-0.085 -0.39151,-0.1002 -0.74845,-0.085 -0.3989,0.017 -0.47372,0.037 -0.84213,0.2192 -1.65663,0.8209 -1.97847,3.245 -0.6365,4.7943 0.22863,0.2639 0.82252,0.7372 2.75279,2.1935 1.3537,1.0214 2.48477,1.8586 2.51351,1.8607 0.0287,0 0.17409,-0.1504 0.32302,-0.3386 z"
       id="path1026" />
  </g>
</svg>
