<?xml version="1.0" encoding="UTF-8" standalone="no"?>
<!-- Created with Inkscape (http://www.inkscape.org/) -->

<svg
   width="140.00002mm"
   height="90.000031mm"
   viewBox="0 0 140.00002 90.000031"
   version="1.1"
   id="svg1"
   sodipodi:docname="Vine.svg"
   inkscape:version="1.4 (86a8ad7, 2024-10-11)"
   xmlns:inkscape="http://www.inkscape.org/namespaces/inkscape"
   xmlns:sodipodi="http://sodipodi.sourceforge.net/DTD/sodipodi-0.dtd"
   xmlns="http://www.w3.org/2000/svg"
   xmlns:svg="http://www.w3.org/2000/svg">
  <sodipodi:namedview
     id="namedview1"
     pagecolor="#ffffff"
     bordercolor="#000000"
     borderopacity="0.25"
     inkscape:showpageshadow="2"
     inkscape:pageopacity="0.0"
     inkscape:pagecheckerboard="0"
     inkscape:deskcolor="#d1d1d1"
     inkscape:document-units="mm"
     inkscape:zoom="0.93806818"
     inkscape:cx="132.71956"
     inkscape:cy="-221.19927"
     inkscape:window-width="2400"
     inkscape:window-height="1271"
     inkscape:window-x="3191"
     inkscape:window-y="-9"
     inkscape:window-maximized="1"
     inkscape:current-layer="layer1" />
  <defs
     id="defs1" />
  <g
     inkscape:label="Layer 1"
     inkscape:groupmode="layer"
     id="layer1"
     transform="translate(-69.99999,-206.99997)">
    <g
       id="g20"
       transform="translate(-169.6029,-268.21672)">
      <path
         inkscape:connector-curvature="0"
         id="path9445-0-7"
         d="m 271.81914,562.12716 c -1.66755,-0.2062 -2.97704,-1.09994 -3.6858,-2.51565 -0.27248,-0.54428 -0.37669,-1.00737 -0.41594,-1.84852 -0.029,-0.62208 -0.0486,-0.74759 -0.13476,-0.86293 -0.13601,-0.18218 -0.36763,-0.2948 -0.8648,-0.42053 -0.69596,-0.17601 -1.51573,-0.0906 -2.43619,0.2538 l -0.27104,0.10141 0.0445,0.23404 c 0.0245,0.12874 0.0649,0.60164 0.0897,1.05088 0.0486,0.87939 0.12665,1.18992 0.3847,1.52968 l 0.12783,0.16832 -0.14432,-0.0332 c -0.29051,-0.067 -1.04403,-0.47811 -1.36084,-0.74258 -0.17901,-0.14942 -0.4212,-0.39575 -0.5382,-0.54742 -0.11699,-0.15164 -0.22357,-0.27575 -0.23682,-0.27575 -0.0132,0 -0.16092,0.10855 -0.32814,0.24121 -1.14599,0.90914 -2.16036,1.34608 -3.12837,1.3476 -0.86787,0.002 -1.50972,-0.19109 -2.1777,-0.65286 -0.93513,-0.64646 -1.4481,-1.58053 -1.39855,-2.54668 0.0297,-0.57806 0.0697,-0.59616 0.28865,-0.13031 0.3303,0.7027 0.7651,1.23387 1.38234,1.68868 0.67601,0.49814 1.27453,0.69594 2.10586,0.69594 0.8752,0 1.60555,-0.26759 2.46044,-0.90146 l 0.38488,-0.28537 -0.16895,-0.31005 c -0.28688,-0.52651 -0.34461,-0.80707 -0.33882,-1.64666 0.003,-0.40842 0.0267,-0.83622 0.0532,-0.95066 l 0.0481,-0.20809 -0.40262,0.40895 c -0.57001,0.57898 -1.09589,0.91142 -1.73626,1.0976 -0.3737,0.10862 -1.13773,0.0813 -1.46338,-0.0524 -0.16024,-0.0656 -0.30614,-0.0856 -0.5198,-0.0709 -0.16336,0.0114 -0.57549,0.0201 -0.91582,0.0195 -0.71873,-0.002 -1.20781,-0.10697 -1.97722,-0.42746 -0.71433,-0.29756 -1.58198,-0.49967 -1.98314,-0.46197 -0.40456,0.038 -1.06731,0.213 -1.14041,0.30109 -0.17991,0.21679 0.20216,0.51764 0.65741,0.51764 0.32915,0 0.78287,0.16317 1.19786,0.43082 0.61384,0.39587 1.01255,0.80795 1.49902,1.54937 0.55384,0.84403 1.06297,1.37035 1.64598,1.70149 0.13578,0.0772 0.18798,0.13144 0.1493,0.15534 -0.10135,0.0627 -1.24065,0.10895 -1.65771,0.0675 -1.38893,-0.13844 -2.64828,-1.23591 -3.17378,-2.7658 l -0.0935,-0.27229 -0.0259,0.61882 c -0.0234,0.56057 -0.0402,0.64909 -0.17882,0.9406 -0.35822,0.75305 -1.07606,1.35391 -1.87011,1.56536 -0.33438,0.0891 -1.08771,0.0869 -1.39401,-0.004 -0.25517,-0.0758 -0.71444,-0.34084 -0.71444,-0.41228 0,-0.0228 0.0774,-0.0784 0.17191,-0.1234 0.20364,-0.0971 0.40377,-0.36053 0.68506,-0.90171 0.22397,-0.43089 0.51824,-0.76324 0.75194,-0.84927 0.0817,-0.0299 0.33365,-0.0789 0.55995,-0.10869 0.51478,-0.0675 0.92319,-0.2477 1.19901,-0.52876 0.19034,-0.19394 0.21518,-0.24672 0.23637,-0.50226 l 0.0237,-0.28554 -0.25135,0.30204 c -0.4366,0.52462 -0.74517,0.63676 -1.00036,0.36359 -0.0763,-0.0817 -0.17545,-0.14851 -0.22032,-0.14851 -0.22737,0 -0.57173,-0.31149 -0.57173,-0.51714 0,-0.22077 0.29617,-0.42344 0.6188,-0.42344 0.35484,0 0.58363,-0.19072 0.39461,-0.32895 -0.12607,-0.0921 -0.35645,-0.0823 -0.59264,0.0254 -0.45927,0.20935 -0.71576,0.57534 -0.8481,1.21 -0.15698,0.75294 -0.37063,1.02821 -1.12339,1.44736 -0.5675,0.316 -0.73334,0.45929 -1.02063,0.88173 -0.23623,0.34739 -0.50217,0.63034 -0.74411,0.79174 -0.18705,0.12476 -0.23261,0.0974 -0.0905,-0.0545 0.26172,-0.27972 0.28906,-0.39682 0.30628,-1.31233 0.0132,-0.70379 0.0353,-0.91846 0.12563,-1.22396 0.31431,-1.06283 1.00027,-1.79908 2.05883,-2.20978 0.30454,-0.11816 0.43773,-0.13766 1.11325,-0.1631 l 0.76732,-0.0289 -0.39327,-0.19802 -0.39328,-0.19802 -0.99286,-0.0248 c -0.92527,-0.0232 -1.00524,-0.0324 -1.17503,-0.13803 -0.41308,-0.25685 -0.65805,-0.66422 -0.72534,-1.20613 -0.0319,-0.25612 -0.0989,-0.47255 -0.22284,-0.71865 l -0.17733,-0.35217 0.13404,-0.0319 c 0.0738,-0.0174 0.44593,-0.0451 0.82713,-0.0613 0.61219,-0.026 0.73807,-0.0172 1.07878,0.0763 1.03948,0.2852 1.78558,0.88245 2.34293,1.87549 0.13116,0.2337 0.35644,0.58642 0.50061,0.78385 l 0.26215,0.35895 0.30744,-0.12492 c 0.35862,-0.14575 0.86804,-0.26155 1.15572,-0.26278 0.11118,-4.4e-4 0.21641,-0.0151 0.23385,-0.0325 0.0174,-0.0174 -0.0734,-0.0984 -0.20213,-0.17987 -1.06536,-0.67496 -1.6292,-1.52337 -2.0382,-3.06693 -0.33518,-1.26499 -0.49493,-2.4917 -0.53041,-4.07291 -0.0152,-0.68068 -0.0419,-1.2529 -0.0594,-1.27161 -0.0537,-0.0575 -0.5933,0.1517 -0.87809,0.34079 -0.18327,0.12168 -0.3426,0.28807 -0.49428,0.51628 -0.66029,0.99319 -1.82041,1.5042 -2.72927,1.20215 -0.13028,-0.0432 -0.4819,-0.24126 -0.78141,-0.43991 -0.66075,-0.43825 -0.80968,-0.51659 -1.17495,-0.61819 l -0.28387,-0.0789 0.14083,-0.29556 c 0.42024,-0.88199 1.21345,-1.50834 2.2324,-1.76282 0.6019,-0.15033 0.96957,-0.11162 2.38656,0.25123 0.64475,0.16511 1.18841,0.30018 1.20816,0.30018 0.07,0 -0.15779,-0.21461 -0.52683,-0.49636 -0.61952,-0.47296 -0.80201,-0.73004 -0.96548,-1.36006 -0.14186,-0.54669 -0.11873,-1.08317 0.0736,-1.70791 0.20339,-0.66076 0.24955,-1.29819 0.13084,-1.80691 -0.16824,-0.721 -0.74729,-1.62042 -1.1522,-1.78961 -0.10263,-0.0429 -0.36888,-0.0673 -0.74319,-0.0683 -1.08579,-0.003 -1.59066,-0.13232 -1.98597,-0.50931 -0.47362,-0.45168 -0.52639,-0.83727 -0.23123,-1.68956 0.29081,-0.83971 0.25271,-1.12885 -0.21382,-1.62214 -0.12614,-0.1334 -0.15466,-0.19012 -0.1037,-0.20632 0.0387,-0.0123 0.20147,-0.0616 0.3618,-0.10962 0.17484,-0.0523 0.39025,-0.1679 0.5382,-0.28872 0.39287,-0.32085 0.88272,-0.61888 1.14709,-0.69784 0.97769,-0.29207 2.16799,0.25086 2.63903,1.20372 l 0.1861,0.37646 v 0.84421 c 0,0.83599 -0.0346,1.22164 -0.12257,1.36271 -0.036,0.0578 -0.12336,-0.011 -0.41809,-0.32818 -0.35356,-0.38059 -0.7793,-0.71009 -0.91743,-0.71009 -0.0348,0 0.0123,0.0835 0.1044,0.18564 0.70709,0.78274 1.23193,1.95411 1.35302,3.01978 0.0541,0.47648 0.11507,0.42729 0.44747,-0.36123 0.97262,-2.30735 1.34747,-3.97776 1.21287,-5.40506 -0.11744,-1.24537 -0.54852,-2.1884 -1.37633,-3.01086 -0.83065,-0.82528 -1.62452,-1.2253 -3.67439,-1.85146 -0.10404,-0.0318 -0.0442,-0.0625 0.37548,-0.19302 0.27458,-0.0853 0.57008,-0.16937 0.65667,-0.18669 l 0.15744,-0.0315 -0.38495,-0.40208 c -0.4355,-0.45488 -0.81539,-1.00356 -0.99821,-1.44167 -0.27426,-0.65731 -0.16819,-1.82015 0.22766,-2.4956 0.15457,-0.26376 0.18106,-0.22662 0.23066,0.32338 0.066,0.73218 0.4523,1.74705 0.90865,2.38723 0.3791,0.53183 0.97789,1.11775 1.71184,1.67503 0.37711,0.28633 0.84763,0.68049 1.0456,0.87594 0.80118,0.79082 1.44775,1.86832 1.72669,2.87753 0.36314,1.3137 0.0873,3.1049 -0.95968,6.23095 -0.24499,0.73153 -0.43494,1.34051 -0.42212,1.35334 0.0517,0.0518 0.5845,-0.0991 0.92267,-0.26114 0.30926,-0.1482 0.85714,-0.48927 1.28422,-0.79947 0.0962,-0.0698 0.11559,-0.0727 0.0936,-0.0138 -0.0153,0.0409 -0.10232,0.27128 -0.19347,0.5121 l -0.16569,0.43782 0.0841,0.30473 c 0.0463,0.16764 0.14168,0.49413 0.212,0.72554 0.10034,0.33011 0.12136,0.47936 0.0976,0.69261 -0.0654,0.58717 -0.42298,1.08586 -1.0086,1.40686 -0.67599,0.37056 -1.02703,0.78613 -1.15054,1.36205 -0.0467,0.21775 -0.04,0.2731 0.059,0.48374 l 0.11168,0.23788 0.0306,-0.34985 c 0.0365,-0.41937 0.16915,-0.68276 0.35473,-0.70471 0.0695,-0.008 0.23632,0.0269 0.37069,0.0779 0.23423,0.089 0.2524,0.0893 0.44049,0.007 0.22125,-0.0976 0.48089,-0.11724 0.61343,-0.0463 0.15127,0.0808 0.22018,0.31525 0.15279,0.51948 -0.0809,0.24524 -0.38901,0.61266 -0.68671,0.81903 -0.13749,0.0953 -0.25102,0.19893 -0.2523,0.23031 -0.003,0.0845 0.27451,0.16589 0.562,0.16464 0.45826,-0.002 0.87479,-0.27049 1.09024,-0.70285 0.21468,-0.4308 0.16307,-0.79619 -0.24095,-1.70598 -0.0989,-0.22273 -0.19251,-0.51235 -0.20801,-0.64355 -0.0591,-0.49945 0.19389,-0.96644 0.74615,-1.37812 0.76421,-0.56968 1.11043,-1.10698 1.21163,-1.88023 l 0.0325,-0.24753 0.25785,0.34654 c 0.2933,0.39409 0.5675,0.89332 0.65685,1.19582 l 0.0607,0.20572 0.25612,-0.2086 c 0.75962,-0.61874 1.67273,-0.97017 2.52072,-0.97017 0.9124,0 2.13877,0.78754 2.50806,1.61064 0.32813,0.7313 0.8715,1.30016 1.55413,1.62697 l 0.34203,0.16377 -0.51529,0.28979 c -0.92067,0.51773 -1.2403,0.63621 -1.77251,0.65704 -1.42562,0.0559 -2.91551,-0.73783 -3.43816,-1.83151 -0.20063,-0.41983 -0.2809,-0.74874 -0.1741,-0.71342 1.0637,0.35175 1.17235,0.37489 1.75845,0.37489 h 0.57892 l -0.36761,-0.27775 c -0.51979,-0.39274 -1.18637,-0.71231 -1.48583,-0.71231 -0.46371,0 -1.05174,0.26281 -1.38176,0.61757 -0.11883,0.12774 -0.12396,0.15992 -0.12905,0.80969 -0.007,0.80344 -0.0982,1.17981 -0.45214,1.85186 -0.3031,0.57548 -0.66982,1.00641 -1.18641,1.39411 -0.43866,0.32922 -1.24921,0.77697 -1.80318,0.99606 -0.17343,0.0685 -0.24849,0.11333 -0.16681,0.0994 0.0817,-0.0141 0.36015,-0.0634 0.61881,-0.11 0.31773,-0.0571 0.74331,-0.0855 1.31187,-0.0872 1.17411,-0.003 1.47258,0.0952 2.39569,0.79056 0.84065,0.63325 1.3849,0.8086 2.29486,0.73938 0.23825,-0.0182 0.43317,-0.0217 0.43317,-0.008 0,0.0457 -0.86031,0.66409 -1.2607,0.9061 -0.52574,0.31783 -1.15275,0.58299 -1.62778,0.68843 -0.59103,0.13115 -1.35945,0.0875 -1.92447,-0.10927 -0.77254,-0.26911 -1.65265,-0.85261 -2.58703,-1.71525 l -0.47125,-0.43502 1.4e-4,0.65941 c 6.9e-4,2.1972 0.35115,4.29183 0.87556,5.23287 0.41982,0.75335 1.31388,1.56538 2.21826,2.01482 0.73082,0.36314 1.3368,0.51573 2.19058,0.5516 0.36079,0.0152 0.65596,0.0132 0.65596,-0.004 0,-0.0174 -0.14338,-0.28792 -0.31862,-0.60109 l -0.3186,-0.56927 h 0.29279 c 0.18101,0 0.43359,-0.0473 0.6615,-0.12374 0.7181,-0.24108 1.09011,-0.15567 1.84347,0.42324 0.65945,0.50676 1.06347,0.60026 1.48039,0.3426 l 0.18374,-0.11355 -0.17661,-0.0907 c -0.2162,-0.1109 -0.33128,-0.26686 -0.33128,-0.44895 0,-0.10522 -0.0237,-0.1375 -0.1006,-0.1375 -0.0554,0 -0.1793,-0.0329 -0.27549,-0.0731 -0.15557,-0.0651 -0.17318,-0.0908 -0.15931,-0.23357 0.0113,-0.1153 0.0597,-0.1901 0.17236,-0.26573 0.15494,-0.10402 0.16069,-0.10423 0.49714,-0.0188 0.48459,0.12308 0.90549,0.17047 0.90549,0.10199 0,-0.0837 -0.34571,-0.44842 -0.50123,-0.52883 -0.30239,-0.15636 -0.6621,-0.0608 -1.27861,0.34006 -0.3001,0.19508 -0.34065,0.20753 -0.66831,0.20537 -0.28757,-0.002 -0.4439,-0.0387 -0.88989,-0.21038 -0.75964,-0.29216 -1.2001,-0.27254 -1.65403,0.0737 l -0.17218,0.13133 0.0339,-0.16944 c 0.10994,-0.54992 1.0948,-1.51818 1.94876,-1.91597 0.25166,-0.11721 0.34448,-0.13277 0.78066,-0.13076 0.41662,0.002 0.54897,0.0234 0.8355,0.13551 0.62035,0.2427 1.1324,0.68697 1.54559,1.34099 0.14806,0.23434 0.24855,0.28477 0.30003,0.15061 0.0772,-0.20112 -0.22246,-0.6049 -0.8563,-1.15396 -0.43499,-0.37678 -0.77593,-0.83502 -0.86364,-1.16075 -0.0433,-0.16116 -0.0369,-0.32355 0.0308,-0.77168 0.0592,-0.39208 0.0771,-0.71297 0.0577,-1.03786 -0.026,-0.4336 -0.0457,-0.50535 -0.25507,-0.91895 -0.13332,-0.26348 -0.20472,-0.45604 -0.17303,-0.46658 0.0613,-0.0205 0.25983,0.13127 0.95491,0.73002 0.56985,0.49086 0.91795,0.88786 1.34946,1.5391 l 0.31214,0.47106 0.0774,0.60173 c 0.11358,0.88224 0.0279,1.53866 -0.33045,2.52872 l -0.15351,0.4243 0.14356,0.10126 c 0.26108,0.18415 1.06428,0.99207 1.30597,1.31363 0.13072,0.1739 0.34396,0.49692 0.47389,0.71781 0.12994,0.22088 0.24124,0.40837 0.24735,0.41666 0.007,0.008 0.2399,-0.0647 0.51955,-0.16196 0.63552,-0.22121 1.25087,-0.32293 1.95516,-0.32318 0.59003,-1.4e-4 0.95761,0.0719 1.40891,0.27633 0.6166,0.27934 0.91431,0.57614 1.58468,1.5799 0.68041,1.01876 1.58712,1.63229 2.90996,1.96898 0.38204,0.0973 0.5549,0.10956 1.52016,0.1081 0.99386,-0.002 1.14321,-0.0133 1.70789,-0.13532 0.34036,-0.0735 0.77092,-0.18003 0.95679,-0.23675 l 0.33798,-0.1031 0.2187,-0.45442 c 0.32431,-0.67396 0.42621,-1.11966 0.42644,-1.86531 2.3e-4,-0.97713 -0.23778,-1.7409 -0.78174,-2.50798 -0.9,-1.26911 -2.67013,-1.6895 -3.85971,-0.91666 -0.7602,0.49387 -1.15924,1.30655 -1.01117,2.0592 0.17557,0.89233 0.84007,1.54471 1.63106,1.6013 0.41656,0.0299 0.76973,-0.10855 1.01823,-0.39887 0.36955,-0.43174 0.41048,-0.91247 0.10712,-1.25847 l -0.15753,-0.17969 -0.0308,0.2822 c -0.0341,0.31326 -0.12878,0.4538 -0.37609,0.55847 -0.22098,0.0936 -0.39317,0.0845 -0.63729,-0.0338 -0.27377,-0.13254 -0.386,-0.35927 -0.35613,-0.71949 0.0465,-0.56199 0.45776,-0.89036 1.06826,-0.85318 0.40706,0.0249 0.63417,0.13003 0.92624,0.42917 0.3298,0.33775 0.4451,0.60249 0.4451,1.02191 0,0.42606 -0.12283,0.70318 -0.45919,1.03605 -0.88249,0.87335 -2.46896,0.80189 -3.31386,-0.14922 -0.53287,-0.59988 -0.75637,-1.13143 -0.75637,-1.79889 0,-0.67445 0.27058,-1.30649 0.78393,-1.83111 0.87229,-0.89146 2.05777,-1.17516 3.42749,-0.82022 1.44411,0.37421 2.6057,1.59868 3.02445,3.18819 0.20168,0.76551 0.17663,1.93414 -0.0614,2.86485 -0.0524,0.2053 -0.0872,0.38151 -0.0771,0.39162 0.0355,0.0357 0.83881,-0.28169 1.15987,-0.45818 1.19977,-0.65947 1.93817,-1.72707 1.94007,-2.80502 6.7e-4,-0.37708 -0.10158,-0.73114 -0.27929,-0.96707 -0.15008,-0.19923 -0.11924,-0.20183 0.15514,-0.0131 0.90078,0.61976 0.94973,1.63646 0.1303,2.70689 l -0.19576,0.25573 0.17516,-0.0732 c 0.0964,-0.0402 0.32075,-0.0732 0.49867,-0.0732 0.2595,0 0.38318,0.0294 0.62536,0.1487 0.28994,0.14283 0.67125,0.46997 0.61424,0.52697 -0.015,0.0151 -0.19135,-0.018 -0.39166,-0.0735 -0.72356,-0.20051 -1.01417,-0.12523 -2.13712,0.55357 -1.02016,0.61665 -1.61185,0.86894 -2.64388,1.1273 -0.16056,0.0402 -0.24571,0.10421 -0.38033,0.28597 -0.61229,0.82677 -1.73492,1.60826 -2.81825,1.96191 -0.80131,0.26156 -1.83556,0.37049 -2.60934,0.2748 z m 1.83166,-0.82161 c 0.47686,-0.0968 1.15345,-0.35058 1.50968,-0.56627 0.32007,-0.19378 0.88397,-0.6385 0.85118,-0.6713 -0.0122,-0.0121 -0.24193,0.0223 -0.51075,0.0765 -0.26879,0.0542 -0.76213,0.1232 -1.09626,0.15337 -2.16931,0.19584 -4.36111,-0.6931 -5.60528,-2.27333 l -0.32178,-0.40868 -0.039,0.23152 c -0.0253,0.15049 -0.0138,0.37728 0.0328,0.648 0.25266,1.46414 1.68495,2.63873 3.52096,2.88748 0.42581,0.0578 1.16255,0.0234 1.6584,-0.0773 z"
         style="fill:#000000;stroke-width:0.0956826;stroke-miterlimit:4;stroke-dasharray:none" />
      <path
         style="fill:#000000;stroke-width:0.0956826;stroke-miterlimit:4;stroke-dasharray:none"
         d="m 347.38665,478.30629 c 1.66756,0.20619 2.97704,1.09994 3.6858,2.51565 0.27249,0.54428 0.37669,1.00736 0.41594,1.84852 0.029,0.62207 0.0486,0.74758 0.13477,0.86292 0.136,0.18218 0.36762,0.2948 0.8648,0.42053 0.69596,0.176 1.51573,0.0906 2.43618,-0.25379 l 0.27104,-0.10143 -0.0445,-0.23403 c -0.0246,-0.12875 -0.0649,-0.60164 -0.0897,-1.0509 -0.0485,-0.87936 -0.12665,-1.18991 -0.38469,-1.52968 l -0.12784,-0.1683 0.14432,0.0332 c 0.29051,0.067 1.04403,0.47811 1.36085,0.74256 0.179,0.14942 0.42119,0.39577 0.53819,0.54742 0.11698,0.15165 0.22356,0.27577 0.23682,0.27577 0.0132,0 0.16092,-0.10855 0.32814,-0.24122 1.14599,-0.90914 2.16036,-1.34609 3.12837,-1.34759 0.86787,-0.002 1.50972,0.19108 2.1777,0.65285 0.93513,0.64645 1.4481,1.58054 1.39855,2.54667 -0.0297,0.57807 -0.0697,0.59617 -0.28865,0.13031 -0.3303,-0.70269 -0.7651,-1.23385 -1.38235,-1.68867 -0.676,-0.49814 -1.27452,-0.69593 -2.10585,-0.69593 -0.87521,0 -1.60555,0.26759 -2.46045,0.90146 l -0.38487,0.28536 0.16895,0.31005 c 0.28688,0.52651 0.34461,0.80707 0.33883,1.64667 -0.003,0.40842 -0.0267,0.83621 -0.0532,0.95066 l -0.0481,0.20808 0.40262,-0.40895 c 0.57001,-0.57898 1.09588,-0.91142 1.73626,-1.09759 0.3737,-0.10864 1.13773,-0.0813 1.46338,0.0524 0.16025,0.0656 0.30613,0.0856 0.51979,0.0709 0.16336,-0.0114 0.5755,-0.0201 0.91583,-0.0195 0.71873,0.002 1.20781,0.10697 1.97722,0.42747 0.71433,0.29755 1.58198,0.49966 1.98314,0.46195 0.40457,-0.038 1.06731,-0.213 1.14041,-0.30106 0.1799,-0.21681 -0.20216,-0.51765 -0.6574,-0.51765 -0.32916,0 -0.78288,-0.16318 -1.19786,-0.43083 -0.61386,-0.39585 -1.01256,-0.80794 -1.49903,-1.54937 -0.55383,-0.84402 -1.06297,-1.37034 -1.64597,-1.70149 -0.13579,-0.0772 -0.18798,-0.13144 -0.14931,-0.15534 0.10135,-0.0627 1.24065,-0.10894 1.65771,-0.0675 1.38893,0.13845 2.64828,1.23591 3.17378,2.76581 l 0.0935,0.27228 0.0258,-0.61882 c 0.0234,-0.56057 0.0402,-0.64908 0.17882,-0.9406 0.35823,-0.75305 1.07607,-1.35391 1.87012,-1.56536 0.33437,-0.0891 1.08771,-0.0869 1.39401,0.004 0.25516,0.0758 0.71443,0.34084 0.71443,0.4123 0,0.0228 -0.0774,0.0784 -0.1719,0.12339 -0.20364,0.0971 -0.40377,0.36053 -0.68506,0.90171 -0.22398,0.43089 -0.51824,0.76324 -0.75194,0.84927 -0.0817,0.0299 -0.33366,0.0789 -0.55996,0.1087 -0.51478,0.0675 -0.92318,0.24768 -1.199,0.52876 -0.19035,0.19393 -0.21518,0.24672 -0.23638,0.50225 l -0.0236,0.28554 0.25135,-0.30204 c 0.4366,-0.52463 0.74516,-0.63677 1.00036,-0.36358 0.0763,0.0817 0.17544,0.1485 0.22032,0.1485 0.22737,0 0.57173,0.31148 0.57173,0.51714 0,0.22077 -0.29618,0.42346 -0.6188,0.42346 -0.35485,0 -0.58363,0.19071 -0.39461,0.32893 0.12607,0.0922 0.35644,0.0823 0.59264,-0.0254 0.45926,-0.20936 0.71576,-0.57534 0.84809,-1.21001 0.15698,-0.75292 0.37063,-1.02819 1.1234,-1.44737 0.56749,-0.31599 0.73334,-0.45928 1.02062,-0.88172 0.23624,-0.34739 0.50218,-0.63035 0.74411,-0.79175 0.18706,-0.12476 0.23261,-0.0974 0.0905,0.0545 -0.26172,0.27974 -0.28905,0.39683 -0.30628,1.31234 -0.0132,0.70379 -0.0353,0.91846 -0.12563,1.22396 -0.3143,1.06282 -1.00026,1.79908 -2.05883,2.20978 -0.30454,0.11816 -0.43774,0.13767 -1.11325,0.1631 l -0.76731,0.0289 0.39326,0.19801 0.39328,0.19803 0.99287,0.0248 c 0.92527,0.0231 1.00524,0.0324 1.17502,0.13803 0.41308,0.25685 0.65805,0.66423 0.72534,1.20613 0.0319,0.25613 0.0989,0.47254 0.22284,0.71866 l 0.17733,0.35216 -0.13403,0.0319 c -0.0738,0.0174 -0.44594,0.0451 -0.82714,0.0613 -0.61219,0.026 -0.73807,0.0172 -1.07877,-0.0763 -1.03949,-0.28521 -1.78558,-0.88245 -2.34293,-1.87549 -0.13117,-0.23369 -0.35645,-0.58643 -0.50062,-0.78384 l -0.26215,-0.35895 -0.30743,0.12491 c -0.35863,0.14574 -0.86805,0.26156 -1.15573,0.26277 -0.11117,4.4e-4 -0.21641,0.0151 -0.23385,0.0325 -0.0174,0.0174 0.0734,0.0984 0.20214,0.17987 1.06535,0.67496 1.62919,1.52337 2.03819,3.06692 0.33518,1.26499 0.49494,2.49171 0.53041,4.07291 0.0152,0.68069 0.0419,1.25292 0.0594,1.27162 0.0537,0.0575 0.5933,-0.15169 0.87809,-0.3408 0.18327,-0.12167 0.3426,-0.28807 0.49429,-0.51627 0.66029,-0.9932 1.8204,-1.50421 2.72926,-1.20216 0.13028,0.0433 0.4819,0.24128 0.78141,0.43992 0.66076,0.43825 0.80969,0.51659 1.17495,0.61819 l 0.28387,0.0789 -0.14082,0.29556 c -0.42025,0.88198 -1.21346,1.50834 -2.2324,1.76283 -0.6019,0.15032 -0.96957,0.1116 -2.38656,-0.25124 -0.64475,-0.16512 -1.18842,-0.30018 -1.20816,-0.30018 -0.07,0 0.15779,0.21461 0.52682,0.49635 0.61953,0.47298 0.80202,0.73005 0.96549,1.36006 0.14185,0.5467 0.11873,1.08318 -0.0736,1.70792 -0.2034,0.66075 -0.24954,1.29819 -0.13084,1.80691 0.16824,0.72099 0.74729,1.62043 1.1522,1.78961 0.10263,0.0429 0.36887,0.0673 0.74319,0.0683 1.08579,0.003 1.59066,0.13232 1.98597,0.50932 0.47361,0.45169 0.52639,0.83727 0.23123,1.68956 -0.29082,0.83972 -0.25272,1.12886 0.21381,1.62214 0.12615,0.1334 0.15467,0.19011 0.1037,0.20632 -0.0386,0.0123 -0.20147,0.0616 -0.36179,0.10962 -0.17484,0.0523 -0.39024,0.1679 -0.53821,0.28872 -0.39287,0.32085 -0.88272,0.61888 -1.14708,0.69784 -0.97769,0.29207 -2.16799,-0.25085 -2.63903,-1.20372 l -0.1861,-0.37645 v -0.84423 c 0,-0.83599 0.0346,-1.22162 0.12257,-1.3627 0.036,-0.0578 0.12336,0.011 0.41808,0.32817 0.35357,0.3806 0.77931,0.71009 0.91744,0.71009 0.0347,0 -0.0122,-0.0835 -0.1044,-0.18563 -0.7071,-0.78274 -1.23193,-1.95411 -1.35302,-3.01977 -0.0541,-0.47649 -0.11507,-0.4273 -0.44747,0.36123 -0.97262,2.30734 -1.34747,3.97774 -1.21287,5.40505 0.11744,1.24537 0.54852,2.1884 1.37632,3.01086 0.83066,0.82528 1.62453,1.2253 3.6744,1.85147 0.10403,0.0318 0.0442,0.0625 -0.37548,0.193 -0.27458,0.0853 -0.57009,0.16939 -0.65667,0.1867 l -0.15745,0.0315 0.38496,0.40208 c 0.43549,0.45488 0.81539,1.00354 0.9982,1.44166 0.27427,0.65732 0.1682,1.82015 -0.22765,2.49561 -0.15457,0.26376 -0.18107,0.2266 -0.23067,-0.32339 -0.066,-0.73217 -0.4523,-1.74704 -0.90864,-2.38723 -0.3791,-0.53184 -0.97789,-1.11775 -1.71185,-1.67503 -0.3771,-0.28633 -0.84762,-0.6805 -1.0456,-0.87593 -0.80117,-0.79083 -1.44774,-1.86833 -1.72668,-2.87754 -0.36314,-1.31369 -0.0873,-3.1049 0.95968,-6.23095 0.24499,-0.73154 0.43494,-1.34051 0.42212,-1.35333 -0.0518,-0.0518 -0.5845,0.0991 -0.92267,0.26114 -0.30927,0.1482 -0.85714,0.48927 -1.28422,0.79945 -0.0962,0.0698 -0.11559,0.0727 -0.0936,0.0138 0.0153,-0.0409 0.10232,-0.27128 0.19347,-0.51209 l 0.16569,-0.43782 -0.0841,-0.30473 c -0.0462,-0.16763 -0.14167,-0.49412 -0.212,-0.72555 -0.10034,-0.3301 -0.12135,-0.47936 -0.0976,-0.69259 0.0654,-0.58718 0.42297,-1.08587 1.0086,-1.40687 0.67598,-0.37056 1.02703,-0.78613 1.15054,-1.36206 0.0467,-0.21774 0.04,-0.27309 -0.0589,-0.48373 l -0.11168,-0.23788 -0.0306,0.34985 c -0.0365,0.41937 -0.16916,0.68276 -0.35473,0.70472 -0.0696,0.008 -0.23633,-0.0269 -0.3707,-0.0779 -0.23424,-0.089 -0.2524,-0.0893 -0.44049,-0.007 -0.22125,0.0976 -0.48088,0.11724 -0.61343,0.0463 -0.15126,-0.0808 -0.22017,-0.31526 -0.15279,-0.51948 0.081,-0.24526 0.38901,-0.61267 0.68672,-0.81904 0.13748,-0.0953 0.25101,-0.19893 0.25228,-0.2303 0.003,-0.0845 -0.2745,-0.1659 -0.56199,-0.16465 -0.45825,0.002 -0.87478,0.2705 -1.09023,0.70286 -0.21469,0.43079 -0.16308,0.79618 0.24094,1.70596 0.0989,0.22273 0.19252,0.51236 0.20801,0.64356 0.059,0.49945 -0.19388,0.96644 -0.74614,1.37812 -0.76422,0.56969 -1.11044,1.10697 -1.21164,1.88023 l -0.0325,0.24752 -0.25785,-0.34653 c -0.2933,-0.39409 -0.5675,-0.89332 -0.65686,-1.19581 l -0.0608,-0.20572 -0.25611,0.20859 c -0.75963,0.61874 -1.67273,0.97017 -2.52073,0.97017 -0.9124,0 -2.13877,-0.78754 -2.50806,-1.61064 -0.32813,-0.7313 -0.87149,-1.30017 -1.55413,-1.62697 l -0.34203,-0.16376 0.5153,-0.2898 c 0.92067,-0.51773 1.24029,-0.63621 1.77251,-0.65705 1.42562,-0.0559 2.9155,0.73785 3.43815,1.83153 0.20064,0.41983 0.28089,0.74873 0.1741,0.71342 -1.0637,-0.35176 -1.17235,-0.3749 -1.75845,-0.3749 h -0.57891 l 0.3676,0.27774 c 0.5198,0.39276 1.18637,0.71233 1.48584,0.71233 0.46371,0 1.05173,-0.26282 1.38176,-0.61757 0.11883,-0.12774 0.12396,-0.15993 0.12904,-0.80971 0.007,-0.80343 0.0982,-1.1798 0.45214,-1.85185 0.3031,-0.57547 0.66982,-1.00642 1.18641,-1.39411 0.43866,-0.32923 1.24922,-0.77697 1.80318,-0.99605 0.17343,-0.0685 0.24849,-0.11334 0.16681,-0.0994 -0.0817,0.0141 -0.36015,0.0634 -0.61881,0.11001 -0.31772,0.0571 -0.74331,0.0855 -1.31187,0.0872 -1.17411,0.003 -1.47257,-0.0952 -2.39568,-0.79057 -0.84066,-0.63323 -1.3849,-0.80859 -2.29486,-0.73937 -0.23826,0.0182 -0.43318,0.0217 -0.43318,0.008 0,-0.0457 0.86031,-0.66408 1.2607,-0.90609 0.52574,-0.31783 1.15275,-0.58301 1.62778,-0.68844 0.59104,-0.13115 1.35946,-0.0876 1.92447,0.10927 0.77254,0.26911 1.65265,0.85262 2.58703,1.71524 l 0.47125,0.43503 -1.4e-4,-0.65941 c -6.9e-4,-2.19719 -0.35115,-4.29182 -0.87555,-5.23287 -0.41983,-0.75334 -1.31389,-1.56538 -2.21827,-2.01482 -0.73082,-0.36313 -1.3368,-0.51573 -2.19058,-0.5516 -0.36079,-0.0152 -0.65596,-0.0132 -0.65596,0.004 0,0.0174 0.14338,0.28792 0.31863,0.60108 l 0.31859,0.56928 h -0.29279 c -0.18101,0 -0.43358,0.0473 -0.66149,0.12374 -0.71811,0.24109 -1.09011,0.15567 -1.84348,-0.42324 -0.65945,-0.50676 -1.06347,-0.60026 -1.48038,-0.34259 l -0.18374,0.11354 0.1766,0.0907 c 0.21621,0.11092 0.33128,0.26686 0.33128,0.44896 0,0.10522 0.0236,0.13749 0.1006,0.13749 0.0554,0 0.1793,0.0329 0.27549,0.0731 0.15557,0.0651 0.17318,0.0908 0.15932,0.23357 -0.0113,0.1153 -0.0597,0.19011 -0.17237,0.26573 -0.15494,0.10403 -0.16069,0.10424 -0.49714,0.0188 -0.48458,-0.12307 -0.90549,-0.17047 -0.90549,-0.10199 0,0.0838 0.34571,0.44841 0.50124,0.52882 0.30238,0.15638 0.66209,0.0608 1.2786,-0.34005 0.3001,-0.19508 0.34065,-0.20754 0.66832,-0.20537 0.28756,0.002 0.4439,0.0387 0.88988,0.21038 0.75965,0.29217 1.2001,0.27254 1.65403,-0.0737 l 0.17219,-0.13134 -0.0339,0.16945 c -0.10995,0.5499 -1.0948,1.51817 -1.94877,1.91595 -0.25165,0.11722 -0.34448,0.13277 -0.78065,0.13077 -0.41663,-0.002 -0.54898,-0.0233 -0.83551,-0.13551 -0.62035,-0.2427 -1.1324,-0.68696 -1.54559,-1.34099 -0.14806,-0.23434 -0.24855,-0.28477 -0.30004,-0.15062 -0.0772,0.20113 0.22247,0.60491 0.85631,1.15396 0.43499,0.37678 0.77592,0.83503 0.86364,1.16077 0.0433,0.16115 0.0369,0.32355 -0.0308,0.77167 -0.0592,0.39208 -0.0771,0.71297 -0.0577,1.03786 0.0259,0.43359 0.0457,0.50535 0.25506,0.91894 0.13333,0.26348 0.20473,0.45605 0.17303,0.46659 -0.0613,0.0205 -0.25982,-0.13128 -0.95491,-0.73002 -0.56985,-0.49086 -0.91794,-0.88786 -1.34946,-1.5391 l -0.31213,-0.47107 -0.0774,-0.60172 c -0.11358,-0.88224 -0.0279,-1.53865 0.33045,-2.52871 l 0.15352,-0.4243 -0.14356,-0.10127 c -0.26109,-0.18415 -1.06429,-0.99208 -1.30597,-1.31363 -0.13072,-0.1739 -0.34397,-0.49691 -0.47389,-0.71781 -0.12995,-0.22088 -0.24124,-0.40837 -0.24735,-0.41667 -0.007,-0.008 -0.2399,0.0647 -0.51956,0.16197 -0.63552,0.2212 -1.25086,0.32293 -1.95515,0.32318 -0.59004,1.4e-4 -0.95761,-0.0718 -1.40892,-0.27633 -0.61659,-0.27933 -0.91431,-0.57614 -1.58468,-1.5799 -0.68041,-1.01876 -1.58711,-1.63228 -2.90995,-1.96898 -0.38204,-0.0973 -0.5549,-0.10955 -1.52017,-0.1081 -0.99385,0.002 -1.1432,0.0133 -1.70789,0.13532 -0.34035,0.0735 -0.77091,0.18004 -0.95678,0.23675 l -0.33798,0.1031 -0.2187,0.45442 c -0.32432,0.67396 -0.42621,1.11967 -0.42644,1.86532 -2.3e-4,0.97712 0.23778,1.74089 0.78174,2.50797 0.9,1.26912 2.67012,1.68951 3.85971,0.91666 0.7602,-0.49387 1.15924,-1.30654 1.01116,-2.0592 -0.17556,-0.89232 -0.84006,-1.54471 -1.63105,-1.6013 -0.41657,-0.0299 -0.76973,0.10855 -1.01824,0.39888 -0.36955,0.43172 -0.41048,0.91246 -0.10712,1.25846 l 0.15754,0.17969 0.0308,-0.2822 c 0.0341,-0.31326 0.12879,-0.45379 0.37609,-0.55847 0.22098,-0.0936 0.39318,-0.0845 0.6373,0.0338 0.27377,0.13254 0.386,0.35927 0.35613,0.71949 -0.0465,0.56199 -0.45776,0.89037 -1.06826,0.85318 -0.40706,-0.0249 -0.63416,-0.13002 -0.92624,-0.42918 -0.3298,-0.33775 -0.4451,-0.60247 -0.4451,-1.0219 0,-0.42606 0.12283,-0.70319 0.45919,-1.03606 0.88249,-0.87334 2.46896,-0.80188 3.31385,0.14923 0.53289,0.59988 0.75638,1.13144 0.75638,1.79889 0,0.67445 -0.27058,1.3065 -0.78393,1.83111 -0.8723,0.89147 -2.05776,1.17516 -3.42749,0.82022 -1.44411,-0.37421 -2.60569,-1.59868 -3.02446,-3.18819 -0.20167,-0.7655 -0.17662,-1.93414 0.0614,-2.86486 0.0524,-0.20529 0.0872,-0.3815 0.0771,-0.39162 -0.0355,-0.0357 -0.83881,0.2817 -1.15987,0.45819 -1.19977,0.65946 -1.93817,1.72707 -1.94007,2.80502 -6.7e-4,0.37709 0.10158,0.73115 0.27929,0.96707 0.15008,0.19923 0.11923,0.20183 -0.15515,0.0131 -0.90077,-0.61976 -0.94972,-1.63647 -0.1303,-2.70689 l 0.19577,-0.25574 -0.17517,0.0732 c -0.0964,0.0402 -0.32074,0.0732 -0.49867,0.0732 -0.2595,0 -0.38318,-0.0294 -0.62535,-0.14871 -0.28994,-0.14282 -0.67125,-0.46998 -0.61424,-0.52697 0.015,-0.0151 0.19135,0.018 0.39166,0.0735 0.72356,0.20051 1.01416,0.12523 2.13711,-0.55357 1.02017,-0.61666 1.61186,-0.86894 2.64389,-1.12729 0.16056,-0.0402 0.24571,-0.10422 0.38032,-0.28597 0.6123,-0.82678 1.73492,-1.60827 2.81826,-1.96192 0.8013,-0.26156 1.83555,-0.37049 2.60934,-0.2748 z m -1.83166,0.8216 c -0.47685,0.0968 -1.15345,0.35058 -1.50967,0.56626 -0.32008,0.19378 -0.88397,0.6385 -0.85118,0.6713 0.0122,0.0121 0.24192,-0.0223 0.51074,-0.0765 0.26879,-0.0542 0.76213,-0.12319 1.09627,-0.15336 2.1693,-0.19583 4.3611,0.69311 5.60528,2.27334 l 0.32177,0.40868 0.039,-0.23153 c 0.0254,-0.15049 0.0139,-0.37727 -0.0328,-0.64799 -0.25267,-1.46414 -1.68495,-2.63873 -3.52096,-2.88749 -0.42581,-0.0578 -1.16256,-0.0234 -1.6584,0.0773 z"
         id="path9447-9-24"
         inkscape:connector-curvature="0" />
    </g>
  </g>
</svg>
